<?xml version="1.0" encoding="utf-8"?>
<!-- Generator: Adobe Illustrator 22.1.0, SVG Export Plug-In . SVG Version: 6.00 Build 0)  -->
<svg version="1.1" id="Layer_1" xmlns="http://www.w3.org/2000/svg" xmlns:xlink="http://www.w3.org/1999/xlink" x="0px" y="0px"
	 viewBox="0 0 512 512" style="enable-background:new 0 0 512 512;" xml:space="preserve">
<style type="text/css">
	.st0{fill:#FFFFFF;}
</style>
<path class="st0" d="M165.5,137.5c2.4,0,4.8-0.9,6.8-2.6c0.1-0.1,0.3-0.3,0.4-0.4c3.9-3.9,3.9-10.2,0-14.1s-10.2-3.9-14.1,0
	c0,0,0,0-0.1,0c-3.8,3.8-4,9.9-0.4,13.9C160.1,136.4,162.8,137.5,165.5,137.5z"/>
<path class="st0" d="M256,80c-21.8,0-43.6,5.2-62.9,15.2c-4.9,2.5-6.9,8.5-4.3,13.5s8.5,6.9,13.5,4.3c16.8-8.6,34.9-13,53.8-13
	c65.1,0,118,52.9,118,118c0,24-7.2,47.1-20.7,66.8c-2.1,3.1-4.3,6.2-6.5,9.3c-22.7,32.7-48.1,69.3-52.2,105.9h-77.2
	c-4.1-36.5-29.5-73.2-52.2-105.9c-2.2-3.1-4.3-6.3-6.5-9.3C145.2,265.1,138,242,138,218c0-22,6.1-43.4,17.6-62
	c2.9-4.7,1.5-10.9-3.2-13.8c-4.7-2.9-10.9-1.5-13.8,3.2C125.1,167.2,118,192.3,118,218c0,28.1,8.4,55.1,24.2,78.1
	c2.1,3.1,4.3,6.2,6.5,9.4c21.4,30.8,45.4,65.5,48.8,97.1c-6.9,3.7-11.6,11-11.6,19.4v36c0,8.5,4.9,15.9,12,19.6v8.4
	c0,14.3,11.7,26,26,26h64c14.3,0,26-11.7,26-26v-8.4c7.1-3.6,12-11.1,12-19.6v-36c0-8.4-4.7-15.7-11.6-19.4
	c3.4-31.6,27.4-66.3,48.8-97.1c2.2-3.2,4.4-6.3,6.5-9.4c15.9-23.1,24.2-50.1,24.2-78.1C394,141.9,332.1,80,256,80z M306,422v8h-31
	c-5.5,0-10,4.5-10,10c0,5.5,4.5,10,10,10h31v8c0,1.1-0.9,2-2,2h-96c-1.1,0-2-0.9-2-2v-36c0-1.1,0.9-2,2-2h96
	C305.1,420,306,420.9,306,422z M288,492h-64c-3.3,0-6-2.7-6-6v-6h76v6C294,489.3,291.3,492,288,492z"/>
<path class="st0" d="M256,51.7c5.5,0,10-4.5,10-10V10c0-5.5-4.5-10-10-10c-5.5,0-10,4.5-10,10v31.7C246,47.2,250.5,51.7,256,51.7z"
	/>
<path class="st0" d="M124.3,100.4c2,1.9,4.5,2.9,7.1,2.9s5.1-1,7.1-2.9c3.9-3.9,3.9-10.2,0-14.1L116,63.9c-3.9-3.9-10.2-3.9-14.1,0
	c-3.9,3.9-3.9,10.2,0,14.1L124.3,100.4z"/>
<path class="st0" d="M79.7,208H48c-5.5,0-10,4.5-10,10c0,5.5,4.5,10,10,10h31.7c5.5,0,10-4.5,10-10C89.7,212.5,85.2,208,79.7,208z"
	/>
<path class="st0" d="M124.3,335.6L101.9,358c-3.9,3.9-3.9,10.2,0,14.1c2,2,4.5,2.9,7.1,2.9s5.1-1,7.1-2.9l22.4-22.4
	c3.9-3.9,3.9-10.2,0-14.1C134.5,331.7,128.2,331.7,124.3,335.6z"/>
<path class="st0" d="M387.8,335.6c-3.9-3.9-10.2-3.9-14.1,0c-3.9,3.9-3.9,10.2,0,14.1l22.4,22.4c2,2,4.5,2.9,7.1,2.9s5.1-1,7.1-2.9
	c3.9-3.9,3.9-10.2,0-14.1L387.8,335.6z"/>
<path class="st0" d="M464,208h-31.7c-5.5,0-10,4.5-10,10c0,5.5,4.5,10,10,10H464c5.5,0,10-4.5,10-10C474,212.5,469.5,208,464,208z"
	/>
<path class="st0" d="M396,63.9l-22.4,22.4c-3.9,3.9-3.9,10.2,0,14.1c2,1.9,4.5,2.9,7.1,2.9c2.6,0,5.1-1,7.1-2.9L410.2,78
	c3.9-3.9,3.9-10.2,0-14.1C406.2,59.9,399.9,59.9,396,63.9z"/>
<path class="st0" d="M246,450h0.2c5.5,0,10-4.5,10-10c0-5.5-4.5-10-10-10H246c-5.5,0-10,4.5-10,10C236,445.5,240.5,450,246,450z"/>
<path class="st0" d="M263.1,277.9c-3.9-3.9-10.2-3.9-14.1,0c-3.9,3.9-3.9,10.2,0,14.1c3.9,3.9,10.2,3.9,14.1,0
	C267,288.2,267,281.8,263.1,277.9z"/>
<path class="st0" d="M312.6,238.4c2.6,0,5.1-1,7.1-2.9c3.9-3.9,3.9-10.2,0-14.1c-35.1-35.1-92.2-35.1-127.3,0
	c-3.9,3.9-3.9,10.2,0,14.1c3.9,3.9,10.2,3.9,14.1,0c27.3-27.3,71.7-27.3,99,0C307.5,237.5,310,238.4,312.6,238.4z"/>
<path class="st0" d="M284.3,266.7c2.6,0,5.1-1,7.1-2.9c3.9-3.9,3.9-10.2,0-14.1c-19.5-19.5-51.2-19.5-70.7,0
	c-3.9,3.9-3.9,10.2,0,14.1c3.9,3.9,10.2,3.9,14.1,0c11.7-11.7,30.7-11.7,42.4,0C279.2,265.7,281.7,266.7,284.3,266.7z"/>
</svg>
