<?xml version="1.0" encoding="utf-8"?>
<!-- Generator: Adobe Illustrator 22.1.0, SVG Export Plug-In . SVG Version: 6.00 Build 0)  -->
<svg version="1.1" id="Capa_1" xmlns="http://www.w3.org/2000/svg" xmlns:xlink="http://www.w3.org/1999/xlink" x="0px" y="0px"
	 viewBox="0 0 482.5 482.5" style="enable-background:new 0 0 482.5 482.5;" xml:space="preserve">
<style type="text/css">
	.st0{fill:#FFFFFF;}
</style>
<g>
	<g>
		<path class="st0" d="M399.3,98.9h-12.4V71.3c0-39.3-32-71.3-71.3-71.3H165.8c-39.3,0-71.3,32-71.3,71.3v27.6H83.2
			c-39.3,0-71.3,32-71.3,71.3v115c0,39.3,32,71.3,71.3,71.3h11.2v90.4c0,19.6,16,35.6,35.6,35.6h221.1c19.6,0,35.6-16,35.6-35.6
			v-90.4h12.5c39.3,0,71.3-32,71.3-71.3v-115C470.5,130.9,438.5,98.9,399.3,98.9z M121.4,71.3c0-24.4,19.9-44.3,44.3-44.3h149.6
			c24.4,0,44.3,19.9,44.3,44.3v27.6H121.4V71.3z M359.8,447.1c0,4.7-3.9,8.6-8.6,8.6H130c-4.7,0-8.6-3.9-8.6-8.6V298h238.3V447.1z
			 M443.5,285.3c0,24.4-19.9,44.3-44.3,44.3h-12.4V298h17.8c7.5,0,13.5-6,13.5-13.5s-6-13.5-13.5-13.5h-330c-7.5,0-13.5,6-13.5,13.5
			s6,13.5,13.5,13.5h19.9v31.6H83.2c-24.4,0-44.3-19.9-44.3-44.3v-115c0-24.4,19.9-44.3,44.3-44.3h316c24.4,0,44.3,19.9,44.3,44.3
			V285.3z"/>
		<path class="st0" d="M154.1,364.4H326c7.5,0,13.5-6,13.5-13.5s-6-13.5-13.5-13.5H154.1c-7.5,0-13.5,6-13.5,13.5
			S146.8,364.4,154.1,364.4z"/>
		<path class="st0" d="M327.1,392.6h-172c-7.5,0-13.5,6-13.5,13.5s6,13.5,13.5,13.5H327c7.5,0,13.5-6,13.5-13.5
			S334.5,392.6,327.1,392.6z"/>
		<path class="st0" d="M399,151.9h-27.4c-7.5,0-13.5,6-13.5,13.5s6,13.5,13.5,13.5H399c7.5,0,13.5-6,13.5-13.5
			S406.5,151.9,399,151.9z"/>
	</g>
</g>
</svg>
