<?xml version="1.0" encoding="utf-8"?>
<!-- Generator: Adobe Illustrator 22.1.0, SVG Export Plug-In . SVG Version: 6.00 Build 0)  -->
<svg version="1.1" id="Capa_1" xmlns="http://www.w3.org/2000/svg" xmlns:xlink="http://www.w3.org/1999/xlink" x="0px" y="0px"
	 viewBox="0 0 321.1 321.1" style="enable-background:new 0 0 321.1 321.1;" xml:space="preserve">
<style type="text/css">
	.st0{fill:#FFFFFF;}
</style>
<g>
	<g>
		<path class="st0" d="M321,201c-0.8-18.4-4-38.8-8.8-58c-4.8-18.4-10.8-35.6-18-48.8c-28-49.2-58.4-41.6-94.8-32
			c-11.6,2.8-24,6-36.8,7.2h-4c-12.8-1.2-25.2-4.4-36.8-7.2C85.4,53,55,45,27,94.6c-7.2,13.2-13.6,30.4-18,48.8
			c-4.8,19.2-8,39.6-8.8,58c-0.8,20.4,1.2,35.2,5.6,45.6c4.4,9.6,10.8,15.6,19.2,18c7.6,2,16.4,1.2,25.6-2.8
			c15.6-6.4,33.6-20,51.2-36.4c12.4-12,35.6-18,58.8-18s46.4,6,58.8,18c17.6,16.4,35.6,30,51.2,36.4c9.2,3.6,18,4.8,25.6,2.8
			c8-2.4,14.8-8,19.2-18.4C319.8,236.6,321.8,221.8,321,201z M301.8,241c-2.4,5.6-5.6,8.8-9.6,10c-4.4,1.2-10,0.4-16.4-2
			c-14-5.6-30.4-18-46.4-33.2c-15.2-15.2-42-22.8-68.8-22.8s-53.6,7.6-69.2,22C75,230.2,58.6,243,45,248.2c-6.4,2.4-12,3.6-16.4,2
			c-4-1.2-7.2-4.4-9.6-10c-3.2-7.6-4.8-20-4-38.4c0.8-17.2,3.6-36.8,8.4-55.2c4.4-17.2,10-33.2,16.8-45.2c22-39.6,47.6-33.2,78-25.2
			c12.4,3.2,25.2,6.4,39.2,7.6c0.4,0,0.4,0,0.8,0h4.4c0.4,0,0.4,0,0.8,0c14.4-1.2,27.2-4.4,39.6-7.6c30.4-7.6,56-14.4,78,25.2
			c6.8,12,12.4,27.6,16.8,45.2c4.4,18.4,7.6,37.6,8.4,55.2C307,220.2,305.4,232.6,301.8,241z"/>
	</g>
</g>
<g>
	<g>
		<path class="st0" d="M123.8,123c-4-3.6-8.8-6.4-14.4-6.8c-0.4-5.2-2.8-10.4-6.4-14l-0.4-0.4c-4.4-4.4-10-6.8-16.4-6.8
			s-12.4,2.8-16.4,6.8c-3.6,3.6-6.4,8.8-6.8,14.4c-5.6,0.4-10.4,2.8-14.4,6.4l-0.4,0.4c-4.4,4.4-6.8,10-6.8,16.4s2.8,12.4,6.8,16.4
			s8.8,6.4,14.8,6.8c0.4,5.6,2.8,10.8,6.8,14.4c4.4,4.4,10,6.8,16.4,6.8s12.4-2.8,16.4-6.8c3.6-4,6.4-8.8,6.8-14.4
			c5.6-0.4,10.8-2.8,14.4-6.8c4.4-4.4,6.8-10,6.8-16.4S127.8,127,123.8,123z M113.8,145.4c-1.6,1.6-3.6,2.4-6,2.4h-5.6
			c-4,0-7.6,3.2-7.6,7.6v5.2c0,2.4-0.8,4.4-2.4,6s-3.6,2.4-6,2.4s-4.4-0.8-6-2.4c-1.6-1.6-2.4-3.6-2.4-6V155c0-4-3.2-7.6-7.6-7.6
			h-5.6c-2.4,0-4.4-0.8-6-2.4c-1.2-1.2-2.4-3.2-2.4-5.6c0-2.4,0.8-4.4,2.4-6c0,0,0,0,0.4-0.4c1.6-1.2,3.6-2,5.6-2h5.6
			c4,0,7.6-3.2,7.6-7.6v-5.6c0-2.4,0.8-4.4,2.4-6s3.6-2.4,6-2.4s4.4,0.8,6,2.4c0,0,0,0,0.4,0.4c1.2,1.6,2,3.6,2,5.6v5.6
			c0,4,3.2,7.6,7.6,7.6h5.6c2.4,0,4.4,0.8,6,2.4c1.6,1.6,2.4,3.6,2.4,6C116.2,141.8,115.4,143.8,113.8,145.4z"/>
	</g>
</g>
<g>
	<g>
		<circle class="st0" cx="230.2" cy="111" r="14"/>
	</g>
</g>
<g>
	<g>
		<circle class="st0" cx="230.2" cy="167.8" r="14"/>
	</g>
</g>
<g>
	<g>
		<circle class="st0" cx="201.8" cy="139.4" r="14"/>
	</g>
</g>
<g>
	<g>
		<circle class="st0" cx="258.6" cy="139.4" r="14"/>
	</g>
</g>
</svg>
