<?xml version="1.0" encoding="utf-8"?>
<!-- Generator: Adobe Illustrator 22.1.0, SVG Export Plug-In . SVG Version: 6.00 Build 0)  -->
<svg version="1.1" id="Layer_1" xmlns="http://www.w3.org/2000/svg" xmlns:xlink="http://www.w3.org/1999/xlink" x="0px" y="0px"
	 viewBox="0 0 512 512" style="enable-background:new 0 0 512 512;" xml:space="preserve">
<style type="text/css">
	.st0{fill:#FFFFFF;}
</style>
<path class="st0" d="M54.8,28.8c-12.1,0-22,9.9-22,22c0,12.1,9.9,22,22,22c12.1,0,22-9.9,22-22C76.8,38.7,66.9,28.8,54.8,28.8z
	 M54.8,57.8c-3.9,0-7-3.2-7-7c0-3.9,3.2-7,7-7s7,3.2,7,7C61.8,54.7,58.6,57.8,54.8,57.8z"/>
<path class="st0" d="M110.8,28.8c-12.1,0-22,9.9-22,22c0,12.1,9.9,22,22,22c12.1,0,22-9.9,22-22C132.8,38.7,122.9,28.8,110.8,28.8z
	 M110.8,57.8c-3.9,0-7-3.2-7-7c0-3.9,3.2-7,7-7c3.9,0,7,3.2,7,7C117.8,54.7,114.7,57.8,110.8,57.8z"/>
<path class="st0" d="M166.9,28.8c-12.1,0-22,9.9-22,22c0,12.1,9.9,22,22,22c12.1,0,22-9.9,22-22C188.9,38.7,179,28.8,166.9,28.8z
	 M166.9,57.8c-3.9,0-7-3.2-7-7c0-3.9,3.2-7,7-7c3.9,0,7,3.2,7,7C173.9,54.7,170.7,57.8,166.9,57.8z"/>
<path class="st0" d="M181.4,137.3H54.8c-4.1,0-7.5,3.4-7.5,7.5c0,4.1,3.4,7.5,7.5,7.5h126.6c4.1,0,7.5-3.4,7.5-7.5
	C188.9,140.7,185.5,137.3,181.4,137.3z"/>
<path class="st0" d="M181.4,172.5H54.8c-4.1,0-7.5,3.4-7.5,7.5c0,4.1,3.4,7.5,7.5,7.5h126.6c4.1,0,7.5-3.4,7.5-7.5
	C188.9,175.9,185.5,172.5,181.4,172.5z"/>
<path class="st0" d="M181.4,207.7H54.8c-4.1,0-7.5,3.4-7.5,7.5c0,4.1,3.4,7.5,7.5,7.5h126.6c4.1,0,7.5-3.4,7.5-7.5
	C188.9,211.1,185.5,207.7,181.4,207.7z"/>
<path class="st0" d="M181.4,242.9H54.8c-4.1,0-7.5,3.4-7.5,7.5c0,4.1,3.4,7.5,7.5,7.5h126.6c4.1,0,7.5-3.4,7.5-7.5
	C188.9,246.2,185.5,242.9,181.4,242.9z"/>
<path class="st0" d="M181.4,278.1H54.8c-4.1,0-7.5,3.4-7.5,7.5c0,4.1,3.4,7.5,7.5,7.5h126.6c4.1,0,7.5-3.4,7.5-7.5
	C188.9,281.4,185.5,278.1,181.4,278.1z"/>
<path class="st0" d="M181.4,313.3H54.8c-4.1,0-7.5,3.4-7.5,7.5s3.4,7.5,7.5,7.5h126.6c4.1,0,7.5-3.4,7.5-7.5
	S185.5,313.3,181.4,313.3z"/>
<path class="st0" d="M181.4,348.4H54.8c-4.1,0-7.5,3.4-7.5,7.5c0,4.1,3.4,7.5,7.5,7.5h126.6c4.1,0,7.5-3.4,7.5-7.5
	C188.9,351.8,185.5,348.4,181.4,348.4z"/>
<path class="st0" d="M181.4,383.6H54.8c-4.1,0-7.5,3.4-7.5,7.5c0,4.1,3.4,7.5,7.5,7.5h126.6c4.1,0,7.5-3.4,7.5-7.5
	C188.9,387,185.5,383.6,181.4,383.6z"/>
<path class="st0" d="M181.4,418.8H54.8c-4.1,0-7.5,3.4-7.5,7.5c0,4.1,3.4,7.5,7.5,7.5h126.6c4.1,0,7.5-3.4,7.5-7.5
	C188.9,422.2,185.5,418.8,181.4,418.8z"/>
<path class="st0" d="M181.4,454H54.8c-4.1,0-7.5,3.4-7.5,7.5c0,4.1,3.4,7.5,7.5,7.5h126.6c4.1,0,7.5-3.4,7.5-7.5
	C188.9,457.4,185.5,454,181.4,454z"/>
<path class="st0" d="M217.4,132.6v341.1c0,4.1,3.4,7.5,7.5,7.5c4.1,0,7.5-3.4,7.5-7.5V132.6c0-4.1-3.4-7.5-7.5-7.5
	C220.8,125.1,217.4,128.5,217.4,132.6z"/>
<path class="st0" d="M479,0H33C14.8,0,0,14.8,0,33v446c0,18.2,14.8,33,33,33h223c4.1,0,7.5-3.4,7.5-7.5c0-4.1-3.4-7.5-7.5-7.5H33
	c-9.9,0-18-8.1-18-18V102H497v377c0,9.9-8.1,18-18,18H302.2c-4.1,0-7.5,3.4-7.5,7.5c0,4.1,3.4,7.5,7.5,7.5H479c18.2,0,33-14.8,33-33
	V33C512,14.8,497.2,0,479,0z M497,87H15V33c0-9.9,8.1-18,18-18h446c9.9,0,18,8.1,18,18V87z"/>
<path class="st0" d="M447.4,28.8h-43.7c-4.1,0-7.5,3.4-7.5,7.5c0,4.1,3.4,7.5,7.5,7.5h43.7c4.1,0,7.5,3.4,7.5,7.5s-3.4,7.5-7.5,7.5
	H248.5c-4.1,0-7.5-3.4-7.5-7.5s3.4-7.5,7.5-7.5h108.6c4.1,0,7.5-3.4,7.5-7.5c0-4.1-3.4-7.5-7.5-7.5H248.5
	c-12.4,0-22.5,10.1-22.5,22.5c0,12.4,10.1,22.5,22.5,22.5h198.9c12.4,0,22.5-10.1,22.5-22.5C469.9,38.9,459.8,28.8,447.4,28.8z"/>
<path class="st0" d="M471.1,152.8c0-8.5-6.9-15.5-15.5-15.5H275.8c-8.5,0-15.5,6.9-15.5,15.5v67.7c0,8.5,6.9,15.5,15.5,15.5h179.8
	c8.5,0,15.5-6.9,15.5-15.5V152.8z M304.3,221l40.2-40.2l31.4,35.4c2.7,3.1,7.5,3.4,10.6,0.6c2.9-2.6,3.3-6.9,1.1-10l15-15l25.9,29.2
	H304.3z M456.1,220.5c0,0.3-0.2,0.5-0.5,0.5h-7.1l-35.7-40.3c-2.5-2.8-6-4.4-9.7-4.5c-3.7-0.1-7.3,1.3-9.9,3.9l-15.4,15.4l-23-25.9
	c-2.5-2.8-6-4.4-9.7-4.5c-3.7-0.1-7.3,1.3-9.9,3.9l-52,51.9h-7.3c-0.3,0-0.5-0.2-0.5-0.5v-67.7c0-0.3,0.2-0.5,0.5-0.5h179.8
	c0.3,0,0.5,0.2,0.5,0.5V220.5z"/>
<path class="st0" d="M267.8,278.4h35.9c4.1,0,7.5-3.4,7.5-7.5c0-4.1-3.4-7.5-7.5-7.5h-35.9c-4.1,0-7.5,3.4-7.5,7.5
	C260.3,275.1,263.6,278.4,267.8,278.4z"/>
<path class="st0" d="M401.3,271c0-4.1-3.4-7.5-7.5-7.5h-65.1c-4.1,0-7.5,3.4-7.5,7.5c0,4.1,3.4,7.5,7.5,7.5h65.1
	C397.9,278.4,401.3,275.1,401.3,271z"/>
<path class="st0" d="M463.6,263.5H424c-4.1,0-7.5,3.4-7.5,7.5c0,4.1,3.4,7.5,7.5,7.5h39.6c4.1,0,7.5-3.4,7.5-7.5
	C471.1,266.8,467.7,263.5,463.6,263.5z"/>
<path class="st0" d="M267.8,306.9h45.5c4.1,0,7.5-3.4,7.5-7.5c0-4.1-3.4-7.5-7.5-7.5h-45.5c-4.1,0-7.5,3.4-7.5,7.5
	S263.6,306.9,267.8,306.9z"/>
<path class="st0" d="M342.3,306.9h77.1c4.1,0,7.5-3.4,7.5-7.5c0-4.1-3.4-7.5-7.5-7.5h-77.1c-4.1,0-7.5,3.4-7.5,7.5
	C334.8,303.6,338.2,306.9,342.3,306.9z"/>
<path class="st0" d="M463.6,291.9h-17.7c-4.1,0-7.5,3.4-7.5,7.5c0,4.1,3.4,7.5,7.5,7.5h17.7c4.1,0,7.5-3.4,7.5-7.5
	C471.1,295.3,467.7,291.9,463.6,291.9z"/>
<path class="st0" d="M471.1,460.1V343.5c0-8.5-6.9-15.5-15.5-15.5H275.8c-8.5,0-15.5,6.9-15.5,15.5v116.6c0,8.5,6.9,15.5,15.5,15.5
	h179.8C464.1,475.6,471.1,468.7,471.1,460.1z M275.2,460.1V343.5c0-0.3,0.2-0.5,0.5-0.5h179.8c0.3,0,0.5,0.2,0.5,0.5v116.6
	c0,0.3-0.2,0.5-0.5,0.5H275.8C275.5,460.7,275.2,460.4,275.2,460.1z"/>
<path class="st0" d="M391.8,389.3L354,367.5c-4.5-2.6-9.9-2.6-14.5,0c-4.5,2.6-7.2,7.3-7.2,12.5v43.6c0,5.2,2.7,9.9,7.2,12.5
	c2.3,1.3,4.8,2,7.2,2c2.5,0,5-0.7,7.2-2l37.7-21.8c4.5-2.6,7.2-7.3,7.2-12.5C399,396.6,396.3,391.9,391.8,389.3z M347.3,422.7v-41.9
	l36.2,20.9L347.3,422.7z"/>
</svg>
