<svg height="512pt" viewBox="0 -12 512.00017 512" width="512pt" xmlns="http://www.w3.org/2000/svg"><path d="m427.945312 65.855469c0 34.25-27.761718 62.011719-62.011718 62.011719-34.246094 0-62.011719-27.761719-62.011719-62.011719 0-34.246094 27.765625-62.011719 62.011719-62.011719 34.25 0 62.011718 27.765625 62.011718 62.011719zm0 0" fill="#2de0c7"/><path d="m427.941406 65.855469c0 34.25-27.761718 62.007812-62.011718 62.007812-4.871094 0-9.597657-.558593-14.140626-1.621093 27.429688-6.40625 47.859376-31.007813 47.859376-60.386719 0-29.382813-20.429688-53.980469-47.859376-60.390625 4.542969-1.0625 9.269532-1.621094 14.140626-1.621094 34.25 0 62.011718 27.761719 62.011718 62.011719zm0 0" fill="#00c2cc"/><path d="m463.128906 252.351562c0 111.261719-90.1875 201.460938-201.449218 201.460938-61.890626 0-117.257813-27.910156-154.210938-71.828125-22.1875-26.371094-37.738281-58.519531-44.070312-93.851563-.910157-5.089843-1.636719-10.25-2.148438-15.460937-.679688-6.679687-1.019531-13.457031-1.019531-20.320313 0-11.199218.910156-22.179687 2.667969-32.867187.820312-4.980469 1.8125-9.890625 3-14.742187 21.382812-88.269532 100.921874-153.839844 195.78125-153.839844 28.191406 0 55.03125 5.789062 79.390624 16.242187 7.308594 3.136719 14.398438 6.699219 21.238282 10.648438 15.203125 8.789062 29.152344 19.5 41.511718 31.808593 3.929688 3.910157 7.699219 7.980469 11.300782 12.210938 22.398437 26.300781 38.160156 58.441406 44.667968 93.8125 2.191407 11.90625 3.339844 24.1875 3.339844 36.726562zm0 0" fill="#e667f9"/><path d="m415.121094 121.8125c-1.210938 1.128906-2.8125 1.871094-4.589844 2-.109375.011719-14.359375 1.210938-37.582031 10.839844-21.488281 8.910156-55.257813 27.050781-94.148438 62.902344-1.441406 1.328124-3.261719 1.988281-5.082031 1.988281-2.019531 0-4.039062-.808594-5.519531-2.417969-2.800781-3.042969-2.609375-7.792969.429687-10.59375 65.769532-60.628906 118.300782-74.058594 135.191406-76.929688 3.929688 3.910157 7.699219 7.980469 11.300782 12.210938zm0 0" fill="#d82fea"/><path d="m239 234.976562c-1.777344 0-3.558594-.625-4.988281-1.898437-3.09375-2.753906-3.367188-7.496094-.613281-10.589844 4.859374-5.449219 9.816406-10.800781 14.738281-15.902343 2.875-2.980469 7.625-3.066407 10.605469-.1875 2.980468 2.875 3.066406 7.625.1875 10.605468-4.785157 4.957032-9.605469 10.160156-14.328126 15.464844-1.484374 1.660156-3.539062 2.507812-5.601562 2.507812zm0 0" fill="#d82fea"/><path d="m463.128906 252.355469c0 111.257812-90.1875 201.457031-201.449218 201.457031-5.917969 0-11.789063-.257812-17.578126-.757812 103.007813-8.921876 183.839844-95.371094 183.839844-200.699219 0-12.542969-1.152344-24.820313-3.339844-36.730469-16.222656-88.082031-89.75-156.101562-180.5-163.960938 5.789063-.5 11.660157-.761718 17.578126-.761718 98.71875 0 180.851562 71.011718 198.109374 164.722656 2.191407 11.910156 3.339844 24.1875 3.339844 36.730469zm0 0" fill="#d82fea"/><path d="m161.261719 281.023438c-24.222657 7.007812-47.730469 8.980468-66.492188 8.980468-13.339843 0-24.28125-1-31.371093-1.871094-.910157-5.089843-1.636719-10.25-2.148438-15.460937 5.839844.839844 17.980469 2.25 33.589844 2.25 17.671875 0 39.78125-1.808594 62.25-8.308594 3.980468-1.140625 8.140625 1.148438 9.289062 5.128907 1.152344 3.980468-1.140625 8.132812-5.117187 9.28125zm0 0" fill="#d82fea"/><path d="m463.128906 252.355469c0 18.679687-2.539062 36.757812-7.296875 53.917969-23.570312 85.082031-101.570312 147.539062-194.152343 147.539062-5.917969 0-11.789063-.25-17.578126-.757812-14.382812-1.242188-28.320312-4-41.679687-8.109376-37.492187-11.511718-70.3125-33.679687-94.953125-62.960937 45.460938-60.441406 113.210938-111.550781 210.972656-113.28125 44.988282-.800781 80.839844-12.800781 109.070313-29.5 12.117187-7.160156 22.839843-15.1875 32.277343-23.578125 2.191407 11.910156 3.339844 24.1875 3.339844 36.730469zm0 0" fill="#2de0c7"/><path d="m463.128906 252.355469c0 18.679687-2.539062 36.757812-7.296875 53.917969-23.570312 85.082031-101.570312 147.539062-194.152343 147.539062-5.917969 0-11.789063-.25-17.578126-.757812 103.007813-8.921876 183.839844-95.371094 183.839844-200.699219 0-4.421875-.140625-8.800781-.429687-13.152344 12.117187-7.160156 22.839843-15.1875 32.277343-23.578125 2.191407 11.910156 3.339844 24.1875 3.339844 36.730469zm0 0" fill="#00c2cc"/><path d="m455.832031 306.273438c-2.042969 7.359374-4.492187 14.558593-7.320312 21.550781-2.011719 4.980469-4.222657 9.859375-6.621094 14.628906-33.050781 66.03125-101.339844 111.359375-180.210937 111.359375-5.917969 0-11.789063-.25-17.578126-.757812-14.382812-1.242188-28.320312-4-41.679687-8.113282 20.757813-8.886718 43.238281-24.546875 59.257813-52.136718 29.941406-51.582032 87.800781-81.832032 158.910156-86.351563 11.421875-.738281 23.191406-.800781 35.242187-.179687zm0 0" fill="#7e18ea"/><path d="m455.832031 306.273438c-23.570312 85.082031-101.570312 147.539062-194.152343 147.539062-5.917969 0-11.789063-.25-17.578126-.757812 84.679688-7.332032 154.367188-67.0625 176.488282-146.601563 11.421875-.738281 23.191406-.800781 35.242187-.179687zm0 0" fill="#5100cb"/><path d="m476.71875 75.714844c-6.429688 15.46875-17.9375 35.046875-34.199219 58.1875-33.03125 47-82.328125 104-138.808593 160.480468-56.480469 56.492188-113.480469 105.78125-160.492188 138.820313-23.136719 16.261719-42.707031 27.761719-58.179688 34.191406-9.667968 4.019531-17.738281 6.027344-24.308593 6.027344-6.21875 0-11.089844-1.796875-14.699219-5.410156-14.011719-14.007813-.542969-48.707031 41.167969-106.097657.949219-1.3125 2.25-2.222656 3.679687-2.691406 2.570313 4.101563 5.28125 8.089844 8.121094 11.980469-44.339844 61.101563-45.621094 82.941406-42.371094 86.199219 3 2.992187 22.832032 2.269531 77.972656-36.46875 46.320313-32.558594 102.609376-81.261719 158.5-137.152344 55.886719-55.886719 104.597657-112.1875 137.148438-158.507812 38.75-55.128907 39.46875-74.96875 36.480469-77.960938-3.28125-3.28125-25.160157-1.9375-86.210938 42.359375-4.148437-3.039063-8.410156-5.917969-12.789062-8.617187.488281-.75 1.121093-1.421876 1.878906-1.980469 58.339844-42.652344 93.582031-56.511719 107.722656-42.371094 7.417969 7.421875 7.21875 20.179687-.613281 39.011719zm0 0" fill="#c5ee09"/><path d="m477.332031 468.011719c-3.613281 3.613281-8.480469 5.410156-14.703125 5.410156-6.570312 0-14.640625-2.007813-24.296875-6.027344-15.480469-6.429687-35.050781-17.929687-58.191406-34.191406-47.011719-33.039063-104-82.328125-160.492187-138.820313-56.476563-56.480468-105.777344-113.480468-138.808594-160.480468-16.257813-23.140625-27.769532-42.71875-34.199219-58.1875-7.832031-18.832032-8.03125-31.589844-.609375-39.011719 13.957031-13.96875 48.539062-.601563 105.679688 40.878906 1.449218 1.0625 2.410156 2.53125 2.839843 4.140625-4 2.511719-7.910156 5.171875-11.710937 7.960938-61.121094-44.359375-82.949219-45.628906-86.210938-42.371094-2.988281 2.992188-2.257812 22.832031 36.480469 77.960938 32.550781 46.320312 81.261719 102.621093 137.152344 158.507812 55.886719 55.890625 112.179687 104.59375 158.5 137.152344 55.136719 38.738281 74.96875 39.460937 77.96875 36.46875 3.28125-3.277344 1.941406-25.160156-42.378907-86.210938 3.039063-4.136718 5.917969-8.410156 8.628907-12.777344.75.46875 1.429687 1.097657 1.988281 1.867188 42.652344 58.351562 56.511719 93.582031 42.363281 107.730469zm0 0" fill="#edff85"/><path d="m101.183594 279.421875c0 19.105469-15.488282 34.59375-34.59375 34.59375-19.109375 0-34.597656-15.488281-34.597656-34.59375s15.488281-34.59375 34.597656-34.59375c19.105468 0 34.59375 15.488281 34.59375 34.59375zm0 0" fill="#9bf2e5"/><g fill="#2de0c7"><path d="m101.179688 279.425781c0 19.097657-15.488282 34.589844-34.589844 34.589844-3.589844 0-7.058594-.550781-10.320313-1.5625 14.0625-4.398437 24.261719-17.527344 24.261719-33.027344 0-15.511719-10.199219-28.640625-24.261719-33.042969 3.261719-1.007812 6.730469-1.558593 10.320313-1.558593 19.101562 0 34.589844 15.488281 34.589844 34.601562zm0 0"/><path d="m169.179688 17.617188c-.011719 0-.023438 0-.035157 0-4.144531-.019532-7.484375-3.394532-7.464843-7.535157l.011718-2.617187c.019532-4.140625 3.371094-7.464844 7.535156-7.464844 4.140626.0195312 7.484376 3.394531 7.464844 7.535156l-.011718 2.617188c-.023438 4.128906-3.375 7.464844-7.5 7.464844zm0 0"/><path d="m169.097656 44.253906c-.015625 0-.027344 0-.039062 0-4.140625-.019531-7.484375-3.394531-7.464844-7.535156l.015625-2.617188c.019531-4.144531 3.359375-7.5 7.535156-7.464843 4.140625.019531 7.484375 3.394531 7.464844 7.539062l-.015625 2.617188c-.019531 4.128906-3.371094 7.460937-7.496094 7.460937zm0 0"/><path d="m183.769531 29.675781c-.011719 0-.023437 0-.035156 0l-2.617187-.015625c-4.140626-.019531-7.484376-3.390625-7.464844-7.53125.019531-4.132812 3.375-7.46875 7.5-7.46875h.035156l2.617188.015625c4.140624.019531 7.484374 3.390625 7.464843 7.535157-.019531 4.128906-3.375 7.464843-7.5 7.464843zm0 0"/><path d="m157.132812 29.59375c-.011718 0-.023437 0-.035156 0l-2.617187-.015625c-4.144531-.019531-7.484375-3.394531-7.464844-7.535156.019531-4.128907 3.375-7.464844 7.5-7.464844h.035156l2.621094.015625c4.140625.019531 7.480469 3.394531 7.460937 7.535156-.019531 4.128906-3.375 7.464844-7.5 7.464844zm0 0"/><path d="m22.164062 338.761719c-.015624 0-.027343 0-.039062 0-4.140625-.023438-7.484375-3.398438-7.464844-7.539063l.015625-2.617187c.019531-4.128907 3.375-7.460938 7.5-7.460938h.035157c4.144531.019531 7.484374 3.394531 7.464843 7.535157l-.015625 2.617187c-.019531 4.128906-3.375 7.464844-7.496094 7.464844zm0 0"/><path d="m22.082031 365.398438c-.011719 0-.023437 0-.035156 0-4.144531-.019532-7.484375-3.394532-7.464844-7.535157l.011719-2.617187c.019531-4.132813 3.371094-7.464844 7.496094-7.464844h.039062c4.140625.019531 7.480469 3.390625 7.464844 7.535156l-.011719 2.617188c-.023437 4.128906-3.375 7.464844-7.5 7.464844zm0 0"/><path d="m36.753906 350.816406c-.011718 0-.023437 0-.035156 0l-2.617188-.011718c-4.140624-.019532-7.484374-3.394532-7.464843-7.535157s3.386719-7.496093 7.535156-7.464843l2.617187.011718c4.140626.019532 7.484376 3.394532 7.464844 7.535156-.019531 4.128907-3.375 7.464844-7.5 7.464844zm0 0"/><path d="m10.117188 350.734375c-.011719 0-.023438 0-.035157 0l-2.617187-.011719c-4.144532-.019531-7.4843752-3.394531-7.464844-7.539062.0195312-4.128906 3.375-7.460938 7.5-7.460938h.035156l2.617188.011719c4.144531.019531 7.484375 3.394531 7.464844 7.539063-.019532 4.128906-3.375 7.460937-7.5 7.460937zm0 0"/><path d="m489.910156 353.386719c-.011718 0-.023437 0-.035156 0-4.144531-.019531-7.484375-3.394531-7.46875-7.535157l.015625-2.617187c.019531-4.140625 3.355469-7.460937 7.535156-7.464844 4.140625.019531 7.480469 3.394531 7.464844 7.535157l-.015625 2.617187c-.015625 4.128906-3.371094 7.464844-7.496094 7.464844zm0 0"/><path d="m489.828125 380.023438c-.015625 0-.027344 0-.039063 0-4.140624-.019532-7.484374-3.394532-7.464843-7.535157l.015625-2.617187c.019531-4.144532 3.421875-7.519532 7.535156-7.464844 4.144531.019531 7.484375 3.394531 7.464844 7.539062l-.015625 2.617188c-.019531 4.128906-3.375 7.460938-7.496094 7.460938zm0 0"/><path d="m504.5 365.445312c-.011719 0-.023438 0-.035156 0l-2.617188-.011718c-4.140625-.023438-7.484375-3.394532-7.464844-7.535156.019532-4.132813 3.375-7.464844 7.5-7.464844h.035157l2.617187.011718c4.140625.019532 7.484375 3.390626 7.464844 7.535157-.019531 4.128906-3.375 7.464843-7.5 7.464843zm0 0"/><path d="m477.863281 365.363281c-.011719 0-.023437 0-.035156 0l-2.617187-.015625c-4.144532-.019531-7.484376-3.394531-7.464844-7.535156.019531-4.128906 3.375-7.464844 7.5-7.464844h.035156l2.617188.015625c4.144531.019531 7.484374 3.394531 7.464843 7.535157-.019531 4.128906-3.375 7.464843-7.5 7.464843zm0 0"/></g><path d="m142.796875 473.425781c-.011719 0-.023437 0-.035156 0h-.105469c-4.144531-.019531-7.484375-3.394531-7.464844-7.535156.019532-4.128906 3.371094-7.464844 7.5-7.464844h.035156.105469c4.140625.019531 7.484375 3.390625 7.464844 7.535157-.019531 4.128906-3.375 7.464843-7.5 7.464843zm0 0" fill="#00c2cc"/><path d="m178.507812 487.261719h-.105468c-4.140625 0-7.5-3.359375-7.5-7.5s3.359375-7.5 7.5-7.5h.105468c4.140626 0 7.5 3.359375 7.5 7.5s-3.359374 7.5-7.5 7.5zm0 0" fill="#00c2cc"/><path d="m278.199219 30.746094c-.011719 0-.019531 0-.03125 0h-.109375c-4.140625-.019532-7.484375-3.394532-7.464844-7.535156.019531-4.144532 3.398438-7.511719 7.535156-7.464844h.105469c4.144531.019531 7.484375 3.390625 7.464844 7.535156-.019531 4.128906-3.371094 7.464844-7.5 7.464844zm0 0" fill="#00c2cc"/><path d="m459.324219 15c-.011719 0-.023438 0-.035157 0h-.105468c-4.140625-.019531-7.484375-3.394531-7.464844-7.535156.019531-4.128906 3.375-7.464844 7.5-7.464844h.035156.105469c4.144531.0195312 7.484375 3.394531 7.464844 7.535156-.019531 4.132813-3.375 7.464844-7.5 7.464844zm0 0" fill="#00c2cc"/><path d="m477.917969 26.078125c-.011719 0-.023438 0-.035157 0h-.105468c-4.144532-.019531-7.484375-3.394531-7.464844-7.535156.019531-4.132813 3.371094-7.464844 7.496094-7.464844h.039062.105469c4.140625.019531 7.484375 3.390625 7.464844 7.535156-.019531 4.128907-3.375 7.464844-7.5 7.464844zm0 0" fill="#00c2cc"/><path d="m38.714844 227.769531c-.011719 0-.023438 0-.035156 0h-.105469c-4.144531-.019531-7.484375-3.394531-7.464844-7.535156.019531-4.132813 3.371094-7.464844 7.5-7.464844h.035156.105469c4.140625.015625 7.484375 3.390625 7.464844 7.535157-.019532 4.128906-3.375 7.464843-7.5 7.464843zm0 0" fill="#00c2cc"/><path d="m245.671875 143.75c0-15.144531-19.367187-27.417969-43.25-27.417969-23.886719 0-43.25 12.273438-43.25 27.417969 0 15.140625 19.363281 27.414062 43.25 27.414062 23.882813 0 43.25-12.273437 43.25-27.414062zm0 0" fill="#7e18ea"/><path d="m159.171875 143.753906c0-15.152344 19.359375-27.421875 43.25-27.421875 23.570313 0 42.75 11.949219 43.242187 26.832031-7.890624-6.652343-20.441406-10.949218-34.582031-10.949218-23.878906 0-43.25 12.269531-43.25 27.417968 0 .191407 0 .390626.011719.582032-5.441406-4.582032-8.671875-10.28125-8.671875-16.460938zm0 0" fill="#5100cb"/><path d="m362.308594 77.792969c-1.109375.980469-2.507813 1.640625-4.089844 1.820312-49.328125 5.648438-84.769531 32.398438-85.117188 32.667969-1.363281 1.042969-2.972656 1.542969-4.5625 1.542969-2.25 0-4.480468-1-5.957031-2.929688-2.511719-3.28125-1.902343-7.980469 1.378907-10.511719 1.410156-1.078124 31.871093-24.179687 77.109374-33.238281 7.308594 3.136719 14.398438 6.699219 21.238282 10.648438zm0 0" fill="#d82fea"/><path d="m115.390625 219.964844c-.269531 3.957031-3.570313 6.988281-7.480469 6.988281-.171875 0-.339844-.011719-.511718-.019531-21.679688-1.46875-38.988282-5.910156-44.5-7.449219.820312-4.980469 1.8125-9.890625 3-14.742187 1.300781.382812 5.660156 1.601562 12.121093 2.972656 7.699219 1.617187 18.378907 3.449218 30.390625 4.257812 4.128906.28125 7.261719 3.851563 6.980469 7.992188zm0 0" fill="#d82fea"/><path d="m448.511719 327.824219c-2.011719 4.980469-4.222657 9.859375-6.621094 14.628906-11.511719.769531-44.640625 3.5-59.839844 10.28125-.992187.449219-2.03125.660156-3.050781.660156-2.871094 0-5.609375-1.660156-6.851562-4.453125-1.6875-3.789062.011718-8.21875 3.800781-9.910156 21.039062-9.378906 67.300781-11.707031 69.25-11.808594 1.171875-.050781 2.300781.160156 3.3125.601563zm0 0" fill="#5100cb"/></svg>