<?xml version="1.0" encoding="utf-8"?>
<!-- Generator: Adobe Illustrator 22.1.0, SVG Export Plug-In . SVG Version: 6.00 Build 0)  -->
<svg version="1.1" id="Layer_1" xmlns="http://www.w3.org/2000/svg" xmlns:xlink="http://www.w3.org/1999/xlink" x="0px" y="0px"
	 viewBox="0 0 512 512" style="enable-background:new 0 0 512 512;" xml:space="preserve">
<style type="text/css">
	.st0{fill:#FFFFFF;}
</style>
<path class="st0" d="M310,196c-48.5,0-88,39.5-88,88s39.5,88,88,88s88-39.5,88-88S358.5,196,310,196z M310,352
	c-37.5,0-68-30.5-68-68s30.5-68,68-68s68,30.5,68,68S347.5,352,310,352z"/>
<path class="st0" d="M310,239c-5.5,0-10,4.5-10,10s4.5,10,10,10c13.8,0,25,11.2,25,25c0,5.5,4.5,10,10,10s10-4.5,10-10
	C355,259.2,334.8,239,310,239z"/>
<path class="st0" d="M61.6,103.4c-2.5-4.9-8.6-6.8-13.5-4.3c-4.9,2.5-6.8,8.6-4.3,13.5l26.9,52c1.7,3.4,5.3,5.4,9,5.4
	c3.8-0.1,7.2-2.3,8.9-5.7l16.3-33.9l17.7,34.2c1.7,3.3,5.1,5.4,8.9,5.4h0.1c3.8-0.1,7.2-2.3,8.9-5.7l25-52c2.4-5,0.3-11-4.7-13.3
	c-5-2.4-11-0.3-13.3,4.7l-16.3,33.9l-17.7-34.2c-1.7-3.4-5.3-5.4-9-5.4c-3.8,0.1-7.2,2.3-8.9,5.7l-16.3,33.9L61.6,103.4z"/>
<path class="st0" d="M126,48c2.6,0,5.2-1.1,7.1-2.9c1.9-1.9,2.9-4.4,2.9-7.1s-1.1-5.2-2.9-7.1c-1.9-1.9-4.4-2.9-7.1-2.9
	c-2.6,0-5.2,1.1-7.1,2.9c-1.9,1.9-2.9,4.4-2.9,7.1s1.1,5.2,2.9,7.1C120.8,46.9,123.4,48,126,48z"/>
<path class="st0" d="M512,200V68c0-22.1-17.9-40-40-40H168c-5.5,0-10,4.5-10,10s4.5,10,10,10h304c11,0,20,9,20,20v132
	c0,11-9,20-20,20h-48c-0.3,0-0.6,0-0.9,0c-15.4-27.2-40.4-48.3-70.3-58.8l14.8-30.9l17.7,34.2c1.7,3.3,5.1,5.4,8.9,5.4h0.2
	c3.8-0.1,7.2-2.3,8.9-5.7l25-52c2.4-5,0.3-10.9-4.7-13.3c-5-2.4-11-0.3-13.3,4.7l-16.3,33.9l-17.7-34.2c-1.7-3.4-5.3-5.4-9-5.4
	c-3.8,0.1-7.2,2.3-8.9,5.7L342,137.6l-17.7-34.2c-2.5-4.9-8.6-6.8-13.5-4.3s-6.8,8.6-4.3,13.5l22.1,42.8c-6.1-0.9-12.3-1.4-18.7-1.4
	c-12.3,0-24.2,1.7-35.5,4.9l22.4-46.6c2.4-5,0.3-10.9-4.7-13.3c-5-2.4-11-0.3-13.3,4.7l-16.3,33.9l-17.7-34.2
	c-1.7-3.4-5.2-5.4-9-5.4c-3.8,0.1-7.2,2.3-8.9,5.7l-16.3,33.9L193,103.4c-2.5-4.9-8.6-6.8-13.5-4.3s-6.8,8.6-4.3,13.5l26.9,52
	c1.7,3.4,5.3,5.4,9,5.4c3.8-0.1,7.2-2.3,8.9-5.7l16.3-33.9l17.7,34.2c0.3,0.6,0.7,1.1,1.1,1.6c-24.5,11.5-44.9,30.4-58.2,53.8H40
	c-11,0-20-9-20-20V68c0-11,9-20,20-20h41c5.5,0,10-4.5,10-10s-4.5-10-10-10H40C17.9,28,0,45.9,0,68v132c0,22.1,17.9,40,40,40h147.7
	c-5,13.8-7.7,28.6-7.7,44c0,71.7,58.3,130,130,130c23.6,0,45.7-6.3,64.7-17.3l79.4,79.4c6.6,6.6,15.3,9.9,24,9.9s17.4-3.3,24-9.9
	c13.2-13.2,13.2-34.7,0-48l-31.2-31.2c-3.9-3.9-10.2-3.9-14.1,0c-3.9,3.9-3.9,10.2,0,14.1l31.2,31.2c5.4,5.4,5.4,14.2,0,19.7
	c-5.4,5.4-14.2,5.4-19.7,0l-76.7-76.7C421.1,361.3,440,324.8,440,284c0-15.4-2.7-30.3-7.7-44H472C494.1,240,512,222.1,512,200z
	 M310,394c-60.7,0-110-49.3-110-110s49.3-110,110-110s110,49.3,110,110S370.7,394,310,394z"/>
<path class="st0" d="M433,373.2c-1.9,1.9-2.9,4.4-2.9,7.1c0,2.6,1.1,5.2,2.9,7.1c1.9,1.9,4.4,2.9,7.1,2.9s5.2-1.1,7.1-2.9
	c1.9-1.9,2.9-4.4,2.9-7.1c0-2.6-1.1-5.2-2.9-7.1c-1.9-1.9-4.4-2.9-7.1-2.9C437.5,370.3,434.9,371.4,433,373.2z"/>
</svg>
