<?xml version="1.0" encoding="utf-8"?>
<!-- Generator: Adobe Illustrator 22.1.0, SVG Export Plug-In . SVG Version: 6.00 Build 0)  -->
<svg version="1.1" id="Capa_1" xmlns="http://www.w3.org/2000/svg" xmlns:xlink="http://www.w3.org/1999/xlink" x="0px" y="0px"
	 viewBox="0 0 60 60" style="enable-background:new 0 0 60 60;" xml:space="preserve">
<style type="text/css">
	.st0{fill:#FFFFFF;}
</style>
<g>
	<path class="st0" d="M10.5,6.1C8,6.1,6,8.1,6,10.6s2,4.5,4.5,4.5s4.5-2,4.5-4.5S13,6.1,10.5,6.1z M10.5,13.1C9.1,13.1,8,12,8,10.6
		s1.1-2.5,2.5-2.5S13,9.2,13,10.6S11.9,13.1,10.5,13.1z"/>
	<circle class="st0" cx="50" cy="9.1" r="1"/>
	<circle class="st0" cx="46" cy="9.1" r="1"/>
	<circle class="st0" cx="52" cy="12.1" r="1"/>
	<circle class="st0" cx="48" cy="12.1" r="1"/>
	<circle class="st0" cx="42" cy="9.1" r="1"/>
	<circle class="st0" cx="44" cy="12.1" r="1"/>
	<circle class="st0" cx="38" cy="9.1" r="1"/>
	<circle class="st0" cx="40" cy="12.1" r="1"/>
	<circle class="st0" cx="34" cy="9.1" r="1"/>
	<circle class="st0" cx="36" cy="12.1" r="1"/>
	<path class="st0" d="M10.5,25.1c-2.5,0-4.5,2-4.5,4.5s2,4.5,4.5,4.5s4.5-2,4.5-4.5S13,25.1,10.5,25.1z M10.5,32.1
		C9.1,32.1,8,31,8,29.6s1.1-2.5,2.5-2.5s2.5,1.1,2.5,2.5S11.9,32.1,10.5,32.1z"/>
	<path class="st0" d="M10.5,44.1c-2.5,0-4.5,2-4.5,4.5s2,4.5,4.5,4.5s4.5-2,4.5-4.5S13,44.1,10.5,44.1z M10.5,51.1
		C9.1,51.1,8,50,8,48.6s1.1-2.5,2.5-2.5s2.5,1.1,2.5,2.5S11.9,51.1,10.5,51.1z"/>
	<path class="st0" d="M60,16.5V4.7c0-2.5-2.1-4.6-4.6-4.6H4.6C2.1,0.1,0,2.2,0,4.7v11.8c0,1.5,0.7,2.8,1.8,3.6C0.7,21,0,22.3,0,23.7
		v11.8c0,1.5,0.7,2.8,1.8,3.6C0.7,40,0,41.3,0,42.7v11.8c0,2.5,2.1,4.6,4.6,4.6h27.9c2.7,0.5,5.6,0.8,8.5,0.8
		c8.7,0,17.8-2.2,18.9-6.6C60,53.2,60,53,60,52.9v-9v-0.4v-0.4v-8.3v-0.4v-0.4v-8.6v-0.4c0-0.1,0-0.3-0.1-0.4
		c-0.3-1.5-1.6-2.7-3.6-3.7C58.4,20.6,60,18.7,60,16.5z M2,35.5V23.7c0-1.4,1.2-2.6,2.6-2.6h20.9c-1.8,1-3,2.2-3.4,3.6
		C22,24.8,22,25,22,25.1v0.4v8.6v0.4v0.4v3.3H4.6C3.2,38.1,2,37,2,35.5z M24.6,29.4c0,0,0.1,0.1,0.1,0.1c0.2,0.1,0.4,0.2,0.5,0.3
		c0.1,0,0.1,0.1,0.2,0.1c0.2,0.1,0.5,0.2,0.7,0.4c0,0,0.1,0,0.1,0.1c0.2,0.1,0.4,0.2,0.7,0.3c0.1,0,0.1,0.1,0.2,0.1
		c0.3,0.1,0.6,0.2,0.8,0.3c0,0,0,0,0,0c0.3,0.1,0.6,0.2,0.9,0.3c0.1,0,0.2,0,0.2,0.1c0.3,0.1,0.6,0.2,0.9,0.2c0,0,0,0,0.1,0
		c0.3,0.1,0.7,0.2,1,0.2c0.1,0,0.2,0,0.3,0.1c0.3,0.1,0.6,0.1,0.9,0.2c0.1,0,0.1,0,0.2,0c0.3,0.1,0.7,0.1,1,0.2c0.1,0,0.2,0,0.3,0
		c0.3,0,0.6,0.1,0.9,0.1c0.1,0,0.2,0,0.2,0c0.4,0,0.7,0.1,1.1,0.1c0.1,0,0.1,0,0.2,0c0.3,0,0.6,0.1,0.9,0.1c0.1,0,0.2,0,0.3,0
		c0.4,0,0.7,0.1,1.1,0.1c0.1,0,0.1,0,0.2,0c0.3,0,0.7,0,1,0c0.1,0,0.2,0,0.3,0c0.4,0,0.7,0,1.1,0s0.7,0,1.1,0c0.1,0,0.2,0,0.3,0
		c0.3,0,0.7,0,1,0c0.1,0,0.1,0,0.2,0c0.4,0,0.7,0,1.1-0.1c0.1,0,0.2,0,0.3,0c0.3,0,0.6-0.1,0.9-0.1c0.1,0,0.1,0,0.2,0
		c0.4,0,0.7-0.1,1.1-0.1c0.1,0,0.2,0,0.2,0c0.3,0,0.6-0.1,0.9-0.1c0.1,0,0.2,0,0.3,0c0.4-0.1,0.7-0.1,1-0.2c0.1,0,0.1,0,0.2,0
		c0.3-0.1,0.6-0.1,0.9-0.2c0.1,0,0.2,0,0.3-0.1c0.3-0.1,0.7-0.2,1-0.2c0,0,0,0,0.1,0c0.3-0.1,0.6-0.2,0.9-0.2c0.1,0,0.2,0,0.2-0.1
		c0.3-0.1,0.6-0.2,0.9-0.3c0,0,0,0,0,0c0.3-0.1,0.6-0.2,0.8-0.3c0.1,0,0.1-0.1,0.2-0.1c0.2-0.1,0.5-0.2,0.7-0.3c0,0,0.1,0,0.1-0.1
		c0.3-0.1,0.5-0.2,0.7-0.4c0.1,0,0.1-0.1,0.2-0.1c0.2-0.1,0.4-0.2,0.5-0.3c0,0,0.1-0.1,0.1-0.1c0.2-0.1,0.4-0.3,0.6-0.4c0,0,0,0,0,0
		v5c0,0.1,0,0.2,0,0.4c0,0.1,0,0.1,0,0.2c0,0.1,0,0.2-0.1,0.3c0,0.1,0,0.2-0.1,0.3c0,0.1-0.1,0.2-0.1,0.2c0,0.1-0.1,0.2-0.1,0.2
		c-0.1,0.1-0.2,0.2-0.3,0.3c0,0-0.1,0.1-0.1,0.1c-2.1,2-8.4,3.9-16.2,3.9c-7.9,0-14.1-1.8-16.2-3.9c0,0-0.1-0.1-0.1-0.1
		c-0.1-0.1-0.2-0.2-0.3-0.3c-0.1-0.1-0.1-0.2-0.2-0.2c0-0.1-0.1-0.1-0.1-0.2c0-0.1-0.1-0.2-0.1-0.3c0-0.1-0.1-0.2-0.1-0.3
		c0-0.1,0-0.1,0-0.2c0-0.1,0-0.3,0-0.4v-5c0,0,0,0,0,0C24.2,29.1,24.4,29.2,24.6,29.4z M57.9,44.1c0,0.1-0.1,0.2-0.1,0.2
		c0,0.1-0.1,0.2-0.1,0.2c-0.1,0.1-0.2,0.2-0.3,0.3c0,0-0.1,0.1-0.1,0.1c-2.1,2-8.4,3.9-16.2,3.9c-7.9,0-14.1-1.8-16.2-3.9
		c0,0-0.1-0.1-0.1-0.1c-0.1-0.1-0.2-0.2-0.3-0.3c-0.1-0.1-0.1-0.2-0.2-0.2c0-0.1-0.1-0.1-0.1-0.2c0-0.1-0.1-0.2-0.1-0.3
		c0-0.1,0-0.2,0-0.3v-0.1c0,0,0-0.1,0-0.1c0-0.1,0-0.2,0-0.3l0-4.9v-0.2c0,0,0.1,0.1,0.1,0.1c0.1,0.1,0.3,0.2,0.4,0.3
		c0.1,0.1,0.2,0.1,0.3,0.2c0.2,0.1,0.4,0.2,0.6,0.3c0,0,0,0,0,0c2.1,1.1,5,2,8.1,2.5c0,0,0,0,0.1,0c1,0.2,2.1,0.3,3.1,0.4
		c0.2,0,0.5,0,0.7,0.1c0.2,0,0.4,0,0.7,0c0.3,0,0.6,0,0.9,0c0.2,0,0.4,0,0.5,0c0.5,0,1,0,1.5,0c0.5,0,1,0,1.5,0c0.2,0,0.4,0,0.5,0
		c0.3,0,0.6,0,0.9,0c0.2,0,0.5,0,0.7,0s0.4,0,0.7-0.1c1.1-0.1,2.1-0.2,3.2-0.4c0,0,0,0,0,0c3.5-0.5,6.6-1.5,8.7-2.8
		c0.1-0.1,0.2-0.1,0.3-0.2c0.1-0.1,0.3-0.2,0.4-0.3c0,0,0.1-0.1,0.1-0.1v5c0,0.1,0,0.2,0,0.4c0,0.1,0,0.1,0,0.2c0,0.1,0,0.2-0.1,0.3
		C57.9,43.9,57.9,44,57.9,44.1z M4.6,57.1C3.2,57.1,2,56,2,54.5V42.7c0-1.4,1.2-2.6,2.6-2.6H22v3v0.4v0.4v9v1h0.3c0,0,0,0.1,0.1,0.1
		c0,0.1,0.1,0.1,0.1,0.2c0.1,0.1,0.2,0.3,0.3,0.4c0.1,0.1,0.2,0.3,0.3,0.4c0.1,0.1,0.1,0.1,0.2,0.2c0.4,0.4,0.8,0.8,1.4,1.1
		c0,0,0,0,0.1,0c0.4,0.2,0.8,0.5,1.2,0.7L4.6,57.1L4.6,57.1z M58,52.6C58,52.6,58,52.7,58,52.6c-0.4,2.6-7.3,5.3-17,5.3
		c-3.1,0-5.9-0.3-8.3-0.7l0,0c-5-0.9-7.7-2.5-8.5-3.9c0,0,0,0,0,0c0-0.1-0.1-0.1-0.1-0.2C24.1,53,24,52.8,24,52.7l0-5.8
		c0,0,0.1,0.1,0.1,0.1c0.1,0.1,0.3,0.2,0.4,0.3c0.1,0.1,0.2,0.1,0.3,0.2c0.2,0.1,0.4,0.2,0.6,0.3c0,0,0,0,0,0c2.1,1.1,5,2,8.1,2.5
		c0,0,0,0,0.1,0c1,0.2,2.1,0.3,3.1,0.4c0.2,0,0.5,0,0.7,0.1c0.2,0,0.4,0,0.7,0c0.3,0,0.6,0,0.9,0c0.2,0,0.4,0,0.5,0c0.5,0,1,0,1.5,0
		c0.5,0,1,0,1.5,0c0.2,0,0.4,0,0.5,0c0.3,0,0.6,0,0.9,0c0.2,0,0.5,0,0.7,0s0.4,0,0.7-0.1c1.1-0.1,2.1-0.2,3.2-0.4c0,0,0,0,0,0
		c3.5-0.5,6.6-1.5,8.7-2.8c0.1-0.1,0.2-0.1,0.3-0.2c0.1-0.1,0.3-0.2,0.4-0.3c0,0,0.1-0.1,0.1-0.1C58,46.9,58,52.6,58,52.6z M58,25.5
		c0,2.5-7.3,5.4-17,5.4c-9.7,0-17-2.8-17-5.4c0-0.1,0-0.3,0.1-0.4c0-0.1,0.1-0.3,0.2-0.4c0,0,0,0,0,0c0.3-0.6,1-1.2,2-1.7
		c0,0,0.1,0,0.1-0.1c0.2-0.1,0.4-0.2,0.6-0.3c0.2-0.1,0.5-0.2,0.7-0.3c0,0,0.1,0,0.2-0.1c1.2-0.5,2.6-0.9,4.1-1.2
		c0.5-0.1,1-0.2,1.5-0.3c0.1,0,0.3,0,0.4-0.1c4.5-0.7,9.7-0.7,14.2,0c0.1,0,0.3,0,0.4,0.1c0.5,0.1,1,0.2,1.5,0.3
		C54.9,22.1,58,23.8,58,25.5z M58,16.5c0,1.4-1.2,2.6-2.6,2.6h-4.6c-0.1,0-0.1,0-0.2,0c-0.7-0.1-1.3-0.3-2-0.4c-0.1,0-0.1,0-0.2,0
		c-2.4-0.4-4.9-0.6-7.4-0.6s-5,0.2-7.4,0.6c-0.1,0-0.1,0-0.2,0c-0.7,0.1-1.4,0.2-2,0.4c-0.1,0-0.1,0-0.2,0H4.6C3.2,19.1,2,18,2,16.5
		V4.7c0-1.4,1.2-2.6,2.6-2.6h50.8c1.4,0,2.6,1.2,2.6,2.6V16.5z"/>
</g>
</svg>
