<?xml version="1.0" encoding="utf-8"?>
<!-- Generator: Adobe Illustrator 22.1.0, SVG Export Plug-In . SVG Version: 6.00 Build 0)  -->
<svg version="1.1" id="Layer_1" xmlns="http://www.w3.org/2000/svg" xmlns:xlink="http://www.w3.org/1999/xlink" x="0px" y="0px"
	 viewBox="0 0 1426 678.6" style="enable-background:new 0 0 1426 678.6;" xml:space="preserve">
<style type="text/css">
	.st0{opacity:0.39;fill:url(#SVGID_1_);enable-background:new    ;}
	.st1{opacity:0.39;fill:url(#SVGID_2_);enable-background:new    ;}
	.st2{fill:#9C5EE5;enable-background:new    ;}
	.st3{opacity:0.57;fill:url(#SVGID_3_);enable-background:new    ;}
	.st4{fill:url(#SVGID_4_);}
	.st5{fill:url(#SVGID_5_);enable-background:new    ;}
	.st6{fill:#07D865;enable-background:new    ;}
	.st7{fill:none;stroke:#DA05DA;stroke-width:1.7931;stroke-miterlimit:10;}
	.st8{fill:none;stroke:#07D865;stroke-width:1.7931;stroke-miterlimit:10;}
</style>
<title>slider-bg</title>
<linearGradient id="SVGID_1_" gradientUnits="userSpaceOnUse" x1="-91.7324" y1="-856.3448" x2="8.9261" y2="-1013.1425" gradientTransform="matrix(-1 0 0 1 107.9957 1237.3374)">
	<stop  offset="0" style="stop-color:#A1D5FA;stop-opacity:0"/>
	<stop  offset="1" style="stop-color:#2354EC;stop-opacity:0.35"/>
</linearGradient>
<path class="st0" d="M238.2,306.4c2.7-5.1,2.3-11.2-0.7-16.1l-40.3-62.8c-3.1-4.8-8.5-7.6-14.2-7.4l-74.5,3.5
	c-5.8,0.3-10.9,3.6-13.5,8.7l-34.2,66.4c-2.7,5.1-2.3,11.2,0.7,16.1l40.3,62.8c3.1,4.8,8.5,7.6,14.2,7.4l74.5-3.5
	c5.8-0.3,10.9-3.6,13.5-8.7L238.2,306.4z"/>
<linearGradient id="SVGID_2_" gradientUnits="userSpaceOnUse" x1="1121.7643" y1="-592.777" x2="1212.5723" y2="-734.2302" gradientTransform="matrix(1 0 0 1 162.81 1237.3374)">
	<stop  offset="0" style="stop-color:#A1D5FA;stop-opacity:0"/>
	<stop  offset="1" style="stop-color:#2354EC;stop-opacity:0.35"/>
</linearGradient>
<path class="st1" d="M1280.7,637.1c2.4,4.6,7,7.6,12.2,7.8l67.2,3.2c5.2,0.2,10.1-2.3,12.9-6.6l36.4-56.7c2.8-4.3,3.1-9.9,0.7-14.5
	l-30.8-59.9c-2.4-4.6-7-7.6-12.2-7.8l-67.2-3.1c-5.2-0.2-10.1,2.3-12.9,6.6l-36.4,56.7c-2.8,4.3-3.1,9.9-0.7,14.5L1280.7,637.1z"/>
<path class="st2" d="M585.2,321c0.3,0.6,0.9,1,1.6,1l9,0.4c0.7,0,1.4-0.3,1.7-0.9l4.9-7.6c0.4-0.6,0.4-1.3,0.1-1.9l-4.1-8
	c-0.3-0.6-0.9-1-1.6-1l-9-0.4c-0.7,0-1.4,0.3-1.7,0.9l-4.9,7.6c-0.4,0.6-0.4,1.3-0.1,1.9L585.2,321z"/>
<linearGradient id="SVGID_3_" gradientUnits="userSpaceOnUse" x1="1230.1899" y1="-968.5273" x2="1230.1899" y2="-934.7274" gradientTransform="matrix(1 0 0 1 162.81 1237.3274)">
	<stop  offset="0" style="stop-color:#F1F6FA"/>
	<stop  offset="1" style="stop-color:#75C4FF;stop-opacity:0.63"/>
</linearGradient>
<circle class="st3" cx="1393" cy="285.7" r="16.9"/>
<linearGradient id="SVGID_4_" gradientUnits="userSpaceOnUse" x1="559.1703" y1="-667.6859" x2="559.1703" y2="-635.2859" gradientTransform="matrix(1 0 0 1 162.81 1237.3274)">
	<stop  offset="0" style="stop-color:#46BAED"/>
	<stop  offset="1" style="stop-color:#5380FD"/>
</linearGradient>
<circle class="st4" cx="722" cy="585.8" r="16.2"/>
<linearGradient id="SVGID_5_" gradientUnits="userSpaceOnUse" x1="6458.1821" y1="-1661.593" x2="6458.1821" y2="-1638.193" gradientTransform="matrix(-1 0 0 1 6815.8101 1815.3273)">
	<stop  offset="0" style="stop-color:#46BAED"/>
	<stop  offset="1" style="stop-color:#5380FD"/>
</linearGradient>
<circle class="st5" cx="357.6" cy="153.7" r="11.7"/>
<circle class="st6" cx="1274.5" cy="160.7" r="7"/>
<polygon class="st7" points="1075.3,386.2 1058.2,374.5 1056.6,395.1 1075.3,386.2 1058.2,374.5 1056.6,395.1 "/>
<polygon class="st8" points="216.6,553.3 198.6,543.1 198.8,563.8 216.6,553.3 198.6,543.1 198.8,563.8 "/>
<polygon class="st8" points="911,138.2 893,128 893.2,148.7 911,138.2 893,128 893.2,148.7 "/>
</svg>
