<?xml version="1.0"?>
<svg fill="white" xmlns="http://www.w3.org/2000/svg" id="Layer_1" data-name="Layer 1" viewBox="0 0 512 512" width="512" height="512"><title>Application Settings</title><path d="M118.575,477h160a46.052,46.052,0,0,0,46-46V377h11.009a6,6,0,0,0,5.973-5.424l2-20.733a96.732,96.732,0,0,0,24.667-10.38l15.918,13.182a6,6,0,0,0,8.069-.379l23.783-23.783a6,6,0,0,0,.378-8.069L403.159,305.46a98.684,98.684,0,0,0,10.408-24.636l20.441-1.994a6,6,0,0,0,5.417-5.972V239.141A6,6,0,0,0,434,233.169l-20.732-2a96.754,96.754,0,0,0-10.38-24.668l13.181-15.917a6,6,0,0,0-.351-8.042l-23.482-23.783a6,6,0,0,0-8.1-.406l-15.954,13.212a98.707,98.707,0,0,0-24.631-10.407l-2-20.736A6,6,0,0,0,335.584,135H324.575V81a46.052,46.052,0,0,0-46-46h-160a46.053,46.053,0,0,0-46,46V431A46.053,46.053,0,0,0,118.575,477ZM332.02,166.562a6,6,0,0,0,4.705,5.289,86.862,86.862,0,0,1,28.722,12.123,6,6,0,0,0,7.08-.421L387.559,171.1l15.806,16.009L390.872,202.2a6,6,0,0,0-.372,7.154A84.2,84.2,0,0,1,402.573,238a6,6,0,0,0,5.289,4.7l19.563,1.886v22.825L408.156,269.3a6,6,0,0,0-5.282,4.7,86.835,86.835,0,0,1-12.122,28.722,6,6,0,0,0,.421,7.079l12.471,15.06-16.058,16.058-15.059-12.471a6,6,0,0,0-7.155-.371,84.235,84.235,0,0,1-28.647,12.073,6,6,0,0,0-4.7,5.289L330.135,365H307.317l-1.886-19.562a6,6,0,0,0-4.7-5.289,86.862,86.862,0,0,1-28.722-12.123,6,6,0,0,0-7.08.421l-15.06,12.471L233.807,324.86l12.472-15.06a6,6,0,0,0,.371-7.154A84.207,84.207,0,0,1,234.577,274a6,6,0,0,0-5.289-4.7l-19.562-1.886V244.591l19.562-1.886a6,6,0,0,0,5.289-4.7A86.851,86.851,0,0,1,246.7,209.279a6,6,0,0,0-.42-7.079l-12.472-15.06,16.058-16.058,15.06,12.471a6,6,0,0,0,7.155.371,84.218,84.218,0,0,1,28.647-12.073,6,6,0,0,0,4.7-5.289L307.317,147h22.818ZM118.575,47h160a34.038,34.038,0,0,1,34,34V95h-14a6,6,0,0,0,0,12h14v28H301.867a6,6,0,0,0-5.972,5.424l-2,20.733a96.732,96.732,0,0,0-24.667,10.38l-15.917-13.182a6,6,0,0,0-8.07.379l-23.783,23.783a6,6,0,0,0-.378,8.069l13.212,15.954a98.757,98.757,0,0,0-10.408,24.63l-20.735,2a6,6,0,0,0-5.424,5.972v33.717a6,6,0,0,0,5.424,5.973l20.732,2A96.792,96.792,0,0,0,234.263,305.5l-13.182,15.917a6,6,0,0,0,.378,8.069l23.783,23.783a6,6,0,0,0,8.07.379l15.954-13.212A98.685,98.685,0,0,0,293.9,350.84l2,20.736A6,6,0,0,0,301.867,377h10.708v16h-228V107h163a6,6,0,0,0,0-12h-163V81A34.039,34.039,0,0,1,118.575,47Zm-34,358h228v26a34.038,34.038,0,0,1-34,34h-160a34.039,34.039,0,0,1-34-34Z"/><path d="M267.27,107h11.115a6,6,0,0,0,0-12H267.27a6,6,0,0,0,0,12Z"/><path d="M198.575,456a21,21,0,1,0-21-21A21.023,21.023,0,0,0,198.575,456Zm0-30a9,9,0,1,1-9,9A9.01,9.01,0,0,1,198.575,426Z"/><path d="M247.08,256a71.646,71.646,0,1,0,71.646-71.646A71.727,71.727,0,0,0,247.08,256Zm71.646-59.646A59.646,59.646,0,1,1,259.08,256,59.713,59.713,0,0,1,318.726,196.354Z"/><path d="M306.6,277.371a6,6,0,0,0,8.383,0l34.984-34.156a6,6,0,1,0-8.383-8.586l-30.793,30.063-15.227-14.866a6,6,0,0,0-8.382,8.587Z"/><path d="M179,237h-8.29a6,6,0,0,0,0,12H179a6,6,0,0,0,0-12Z"/><path d="M108,249h36.177a6,6,0,1,0,0-12H108a6,6,0,0,0,0,12Z"/><path d="M179,287H140.71a6,6,0,0,0,0,12H179a6,6,0,0,0,0-12Z"/><path d="M108,299h6.177a6,6,0,1,0,0-12H108a6,6,0,0,0,0,12Z"/><path d="M175,343a6,6,0,0,0,6,6h28a6,6,0,0,0,0-12H181A6,6,0,0,0,175,343Z"/><path d="M154.177,337H108a6,6,0,0,0,0,12h46.177a6,6,0,1,0,0-12Z"/><path d="M151,195h38a6,6,0,0,0,0-12H151a6,6,0,0,0,0,12Z"/><path d="M108,195h16.177a6,6,0,0,0,0-12H108a6,6,0,0,0,0,12Z"/></svg>
