<?xml version="1.0" encoding="utf-8"?>
<!-- Generator: Adobe Illustrator 22.1.0, SVG Export Plug-In . SVG Version: 6.00 Build 0)  -->
<svg version="1.1" id="Layer_1" xmlns="http://www.w3.org/2000/svg" xmlns:xlink="http://www.w3.org/1999/xlink" x="0px" y="0px"
	 viewBox="0 0 73.5 16.9" style="enable-background:new 0 0 73.5 16.9;" xml:space="preserve">
<style type="text/css">
	.st0{fill:#FC2D55;stroke:#6290FF;stroke-width:0.5477;stroke-miterlimit:10;}
	.st1{fill:#FFFFFF;}
</style>
<path class="st0" d="M57.5,14.4H16c-3.3,0-5.9-2.7-5.9-5.9l0,0c0-3.3,2.7-5.9,5.9-5.9h41.5c3.3,0,5.9,2.7,5.9,5.9l0,0
	C63.5,11.7,60.8,14.4,57.5,14.4z"/>
<g>
	<g>
		<path class="st1" d="M20.8,8.4C20.9,8.6,21,8.8,21,9.1c0,0.4-0.2,0.7-0.5,0.9s-0.8,0.3-1.4,0.3h-2.4V5.8h2.2c0.6,0,1,0.1,1.3,0.3
			s0.5,0.5,0.5,0.9c0,0.2-0.1,0.4-0.2,0.6S20.2,7.9,20,8C20.5,8.1,20.7,8.2,20.8,8.4z M17.9,6.6v1.1H19c0.3,0,0.5,0,0.6-0.1
			s0.2-0.2,0.2-0.4c0-0.2-0.1-0.3-0.2-0.4S19.3,6.7,19,6.7L17.9,6.6L17.9,6.6z M19.8,9.4C19.9,9.3,20,9.2,20,9
			c0-0.4-0.3-0.6-0.8-0.6H18v1.1h1.2C19.4,9.6,19.6,9.5,19.8,9.4z"/>
		<path class="st1" d="M25.2,8.9h-2.7c0,0.2,0.2,0.4,0.3,0.5c0.2,0.1,0.4,0.2,0.7,0.2c0.2,0,0.3,0,0.5-0.1c0.1-0.1,0.3-0.1,0.4-0.3
			L25,9.9c-0.3,0.4-0.8,0.6-1.5,0.6c-0.4,0-0.8-0.1-1.1-0.2C22.2,10,22,9.8,21.8,9.6c-0.2-0.3-0.2-0.6-0.2-0.9
			c0-0.3,0.1-0.7,0.2-0.9c0.2-0.3,0.4-0.5,0.7-0.7c0.3-0.2,0.6-0.2,1-0.2c0.3,0,0.7,0.1,0.9,0.2c0.3,0.1,0.5,0.4,0.7,0.6
			c0.2,0.3,0.2,0.6,0.2,1C25.3,8.6,25.3,8.7,25.2,8.9z M22.8,7.8c-0.2,0.1-0.3,0.3-0.3,0.5h1.7c0-0.2-0.1-0.4-0.3-0.5
			s-0.4-0.2-0.6-0.2C23.2,7.6,23,7.6,22.8,7.8z"/>
		<path class="st1" d="M26.3,10.3c-0.3-0.1-0.5-0.2-0.7-0.3l0.3-0.7c0.2,0.1,0.3,0.2,0.6,0.2c0.2,0.1,0.4,0.1,0.7,0.1
			c0.4,0,0.7-0.1,0.7-0.3c0-0.1-0.1-0.2-0.2-0.2S27.4,9,27.2,9c-0.3,0-0.5-0.1-0.7-0.2c-0.2-0.1-0.4-0.2-0.5-0.3s-0.2-0.4-0.2-0.6
			c0-0.2,0.1-0.4,0.2-0.6c0-0.1,0.2-0.3,0.5-0.4c0.2-0.1,0.5-0.1,0.9-0.1c0.2,0,0.5,0,0.7,0.1s0.5,0.1,0.6,0.2l-0.3,0.7
			c-0.3-0.2-0.7-0.3-1-0.3c-0.2,0-0.4,0-0.5,0.1s-0.2,0.1-0.2,0.2S26.8,8,26.9,8s0.3,0.1,0.6,0.1c0.3,0,0.5,0.1,0.7,0.2
			c0.2,0.1,0.3,0.2,0.5,0.3c0.1,0.1,0.2,0.3,0.2,0.6c0,0.2-0.1,0.4-0.2,0.6c-0.1,0.2-0.3,0.3-0.6,0.4c-0.3,0.1-0.6,0.1-0.9,0.1
			C26.8,10.4,26.6,10.4,26.3,10.3z"/>
		<path class="st1" d="M31.7,10.2c-0.1,0.1-0.2,0.1-0.4,0.2c-0.1,0-0.3,0.1-0.5,0.1c-0.4,0-0.7-0.1-1-0.3c-0.2-0.2-0.3-0.5-0.3-0.9
			V7.7H29V6.9h0.5V6.1h1V7h0.9v0.8h-0.9v1.4c0,0.1,0,0.3,0.1,0.3c0.1,0.1,0.2,0.1,0.3,0.1c0.2,0,0.3,0,0.4-0.1L31.7,10.2z"/>
		<path class="st1" d="M34.7,10.3c-0.3-0.1-0.6-0.2-0.8-0.4l0.4-0.8c0.2,0.1,0.4,0.3,0.7,0.3c0.3,0.1,0.5,0.1,0.8,0.1s0.5,0,0.7-0.1
			c0.1-0.1,0.2-0.2,0.2-0.4c0-0.1,0-0.2-0.1-0.3s-0.2-0.1-0.3-0.2c-0.1,0-0.3-0.1-0.5-0.1c-0.4-0.1-0.6-0.2-0.9-0.2
			c-0.2-0.1-0.4-0.2-0.6-0.4C34,7.7,34,7.4,34,7.1s0.1-0.5,0.2-0.7c0.1-0.2,0.4-0.4,0.7-0.5s0.6-0.2,1.1-0.2c0.3,0,0.6,0,0.9,0.1
			C37,5.9,37.3,6,37.5,6.1l-0.3,0.8c-0.4-0.2-0.8-0.4-1.3-0.4c-0.3,0-0.5,0-0.7,0.1C35.1,6.8,35,6.9,35,7.1s0.1,0.3,0.2,0.4
			c0.2,0.1,0.4,0.2,0.8,0.2c0.4,0.1,0.6,0.2,0.9,0.2c0.2,0.1,0.4,0.2,0.6,0.4c0.2,0.2,0.2,0.4,0.2,0.7s-0.1,0.5-0.2,0.7
			c-0.1,0.2-0.4,0.4-0.7,0.5s-0.7,0.2-1.1,0.2C35.4,10.5,35,10.4,34.7,10.3z"/>
		<path class="st1" d="M41.8,8.9h-2.7c0,0.2,0.2,0.4,0.3,0.5c0.2,0.1,0.4,0.2,0.7,0.2c0.2,0,0.3,0,0.5-0.1c0.1-0.1,0.3-0.1,0.4-0.3
			l0.5,0.6c-0.3,0.4-0.8,0.6-1.5,0.6c-0.4,0-0.8-0.1-1.1-0.2c-0.3-0.2-0.5-0.4-0.7-0.6C38,9.3,38,9,38,8.7s0.1-0.7,0.2-0.9
			C38.5,7.4,38.7,7.2,39,7s0.6-0.2,1-0.2c0.3,0,0.7,0.1,0.9,0.2c0.3,0.1,0.5,0.4,0.7,0.6c0.2,0.3,0.2,0.6,0.2,1
			C41.8,8.6,41.8,8.7,41.8,8.9z M39.4,7.8c-0.2,0.1-0.3,0.3-0.3,0.5h1.7c0-0.2-0.1-0.4-0.3-0.5s-0.4-0.2-0.6-0.2
			C39.7,7.6,39.6,7.6,39.4,7.8z"/>
		<path class="st1" d="M42.5,5.5h1v4.9h-1V5.5z"/>
		<path class="st1" d="M44.5,5.5h1v4.9h-1V5.5z"/>
		<path class="st1" d="M46.5,6.2c-0.1-0.1-0.2-0.2-0.2-0.4s0.1-0.3,0.2-0.4c0.1-0.1,0.3-0.2,0.5-0.2s0.3,0.1,0.5,0.2
			c0.1,0.1,0.2,0.2,0.2,0.4c0,0.2-0.1,0.3-0.2,0.4c-0.1,0.1-0.3,0.2-0.5,0.2C46.8,6.4,46.6,6.3,46.5,6.2z M46.5,6.8h1v3.5h-1V6.8z"
			/>
		<path class="st1" d="M51.6,7.2C51.9,7.4,52,7.8,52,8.4v2h-1V8.5c0-0.3,0-0.5-0.2-0.6c-0.1-0.1-0.3-0.2-0.5-0.2
			c-0.3,0-0.5,0.1-0.6,0.2c-0.2,0.2-0.2,0.4-0.2,0.7v1.7h-1V6.8h1v0.4c0.1-0.1,0.3-0.3,0.5-0.3c0.2-0.1,0.4-0.1,0.7-0.1
			S51.4,6.9,51.6,7.2z"/>
		<path class="st1" d="M56.7,6.8v2.9c0,0.6-0.2,1.1-0.5,1.4c-0.3,0.3-0.8,0.5-1.5,0.5c-0.3,0-0.7,0-1-0.1s-0.6-0.2-0.8-0.4l0.4-0.7
			c0.1,0.1,0.3,0.2,0.6,0.3c0.2,0.1,0.5,0.1,0.7,0.1c0.4,0,0.6-0.1,0.8-0.2c0.2-0.2,0.3-0.4,0.3-0.7V9.8c-0.3,0.3-0.6,0.4-1.1,0.4
			c-0.3,0-0.6-0.1-0.9-0.2c-0.3-0.1-0.5-0.3-0.6-0.6c-0.2-0.3-0.2-0.6-0.2-0.9c0-0.3,0.1-0.6,0.2-0.9c0.2-0.3,0.4-0.5,0.6-0.6
			c0.3-0.1,0.6-0.2,0.9-0.2c0.5,0,0.9,0.2,1.2,0.5V6.8H56.7z M55.4,9.1c0.2-0.2,0.3-0.4,0.3-0.6c0-0.3-0.1-0.5-0.3-0.6
			c-0.2-0.2-0.4-0.2-0.7-0.2S54.2,7.8,54,7.9c-0.2,0.2-0.3,0.4-0.3,0.6c0,0.3,0.1,0.5,0.3,0.6s0.4,0.2,0.7,0.2
			C55,9.4,55.2,9.3,55.4,9.1z"/>
	</g>
</g>
</svg>
