<?xml version="1.0" encoding="utf-8"?>
<!-- Generator: Adobe Illustrator 22.1.0, SVG Export Plug-In . SVG Version: 6.00 Build 0)  -->
<svg version="1.1" id="Capa_1" xmlns="http://www.w3.org/2000/svg" xmlns:xlink="http://www.w3.org/1999/xlink" x="0px" y="0px"
	 viewBox="0 0 90.3 90.3" style="enable-background:new 0 0 90.3 90.3;" xml:space="preserve">
<style type="text/css">
	.st0{fill:#FFFFFF;}
</style>
<g>
	<path class="st0" d="M67.4,50.8c-5.3,0-9.6,4.3-9.6,9.6s4.3,9.6,9.6,9.6c2.6,0,5-1,6.8-2.8S77,63,77,60.4
		C77,55.1,72.7,50.8,67.4,50.8z M74.5,60.3c0,3.9-3.2,7.1-7.1,7.1s-7.1-3.2-7.1-7.1s3.2-7.1,7.1-7.1C71.3,53.3,74.5,56.4,74.5,60.3z
		"/>
	<path class="st0" d="M90.2,56.2c-0.2-0.2-0.5-0.4-0.9-0.4h-3.8c-0.2-0.7-0.5-1.3-0.8-1.9l3-3c0.2-0.2,0.4-0.5,0.4-0.9
		c0-0.3-0.1-0.7-0.4-0.9l-6.9-6.9c-0.2-0.2-0.6-0.4-0.9-0.4l0,0c-0.3,0-0.6,0.1-0.9,0.4l-2.9,2.9c-0.6-0.3-1.1-0.5-1.7-0.7v-4.7
		c0-0.7-0.6-1.3-1.3-1.3h-3v-3.7c0-0.7-0.6-1.3-1.3-1.3h-6.6c-0.4-1.3-0.9-2.7-1.5-4l5.2-5.2c0.2-0.2,0.4-0.5,0.4-0.9
		s-0.1-0.6-0.4-0.9L55.2,11.9c-0.5-0.5-1.3-0.5-1.8,0l-5,5c-1.1-0.6-2.3-1.1-3.5-1.5V7.5c0-0.7-0.6-1.3-1.3-1.3H28.3
		c-0.7,0-1.3,0.6-1.3,1.3v7.9c-1,0.3-2,0.7-3,1.2l-6-6.1c-0.5-0.5-1.3-0.5-1.8,0L5.4,21.3C5.1,21.5,5,21.8,5,22.2
		c0,0.3,0.1,0.7,0.4,0.9l6,6c-0.4,0.8-0.8,1.7-1.1,2.5H1c-0.7,0-1.3,0.6-1.3,1.3v15.3c0,0.7,0.6,1.3,1.3,1.3h8.6
		c0.3,0.9,0.6,1.7,0.9,2.6L4,58.6c-0.2,0.2-0.4,0.6-0.4,0.9c0,0.3,0.1,0.7,0.4,0.9l10.8,10.8c0.5,0.5,1.3,0.5,1.8,0l5.7-5.7
		c0.9,0.5,1.9,1,2.8,1.4v8.7c0,0.7,0.6,1.3,1.3,1.3h15.3c0.7,0,1.3-0.6,1.3-1.3v-7.3c1.2-0.3,2.4-0.7,3.6-1.2l3,3l-1.7,1.7
		c-0.2,0.2-0.4,0.6-0.4,0.9s0.1,0.6,0.4,0.9l6.9,6.9c0.5,0.5,1.3,0.5,1.8,0l3.4-3.4c0.4,0.2,0.8,0.4,1.2,0.6v5.2
		c0,0.7,0.6,1.3,1.3,1.3H72c0.7,0,1.3-0.6,1.3-1.3v-4.3c0.6-0.2,1.2-0.4,1.7-0.6l3.3,3.3c0.5,0.5,1.3,0.5,1.8,0l6.9-6.9
		c0.2-0.2,0.4-0.5,0.4-0.9c0-0.3-0.1-0.7-0.4-0.9l-2.7-2.7c0.3-0.6,0.6-1.2,0.9-1.9h4.3c0.7,0,1.3-0.6,1.3-1.3V57
		C90.6,56.8,90.4,56.4,90.2,56.2z M83,66.4c-0.4,1.1-0.9,2.1-1.5,3.1c-0.3,0.5-0.2,1.1,0.2,1.5l2.5,2.5l-5.1,5.1l-3-3
		c-0.4-0.4-0.9-0.5-1.4-0.3c-0.9,0.4-1.9,0.8-3,1c-0.6,0.1-1,0.6-1,1.2v4h-7.2v-4.8c0-0.5-0.3-1-0.8-1.2c-0.9-0.4-1.7-0.8-2.5-1.3
		c-0.5-0.3-1.1-0.2-1.5,0.2l-3.2,3.2l-5.1-5.1l3.6-3.6c0.4-0.4,0.5-0.9,0.3-1.4c-0.4-0.8-0.6-1.6-0.8-2.4c-0.1-0.6-0.6-0.9-1.2-0.9
		h-4.8V57h5.2c0.5,0,1-0.3,1.2-0.8c0.3-0.8,0.6-1.6,1-2.3c0.3-0.5,0.2-1.1-0.2-1.5l-3.3-3.3l5.1-5.1l3.4,3.4c0.4,0.4,1,0.5,1.5,0.2
		c0.9-0.4,1.7-0.8,2.6-1.1c0.5-0.2,0.9-0.6,0.9-1.2V41H72v4.3c0,0.5,0.4,1,0.9,1.2c1,0.3,2,0.7,2.9,1.2c0.5,0.3,1.1,0.2,1.5-0.2
		l2.7-2.7l5.1,5.1l-2.8,2.8c-0.4,0.4-0.5,1-0.2,1.5c0.5,1,0.9,2.1,1.2,3.2c0.1,0.5,0.6,0.9,1.2,0.9H88v7.2h-3.9
		C83.6,65.5,83.2,65.9,83,66.4z M51.4,66.8c0.1,0.3,0.2,0.7,0.4,1.1l-0.5,0.5l-1.5-1.5L51.4,66.8L51.4,66.8z M26.8,64.8
		c-1.4-0.6-2.8-1.2-4.1-2c-0.5-0.3-1.1-0.2-1.5,0.2l-5.5,5.5l-9.1-9.1l6.3-6.3c0.4-0.4,0.5-0.9,0.3-1.4c-0.6-1.3-1-2.6-1.4-3.9
		c-0.1-0.5-0.6-0.9-1.2-0.9H2.3V34.1h8.9c0.5,0,1-0.3,1.2-0.8c0.5-1.3,1-2.6,1.7-3.8c0.3-0.5,0.2-1.1-0.2-1.5L8,22.2l9.1-9.1L23,19
		c0.4,0.4,1,0.5,1.5,0.2c1.4-0.7,2.8-1.3,4.2-1.7c0.5-0.2,0.9-0.7,0.9-1.2V8.8h12.8v7.6c0,0.5,0.4,1,0.9,1.2c1.6,0.5,3.2,1.2,4.8,2
		c0.5,0.3,1.1,0.2,1.5-0.2l4.8-4.8l9.1,9.1l-4.9,4.9c-0.4,0.4-0.5,1-0.2,1.5c0.9,1.7,1.5,3.4,2,5.2c0.1,0.6,0.6,0.9,1.2,0.9h6.3v2.4
		h-4.2c-0.7,0-1.3,0.6-1.3,1.3v4.7c-0.4,0.2-0.9,0.3-1.3,0.5l-3.7-3.7c-0.5-0.5-1.3-0.5-1.8,0l-6.9,6.9c-0.1,0.1-0.1,0.2-0.2,0.3
		c1.1-2.1,1.7-4.5,1.7-7c0-8.4-6.8-15.3-15.3-15.3s-15.3,6.8-15.3,15.3c0,8.4,6.8,15.3,15.3,15.3c5.8,0,10.9-3.3,13.5-8.1
		c-0.1,0.4-0.1,0.9,0.3,1.3l3.6,3.6c-0.2,0.3-0.3,0.7-0.5,1h-5.5c-0.7,0-1.3,0.6-1.3,1.3v9.1c-1.2,0.5-2.4,0.8-3.7,1.1l0,0
		c-0.6,0.1-1,0.6-1,1.2v7H27.6V66C27.6,65.5,27.3,65,26.8,64.8z M47.8,41.5c0,7-5.7,12.8-12.8,12.8s-12.8-5.7-12.8-12.8
		c0-7,5.7-12.8,12.8-12.8S47.8,34.5,47.8,41.5z"/>
</g>
</svg>
