<svg width="223" height="208" viewBox="0 0 223 208" fill="none" xmlns="http://www.w3.org/2000/svg">
<g clip-path="url(#clip0)">
<path d="M0 111.603C0.399212 106.247 0.718582 100.892 1.27748 95.5365C3.67275 74.3547 8.62298 53.8922 20.5994 35.9077C34.0927 15.7649 52.696 3.77523 76.8883 0.977635C80.082 0.65791 83.2757 0.498047 86.4694 0.498047C91.8987 0.498047 95.811 4.09496 95.8908 9.5303C96.0505 21.9996 96.0505 34.5488 95.8908 47.0181C95.811 52.0538 92.5374 55.7306 87.5073 55.8905C75.1318 56.2902 68.2653 63.6439 64.0337 74.3547C60.6004 82.9073 59.1633 91.9396 58.3648 101.052C58.0455 104.249 57.9656 107.526 57.7261 111.043C58.8439 111.043 59.6423 111.043 60.3609 111.043C68.7444 111.043 77.048 111.043 85.4314 111.043C92.5374 111.043 95.9706 114.48 95.9706 121.594C95.9706 146.852 95.9706 172.191 95.9706 197.449C95.9706 204.483 92.3777 208 85.3516 208C60.7601 208 36.1686 207.92 11.5772 208.08C5.90834 208.08 1.91622 206.162 0 200.646C0 170.912 0 141.257 0 111.603Z" fill="#B0DEFF"/>
<path d="M185.075 111.043C186.033 111.043 186.831 111.043 187.63 111.043C195.933 111.043 204.157 111.043 212.461 111.043C219.487 111.043 223 114.64 223 121.674C223 146.852 223 172.111 223 197.289C223 204.403 219.407 208 212.301 208C187.31 208 162.4 208 137.409 208C130.622 208 127.029 204.403 127.029 197.689C127.029 169.313 126.87 140.857 127.269 112.482C127.508 92.0993 130.702 72.1165 138.527 53.1728C145.473 36.547 155.693 22.4791 171.023 12.4877C181.562 5.61356 193.219 1.93672 205.754 0.977543C208.229 0.81768 210.704 0.657817 213.179 0.577886C219.008 0.497954 223 4.33466 223 10.1697C223.08 22.3192 223.08 34.4688 223 46.5384C223 51.8938 219.726 55.7306 214.457 55.8904C202.001 56.37 195.454 63.8836 191.303 74.5144C187.63 83.8664 186.352 93.698 185.554 103.689C185.314 106.007 185.235 108.405 185.075 111.043Z" fill="#B0DEFF"/>
</g>
<defs>
<clipPath id="clip0">
<rect width="223" height="207.502" fill="white" transform="translate(0 0.498047)"/>
</clipPath>
</defs>
</svg>
