<?xml version="1.0" encoding="utf-8"?>
<!-- Generator: Adobe Illustrator 22.1.0, SVG Export Plug-In . SVG Version: 6.00 Build 0)  -->
<svg version="1.1" id="Layer_1" xmlns="http://www.w3.org/2000/svg" xmlns:xlink="http://www.w3.org/1999/xlink" x="0px" y="0px"
	 viewBox="0 0 1440 629.4" style="enable-background:new 0 0 1440 629.4;" xml:space="preserve">
<style type="text/css">
	.st0{fill:url(#SVGID_1_);}
	.st1{fill:url(#SVGID_2_);}
	.st2{fill:url(#SVGID_3_);}
	.st3{fill:url(#SVGID_4_);}
	.st4{fill:url(#SVGID_5_);}
	.st5{fill:url(#SVGID_6_);}
	.st6{fill:url(#SVGID_7_);fill-opacity:0.45;}
	.st7{fill:url(#SVGID_8_);}
</style>
<linearGradient id="SVGID_1_" gradientUnits="userSpaceOnUse" x1="721.0588" y1="-277.9092" x2="721.0598" y2="534.8894" gradientTransform="matrix(1 0 0 -1 0 534.8892)">
	<stop  offset="0" style="stop-color:#1FA2FF"/>
	<stop  offset="1" style="stop-color:#9FD4FA;stop-opacity:0"/>
</linearGradient>
<path class="st0" d="M-0.4,56.5l0,724.4h1443V0L-0.4,56.5z"/>
<linearGradient id="SVGID_2_" gradientUnits="userSpaceOnUse" x1="1452.8199" y1="430.9366" x2="1294.01" y2="237.5476" gradientTransform="matrix(1 0 0 -1 0 534.8892)">
	<stop  offset="0" style="stop-color:#A1D5FA;stop-opacity:0"/>
	<stop  offset="1" style="stop-color:#2354EC;stop-opacity:0.35"/>
</linearGradient>
<path class="st1" d="M1457.7,116.9c-3-8-10.1-13.8-18.5-15.2l-96.1-15.9c-8.5-1.4-17,1.8-22.5,8.4l-61.8,75.3
	c-5.4,6.6-6.9,15.7-3.9,23.7l34.3,91.2c3,8,10.1,13.8,18.5,15.2l96.1,15.9c8.5,1.4,17-1.8,22.5-8.4l61.8-75.3
	c5.4-6.6,6.9-15.7,3.9-23.7L1457.7,116.9z"/>
<linearGradient id="SVGID_3_" gradientUnits="userSpaceOnUse" x1="643.164" y1="-162.4234" x2="799.481" y2="-14.2424" gradientTransform="matrix(1 0 0 -1 0 534.8892)">
	<stop  offset="0" style="stop-color:#A1D5FA;stop-opacity:0"/>
	<stop  offset="1" style="stop-color:#2354EC;stop-opacity:0.35"/>
</linearGradient>
<path class="st2" d="M639.9,683.8c2,8.3,8.3,15,16.5,17.4l76.7,22.8c8.2,2.4,17.1,0.3,23.3-5.6l58-55c6.2-5.9,8.8-14.7,6.8-23
	l-18.6-77.8c-2-8.3-8.3-15-16.5-17.4l-76.7-22.8c-8.2-2.4-17.1-0.3-23.3,5.6l-58,55c-6.2,5.9-8.8,14.7-6.8,23L639.9,683.8z"/>
<linearGradient id="SVGID_4_" gradientUnits="userSpaceOnUse" x1="2435" y1="-357.5554" x2="2435" y2="-431.5554" gradientTransform="matrix(-1 0 0 1 3682 852)">
	<stop  offset="0" style="stop-color:#F1F6FA"/>
	<stop  offset="1" style="stop-color:#75C4FF;stop-opacity:0.63"/>
</linearGradient>
<circle class="st3" cx="1247" cy="457.4" r="37"/>
<linearGradient id="SVGID_5_" gradientUnits="userSpaceOnUse" x1="1894.4098" y1="251.2439" x2="1894.4098" y2="213.4834" gradientTransform="matrix(-1 0 0 1 3123.29 -146.8892)">
	<stop  offset="0" style="stop-color:#F1F6FA"/>
	<stop  offset="1" style="stop-color:#75C4FF;stop-opacity:0.63"/>
</linearGradient>
<circle class="st4" cx="1228.9" cy="85.5" r="18.9"/>
<linearGradient id="SVGID_6_" gradientUnits="userSpaceOnUse" x1="1319.8119" y1="-176.0781" x2="1319.8119" y2="179.4443" gradientTransform="matrix(1 0 0 -1 0 534.8892)">
	<stop  offset="0" style="stop-color:#0080DC"/>
	<stop  offset="1" style="stop-color:#CBE9FF;stop-opacity:0"/>
</linearGradient>
<path class="st5" d="M1350.6,390.6c32-72.4,75.3-16.5,93,20.5v279c-1.8,8-9.7,23.3-26.5,20.5c-21-3.5-33-86-82.5-81.5s-55,56-112-20
	s-9.5-159,22.5-185.5S1310.6,481.1,1350.6,390.6z"/>
<linearGradient id="SVGID_7_" gradientUnits="userSpaceOnUse" x1="-22.6806" y1="230.9172" x2="142.2404" y2="190.6992" gradientTransform="matrix(1 0 0 -1 0 534.8892)">
	<stop  offset="0" style="stop-color:#6DBEF7"/>
	<stop  offset="1" style="stop-color:#6DBEF7;stop-opacity:0"/>
</linearGradient>
<path class="st6" d="M18.7,248.8c25,77.5-81.8,10.4-82.5,58.1c-1.7,119.4,172.1,229.6,185.1,111.1c5.5-49.7,73.1-54.2,79.5-96
	c6.4-41.7-31.3-107.7-112.6-131.8C6.9,166.3-12.5,151.9,18.7,248.8z"/>
<linearGradient id="SVGID_8_" gradientUnits="userSpaceOnUse" x1="1777.558" y1="83.3251" x2="1777.558" y2="44.2421" gradientTransform="matrix(-1 0 0 1 1841.116 117.322)">
	<stop  offset="0" style="stop-color:#F1F6FA"/>
	<stop  offset="1" style="stop-color:#75C4FF;stop-opacity:0.63"/>
</linearGradient>
<circle class="st7" cx="63.6" cy="181.1" r="19.5"/>
</svg>
