<svg width="83" height="70" viewBox="0 0 83 70" fill="none" xmlns="http://www.w3.org/2000/svg">
<path d="M10.969 56.4681C11.5487 55.628 12.0361 55.1029 12.2732 54.486C12.4576 54.0134 12.563 53.2258 12.2995 52.9239C12.0229 52.5958 11.2325 52.5039 10.7319 52.6089C9.16432 52.9371 8.25537 54.4597 8.70326 56.0743C8.95355 56.9931 9.40144 57.8595 9.82298 58.7258C10.1918 59.4872 10.6924 60.1829 11.0613 60.9442C12.7343 64.3046 11.272 67.4287 7.57036 68.2819C5.05429 68.8595 2.77533 68.2688 0.983772 66.3654C-0.452105 64.8296 -0.294027 63.307 1.3131 61.9681C2.51186 60.9573 4.02678 60.4323 5.38362 60.7211C4.86986 61.233 4.44832 61.6268 4.0663 62.0468C3.05196 63.1495 2.95975 64.5934 3.81601 65.7485C4.63274 66.8511 5.96324 67.2055 7.22786 66.6542C8.50566 66.1029 9.15115 64.6327 8.7296 63.1495C8.5847 62.6375 8.33441 62.1387 8.08412 61.6662C7.57036 60.7079 7.00392 59.7891 6.50334 58.8308C5.19919 56.3237 5.2914 54.6041 6.79315 53.0815C8.50566 51.3356 11.9307 50.6005 13.8935 51.5588C15.0396 52.1101 15.3952 53.0683 14.7102 54.1184C13.933 55.3392 12.945 56.4025 10.969 56.4681Z" fill="#1C1F3F"/>
<path d="M54.9017 64.1601C53.7819 65.1578 52.7281 66.0897 51.6611 67.0217C51.5293 66.9167 51.3976 66.8248 51.2659 66.7198C51.9377 65.4465 51.4766 64.252 51.1341 63.0181C50.9102 62.2043 50.8575 61.2986 50.9102 60.4454C50.9497 59.9072 51.503 59.3952 50.7653 58.9358C50.0539 58.4895 49.4611 58.7914 49.0264 59.3165C48.3809 60.0778 47.8013 60.9048 47.2612 61.7449C46.6948 62.6244 46.1942 63.4907 45.1008 63.8714C44.6924 64.0158 44.2446 64.4883 44.0997 64.9084C43.6386 66.1816 42.6374 66.3129 41.5572 66.4442C41.9656 65.3284 42.4925 64.3177 42.7165 63.2544C43.2961 60.4847 41.0566 58.4501 38.3298 59.1983C35.7874 59.8809 34.4569 61.6792 34.1012 64.1733C33.9431 65.2628 33.3899 65.9585 32.5731 66.4835C32.1779 66.7329 31.5061 66.8642 31.1109 66.6936C30.8474 66.5754 30.6894 65.7878 30.7947 65.394C31.045 64.4752 31.5456 63.622 31.8222 62.7031C32.0462 61.968 32.415 61.0623 32.1647 60.4454C31.7827 59.4609 30.8079 60.196 30.0966 60.2616C28.7397 60.406 28.4894 60.196 28.7661 58.9096C28.9505 58.0301 28.4631 57.4919 27.7781 57.3475C27.3697 57.2556 26.632 57.6232 26.4212 58.0038C26.1578 58.4764 26.0392 59.3034 26.2895 59.7234C26.935 60.7998 26.6847 61.7449 26.1051 62.6112C25.1961 63.9764 24.1818 65.289 23.1279 66.536C22.904 66.7986 22.1926 66.9167 21.8897 66.7592C21.6394 66.6279 21.5076 65.9453 21.5867 65.5647C21.7843 64.5539 22.1004 63.5432 22.4298 62.5587C22.9962 60.8523 23.0094 60.8654 21.3364 60.1435C21.1651 60.0647 21.0202 59.9203 20.8753 59.8022C19.4921 58.7914 18.0826 58.7258 16.6731 59.7103C14.6181 61.1542 13.5642 63.2019 13.3139 65.6697C13.2085 66.7067 13.551 67.5993 14.4732 68.1506C15.4085 68.715 16.3438 68.5313 17.2132 67.9537C17.806 67.5599 18.3461 67.0874 18.9257 66.6279C19.8215 68.505 21.5472 69.0957 23.1411 67.9012C24.195 67.1136 25.1303 66.0635 25.8811 64.974C26.6979 63.7795 27.2512 62.4143 27.9098 61.1279C29.372 61.3773 29.4379 61.5086 28.8583 62.7031C28.5816 63.2544 28.3182 63.8189 28.0942 64.3833C27.4883 65.9979 27.6463 67.0217 28.5948 67.7699C29.7145 68.6494 31.3348 68.7019 32.6126 67.8356C33.1791 67.4549 33.6928 66.9823 34.2198 66.5492C36.3275 68.7413 37.2101 68.9119 40.0291 67.6518C40.2004 67.573 40.398 67.5468 40.5824 67.5074C41.8734 67.2711 43.1775 67.0348 44.5871 66.7854C46.4577 69.3845 50.8707 69.6339 54.8095 65.9585C55.7184 65.2103 54.9017 64.1601 54.9017 64.1601ZM19.9532 62.7294C19.2945 64.1864 18.491 65.5778 17.6611 66.943C17.4898 67.2186 16.8443 67.468 16.5809 67.3499C16.2647 67.2055 16.1198 66.6673 15.9881 66.4573C16.0144 66.2604 16.0539 66.0504 16.0803 65.8666C16.3833 64.2127 16.9365 62.8475 18.0431 61.7843C18.3856 61.4561 19.0443 61.4561 19.5712 61.2986C19.637 61.548 19.782 61.8236 19.8742 62.0862C19.9796 62.3356 20.0322 62.5587 19.9532 62.7294ZM39.8579 64.4883C39.7788 64.8165 39.4363 65.1709 39.1202 65.3547C38.4088 65.7878 38.04 66.2866 38.5011 67.1924C37.3418 67.5337 36.8808 66.9823 36.8017 66.1816C36.6173 64.1995 37.052 62.3487 38.3561 60.7867C38.6328 60.4585 39.3573 60.0909 39.5944 60.2353C39.9633 60.4454 40.2663 61.0754 40.2663 61.5217C40.2531 62.5193 40.0818 63.517 39.8579 64.4883ZM48.46 67.0217C47.9726 67.8487 47.0504 67.7962 46.8397 66.8773C46.6421 65.9979 46.6948 65.0002 46.9055 64.1208C47.0636 63.4513 47.6169 62.8738 48.157 61.9812C48.4468 63.3463 48.7366 64.4096 48.8552 65.4991C48.9079 65.9847 48.7234 66.5754 48.46 67.0217Z" fill="#1C1F3F"/>
<path d="M82.7497 57.7939C82.618 57.9251 82.4994 57.9514 82.3941 57.8858C82.2755 57.5576 81.7881 57.2557 80.9318 56.9932C80.0756 56.7306 79.3906 56.5469 78.89 56.4419C78.3894 56.3368 77.8361 56.2843 77.2302 56.2843C77.1775 56.4025 77.0326 56.56 76.7955 56.7438C76.5583 56.9407 76.4398 57.1244 76.4398 57.3213C75.8075 59.1197 75.241 60.8392 74.7536 62.48C74.2662 64.134 73.8578 65.7354 73.5285 67.3237C73.5285 67.3893 73.5153 67.4681 73.5022 67.5731C73.489 67.6781 73.4626 67.7962 73.4626 67.9144C73.4626 68.0719 73.5153 68.19 73.6207 68.295C73.6734 68.4394 73.8578 68.5051 74.174 68.5051C74.4902 68.5051 74.6482 68.5445 74.6482 68.6232C74.6482 68.6757 74.6351 68.7282 74.6087 68.7807C74.5824 68.8332 74.5165 68.912 74.4243 69.017H74.1872C73.9632 69.017 73.6075 69.0695 73.1333 69.1745C72.6591 69.2795 72.3429 69.332 72.1848 69.332C71.9872 69.332 71.7765 69.2927 71.5525 69.227C71.4998 69.0826 71.4867 68.9382 71.4867 68.7807C71.4867 68.6495 71.4998 68.5051 71.5394 68.3476C71.5789 68.19 71.6052 68.0325 71.6447 67.8881C71.9477 67.0087 72.2771 65.9323 72.6459 64.659C73.0148 63.3858 73.4099 62.0075 73.8315 60.4979C74.253 59.0015 74.556 57.9251 74.7536 57.2688C74.9117 57.1113 75.1488 56.9669 75.4518 56.8094C75.7679 56.665 76.0578 56.5206 76.3476 56.3893C76.3476 56.3631 76.3081 56.3368 76.2158 56.3237C73.6339 56.3237 71.8423 56.6781 70.828 57.4001C69.8137 58.122 69.2604 58.5815 69.1682 58.7915C69.076 59.0015 68.9442 59.0803 68.7598 59.0278C68.7466 58.9621 68.7466 58.8834 68.7466 58.7652C68.7466 58.6734 68.773 58.4896 68.8125 58.2139C68.852 57.9383 68.8784 57.7282 68.8784 57.5707C69.1155 57.2819 69.3658 57.0719 69.6161 56.9538C69.8664 56.8225 70.3274 56.6387 70.9861 56.3762C71.6579 56.1137 72.5405 55.9168 73.6602 55.7724C74.78 55.6411 75.9129 55.5624 77.0721 55.5624C78.3631 55.5624 79.5618 55.628 80.6552 55.7462C81.7486 55.8774 82.4072 56.0087 82.6444 56.1531C82.8815 56.2975 83 56.4944 83 56.7175C83 56.7963 82.9605 56.98 82.8683 57.2426C82.7893 57.4788 82.7497 57.6757 82.7497 57.7939Z" fill="#2FA076"/>
<path d="M68.6676 56.5863L68.6544 56.5469L68.6149 56.5337C68.4963 56.4681 68.3383 56.4025 68.1407 56.3631C67.4688 56.3631 66.7311 56.3631 66.112 56.35C66.033 56.35 65.9671 56.35 65.9012 56.35C65.809 56.35 65.7168 56.35 65.6246 56.35H65.2557H64.6893C64.4917 56.35 64.2809 56.3631 64.0833 56.3894C63.8594 56.4156 63.6881 56.455 63.5564 56.5206L63.5169 56.5337L63.4905 56.56C63.3193 56.7963 63.3061 56.8488 63.2929 56.8882C63.2666 57.0063 63.3588 57.0982 63.3851 57.1244L63.4378 57.1769L63.5169 57.1638C63.7408 57.1113 63.833 57.0982 63.8726 57.0982C63.9384 57.0982 64.0175 57.0851 64.1228 57.0851C64.1228 57.0851 64.1755 57.0851 64.3731 57.1113C64.4917 57.1244 64.5707 57.1638 64.6234 57.2032C64.6761 57.2557 64.7025 57.3213 64.7288 57.4001C64.7552 57.5051 64.7552 57.6232 64.7552 57.7545C64.7552 57.9777 64.6893 58.3583 64.5707 58.8703C64.4522 59.3822 64.2019 60.196 63.833 61.2855C63.4774 62.3619 63.1217 63.412 62.7924 64.4228C62.3313 65.6829 62.0283 66.4574 61.8966 66.7461C61.778 67.0218 61.6199 67.3106 61.4355 67.6256C61.3301 67.665 61.1984 67.6781 61.014 67.6781C60.8032 67.6781 60.6056 67.6519 60.4344 67.5994L60.3685 67.5862L60.3158 67.6125C60.1841 67.6912 60.105 67.77 60.0392 67.8488C59.9601 67.9538 59.9469 68.085 60.0128 68.2163C60.0787 68.3738 60.2631 68.4657 60.5397 68.4657H62.0942C62.5684 68.4657 62.9636 68.4657 63.2666 68.4526C63.5696 68.4395 63.8199 68.4263 64.0438 68.4001C64.3336 68.3607 64.4127 68.3476 64.439 68.3344C64.518 68.3082 64.5707 68.2688 64.6102 68.2032C64.6366 68.1638 64.6629 68.0982 64.7025 68.0063C64.7683 67.8356 64.7025 67.7175 64.6629 67.665L64.6234 67.6125H64.5576C64.4653 67.6125 64.2941 67.6256 64.057 67.6519C63.8462 67.6781 63.675 67.6912 63.5432 67.6912C63.4774 67.6519 63.4774 67.6256 63.4642 67.5994C63.4774 67.56 63.5169 67.4287 63.675 66.9168C63.8199 66.4574 64.136 65.4204 64.6234 63.7533C65.0977 62.1125 65.4929 60.7998 65.809 59.8416C65.8354 59.7497 65.8749 59.6447 65.9012 59.5528C65.9276 59.461 65.9539 59.3822 65.9934 59.2903C66.0461 59.1328 66.0988 58.9753 66.1647 58.8178C66.1779 58.7652 66.2042 58.7259 66.2174 58.6734C66.2701 58.5158 66.3359 58.3583 66.3886 58.2139C66.4018 58.1877 66.415 58.1614 66.415 58.1352C66.5467 57.7939 66.6916 57.4395 66.8365 57.0982C67.0736 57.0982 67.3108 57.0982 67.561 57.0982C67.8113 57.0982 68.0484 57.0982 68.2724 57.0982C68.3251 57.1113 68.4173 57.1376 68.5754 57.1901L68.6544 57.2163L68.7203 57.1638C68.7335 57.1507 68.7598 57.1244 68.7861 57.0982C68.8125 57.0588 68.852 57.0063 68.8388 56.9275C68.8257 56.9013 68.8125 56.8488 68.6676 56.5863Z" fill="#2FA076"/>
<path d="M41.9392 55.3129C41.6494 55.326 41.4123 55.0897 41.4123 54.8141C41.3991 54.5253 41.6362 54.289 41.9128 54.289C42.2027 54.2759 42.4398 54.5122 42.4398 54.7878C42.453 55.0766 42.2158 55.3129 41.9392 55.3129ZM40.3716 55.2866C40.0949 55.2735 39.8842 55.0504 39.8842 54.7747C39.8842 54.7616 39.8842 54.7616 39.8842 54.7485C39.8974 54.4728 40.1345 54.2496 40.4111 54.2628C40.6877 54.2759 40.9117 54.4991 40.9117 54.7616C40.9117 54.7747 40.9117 54.7747 40.9117 54.7878C40.8985 55.0635 40.6746 55.2735 40.3979 55.2735C40.3716 55.2866 40.3716 55.2866 40.3716 55.2866ZM42.9667 54.7747C42.9667 54.7616 42.9667 54.7616 42.9667 54.7485C42.9535 54.4728 43.1643 54.2496 43.4409 54.2234V54.2365C43.7176 54.2103 43.9679 54.4203 43.9942 54.6959C43.9942 54.7091 43.9942 54.7091 43.9942 54.7222C44.0074 54.9979 43.7966 55.221 43.52 55.2473C43.5068 55.2473 43.4936 55.2473 43.4805 55.2473C43.2038 55.2473 42.9799 55.0372 42.9667 54.7747ZM38.7908 55.1816C38.5273 55.1554 38.3297 54.9322 38.3297 54.6697C38.3297 54.6566 38.3297 54.6303 38.3297 54.6172C38.3693 54.3415 38.6196 54.1315 38.8962 54.1578C39.1597 54.184 39.3573 54.394 39.3573 54.6566C39.3573 54.6697 39.3441 54.6959 39.3441 54.7091C39.3177 54.9716 39.107 55.1685 38.8435 55.1685C38.8303 55.1816 38.8172 55.1816 38.7908 55.1816ZM44.4948 54.6434C44.4948 54.6303 44.4948 54.6041 44.4948 54.5909C44.4816 54.3284 44.6792 54.0921 44.9427 54.0659C45.2193 54.0265 45.4828 54.2234 45.5223 54.4991C45.5223 54.5253 45.5223 54.5516 45.5223 54.5778C45.5223 54.8141 45.3379 55.0372 45.0744 55.0635C45.0612 55.0635 45.0349 55.0635 45.0085 55.0635C44.7583 55.0897 44.5343 54.8928 44.4948 54.6434ZM37.2364 54.9847C36.9861 54.9453 36.8017 54.7222 36.8017 54.4859C36.8017 54.4597 36.8017 54.4334 36.8017 54.4072C36.8412 54.1315 37.1178 53.9477 37.3944 53.974C37.6447 54.0134 37.8292 54.2365 37.8292 54.4859C37.8292 54.5122 37.8292 54.5384 37.816 54.5647C37.7765 54.8141 37.5657 54.9979 37.3154 54.9979C37.2891 54.9847 37.2627 54.9847 37.2364 54.9847ZM46.0361 54.4334C46.0229 54.394 46.0229 54.3678 46.0229 54.3284C46.0229 54.0921 46.1941 53.8821 46.4313 53.8427C46.7079 53.7902 46.9845 53.974 47.0372 54.2496C47.0504 54.289 47.0504 54.3153 47.0504 54.3547C47.0504 54.5909 46.8791 54.801 46.642 54.8535C46.6025 54.8666 46.5762 54.8666 46.5498 54.8666C46.2864 54.8403 46.0756 54.6697 46.0361 54.4334ZM35.6951 54.6959C35.458 54.6434 35.2867 54.4334 35.2867 54.1971C35.2999 54.1578 35.2999 54.1315 35.2999 54.0921C35.3658 53.8165 35.6292 53.6458 35.9059 53.6983C36.143 53.7508 36.3142 53.9609 36.3142 54.2103C36.3142 54.2496 36.3011 54.2759 36.3011 54.3022C36.2484 54.5384 36.0376 54.7091 35.8005 54.7091C35.761 54.6959 35.7215 54.6959 35.6951 54.6959ZM47.551 54.1315C47.5378 54.0921 47.5378 54.0396 47.5378 54.0002C47.5378 53.764 47.6959 53.5671 47.9198 53.5146C48.1965 53.4489 48.4731 53.6064 48.5521 53.8821C48.5653 53.9215 48.5653 53.974 48.5653 54.0134C48.5653 54.2365 48.4072 54.4465 48.1833 54.4991C48.1438 54.5122 48.1042 54.5122 48.0516 54.5122C47.8144 54.5122 47.6037 54.3678 47.551 54.1315ZM34.1538 54.3153C33.9299 54.2496 33.7718 54.0396 33.785 53.8165C33.785 53.7771 33.785 53.7246 33.7982 53.6852C33.864 53.4227 34.1538 53.252 34.4305 53.3308C34.6676 53.3964 34.8125 53.6064 34.8125 53.8296C34.8125 53.869 34.7993 53.9084 34.7993 53.9609C34.7335 54.184 34.5359 54.3415 34.3119 54.3415C34.2461 54.3284 34.1934 54.3284 34.1538 54.3153ZM49.0395 53.7377C49.0264 53.6852 49.0132 53.6327 49.0132 53.5802C49.0132 53.357 49.1581 53.1601 49.3689 53.0945H49.382C49.6455 53.0158 49.9353 53.1601 50.0144 53.4227C50.0275 53.4752 50.0407 53.5277 50.0407 53.5802C50.0407 53.8033 49.8958 54.0134 49.685 54.0659C49.6323 54.079 49.5796 54.0921 49.5269 54.0921C49.303 54.1053 49.1054 53.9609 49.0395 53.7377ZM32.6521 53.8559C32.4413 53.7902 32.3096 53.5933 32.2964 53.3833C32.2964 53.3177 32.3096 53.2652 32.3228 53.1995C32.415 52.937 32.7048 52.7926 32.9814 52.8845C33.1922 52.9501 33.3239 53.147 33.3239 53.357C33.3371 53.4096 33.3239 53.4752 33.2976 53.5277C33.2317 53.7377 33.0341 53.8821 32.8102 53.8821C32.7575 53.8821 32.7048 53.869 32.6521 53.8559ZM50.5149 53.2652C50.4886 53.1995 50.4754 53.147 50.4754 53.0814C50.4754 52.8714 50.6072 52.6745 50.8047 52.5957C51.0682 52.5038 51.3712 52.6351 51.4634 52.8845C51.4766 52.9501 51.4898 53.0026 51.4898 53.0683C51.5029 53.2783 51.358 53.4752 51.1604 53.5539C51.1077 53.5802 51.0419 53.5933 50.976 53.5933C50.7784 53.6064 50.5808 53.4752 50.5149 53.2652ZM31.1767 53.2914C30.9791 53.2127 30.8605 53.0289 30.8605 52.832C30.8605 52.7664 30.8737 52.7007 30.9001 52.6351C31.0055 52.3726 31.3084 52.2413 31.5719 52.3463C31.7695 52.4251 31.8881 52.6088 31.8881 52.8189C31.8881 52.8845 31.8749 52.9501 31.8485 53.0158C31.7695 53.2127 31.5719 53.3308 31.3743 53.3308C31.3084 53.3308 31.2294 53.3177 31.1767 53.2914ZM51.9508 52.7007C51.9245 52.6351 51.9113 52.5695 51.9113 52.5038C51.8981 52.3069 52.0167 52.1232 52.2143 52.0313C52.4777 51.9131 52.7676 52.0313 52.8861 52.2938C52.9125 52.3594 52.9256 52.4251 52.9256 52.4907C52.9388 52.6876 52.8202 52.8845 52.6226 52.9633C52.5568 53.0026 52.4909 53.0026 52.4119 53.0026C52.2143 53.0158 52.0299 52.8976 51.9508 52.7007ZM29.7408 52.6613C29.5564 52.5695 29.451 52.3988 29.451 52.2019C29.451 52.1232 29.4642 52.0444 29.5037 51.9788C29.6223 51.7162 29.9384 51.6112 30.1887 51.7425C30.3731 51.8344 30.4785 52.005 30.4785 52.2019C30.4785 52.2807 30.4654 52.3594 30.4258 52.4251C30.3336 52.6088 30.1624 52.7139 29.9648 52.7139C29.8857 52.7139 29.8067 52.7007 29.7408 52.6613ZM53.3472 52.0707C53.3077 51.9919 53.2945 51.9131 53.2945 51.8344C53.2945 51.6506 53.3867 51.48 53.5711 51.3881C53.8214 51.2568 54.1244 51.3487 54.2561 51.6112C54.2956 51.6769 54.3088 51.7687 54.3088 51.8475C54.3088 52.0313 54.2034 52.2019 54.0322 52.2938C54.0322 52.2938 54.0322 52.2938 54.0322 52.2807C53.9663 52.3201 53.8741 52.3463 53.7951 52.3463C53.6238 52.3463 53.4394 52.2544 53.3472 52.0707ZM28.3313 51.9525C28.16 51.8475 28.0678 51.6769 28.0678 51.4931C28.0678 51.4143 28.081 51.3356 28.1337 51.2568C28.2654 51.0074 28.5816 50.9155 28.8319 51.0599C29.0031 51.1518 29.0953 51.3224 29.0953 51.5062C29.0953 51.585 29.0822 51.6769 29.0295 51.7425C28.9373 51.9131 28.766 52.005 28.5816 52.005C28.5026 52.005 28.4103 51.9788 28.3313 51.9525ZM54.7172 51.3618C54.6645 51.2699 54.6513 51.1781 54.6513 51.0993C54.6513 50.9286 54.7435 50.758 54.9016 50.6661C55.1387 50.5217 55.4549 50.6005 55.5998 50.8499C55.6525 50.9418 55.6788 51.0337 55.6657 51.1124C55.6657 51.2831 55.5734 51.4537 55.4154 51.5456C55.3363 51.585 55.2441 51.6112 55.1519 51.6112C54.9806 51.6112 54.8094 51.5193 54.7172 51.3618ZM26.9745 51.1387C26.8164 51.0337 26.7373 50.8761 26.7373 50.7055C26.7373 50.6136 26.7637 50.5217 26.8164 50.443C26.9613 50.2067 27.2774 50.1279 27.5146 50.2855C27.6726 50.3905 27.7517 50.548 27.7517 50.7186C27.7517 50.8105 27.7253 50.9024 27.6726 50.9812C27.5804 51.1387 27.4092 51.2174 27.2379 51.2174C27.1589 51.2174 27.0667 51.1912 26.9745 51.1387ZM56.0345 50.5611C55.9686 50.4692 55.9423 50.3773 55.9423 50.2723C55.9423 50.1017 56.0213 49.9442 56.1794 49.8392C56.4165 49.6816 56.7327 49.7473 56.8908 49.9835C56.9566 50.0754 56.983 50.1673 56.983 50.2723C56.983 50.4298 56.9039 50.6005 56.7459 50.6924C56.6668 50.758 56.5614 50.7843 56.456 50.7843C56.298 50.7843 56.1267 50.7055 56.0345 50.5611ZM25.6703 50.2723C25.5254 50.1804 25.4595 50.0229 25.4595 49.8654C25.4595 49.7604 25.4859 49.6554 25.5518 49.5504C25.723 49.3141 26.0392 49.2616 26.2763 49.4322C26.4212 49.5372 26.5002 49.6948 26.4871 49.8654C26.4871 49.9704 26.4475 50.0623 26.3948 50.1411C26.2895 50.2855 26.1314 50.3511 25.9733 50.3511C25.8547 50.3642 25.7625 50.338 25.6703 50.2723ZM57.3123 49.6816C57.2464 49.5898 57.2069 49.4847 57.2069 49.3797C57.2069 49.2222 57.2728 49.0647 57.4177 48.9728C57.6416 48.8022 57.971 48.8415 58.1422 49.0647C58.2081 49.1566 58.2344 49.2616 58.2476 49.3666C58.2476 49.5241 58.1817 49.6816 58.0368 49.7735C57.9446 49.8392 57.8261 49.8785 57.7207 49.8785C57.5626 49.8917 57.4045 49.8129 57.3123 49.6816ZM24.4057 49.3272C24.274 49.2353 24.2213 49.0909 24.2213 48.9334C24.2081 48.8153 24.2476 48.6972 24.3267 48.6053C24.5111 48.3821 24.8272 48.3427 25.0512 48.5265C25.1697 48.6315 25.2356 48.7628 25.2356 48.9203C25.2356 49.0384 25.1961 49.1435 25.117 49.2485C25.0248 49.3797 24.8668 49.4454 24.7218 49.4454C24.6165 49.4454 24.4979 49.3929 24.4057 49.3272ZM58.5242 48.7365C58.4452 48.6446 58.3925 48.5265 58.3925 48.4084C58.3925 48.2509 58.4584 48.1196 58.5769 48.0015C58.7877 47.8177 59.117 47.8439 59.3015 48.0671C59.3805 48.159 59.42 48.2771 59.42 48.3952C59.4332 48.5396 59.3673 48.684 59.2356 48.789C59.1434 48.8678 59.0248 48.9203 58.9063 48.9203C58.7745 48.9203 58.6296 48.8547 58.5242 48.7365ZM23.2069 48.3034C23.1015 48.2115 23.0489 48.0671 23.0489 47.9227C23.0489 47.7914 23.0884 47.6864 23.1806 47.5683C23.365 47.3583 23.7075 47.3451 23.9051 47.5289C24.0105 47.6339 24.0764 47.7652 24.0764 47.9096C24.0764 48.0277 24.0368 48.1458 23.9446 48.2509C23.8524 48.369 23.7075 48.4215 23.5626 48.4215C23.4309 48.4346 23.3123 48.3952 23.2069 48.3034ZM59.6966 47.7258C59.6044 47.6208 59.5386 47.4895 59.5517 47.3583C59.5517 47.227 59.6044 47.0957 59.7098 47.0038C59.9206 46.8069 60.2367 46.8201 60.4343 47.017C60.5266 47.1089 60.5793 47.2532 60.5793 47.3714C60.5793 47.5026 60.5266 47.6339 60.4212 47.7389C60.329 47.8308 60.1972 47.8702 60.0655 47.8702C59.9338 47.8833 59.802 47.8439 59.6966 47.7258ZM22.074 47.227C21.9686 47.1351 21.916 46.9907 21.916 46.8726C21.916 46.7413 21.9686 46.61 22.074 46.505C22.2848 46.3081 22.601 46.3081 22.7986 46.5182C22.8908 46.61 22.9566 46.7544 22.9435 46.8726C22.9435 47.0038 22.9039 47.1351 22.7986 47.227C22.6932 47.332 22.5614 47.3845 22.4297 47.3845C22.298 47.3714 22.1794 47.3189 22.074 47.227ZM60.8032 46.6626C60.6846 46.5575 60.6319 46.4263 60.6319 46.2819C60.6451 46.1506 60.6846 46.0456 60.7769 45.9406C60.9613 45.7306 61.2906 45.7174 61.5014 45.9143C61.6068 46.0062 61.6595 46.1506 61.6595 46.295C61.6595 46.4263 61.6199 46.5444 61.5145 46.6494C61.4223 46.7544 61.2774 46.8069 61.1457 46.8069C61.0271 46.7938 60.8954 46.7544 60.8032 46.6626ZM20.9938 46.0719C20.9016 45.98 20.8621 45.8487 20.8621 45.7174C20.8621 45.5862 20.928 45.4418 21.0334 45.3368C21.2441 45.153 21.5735 45.1793 21.7579 45.3762C21.8501 45.4812 21.8896 45.5993 21.8896 45.7306C21.8896 45.875 21.8237 46.0062 21.7184 46.1112C21.6261 46.2031 21.4944 46.2425 21.3759 46.2425C21.2441 46.2425 21.0992 46.19 20.9938 46.0719ZM61.8439 45.5205C61.7121 45.4155 61.6595 45.2711 61.6595 45.1136C61.6595 44.9955 61.699 44.8905 61.778 44.7855C61.9624 44.5754 62.2786 44.5361 62.5025 44.7198C62.6211 44.8117 62.687 44.9561 62.687 45.1136C62.687 45.2186 62.6474 45.3368 62.5684 45.4418C62.4762 45.5731 62.3313 45.6256 62.1732 45.6256C62.0546 45.6387 61.9361 45.5993 61.8439 45.5205ZM19.9927 44.8642C19.9268 44.7723 19.8873 44.6673 19.8873 44.5623C19.8741 44.4048 19.9532 44.2473 20.0849 44.1554C20.3088 43.9716 20.625 44.0241 20.8094 44.2473C20.8753 44.3392 20.9148 44.4573 20.9148 44.5754C20.9148 44.733 20.8489 44.8642 20.7172 44.9692C20.625 45.0349 20.5064 45.0742 20.401 45.0742C20.243 45.0611 20.0981 44.9955 19.9927 44.8642ZM62.8187 44.326C62.687 44.2342 62.6079 44.0766 62.6079 43.9191C62.6079 43.8141 62.6474 43.7091 62.7133 43.6172C62.8846 43.3941 63.2007 43.3416 63.4378 43.5122C63.5696 43.6041 63.6486 43.7616 63.6486 43.9191C63.6486 44.011 63.6223 44.1291 63.5564 44.221C63.451 44.3523 63.3061 44.4311 63.148 44.4311C63.0163 44.4179 62.9109 44.3917 62.8187 44.326ZM19.0574 43.6041C18.9915 43.5122 18.9652 43.4203 18.9652 43.3153C18.952 43.1578 19.031 42.9871 19.1759 42.8953C19.4131 42.7377 19.7292 42.7902 19.9005 43.0265C19.9532 43.1184 19.9927 43.2103 19.9927 43.3153C19.9927 43.4728 19.9268 43.6435 19.7687 43.7354C19.6765 43.801 19.5843 43.8272 19.4789 43.8272C19.3208 43.8272 19.1628 43.7485 19.0574 43.6041ZM63.7145 43.0659C63.5696 42.974 63.4774 42.8165 63.4774 42.6459C63.4774 42.554 63.5037 42.449 63.5564 42.3571C63.7145 42.1208 64.0306 42.0552 64.2677 42.1996C64.4258 42.2914 64.5049 42.4621 64.5049 42.6196C64.518 42.7115 64.4917 42.8296 64.4258 42.9084C64.3204 43.0528 64.1624 43.1447 63.9911 43.1447C63.9121 43.1578 63.8067 43.1315 63.7145 43.0659ZM18.2011 42.2914C18.1484 42.2127 18.1353 42.1208 18.1353 42.0289C18.1353 41.8583 18.2143 41.6876 18.3724 41.5957C18.6095 41.4382 18.9256 41.5301 19.0837 41.7664H19.0706C19.1232 41.8451 19.1496 41.937 19.1496 42.0289C19.1496 42.2127 19.0574 42.3702 18.9125 42.4621C18.8203 42.5146 18.728 42.5408 18.649 42.5408C18.4646 42.5408 18.2933 42.449 18.2011 42.2914ZM64.5576 41.7795C64.3863 41.6876 64.2941 41.5038 64.2941 41.3201C64.2941 41.2413 64.3204 41.1626 64.36 41.0838C64.5049 40.8344 64.821 40.7556 65.0581 40.9C65.2294 41.005 65.3216 41.1626 65.3216 41.3595C65.3216 41.4382 65.3084 41.517 65.2557 41.5957C65.1635 41.7533 64.9923 41.8583 64.8078 41.8583C64.7156 41.8451 64.6366 41.8189 64.5576 41.7795ZM17.4239 40.9394C17.3844 40.8607 17.358 40.7819 17.358 40.69C17.358 40.5062 17.4502 40.3356 17.6215 40.2437C17.8718 40.1124 18.1879 40.2043 18.3197 40.4537C18.3592 40.5194 18.3724 40.6113 18.3724 40.69C18.3724 40.8738 18.2802 41.0444 18.1089 41.1363C18.043 41.1757 17.9508 41.2019 17.8718 41.2019C17.6874 41.2151 17.5029 41.1101 17.4239 40.9394ZM65.3084 40.4275C65.124 40.3356 65.0186 40.1518 65.0186 39.9681C65.0186 39.8893 65.0318 39.8105 65.0713 39.7449C65.203 39.4955 65.506 39.3905 65.7563 39.5086C65.9407 39.6005 66.0461 39.7843 66.033 39.9681C66.033 40.0468 66.0198 40.1256 65.9803 40.1912C65.888 40.375 65.7168 40.48 65.5192 40.48C65.4665 40.48 65.3743 40.4669 65.3084 40.4275ZM16.7126 39.5349C16.6862 39.4692 16.673 39.3774 16.673 39.3117C16.673 39.128 16.7916 38.9442 16.9628 38.8523C17.2263 38.7342 17.5293 38.8392 17.6478 39.1017C17.6874 39.1673 17.7005 39.2461 17.7005 39.3249C17.6874 39.5086 17.582 39.6924 17.3976 39.7843C17.3317 39.8105 17.2658 39.8237 17.1868 39.8237C16.9892 39.8368 16.7916 39.7187 16.7126 39.5349ZM65.9803 39.0492C65.7827 38.9573 65.6641 38.7735 65.6641 38.5766C65.6641 38.511 65.6773 38.4454 65.7036 38.3798C65.809 38.1172 66.112 37.9991 66.3755 38.1172C66.5731 38.196 66.6916 38.3798 66.6916 38.5766C66.6916 38.6423 66.6784 38.7079 66.6521 38.7867C66.573 38.9704 66.3886 39.0886 66.191 39.0886C66.112 39.0755 66.0461 39.0755 65.9803 39.0492ZM16.0934 38.091C16.0671 38.0253 16.0539 37.9597 16.0539 37.8941C16.0671 37.6972 16.1856 37.5134 16.3832 37.4347C16.6467 37.3296 16.9365 37.4609 17.0419 37.7234C17.0682 37.7891 17.0814 37.8547 17.0814 37.9203C17.0682 38.1303 16.9497 38.301 16.7521 38.3798C16.6862 38.406 16.6203 38.4191 16.5676 38.4191C16.37 38.4191 16.1724 38.301 16.0934 38.091ZM66.5731 37.6184C66.3623 37.5528 66.2437 37.3559 66.2305 37.1459C66.2305 37.0802 66.2437 37.0277 66.2701 36.9621C66.3623 36.6996 66.6521 36.5552 66.9287 36.6602C67.1395 36.7258 67.2712 36.9227 67.2712 37.1327C67.2712 37.1984 67.2581 37.264 67.2317 37.3165C67.1658 37.5265 66.9682 37.6578 66.7575 37.6578C66.6916 37.6447 66.6389 37.6447 66.5731 37.6184ZM15.5533 36.6208C15.5401 36.5814 15.527 36.5158 15.527 36.4633C15.5138 36.2533 15.6587 36.0432 15.8826 35.9776C16.1461 35.8857 16.4359 36.0301 16.5281 36.3058C16.5413 36.3452 16.5545 36.3977 16.5545 36.4502C16.5545 36.6733 16.4227 36.8833 16.1988 36.949C16.1461 36.9621 16.0934 36.9752 16.0407 36.9752C15.8299 36.9752 15.6323 36.8308 15.5533 36.6208ZM67.0868 36.1614C66.8629 36.0957 66.718 35.8988 66.718 35.6757C66.718 35.6232 66.7311 35.5838 66.7311 35.5182C66.8102 35.2557 67.1 35.085 67.3634 35.1638C67.5874 35.2294 67.7323 35.4263 67.7323 35.6494C67.7323 35.702 67.7323 35.7545 67.7191 35.807C67.6533 36.017 67.4557 36.1614 67.2317 36.1614C67.179 36.1876 67.1263 36.1876 67.0868 36.1614ZM15.1054 35.1113C15.0922 35.0719 15.0922 35.0325 15.0922 34.98C15.0791 34.7569 15.2372 34.5468 15.4743 34.4812C15.7377 34.4156 16.0275 34.5731 16.1066 34.8487C16.1198 34.8881 16.1198 34.9275 16.1198 34.98C16.1198 35.2031 15.9617 35.4132 15.7377 35.4788C15.6982 35.4919 15.6455 35.4919 15.606 35.4919C15.3689 35.5051 15.1581 35.3475 15.1054 35.1113ZM67.5083 34.6781C67.2712 34.6256 67.1263 34.4287 67.1131 34.1924C67.1131 34.153 67.1132 34.1137 67.1263 34.0611C67.1922 33.7855 67.4688 33.6148 67.7455 33.6805C67.9826 33.733 68.1407 33.943 68.1407 34.1662C68.1407 34.2055 68.1407 34.2449 68.1275 34.2974C68.0748 34.5337 67.864 34.6912 67.6269 34.6912C67.5874 34.6912 67.5479 34.6912 67.5083 34.6781ZM14.7366 33.6017C14.7366 33.5623 14.7234 33.5361 14.7234 33.4967C14.7234 33.2604 14.8947 33.0504 15.1318 32.9979C15.4084 32.9454 15.685 33.1292 15.7377 33.3917C15.7509 33.4311 15.7509 33.4573 15.7509 33.4967C15.7377 33.733 15.5797 33.943 15.3425 33.9955C15.303 34.0086 15.2767 34.0086 15.2372 34.0086C15.0132 33.9955 14.7893 33.838 14.7366 33.6017ZM67.8509 33.1817C67.5874 33.1423 67.4161 32.9191 67.4161 32.6566C67.4161 32.6304 67.4293 32.6041 67.4293 32.591C67.4688 32.3022 67.7455 32.1184 68.0221 32.1709C68.2724 32.2103 68.4568 32.4335 68.4568 32.6829C68.4568 32.7091 68.4436 32.7354 68.4436 32.7616C68.4041 33.011 68.1802 33.1817 67.9431 33.1817C67.9035 33.1817 67.8772 33.1817 67.8509 33.1817ZM14.4731 32.0528C14.4731 32.0265 14.4599 32.0003 14.4599 31.974C14.4731 31.7246 14.6444 31.5146 14.8947 31.4752C15.1845 31.4359 15.4348 31.6328 15.4743 31.9084C15.4874 31.9347 15.4874 31.9609 15.4874 31.9872C15.4743 32.2366 15.303 32.4466 15.0527 32.486C15.0264 32.4991 15 32.4991 14.9869 32.4991C14.7366 32.486 14.5126 32.3022 14.4731 32.0528ZM68.088 31.659C67.8245 31.6196 67.6269 31.3965 67.6401 31.1339C67.6401 31.1208 67.6401 31.0946 67.6401 31.0814C67.6796 30.8058 67.9299 30.6089 68.2065 30.6351C68.47 30.6745 68.6676 30.8977 68.6676 31.1602C68.6676 31.1733 68.6676 31.1996 68.6676 31.2127C68.6281 31.4752 68.4173 31.659 68.1538 31.659C68.1407 31.659 68.1143 31.659 68.088 31.659ZM14.2887 30.4907C14.2755 30.4776 14.2755 30.4514 14.2755 30.4382C14.2887 30.1757 14.4863 29.9526 14.7497 29.9394C15.0264 29.9132 15.2767 30.1232 15.303 30.3989C15.303 30.412 15.303 30.4382 15.303 30.4514C15.2898 30.7139 15.0922 30.9239 14.842 30.9502C14.8288 30.9502 14.8024 30.9502 14.7893 30.9502C14.539 30.9633 14.315 30.7533 14.2887 30.4907ZM68.2592 30.1363C67.9958 30.1232 67.7718 29.9001 67.7718 29.6113C67.7718 29.5982 67.7718 29.5981 67.7718 29.585H67.785C67.7982 29.3094 68.0353 29.0993 68.3251 29.1125C68.5885 29.1256 68.8125 29.3487 68.8125 29.6244C68.8125 29.6375 68.8125 29.6375 68.8125 29.6507C68.7993 29.9132 68.5754 30.1363 68.2987 30.1363C68.2724 30.1363 68.2592 30.1363 68.2592 30.1363ZM14.1965 28.9287C14.1965 28.9156 14.1965 28.9156 14.1965 28.9024C14.2096 28.6399 14.4204 28.4168 14.6971 28.4036C14.9737 28.3905 15.224 28.6137 15.224 28.9024C15.224 28.9156 15.224 28.9156 15.224 28.9287C15.2108 29.1912 15 29.4275 14.7234 29.4275H14.7102C14.4336 29.4144 14.2096 29.2044 14.1965 28.9287ZM67.8113 28.0886C67.8113 28.0755 67.8113 28.0492 67.8245 28.0361C67.8113 28.023 67.8113 27.9967 67.8113 27.9836C67.8113 27.6948 68.0484 27.4585 68.3251 27.4585C68.6149 27.4585 68.8388 27.6817 68.852 27.9705C68.852 27.9836 68.8388 28.0098 68.8388 28.023C68.8388 28.0492 68.852 28.0624 68.852 28.0886C68.852 28.3643 68.6149 28.6005 68.3383 28.6005C68.0484 28.6005 67.8113 28.3643 67.8113 28.0886ZM14.6971 27.8786C14.4204 27.8655 14.2096 27.6554 14.1965 27.3798C14.1965 27.3667 14.1965 27.3666 14.1965 27.3535C14.1965 27.3535 14.1965 27.3535 14.1965 27.3667C14.2096 27.0779 14.4336 26.8547 14.7234 26.8678C15 26.881 15.224 27.1041 15.2108 27.3929C15.2108 27.6554 14.9869 27.8786 14.6971 27.8786ZM67.7718 26.4609C67.7718 26.4478 67.7718 26.4478 67.7718 26.4347C67.7586 26.1721 67.9826 25.9359 68.246 25.9096C68.5359 25.8965 68.773 26.1065 68.7993 26.3953C68.7993 26.4084 68.7993 26.4084 68.7993 26.4215C68.7993 26.6841 68.5886 26.9072 68.3119 26.9335C68.2987 26.9335 68.2987 26.9335 68.2856 26.9335C68.0089 26.9335 67.785 26.7366 67.7718 26.4609ZM14.7497 26.3428C14.4863 26.3297 14.2887 26.1065 14.2755 25.844C14.2755 25.8309 14.2755 25.8046 14.2887 25.7915C14.3019 25.5158 14.5521 25.3058 14.842 25.332C15.1054 25.3583 15.303 25.5683 15.3162 25.8309C15.3162 25.844 15.3162 25.8702 15.303 25.8834C15.2898 26.1459 15.0659 26.3428 14.7893 26.3428C14.7761 26.3428 14.7629 26.3428 14.7497 26.3428ZM67.6401 24.9645C67.6269 24.9514 67.6269 24.9251 67.6269 24.912C67.6269 24.6495 67.8113 24.4263 68.088 24.3869C68.3646 24.3476 68.6149 24.5576 68.6544 24.8332C68.6544 24.8464 68.6676 24.8726 68.6676 24.8857C68.6676 25.1483 68.4832 25.3714 68.2065 25.4108C68.1933 25.4108 68.167 25.4108 68.1538 25.4108C67.8904 25.4108 67.6664 25.227 67.6401 24.9645ZM14.8947 24.807C14.6312 24.7676 14.4599 24.5576 14.4599 24.3082C14.4468 24.2819 14.4599 24.2557 14.4599 24.2294C14.4995 23.9538 14.7497 23.7569 15.0396 23.7963C15.2898 23.8356 15.4743 24.0457 15.4743 24.2951C15.4743 24.3082 15.4743 24.3344 15.4611 24.3607C15.4216 24.6232 15.2108 24.7939 14.9605 24.7939C14.9342 24.807 14.9078 24.807 14.8947 24.807ZM67.4161 23.4681C67.403 23.4287 67.403 23.4025 67.403 23.3631C67.4161 23.1268 67.5874 22.9168 67.8245 22.8774C68.1011 22.838 68.3778 23.0218 68.4305 23.2974C68.4305 23.3237 68.4305 23.35 68.4305 23.3631C68.4436 23.6125 68.2592 23.8356 68.0089 23.8881C67.9826 23.9013 67.9431 23.9013 67.9167 23.9013C67.6664 23.8881 67.4557 23.7175 67.4161 23.4681ZM15.1186 23.2843C14.8815 23.2318 14.7102 23.0218 14.7102 22.7855C14.7102 22.7461 14.7102 22.7199 14.7234 22.6805C14.7761 22.4048 15.0527 22.2342 15.3294 22.2867C15.5665 22.3261 15.7377 22.5492 15.7377 22.7724C15.7377 22.8118 15.7246 22.838 15.7246 22.8774C15.6719 23.1137 15.4611 23.2843 15.224 23.2843C15.1845 23.2974 15.1581 23.2974 15.1186 23.2843ZM67.1 21.9979C67.0868 21.9585 67.0868 21.906 67.0868 21.8667C67.1 21.6435 67.2449 21.4335 67.482 21.381C67.7586 21.3154 68.0353 21.4729 68.1011 21.7617C68.1143 21.801 68.1143 21.8535 68.1143 21.8929C68.1143 22.1292 67.9562 22.3261 67.7191 22.3917C67.6796 22.4048 67.6533 22.4048 67.6006 22.4048C67.3634 22.3917 67.1527 22.2211 67.1 21.9979ZM15.4479 21.7748C15.2108 21.7223 15.0659 21.5122 15.0659 21.2891C15.0659 21.2497 15.0791 21.1972 15.0791 21.1578C15.0791 21.1578 15.0791 21.1578 15.0791 21.1447C15.1449 20.8822 15.4348 20.7115 15.7114 20.7903C15.9485 20.8559 16.0934 21.0528 16.0934 21.2891C16.0934 21.3285 16.0802 21.381 16.0802 21.4204C16.0144 21.6435 15.8168 21.801 15.5797 21.801C15.527 21.801 15.4874 21.801 15.4479 21.7748ZM66.7048 20.5278C66.6916 20.4753 66.6784 20.4228 66.6784 20.3702C66.6916 20.1471 66.8365 19.9502 67.0473 19.8846C67.3107 19.8058 67.6006 19.9633 67.6796 20.239C67.6928 20.2915 67.7059 20.3309 67.7059 20.3965C67.7059 20.6065 67.561 20.8034 67.3371 20.8822C67.2976 20.8953 67.2317 20.8953 67.1922 20.8953C66.9814 20.8953 66.7706 20.7509 66.7048 20.5278ZM15.8431 20.2915C15.6323 20.2259 15.4874 20.029 15.4874 19.7927C15.4874 19.7533 15.5006 19.7008 15.5138 19.6352C15.5928 19.3726 15.8958 19.2282 16.1593 19.307C16.37 19.3726 16.515 19.5695 16.515 19.7927C16.515 19.8321 16.5018 19.8846 16.4886 19.9502C16.4227 20.1602 16.2251 20.3046 16.0012 20.3046C15.9485 20.3177 15.8958 20.3046 15.8431 20.2915ZM66.2305 19.097C66.2042 19.0313 66.191 18.9657 66.191 18.9132C66.191 18.7032 66.3228 18.5063 66.5335 18.4275C66.797 18.3356 67.0868 18.4669 67.1922 18.7294C67.2054 18.7951 67.2185 18.8476 67.2185 18.9132C67.2185 19.1232 67.0868 19.3201 66.8892 19.3989C66.8233 19.412 66.7706 19.4251 66.7048 19.4251C66.5072 19.4383 66.3096 19.307 66.2305 19.097ZM16.3437 18.8344C16.1329 18.7557 16.0144 18.5588 16.0144 18.3488C16.0144 18.2963 16.0275 18.2306 16.0539 18.1781C16.1461 17.9156 16.4491 17.7843 16.7126 17.8893C16.9233 17.9681 17.0419 18.1781 17.0419 18.375C17.0419 18.4407 17.0287 18.4932 17.0024 18.5588C16.9233 18.7557 16.7389 18.887 16.5281 18.887C16.4623 18.8738 16.3964 18.8607 16.3437 18.8344ZM65.6641 17.6924C65.6378 17.6268 65.6246 17.5612 65.6246 17.4956C65.6246 17.2987 65.73 17.1018 65.9276 17.023C66.191 16.9049 66.494 17.0361 66.5994 17.2855C66.6389 17.3512 66.6389 17.4168 66.6389 17.4824C66.6389 17.6793 66.5204 17.8762 66.3228 17.955C66.2569 17.9812 66.191 17.9944 66.1252 17.9944C65.9407 18.0075 65.7563 17.8893 65.6641 17.6924ZM16.9233 17.4037C16.7389 17.3249 16.6335 17.1411 16.6203 16.9442C16.6203 16.8786 16.6335 16.7867 16.6599 16.7211C16.7916 16.4717 17.0946 16.3535 17.3449 16.4717C17.5293 16.5636 17.6347 16.7342 17.6478 16.9311C17.6478 16.9967 17.6347 17.0886 17.5952 17.1543C17.5161 17.338 17.3317 17.443 17.1341 17.443C17.0551 17.443 16.9892 17.443 16.9233 17.4037ZM65.0318 16.3404C64.9923 16.2617 64.9791 16.1829 64.9791 16.1173C64.9791 15.9204 65.0713 15.7366 65.2689 15.6578C65.5192 15.5266 65.8222 15.6316 65.9539 15.881C65.9934 15.9466 66.0066 16.0254 66.0066 16.1041C66.0198 16.2879 65.9012 16.4848 65.73 16.5636C65.6641 16.603 65.5719 16.6161 65.4928 16.6161C65.2952 16.6161 65.124 16.5111 65.0318 16.3404ZM17.582 16.0123C17.4107 15.9204 17.3185 15.7497 17.3185 15.566C17.3185 15.4872 17.3317 15.4084 17.3712 15.3297C17.5029 15.0803 17.8191 14.9753 18.0694 15.1197C18.2406 15.2115 18.3329 15.3822 18.3329 15.566C18.3329 15.6447 18.3197 15.7366 18.267 15.8154C18.1748 15.986 18.0035 16.0779 17.8191 16.0779C17.7401 16.0648 17.661 16.0516 17.582 16.0123ZM64.3073 15.0015C64.2677 14.9228 64.2414 14.8178 64.2414 14.739C64.2414 14.5683 64.3336 14.3977 64.4917 14.3058C64.7288 14.1614 65.045 14.2533 65.1899 14.4896C65.2294 14.5683 65.2557 14.6734 65.2557 14.7521C65.2426 14.9228 65.1635 15.0934 64.9923 15.1853C64.9132 15.2247 64.821 15.2509 64.742 15.2509C64.5839 15.2641 64.4126 15.1722 64.3073 15.0015ZM18.3197 14.6602C18.1616 14.5683 18.0826 14.3977 18.0826 14.2271C18.0826 14.1352 18.1089 14.0433 18.1484 13.9645C18.2933 13.7283 18.6095 13.6495 18.8598 13.7939C19.0179 13.8858 19.0969 14.0564 19.0969 14.2271C19.0969 14.3189 19.0706 14.4108 19.031 14.4896C18.9388 14.6471 18.7676 14.7259 18.5963 14.7259C18.4909 14.7259 18.3987 14.6996 18.3197 14.6602ZM63.5169 13.7283C63.451 13.6364 63.4247 13.5314 63.4247 13.4395C63.4378 13.282 63.5169 13.1113 63.6618 13.0194C63.8989 12.8619 64.215 12.9275 64.3731 13.1769C64.439 13.2688 64.4653 13.3607 64.4653 13.4657C64.4522 13.6232 64.3731 13.7939 64.2282 13.8858C64.136 13.9383 64.0438 13.9645 63.9516 13.9645C63.7803 13.9514 63.6223 13.8726 63.5169 13.7283ZM19.1364 13.3476C18.9915 13.2426 18.9125 13.0851 18.9125 12.9144C18.9256 12.8225 18.952 12.7175 19.0047 12.6256C19.1628 12.3894 19.4789 12.3369 19.716 12.4944C19.8609 12.5994 19.94 12.7569 19.94 12.9275C19.94 13.0326 19.9005 13.1244 19.8478 13.2163C19.7424 13.3607 19.5843 13.4395 19.4131 13.4395C19.3208 13.4395 19.2286 13.4001 19.1364 13.3476ZM62.6474 12.4812C62.5816 12.3894 62.5421 12.2843 62.5421 12.1793C62.5421 12.0218 62.6079 11.8643 62.7528 11.7724C62.9899 11.6018 63.3061 11.6543 63.4774 11.8774C63.5432 11.9693 63.5696 12.0743 63.5696 12.1793C63.5696 12.3369 63.5037 12.4944 63.3588 12.5863C63.2666 12.6519 63.1612 12.6913 63.0558 12.6913C62.9109 12.6913 62.7528 12.6125 62.6474 12.4812ZM20.019 12.0874C19.8873 11.9824 19.8214 11.8249 19.8214 11.6805C19.8346 11.5755 19.8609 11.4705 19.9268 11.3786C20.1112 11.1555 20.4274 11.1161 20.6513 11.2867C20.7831 11.3786 20.8489 11.5361 20.8489 11.6937C20.8358 11.7987 20.8094 11.9037 20.7435 11.9956C20.6382 12.1268 20.4801 12.1925 20.3352 12.1925C20.2298 12.1925 20.1244 12.1662 20.019 12.0874ZM61.7121 11.2999C61.6331 11.208 61.5936 11.0898 61.5936 10.9717C61.5936 10.8273 61.6595 10.6829 61.778 10.5779C61.9888 10.3941 62.3181 10.4204 62.5025 10.6435C62.5684 10.7354 62.6211 10.8536 62.6211 10.9717C62.6211 11.1161 62.5552 11.2605 62.4367 11.3655C62.3445 11.4443 62.2259 11.4836 62.1073 11.4836C61.9624 11.4836 61.8175 11.418 61.7121 11.2999ZM20.9807 10.8798C20.8753 10.7748 20.8094 10.6435 20.8094 10.4991C20.8094 10.3679 20.8489 10.2629 20.9411 10.1447C21.1256 9.93471 21.4549 9.90846 21.6657 10.1054C21.7711 10.2104 21.8369 10.3416 21.8369 10.486C21.8369 10.6173 21.7974 10.7223 21.7052 10.8404C21.613 10.9586 21.4681 11.0111 21.3232 11.0111C21.2046 11.0111 21.086 10.9586 20.9807 10.8798ZM60.711 10.171C60.6188 10.0791 60.5793 9.96096 60.5793 9.8297C60.5661 9.68531 60.6319 9.55404 60.7373 9.44903C60.9481 9.26526 61.2643 9.26526 61.4619 9.47528C61.5541 9.56717 61.5936 9.69843 61.5936 9.81657C61.5936 9.96096 61.5409 10.0922 61.4355 10.1972C61.3433 10.2891 61.2116 10.3285 61.0798 10.3285C60.9481 10.3285 60.8164 10.276 60.711 10.171ZM22.0082 9.73781C21.916 9.64593 21.8501 9.50154 21.8501 9.37027C21.8501 9.23901 21.8896 9.10774 21.995 9.01586C22.1926 8.80583 22.5219 8.80583 22.7195 9.00273C22.8117 9.09461 22.8776 9.23901 22.8776 9.35714C22.8776 9.48841 22.8381 9.61967 22.7327 9.72468C22.6405 9.81657 22.4956 9.8822 22.3638 9.8822C22.2453 9.8822 22.1136 9.8297 22.0082 9.73781ZM59.644 9.09461C59.5386 8.9896 59.4859 8.85834 59.4859 8.71395C59.4991 8.58268 59.5386 8.46454 59.6308 8.37266C59.8284 8.16264 60.1577 8.16264 60.3553 8.35953C60.4607 8.45142 60.5134 8.59581 60.5134 8.7402C60.5134 8.87146 60.4607 8.9896 60.3685 9.08149C60.2763 9.1865 60.1314 9.23901 59.9996 9.23901C59.8679 9.23901 59.7362 9.1865 59.644 9.09461ZM23.1147 8.64832C23.0225 8.5433 22.983 8.42517 22.983 8.2939C22.983 8.16264 23.0357 8.01824 23.1542 7.91323C23.365 7.72946 23.6812 7.74259 23.8788 7.95261C23.971 8.0445 24.0105 8.17576 24.0105 8.2939C24.0105 8.43829 23.9578 8.56956 23.8524 8.67457H23.8392C23.747 8.76645 23.6285 8.80583 23.4967 8.80583C23.3387 8.81896 23.2069 8.75333 23.1147 8.64832ZM58.5242 8.08388C58.3925 7.97887 58.3398 7.83447 58.3398 7.67696C58.3398 7.55882 58.3793 7.45381 58.4584 7.3488C58.6428 7.13877 58.9721 7.11252 59.1829 7.28316C59.3015 7.38817 59.3673 7.53257 59.3673 7.69008C59.3673 7.80822 59.3278 7.91323 59.2356 8.01824C59.1434 8.13638 58.9985 8.20202 58.8536 8.20202C58.735 8.20202 58.6164 8.17576 58.5242 8.08388ZM24.2608 7.61132C24.1817 7.51944 24.1422 7.4013 24.1422 7.28316C24.1554 7.12565 24.2081 6.99438 24.3398 6.88937C24.5506 6.7056 24.8799 6.74498 25.0644 6.955C25.1434 7.04689 25.1829 7.16502 25.1829 7.28316C25.1829 7.42755 25.117 7.57195 24.9853 7.67696C24.8931 7.74259 24.7745 7.7951 24.6692 7.7951C24.5111 7.80822 24.353 7.74259 24.2608 7.61132ZM57.3386 7.13877C57.2069 7.04689 57.1279 6.88937 57.1279 6.73185C57.1279 6.62684 57.1674 6.52183 57.2333 6.42994C57.4045 6.20679 57.7338 6.16741 57.9578 6.32493C58.0895 6.42994 58.1554 6.57433 58.1554 6.73185C58.1554 6.83686 58.129 6.94187 58.0632 7.03376C57.971 7.16502 57.8129 7.24378 57.6548 7.24378C57.5362 7.24378 57.4309 7.21753 57.3386 7.13877ZM25.4727 6.65309C25.4069 6.56121 25.3805 6.4562 25.3805 6.35118C25.3805 6.19367 25.4595 6.04928 25.5913 5.94426C25.8284 5.77362 26.1446 5.82613 26.3158 6.0624C26.3817 6.15429 26.408 6.2593 26.408 6.36431C26.408 6.52183 26.3421 6.67935 26.1972 6.77123C26.105 6.83686 25.9996 6.86312 25.8943 6.86312C25.7362 6.87624 25.5649 6.79748 25.4727 6.65309ZM56.1004 6.2593C55.9555 6.16741 55.8764 5.99677 55.8764 5.83925C55.8764 5.74737 55.9028 5.64235 55.9555 5.55047C56.1135 5.31419 56.4297 5.26169 56.68 5.40608C56.8249 5.51109 56.9039 5.66861 56.9039 5.83925C56.9039 5.94426 56.8776 6.03615 56.8117 6.12803C56.7195 6.27243 56.5483 6.35118 56.3902 6.35118C56.2848 6.35118 56.1926 6.32493 56.1004 6.2593ZM26.7242 5.78675C26.6847 5.69486 26.6583 5.60298 26.6583 5.52422C26.6451 5.35357 26.7373 5.18293 26.8954 5.09104C27.1325 4.93353 27.4487 5.01228 27.6068 5.24856C27.6595 5.32732 27.6858 5.43233 27.6858 5.51109C27.6858 5.68173 27.6068 5.85238 27.4487 5.94426C27.3697 5.99677 27.2643 6.02302 27.1852 6.02302C27.0008 6.0099 26.8296 5.93114 26.7242 5.78675ZM54.8094 5.47171C54.6513 5.37983 54.5591 5.20918 54.5591 5.03854C54.5591 4.94665 54.5723 4.85477 54.625 4.77601C54.7699 4.53973 55.086 4.44785 55.3232 4.59224C55.4812 4.68412 55.5734 4.85477 55.5734 5.02541C55.5734 5.1173 55.5603 5.20918 55.5076 5.28794C55.4154 5.44546 55.2441 5.53734 55.0729 5.53734C54.9806 5.52422 54.8884 5.51109 54.8094 5.47171ZM28.0415 4.97291C28.002 4.89415 27.9756 4.81539 27.9756 4.73663C27.9756 4.55286 28.0678 4.38221 28.2391 4.2772C28.4762 4.14594 28.7924 4.23782 28.9241 4.4741C28.9636 4.55286 28.99 4.63162 28.99 4.71038C28.99 4.89415 28.8977 5.06479 28.7265 5.1698C28.6606 5.20918 28.5684 5.23544 28.4894 5.23544C28.305 5.22231 28.1337 5.13042 28.0415 4.97291ZM53.4789 4.73663C53.3077 4.64474 53.2023 4.4741 53.2023 4.30346C53.2023 4.2247 53.2154 4.13281 53.255 4.05405C53.3867 3.80465 53.6897 3.69964 53.94 3.84403C54.1112 3.92279 54.2166 4.10656 54.2166 4.2772C54.2166 4.35596 54.2034 4.44785 54.1639 4.52661C54.0717 4.69725 53.9004 4.80226 53.7029 4.80226C53.637 4.80226 53.5579 4.77601 53.4789 4.73663ZM29.3983 4.23782C29.3588 4.17219 29.3456 4.08031 29.3456 4.01467C29.3456 3.8309 29.451 3.63401 29.6354 3.55525C29.8989 3.43711 30.2019 3.54212 30.3204 3.79152C30.36 3.85716 30.3731 3.93591 30.3731 4.01467C30.3731 4.19844 30.2678 4.38221 30.0833 4.4741C30.0175 4.51348 29.9253 4.52661 29.8594 4.52661C29.675 4.51348 29.4905 4.40847 29.3983 4.23782ZM52.1089 4.09343C51.9245 4.00155 51.8059 3.81778 51.8059 3.62088C51.8059 3.55525 51.8191 3.48962 51.8454 3.41086C51.964 3.14833 52.267 3.03019 52.5304 3.14833C52.7149 3.24021 52.8334 3.42398 52.8334 3.62088C52.8202 3.68651 52.8202 3.75214 52.7939 3.81778C52.7017 4.01467 52.5173 4.13281 52.3197 4.13281C52.2538 4.13281 52.1879 4.11969 52.1089 4.09343ZM30.7947 3.56837C30.7683 3.50274 30.7552 3.43711 30.7552 3.37148C30.7552 3.17458 30.8737 2.99081 31.0713 2.91205C31.3348 2.80704 31.6246 2.92518 31.73 3.18771C31.7563 3.25334 31.7695 3.31897 31.7695 3.3846C31.7695 3.5815 31.6378 3.76527 31.4533 3.85716C31.3875 3.87028 31.3216 3.89654 31.2557 3.89654C31.0581 3.89654 30.8737 3.7784 30.7947 3.56837ZM50.7125 3.51587C50.5018 3.43711 50.37 3.24021 50.3832 3.03019C50.3832 2.97768 50.3964 2.91205 50.4096 2.84642C50.5018 2.58389 50.8047 2.45262 51.0682 2.55764C51.279 2.6364 51.3975 2.83329 51.3975 3.04332C51.3975 3.09582 51.3844 3.16145 51.358 3.21396C51.2922 3.42398 51.0946 3.55525 50.8838 3.55525C50.8311 3.55525 50.7652 3.52899 50.7125 3.51587ZM32.2174 3.00394C32.2042 2.95143 32.191 2.8858 32.191 2.83329C32.2042 2.62327 32.3228 2.42637 32.5467 2.36074C32.8102 2.26885 33.1 2.40012 33.1922 2.67577C33.2186 2.72828 33.2317 2.79391 33.2317 2.84642C33.2185 3.05644 33.1 3.25334 32.876 3.3321C32.8234 3.34522 32.7707 3.35835 32.718 3.35835C32.5072 3.34522 32.3096 3.21396 32.2174 3.00394ZM49.2767 3.03019C49.0527 2.96456 48.9078 2.75453 48.9078 2.53138C48.9078 2.47888 48.921 2.4395 48.9342 2.37387C49.0132 2.11134 49.303 1.95382 49.5796 2.03258C49.7904 2.09821 49.9353 2.29511 49.9353 2.51826C49.9353 2.55764 49.9221 2.61014 49.909 2.67577C49.8431 2.8858 49.6455 3.03019 49.4084 3.03019C49.3689 3.05644 49.3162 3.04332 49.2767 3.03019ZM33.6928 2.51826C33.6796 2.47888 33.6796 2.42637 33.6664 2.38699C33.6664 2.16384 33.8113 1.95382 34.0485 1.88819C34.3119 1.80943 34.6017 1.96695 34.6808 2.2426C34.6939 2.29511 34.6939 2.34761 34.6939 2.40012C34.6808 2.62327 34.5359 2.82017 34.3119 2.8858C34.2724 2.89892 34.2197 2.89892 34.1802 2.89892C33.9694 2.8858 33.7586 2.74141 33.6928 2.51826ZM47.8144 2.6364C47.5773 2.57076 47.4324 2.37387 47.4324 2.15072C47.4324 2.11134 47.4324 2.05883 47.4456 2.01945C47.5115 1.75692 47.8013 1.58628 48.0779 1.65191C48.0779 1.65191 48.0779 1.65191 48.0647 1.65191C48.3018 1.70442 48.4599 1.91444 48.4599 2.13759C48.4599 2.17697 48.4468 2.22947 48.4468 2.26885C48.3941 2.50513 48.1833 2.64952 47.9593 2.64952C47.8935 2.6364 47.854 2.6364 47.8144 2.6364ZM35.1814 2.09821C35.1682 2.05883 35.1682 2.03258 35.1682 1.9932C35.1682 1.75692 35.3263 1.53377 35.5765 1.48127C35.8532 1.41563 36.1298 1.58628 36.1825 1.86193C36.1957 1.90131 36.1957 1.92757 36.1957 1.96695C36.1957 2.20322 36.0376 2.42637 35.7873 2.47888C35.7478 2.47888 35.7083 2.492 35.6688 2.492C35.4448 2.50513 35.234 2.34761 35.1814 2.09821ZM46.3259 2.30823C46.0887 2.26885 45.9175 2.05883 45.9043 1.80943C45.9043 1.77005 45.9175 1.7438 45.9175 1.70442C45.9702 1.42876 46.2468 1.24499 46.5235 1.2975C46.7606 1.33688 46.9318 1.5469 46.945 1.78318C46.945 1.82255 46.9318 1.84881 46.9318 1.88819C46.8923 2.13759 46.6684 2.30823 46.4313 2.30823C46.3917 2.32136 46.3654 2.32136 46.3259 2.30823ZM36.6963 1.7963C36.6831 1.77005 36.6831 1.7438 36.6831 1.71754C36.6831 1.46814 36.8675 1.24499 37.1178 1.20561C37.3944 1.16623 37.6711 1.35 37.7106 1.62566C37.7106 1.65191 37.7106 1.67816 37.7106 1.70442C37.7238 1.95382 37.5394 2.16384 37.2891 2.21635C37.2495 2.21635 37.2232 2.21635 37.1969 2.21635C36.9597 2.21635 36.7358 2.0457 36.6963 1.7963ZM44.8241 2.07196C44.5607 2.0457 44.3762 1.80943 44.3762 1.5469C44.3762 1.53377 44.3894 1.50752 44.3894 1.49439C44.4289 1.21874 44.6792 1.02184 44.969 1.06122C45.2325 1.1006 45.4169 1.32375 45.4169 1.58628C45.4169 1.5994 45.4169 1.62566 45.4037 1.63878C45.3774 1.90131 45.1535 2.08508 44.9032 2.08508C44.8768 2.08508 44.8505 2.08508 44.8241 2.07196ZM38.2244 1.56003C38.2244 1.5469 38.2244 1.52065 38.2244 1.50752C38.2244 1.24499 38.422 1.02184 38.6854 0.995587C38.9621 0.969334 39.2123 1.17936 39.2519 1.45501C39.2519 1.46814 39.2519 1.49439 39.2519 1.50752C39.2519 1.77005 39.0543 1.9932 38.7908 2.01945C38.7776 2.01945 38.7513 2.01945 38.7381 2.01945C38.4746 2.01945 38.2507 1.82255 38.2244 1.56003ZM43.3356 1.94069C43.0589 1.92757 42.8481 1.69129 42.8481 1.41563C42.8481 1.40251 42.8481 1.40251 42.8481 1.38938C42.8613 1.11373 43.1116 0.903702 43.4014 0.916829C43.6781 0.929955 43.8888 1.16623 43.8757 1.44189C43.8757 1.45501 43.8757 1.45501 43.8757 1.46814C43.8625 1.73067 43.6385 1.94069 43.3619 1.94069C43.3487 1.94069 43.3356 1.94069 43.3356 1.94069ZM39.7524 1.41563C39.7524 1.40251 39.7524 1.40251 39.7524 1.38938C39.7524 1.12685 39.9632 0.890576 40.2399 0.877449C40.5165 0.864323 40.7668 1.08747 40.78 1.36313C40.78 1.37625 40.78 1.37625 40.78 1.38938C40.7668 1.65191 40.5692 1.87506 40.2925 1.88819C40.2794 1.88819 40.2794 1.88819 40.2662 1.88819C40.0027 1.90131 39.7788 1.67816 39.7524 1.41563ZM41.8075 1.87506C41.5177 1.87506 41.2937 1.63878 41.2937 1.36313C41.3069 1.07435 41.5308 0.851196 41.8206 0.851196C42.1104 0.851196 42.3344 1.08747 42.3344 1.37625C42.3212 1.65191 42.0973 1.87506 41.8075 1.87506Z" fill="#E9282A"/>
<path d="M41.6493 29.48C42.2158 29.5456 42.1631 30.0707 42.3475 30.412C42.4792 30.7926 42.5978 31.1733 42.5978 31.5802C42.5846 31.9871 42.6505 32.4072 42.6242 32.8141C42.5188 35.3344 41.7416 37.6709 40.8194 39.9812C40.4242 40.9525 39.9632 41.8976 39.5812 42.8821C39.4758 43.1446 39.3572 43.3678 39.0674 43.4728C33.2317 42.9084 27.396 42.3045 21.5207 42.1601C21.4417 42.1601 21.4285 42.0551 21.4944 42.0289C23.9446 41.1494 39.265 35.4263 41.6493 29.48Z" fill="#1C1F3F"/>
<path d="M41.6494 29.48C41.6494 29.48 42.2422 29.9 42.3081 29.9525C43.9547 31.3833 45.272 33.0898 46.4049 34.9275C46.7343 35.3869 47.0768 35.8857 47.3534 36.3189C47.3007 36.4108 47.248 36.4895 47.2085 36.5683C45.8385 38.9048 44.126 41.005 42.3344 43.0265C42.3081 43.0659 42.2817 43.1053 42.2554 43.1315C41.847 43.6434 41.7285 43.6434 41.4913 43.6959C42.8087 33.733 42.4003 30.4382 41.6494 29.48Z" fill="#478E75"/>
<path d="M47.5642 22.0241C48.9474 23.2449 50.3569 24.4525 51.582 25.8439C51.7928 26.0802 52.0563 26.2902 52.0036 26.6578C54.6909 24.6888 57.6549 23.3105 60.8955 22.4967C62.1601 22.1816 63.4379 21.9716 64.7157 21.7091C64.8343 21.6828 65.3743 21.5516 65.427 21.5384C65.5719 21.4859 65.5456 21.4203 65.3612 21.4203C64.8474 21.4072 64.3337 21.394 63.8199 21.3678C60.25 21.1446 56.7459 20.6327 53.6634 18.6244C53.3868 18.4406 53.2023 18.5062 52.9257 18.6375C51.7269 19.2413 50.6336 20.0026 49.5007 20.7246L49.4875 20.7377C49.1186 20.9609 47.5642 22.0241 47.5642 22.0241Z" fill="#4CA680"/>
<path d="M41.6494 29.4799C41.6494 29.4799 42.2422 30.0706 42.3344 30.1757C43.6122 31.5146 46.1941 34.4286 47.1163 36.6995C47.2085 36.542 47.3402 36.3188 47.3402 36.3188C44.0074 25.752 33.3503 21.3153 29.3456 20.974C27.2379 21.4203 24.5111 21.8141 22.0872 22.1816C22.0345 22.1948 22.0345 22.2735 22.1004 22.2735C24.3135 22.3523 33.5742 22.9692 41.6494 29.4799Z" fill="#2D604D"/>
<path d="M41.4781 43.7091C41.3069 43.7354 41.1356 43.7223 40.9644 43.7091C40.3321 43.6566 39.6866 43.5516 39.0543 43.4729C40.3057 41.0051 41.4913 38.2879 42.0841 35.4132C42.2553 34.6125 42.5452 31.1734 41.6494 29.4669C42.4398 30.3726 42.835 32.2104 42.8218 35.5182C42.8218 35.6364 42.8218 35.7414 42.8218 35.8464C42.8218 35.9514 42.8218 36.0564 42.8218 36.1614C42.8218 36.2927 42.8218 36.4108 42.8086 36.5158C42.7296 38.4717 42.4134 40.4144 41.8865 42.3309C41.7811 42.6459 41.4781 43.7091 41.4781 43.7091Z" fill="#4CA680"/>
<path d="M51.6874 25.6734C50.4622 24.2952 49.0791 23.0744 47.6695 21.8799C45.5487 20.0553 43.2697 18.4539 40.8985 16.9837C40.8853 16.9837 40.8853 16.9706 40.8722 16.9706C40.2399 16.5637 39.1465 15.9205 37.895 15.1854C37.895 15.1854 37.8819 15.1854 37.8819 15.1985C35.1155 13.6102 31.4929 11.6019 30.518 11.0637C30.4917 11.0506 30.4654 11.0899 30.4917 11.1031L30.518 11.1293C31.7432 12.1926 34.9442 15.5004 35.6688 16.2355C35.7083 16.2749 35.6951 16.3405 35.6424 16.3668C35.6029 16.393 35.5634 16.4061 35.537 16.4193H35.5239C35.5107 16.4193 35.5107 16.4324 35.5107 16.4324L35.5239 16.4193C32.6784 17.8763 29.6618 18.5064 26.5793 18.8345C25.0644 18.9921 23.5494 19.0708 22.0345 19.1758C21.9028 19.189 21.6261 19.189 21.613 19.2677C21.613 19.3071 21.6393 19.3202 21.692 19.3333C24.1291 19.6484 26.5397 20.0684 29.1085 20.856C29.1085 20.856 43.3751 26.146 47.3402 36.2927C47.6037 35.8202 47.8671 35.3608 48.1306 34.8882C49.606 32.2235 50.8311 29.4407 52.0035 26.6317C52.2801 26.2116 51.9376 25.9622 51.6874 25.6734Z" fill="#357463"/>
<path d="M35.5252 16.4454L35.5107 16.4599C35.5107 16.4599 35.5252 16.4599 35.5252 16.4454Z" fill="#1C1F3F"/>
<path d="M32.9815 11.1161C32.7839 10.8667 32.5731 10.6173 32.3755 10.3679C32.2701 10.2366 31.4797 9.33091 32.4677 10.1447C34.997 12.1662 37.6316 13.9908 40.5956 15.3428C42.3344 16.1435 44.126 16.7342 46.0361 16.9443C46.6816 17.0099 46.9846 17.2855 47.169 17.8762C47.5378 19.0576 47.9857 20.2784 48.3809 21.4598C48.0516 21.6829 47.9594 21.7354 47.7223 21.8929C44.7583 19.3989 41.5177 17.2724 38.1322 15.3166C37.6843 15.0803 37.6843 15.0803 37.2627 15.4085C36.9071 15.6841 36.7095 15.7235 36.5119 15.5529C36.4987 15.566 33.7192 12.0875 32.9815 11.1161Z" fill="#87C9AA"/>
</svg>
