<svg width="216" height="429" viewBox="0 0 216 429" fill="none" xmlns="http://www.w3.org/2000/svg">
<g opacity="0.5">
<path d="M138.99 133.515C132.718 139.361 130.041 148.11 131.968 156.465L150.78 238.022C152.707 246.377 158.945 253.07 167.144 255.578L247.18 280.066C255.38 282.575 264.294 280.518 270.566 274.672L331.792 217.602C338.064 211.756 340.74 203.007 338.813 194.652L320.002 113.095C318.075 104.74 311.837 98.0477 303.638 95.5391L223.601 71.0513C215.402 68.5427 206.487 70.5989 200.215 76.4453L138.99 133.515Z" fill="url(#paint0_linear)"/>
<path d="M128.35 169.008C119.842 170.072 112.548 175.595 109.216 183.495L76.6871 260.614C73.3548 268.515 74.4904 277.593 79.6661 284.429L130.189 351.159C135.365 357.995 143.795 361.551 152.303 360.486L235.354 350.097C243.862 349.033 251.156 343.51 254.488 335.61L287.017 258.491C290.349 250.59 289.214 241.512 284.038 234.676L233.515 167.946C228.339 161.11 219.909 157.555 211.401 158.619L128.35 169.008Z" fill="url(#paint1_linear)"/>
</g>
<defs>
<linearGradient id="paint0_linear" x1="128.854" y1="142.963" x2="341.928" y2="208.154" gradientUnits="userSpaceOnUse">
<stop stop-color="#A1D5FA" stop-opacity="0"/>
<stop offset="1" stop-color="#2354EC" stop-opacity="0.35"/>
</linearGradient>
<linearGradient id="paint1_linear" x1="114.601" y1="170.728" x2="249.103" y2="348.377" gradientUnits="userSpaceOnUse">
<stop stop-color="#A1D5FA" stop-opacity="0"/>
<stop offset="1" stop-color="#2354EC" stop-opacity="0.35"/>
</linearGradient>
</defs>
</svg>
