<svg id="Layer_1" data-name="Layer 1" xmlns="http://www.w3.org/2000/svg" xmlns:xlink="http://www.w3.org/1999/xlink" viewBox="0 0 1440 671.62"><defs><clipPath id="clip-path"><rect x="2.13" width="1437.87" height="671.62" fill="none"/></clipPath><clipPath id="clip-path-2"><rect y="-212.28" width="1440" height="883.9" fill="none"/></clipPath><linearGradient id="linear-gradient" x1="558.54" y1="43.13" x2="558.54" y2="788.88" gradientTransform="matrix(1, 0, 0, -1, 162.81, 748.16)" gradientUnits="userSpaceOnUse"><stop offset="0" stop-color="#fff"/><stop offset="1" stop-color="#3fa9f5" stop-opacity="0.4"/></linearGradient><linearGradient id="linear-gradient-2" x1="-162.81" y1="462.64" x2="1279.99" y2="462.64" xlink:href="#linear-gradient"/><linearGradient id="linear-gradient-3" x1="558.54" y1="825.04" x2="558.54" y2="148.95" gradientTransform="matrix(1, 0, 0, -1, 162.81, 748.16)" gradientUnits="userSpaceOnUse"><stop offset="0" stop-color="#fff"/><stop offset="1" stop-color="#3fa9f5" stop-opacity="0.3"/></linearGradient><linearGradient id="linear-gradient-4" x1="1101.77" y1="844.51" x2="969.54" y2="324.28" gradientTransform="matrix(1, 0, 0, -1, 162.81, 748.16)" gradientUnits="userSpaceOnUse"><stop offset="0" stop-color="#fff" stop-opacity="0"/><stop offset="1" stop-color="#3fa9f5" stop-opacity="0.8"/></linearGradient><linearGradient id="linear-gradient-5" x1="555.94" y1="960.43" x2="555.94" y2="600.45" gradientTransform="matrix(1, 0, 0, -1, 162.81, 748.16)" gradientUnits="userSpaceOnUse"><stop offset="0" stop-color="#fff" stop-opacity="0"/><stop offset="1" stop-color="#219bf1" stop-opacity="0.54"/></linearGradient><linearGradient id="linear-gradient-6" x1="-1201.35" y1="1322.14" x2="56.14" y2="399.14" gradientTransform="matrix(1, 0, 0, -1, 162.81, 748.16)" gradientUnits="userSpaceOnUse"><stop offset="0" stop-color="#7eb0f6"/><stop offset="1" stop-color="#fafdff"/><stop offset="1" stop-color="#d62f37"/></linearGradient><linearGradient id="linear-gradient-7" x1="198.37" y1="214.82" x2="348.84" y2="449.21" gradientTransform="matrix(1, 0, 0, -1, 162.81, 748.16)" gradientUnits="userSpaceOnUse"><stop offset="0" stop-color="#a1d5fa" stop-opacity="0"/><stop offset="1" stop-color="#2354ec" stop-opacity="0.35"/></linearGradient><linearGradient id="linear-gradient-8" x1="1194.19" y1="322.42" x2="1194.19" y2="280.42" gradientTransform="matrix(1, 0, 0, -1, 162.81, 748.15)" gradientUnits="userSpaceOnUse"><stop offset="0" stop-color="#f1f6fa"/><stop offset="1" stop-color="#75c4ff" stop-opacity="0.63"/></linearGradient><linearGradient id="linear-gradient-9" x1="527.19" y1="752.42" x2="527.19" y2="694.42" gradientTransform="matrix(1, 0, 0, -1, 162.81, 748.15)" gradientUnits="userSpaceOnUse"><stop offset="0" stop-color="#46baed"/><stop offset="1" stop-color="#5380fd"/></linearGradient><linearGradient id="linear-gradient-10" x1="2294.81" y1="960.43" x2="2294.81" y2="910.43" gradientTransform="translate(2515.81 1326.15) rotate(180)" xlink:href="#linear-gradient-9"/><linearGradient id="linear-gradient-11" x1="1242.31" y1="519.85" x2="1392.78" y2="754.24" xlink:href="#linear-gradient-7"/></defs><title>slider-bg</title><g clip-path="url(#clip-path)"><g clip-path="url(#clip-path-2)"><path d="M0,600.12s400.5,166.5,659-98.5c218.6-224.1,367.5,131.6,533.4,162.8,168.3,31.7,250.3-52.3,250.3-52.3V-48H0Z" fill="url(#linear-gradient)"/><path d="M0,600.12s85.8,29.7,138.4-62.3c72.9-127.6,293.6-28.1,507,62.3s371.8-173.8,509.1-160.8,288.3,172.8,288.3,172.8V-48H0Z" opacity="0.67" fill="url(#linear-gradient-2)" style="isolation:isolate"/><path d="M147.9,569c172.1-217.1,188.5-155.9,429.8-62.3,137.3,53.2,240.5,132,391.8,5,170-142.7,473.2,100.5,473.2,100.5v-825.9H0v813.8S98.3,631.52,147.9,569Z" fill="url(#linear-gradient-3)"/><path d="M1086.8-78s63.4,53.2-148.9,225-133.1,233.1-48.6,236.1,109.8,31.2,186.9,149.7,260.9,160.8,366.5,79.4V-78Z" opacity="0.4" fill="url(#linear-gradient-4)" style="isolation:isolate"/><path d="M655.5,73.22C399-131.48,92.5-105.78-2-6.78v-205.5H1439.5v188C1085.5-300.28,1017,361.72,655.5,73.22Z" opacity="0.5" fill="url(#linear-gradient-5)" style="isolation:isolate"/><path d="M-151.6,83.62a10.19,10.19,0,0,0-5.4,8.5l-5.9,144.1a10.24,10.24,0,0,0,4.6,8.9l121.8,77.2a9.94,9.94,0,0,0,10,.4l127.7-66.9a9.85,9.85,0,0,0,5.3-8.4l5.9-144.1a10.24,10.24,0,0,0-4.6-8.9L-14,17.22a9.94,9.94,0,0,0-10-.4Z" opacity="0.75" fill="url(#linear-gradient-6)" style="isolation:isolate"/><path d="M354.8,521A24,24,0,0,0,375,534l111.4,5.3a23.92,23.92,0,0,0,21.3-11l60.3-93.9a24,24,0,0,0,1.1-24L518,311.22a24,24,0,0,0-20.2-13L386.4,293a23.92,23.92,0,0,0-21.3,11l-60.3,93.9a24,24,0,0,0-1.1,24Z" fill="url(#linear-gradient-7)"/><circle cx="1357" cy="446.72" r="21" fill="url(#linear-gradient-8)"/><circle cx="690" cy="24.72" r="29" fill="url(#linear-gradient-9)"/><circle cx="221" cy="365.72" r="25" fill="url(#linear-gradient-10)"/><path d="M1398.8,216a24,24,0,0,0,20.2,13l111.4,5.3a23.92,23.92,0,0,0,21.3-11l60.3-93.9a24,24,0,0,0,1.1-24l-51.2-99.2a24,24,0,0,0-20.2-13l-111.4-5.3a23.92,23.92,0,0,0-21.3,11l-60.3,93.9a24,24,0,0,0-1.1,24Z" fill="url(#linear-gradient-11)"/></g></g></svg>