<svg id="Layer_1" data-name="Layer 1" xmlns="http://www.w3.org/2000/svg" xmlns:xlink="http://www.w3.org/1999/xlink" viewBox="0 0 1778.71 771.86"><defs><clipPath id="clip-path" transform="translate(162.9 1.4)"><rect width="1440" height="770.51" fill="none"/></clipPath><linearGradient id="linear-gradient" x1="558.54" y1="741.31" x2="558.54" y2="1487.06" gradientTransform="matrix(1, 0, 0, -1, 162.81, 1545.23)" gradientUnits="userSpaceOnUse"><stop offset="0" stop-color="#fff"/><stop offset="1" stop-color="#3fa9f5" stop-opacity="0.4"/></linearGradient><linearGradient id="linear-gradient-2" x1="-162.81" y1="1160.82" x2="1279.99" y2="1160.82" xlink:href="#linear-gradient"/><linearGradient id="linear-gradient-3" x1="558.54" y1="1428.62" x2="558.54" y2="845.35" gradientTransform="matrix(1, 0, 0, -1, 162.81, 1545.23)" gradientUnits="userSpaceOnUse"><stop offset="0" stop-color="#fff"/><stop offset="1" stop-color="#3fa9f5" stop-opacity="0.3"/></linearGradient><linearGradient id="linear-gradient-4" x1="1101.77" y1="1542.69" x2="969.54" y2="1022.46" gradientTransform="matrix(1, 0, 0, -1, 162.81, 1545.23)" gradientUnits="userSpaceOnUse"><stop offset="0" stop-color="#fff" stop-opacity="0"/><stop offset="1" stop-color="#3fa9f5" stop-opacity="0.8"/></linearGradient><linearGradient id="linear-gradient-5" x1="555.94" y1="1545.23" x2="555.94" y2="1298.63" gradientTransform="matrix(1, 0, 0, -1, 162.81, 1545.23)" gradientUnits="userSpaceOnUse"><stop offset="0" stop-color="#fff" stop-opacity="0"/><stop offset="1" stop-color="#219bf1" stop-opacity="0.54"/></linearGradient><linearGradient id="linear-gradient-6" x1="-1201.35" y1="2020.32" x2="56.14" y2="1097.32" gradientTransform="matrix(1, 0, 0, -1, 162.81, 1545.23)" gradientUnits="userSpaceOnUse"><stop offset="0" stop-color="#7eb0f6"/><stop offset="1" stop-color="#fafdff"/><stop offset="1" stop-color="#d62f37"/></linearGradient><linearGradient id="linear-gradient-7" x1="198.37" y1="912.99" x2="348.84" y2="1147.38" gradientTransform="matrix(1, 0, 0, -1, 162.81, 1545.23)" gradientUnits="userSpaceOnUse"><stop offset="0" stop-color="#a1d5fa" stop-opacity="0"/><stop offset="1" stop-color="#2354ec" stop-opacity="0.35"/></linearGradient><linearGradient id="linear-gradient-8" x1="165.19" y1="1506.6" x2="165.19" y2="1450.6" gradientTransform="matrix(1, 0, 0, -1, 325.71, 1546.62)" gradientUnits="userSpaceOnUse"><stop offset="0" stop-color="#f1f6fa"/><stop offset="1" stop-color="#75c4ff" stop-opacity="0.63"/></linearGradient><linearGradient id="linear-gradient-9" x1="1194.19" y1="1020.6" x2="1194.19" y2="978.6" xlink:href="#linear-gradient-8"/><linearGradient id="linear-gradient-10" x1="527.19" y1="1450.6" x2="527.19" y2="1392.6" gradientTransform="matrix(1, 0, 0, -1, 325.71, 1546.62)" gradientUnits="userSpaceOnUse"><stop offset="0" stop-color="#46baed"/><stop offset="1" stop-color="#5380fd"/></linearGradient><linearGradient id="linear-gradient-11" x1="3414.81" y1="1658.61" x2="3414.81" y2="1608.61" gradientTransform="translate(3798.71 2124.62) rotate(180)" xlink:href="#linear-gradient-10"/><linearGradient id="linear-gradient-12" x1="1242.31" y1="1218.03" x2="1392.78" y2="1452.42" xlink:href="#linear-gradient-7"/></defs><title>slider-bg-1440px</title><g clip-path="url(#clip-path)"><path d="M0,699s400.5,166.5,659-98.5c218.6-224.1,367.5,131.6,533.4,162.8C1360.7,795,1442.7,711,1442.7,711V50.91H0Z" transform="translate(162.9 1.4)" fill="url(#linear-gradient)"/><path d="M0,699s85.8,29.7,138.4-62.3c72.9-127.6,293.6-28.1,507,62.3s371.8-173.8,509.1-160.8S1442.8,711,1442.8,711V50.91H0Z" transform="translate(162.9 1.4)" opacity="0.67" fill="url(#linear-gradient-2)" style="isolation:isolate"/><path d="M147.9,667.91C320,450.81,336.4,512,577.7,605.61c137.3,53.2,240.5,132,391.8,5,170-142.7,473.2,100.5,473.2,100.5V-1.4H0V699S98.3,730.41,147.9,667.91Z" transform="translate(162.9 1.4)" fill="url(#linear-gradient-3)"/><path d="M1086.8,20.91s63.4,53.2-148.9,225S804.8,479,889.3,482s109.8,31.2,186.9,149.7,260.9,160.8,366.5,79.4V20.91Z" transform="translate(162.9 1.4)" opacity="0.4" fill="url(#linear-gradient-4)" style="isolation:isolate"/><path d="M655.5,172.11C399-32.59,92.5-6.89-2,92.11V0H1439.5V74.61C1085.5-201.39,1017,460.61,655.5,172.11Z" transform="translate(162.9 1.4)" opacity="0.5" fill="url(#linear-gradient-5)" style="isolation:isolate"/><path d="M-151.6,182.51A10.19,10.19,0,0,0-157,191l-5.9,144.1a10.24,10.24,0,0,0,4.6,8.9l121.8,77.2a9.94,9.94,0,0,0,10,.4l127.7-66.9a9.85,9.85,0,0,0,5.3-8.4l5.9-144.1a10.24,10.24,0,0,0-4.6-8.9L-14,116.11a9.94,9.94,0,0,0-10-.4Z" transform="translate(162.9 1.4)" opacity="0.75" fill="url(#linear-gradient-6)" style="isolation:isolate"/><path d="M354.8,619.91a24,24,0,0,0,20.2,13l111.4,5.3a23.92,23.92,0,0,0,21.3-11l60.3-93.9a24,24,0,0,0,1.1-24L518,410.11a24,24,0,0,0-20.2-13l-111.4-5.2a23.92,23.92,0,0,0-21.3,11l-60.3,93.9a24,24,0,0,0-1.1,24Z" transform="translate(162.9 1.4)" fill="url(#linear-gradient-7)"/><circle cx="490.9" cy="68.01" r="28" fill="url(#linear-gradient-8)"/><circle cx="1519.9" cy="547.01" r="21" fill="url(#linear-gradient-9)"/><circle cx="852.9" cy="125.01" r="29" fill="url(#linear-gradient-10)"/><circle cx="383.9" cy="466.01" r="25" fill="url(#linear-gradient-11)"/><path d="M1398.8,314.91a24,24,0,0,0,20.2,13l111.4,5.3a23.92,23.92,0,0,0,21.3-11l60.3-93.9a24,24,0,0,0,1.1-24l-51.2-99.2a24,24,0,0,0-20.2-13l-111.4-5.3a23.92,23.92,0,0,0-21.3,11l-60.3,93.9a24,24,0,0,0-1.1,24Z" transform="translate(162.9 1.4)" fill="url(#linear-gradient-12)"/></g></svg>