<svg id="Layer_1" data-name="Layer 1" xmlns="http://www.w3.org/2000/svg" xmlns:xlink="http://www.w3.org/1999/xlink" viewBox="0 0 4446.77 2213.12"><defs><clipPath id="clip-path" transform="translate(407.26 3.5)"><rect width="3600" height="2209.75" fill="none"/></clipPath><linearGradient id="linear-gradient" x1="1640.57" y1="205.31" x2="1640.57" y2="2069.69" gradientTransform="matrix(1, 0, 0, -1, 162.81, 2498.56)" gradientUnits="userSpaceOnUse"><stop offset="0" stop-color="#fff"/><stop offset="1" stop-color="#3fa9f5" stop-opacity="0.4"/></linearGradient><linearGradient id="linear-gradient-2" x1="-162.81" y1="1254.08" x2="3444.19" y2="1254.08" xlink:href="#linear-gradient"/><linearGradient id="linear-gradient-3" x1="1640.56" y1="2160.09" x2="1640.56" y2="469.86" gradientTransform="matrix(1, 0, 0, -1, 162.81, 2498.56)" gradientUnits="userSpaceOnUse"><stop offset="0" stop-color="#fff"/><stop offset="1" stop-color="#3fa9f5" stop-opacity="0.3"/></linearGradient><linearGradient id="linear-gradient-4" x1="2998.64" y1="2208.75" x2="2668.07" y2="908.18" gradientTransform="matrix(1, 0, 0, -1, 162.81, 2498.56)" gradientUnits="userSpaceOnUse"><stop offset="0" stop-color="#fff" stop-opacity="0"/><stop offset="1" stop-color="#3fa9f5" stop-opacity="0.8"/></linearGradient><linearGradient id="linear-gradient-5" x1="1634.07" y1="2498.56" x2="1634.07" y2="1598.6" gradientTransform="matrix(1, 0, 0, -1, 162.81, 2498.56)" gradientUnits="userSpaceOnUse"><stop offset="0" stop-color="#fff" stop-opacity="0"/><stop offset="1" stop-color="#219bf1" stop-opacity="0.54"/></linearGradient><linearGradient id="linear-gradient-6" x1="-2759.16" y1="3402.83" x2="384.57" y2="1095.33" gradientTransform="matrix(1, 0, 0, -1, 162.81, 2498.56)" gradientUnits="userSpaceOnUse"><stop offset="0" stop-color="#7eb0f6"/><stop offset="1" stop-color="#fafdff"/><stop offset="1" stop-color="#d62f37"/></linearGradient><linearGradient id="linear-gradient-7" x1="740.15" y1="634.51" x2="1116.32" y2="1220.49" gradientTransform="matrix(1, 0, 0, -1, 162.81, 2498.56)" gradientUnits="userSpaceOnUse"><stop offset="0" stop-color="#a1d5fa" stop-opacity="0"/><stop offset="1" stop-color="#2354ec" stop-opacity="0.35"/></linearGradient><linearGradient id="linear-gradient-8" x1="657.19" y1="2118.55" x2="657.19" y2="1978.55" gradientTransform="matrix(1, 0, 0, -1, 570.07, 2502.05)" gradientUnits="userSpaceOnUse"><stop offset="0" stop-color="#f1f6fa"/><stop offset="1" stop-color="#75c4ff" stop-opacity="0.63"/></linearGradient><linearGradient id="linear-gradient-9" x1="3229.69" y1="903.55" x2="3229.69" y2="798.55" xlink:href="#linear-gradient-8"/><linearGradient id="linear-gradient-10" x1="1562.19" y1="1978.55" x2="1562.19" y2="1833.55" gradientTransform="matrix(1, 0, 0, -1, 570.07, 2502.05)" gradientUnits="userSpaceOnUse"><stop offset="0" stop-color="#46baed"/><stop offset="1" stop-color="#5380fd"/></linearGradient><linearGradient id="linear-gradient-11" x1="4123.31" y1="1631.58" x2="4123.31" y2="1506.58" gradientTransform="translate(5083.07 3080.05) rotate(180)" xlink:href="#linear-gradient-10"/><linearGradient id="linear-gradient-12" x1="3350" y1="1397.11" x2="3726.18" y2="1983.08" xlink:href="#linear-gradient-7"/></defs><title>slider-bg-new</title><g clip-path="url(#clip-path)"><path d="M0,2031s1001.25,416.25,1647.5-246.25c546.5-560.25,918.75,329,1333.5,407C3401.75,2271,3606.75,2061,3606.75,2061V410.75H0Z" transform="translate(407.26 3.5)" fill="url(#linear-gradient)"/><path d="M0,2031s214.5,74.25,346-155.75c182.25-319,734-70.25,1267.5,155.75s929.5-434.5,1272.75-402S3607,2061,3607,2061V410.75H0Z" transform="translate(407.26 3.5)" opacity="0.67" fill="url(#linear-gradient-2)" style="isolation:isolate"/><path d="M369.75,1953.25C800,1410.5,841,1563.5,1444.25,1797.5c343.25,133,601.25,330,979.5,12.5,425-356.75,1183,251.25,1183,251.25V-3.5H0V2031S245.75,2109.5,369.75,1953.25Z" transform="translate(407.26 3.5)" fill="url(#linear-gradient-3)"/><path d="M2717,335.75s158.5,133-372.25,562.5S2012,1481,2223.25,1488.5s274.5,78,467.25,374.25,652.25,402,916.25,198.5V335.75Z" transform="translate(407.26 3.5)" opacity="0.4" fill="url(#linear-gradient-4)" style="isolation:isolate"/><path d="M1638.75,713.75C997.5,202,231.25,266.25-5,513.75V0H3598.75V470C2713.75-220,2542.5,1435,1638.75,713.75Z" transform="translate(407.26 3.5)" opacity="0.5" fill="url(#linear-gradient-5)" style="isolation:isolate"/><path d="M-379,739.75A25.46,25.46,0,0,0-392.5,761l-14.75,360.25a25.61,25.61,0,0,0,11.5,22.25l304.5,193a24.84,24.84,0,0,0,25,1L253,1170.25a24.63,24.63,0,0,0,13.25-21L281,789a25.61,25.61,0,0,0-11.5-22.25L-35,573.75a24.84,24.84,0,0,0-25-1Z" transform="translate(407.26 3.5)" opacity="0.75" fill="url(#linear-gradient-6)" style="isolation:isolate"/><path d="M887,1833.25a60,60,0,0,0,50.5,32.5L1216,1879a59.79,59.79,0,0,0,53.25-27.5L1420,1616.75a59.91,59.91,0,0,0,2.75-60l-127.75-248a60,60,0,0,0-50.5-32.5l-278.5-13a59.79,59.79,0,0,0-53.25,27.5L762,1525.5a59.91,59.91,0,0,0-2.75,60Z" transform="translate(407.26 3.5)" fill="url(#linear-gradient-7)"/><circle cx="1227.26" cy="453.5" r="70" fill="url(#linear-gradient-8)"/><circle cx="3799.76" cy="1651" r="52.5" fill="url(#linear-gradient-9)"/><circle cx="2132.26" cy="596" r="72.5" fill="url(#linear-gradient-10)"/><circle cx="959.76" cy="1448.5" r="62.5" fill="url(#linear-gradient-11)"/><path d="M3497,1070.75a60,60,0,0,0,50.5,32.5L3826,1116.5a59.79,59.79,0,0,0,53.25-27.5L4030,854.25a59.91,59.91,0,0,0,2.75-60l-128-248a60,60,0,0,0-50.5-32.5l-278.5-13.25A59.79,59.79,0,0,0,3522.5,528L3371.75,762.75a59.91,59.91,0,0,0-2.75,60Z" transform="translate(407.26 3.5)" fill="url(#linear-gradient-12)"/></g></svg>