<?xml version="1.0" encoding="utf-8"?>
<!-- Generator: Adobe Illustrator 22.1.0, SVG Export Plug-In . SVG Version: 6.00 Build 0)  -->
<svg version="1.1" id="Layer_1" xmlns="http://www.w3.org/2000/svg" xmlns:xlink="http://www.w3.org/1999/xlink" x="0px" y="0px"
	 viewBox="0 0 1426 678.6" style="enable-background:new 0 0 1426 678.6;" xml:space="preserve">
<style type="text/css">
	.st0{clip-path:url(#SVGID_2_);fill:none;}
	.st1{clip-path:url(#SVGID_2_);fill:url(#SVGID_3_);}
	.st2{opacity:0.67;clip-path:url(#SVGID_2_);fill:url(#SVGID_4_);enable-background:new    ;}
	.st3{clip-path:url(#SVGID_2_);fill:url(#SVGID_5_);}
	.st4{opacity:0.4;clip-path:url(#SVGID_2_);fill:url(#SVGID_6_);enable-background:new    ;}
	.st5{opacity:0.5;clip-path:url(#SVGID_2_);fill:url(#SVGID_7_);enable-background:new    ;}
	.st6{opacity:0.75;clip-path:url(#SVGID_2_);fill:url(#SVGID_8_);enable-background:new    ;}
	.st7{clip-path:url(#SVGID_2_);fill:url(#SVGID_9_);}
	.st8{clip-path:url(#SVGID_2_);fill:url(#SVGID_10_);}
	.st9{clip-path:url(#SVGID_2_);fill:url(#SVGID_11_);}
	.st10{clip-path:url(#SVGID_2_);fill:url(#SVGID_12_);}
	.st11{clip-path:url(#SVGID_2_);fill:url(#SVGID_13_);}
	.st12{clip-path:url(#SVGID_2_);fill:url(#SVGID_14_);}
</style>
<title>slider-bg</title>
<g>
	<defs>
		<rect id="SVGID_1_" width="1426" height="678.6"/>
	</defs>
	<clipPath id="SVGID_2_">
		<use xlink:href="#SVGID_1_"  style="overflow:visible;"/>
	</clipPath>
	<rect x="-6" y="-43.7" class="st0" width="1440" height="722.3"/>
	
		<linearGradient id="SVGID_3_" gradientUnits="userSpaceOnUse" x1="552.54" y1="8.687" x2="552.54" y2="-737.063" gradientTransform="matrix(1 0 0 1 162.81 703.3374)">
		<stop  offset="0" style="stop-color:#FFFFFF"/>
		<stop  offset="1" style="stop-color:#3FA9F5;stop-opacity:0.4"/>
	</linearGradient>
	<path class="st1" d="M-6,607.1c0,0,400.5,166.5,659-98.5c218.6-224.1,367.5,131.6,533.4,162.8c168.3,31.7,250.3-52.3,250.3-52.3
		V-41H-6V607.1z"/>
	
		<linearGradient id="SVGID_4_" gradientUnits="userSpaceOnUse" x1="-168.81" y1="-410.8343" x2="1273.99" y2="-410.8343" gradientTransform="matrix(1 0 0 1 162.81 703.3374)">
		<stop  offset="0" style="stop-color:#FFFFFF"/>
		<stop  offset="1" style="stop-color:#3FA9F5;stop-opacity:0.4"/>
	</linearGradient>
	<path class="st2" d="M-6,607.1c0,0,85.8,29.7,138.4-62.3c72.9-127.6,293.6-28.1,507,62.3s371.8-173.8,509.1-160.8
		s288.3,172.8,288.3,172.8V-41H-6V607.1z"/>
	
		<linearGradient id="SVGID_5_" gradientUnits="userSpaceOnUse" x1="552.54" y1="-638.4092" x2="552.54" y2="-94.5868" gradientTransform="matrix(1 0 0 1 162.81 703.3374)">
		<stop  offset="0" style="stop-color:#FFFFFF"/>
		<stop  offset="1" style="stop-color:#3FA9F5;stop-opacity:0.3"/>
	</linearGradient>
	<path class="st3" d="M141.9,576C314,358.9,330.4,420.1,571.7,513.7c137.3,53.2,240.5,132,391.8,5
		c170-142.7,473.2,100.5,473.2,100.5V-45.1H-6v652.2C-6,607.1,92.3,638.5,141.9,576z"/>
	
		<linearGradient id="SVGID_6_" gradientUnits="userSpaceOnUse" x1="1095.7683" y1="-792.6909" x2="963.5384" y2="-272.4607" gradientTransform="matrix(1 0 0 1 162.81 703.3374)">
		<stop  offset="0" style="stop-color:#FFFFFF;stop-opacity:0"/>
		<stop  offset="1" style="stop-color:#3FA9F5;stop-opacity:0.8"/>
	</linearGradient>
	<path class="st4" d="M1080.8-71c0,0,63.4,53.2-148.9,225s-133.1,233.1-48.6,236.1s109.8,31.2,186.9,149.7s260.9,160.8,366.5,79.4
		V-71H1080.8z"/>
	
		<linearGradient id="SVGID_7_" gradientUnits="userSpaceOnUse" x1="549.94" y1="-739.2196" x2="549.94" y2="-492.6348" gradientTransform="matrix(1 0 0 1 162.81 703.3374)">
		<stop  offset="0" style="stop-color:#FFFFFF;stop-opacity:0"/>
		<stop  offset="1" style="stop-color:#219BF1;stop-opacity:0.54"/>
	</linearGradient>
	<path class="st5" d="M649.5,136.2C393-68.5,86.5-42.8-8,56.2v-92.1h1441.5v74.6C1079.5-237.3,1011,424.7,649.5,136.2z"/>
	
		<linearGradient id="SVGID_8_" gradientUnits="userSpaceOnUse" x1="-1207.3431" y1="-1232.2697" x2="50.1469" y2="-309.2694" gradientTransform="matrix(1 0 0 1 162.81 703.3374)">
		<stop  offset="0" style="stop-color:#7EB0F6"/>
		<stop  offset="1" style="stop-color:#FAFDFF"/>
		<stop  offset="1" style="stop-color:#D62F37"/>
	</linearGradient>
	<path class="st6" d="M-157.6,128.7c-3.2,1.7-5.2,4.9-5.4,8.5l-5.9,144.1c-0.1,3.6,1.6,6.9,4.6,8.9l121.8,77.2c3,1.9,6.8,2.1,10,0.4
		l127.7-66.9c3.2-1.7,5.2-4.9,5.3-8.4l5.9-144.1c0.1-3.6-1.6-6.9-4.6-8.9L-20,62.3c-3-1.9-6.8-2.1-10-0.4L-157.6,128.7z"/>
	
		<linearGradient id="SVGID_9_" gradientUnits="userSpaceOnUse" x1="192.3656" y1="-162.9988" x2="342.8356" y2="-397.3887" gradientTransform="matrix(1 0 0 1 162.81 703.3374)">
		<stop  offset="0" style="stop-color:#A1D5FA;stop-opacity:0"/>
		<stop  offset="1" style="stop-color:#2354EC;stop-opacity:0.35"/>
	</linearGradient>
	<path class="st7" d="M348.8,528c3.9,7.6,11.6,12.6,20.2,13l111.4,5.3c8.6,0.4,16.7-3.8,21.3-11l60.3-93.9c4.6-7.2,5.1-16.4,1.1-24
		L512,318.2c-3.9-7.6-11.6-12.6-20.2-13L380.4,300c-8.6-0.4-16.7,3.8-21.3,11l-60.3,93.9c-4.6,7.2-5.1,16.4-1.1,24L348.8,528z"/>
	
		<linearGradient id="SVGID_10_" gradientUnits="userSpaceOnUse" x1="30.49" y1="-604.6172" x2="30.49" y2="-548.6172" gradientTransform="matrix(1 0 0 1 162.81 703.3274)">
		<stop  offset="0" style="stop-color:#F1F6FA"/>
		<stop  offset="1" style="stop-color:#75C4FF;stop-opacity:0.63"/>
	</linearGradient>
	<circle class="st8" cx="193.3" cy="126.7" r="28"/>
	
		<linearGradient id="SVGID_11_" gradientUnits="userSpaceOnUse" x1="1188.1899" y1="-270.6172" x2="1188.1899" y2="-228.6172" gradientTransform="matrix(1 0 0 1 162.81 703.3274)">
		<stop  offset="0" style="stop-color:#F1F6FA"/>
		<stop  offset="1" style="stop-color:#75C4FF;stop-opacity:0.63"/>
	</linearGradient>
	<circle class="st9" cx="1351" cy="453.7" r="21"/>
	
		<linearGradient id="SVGID_12_" gradientUnits="userSpaceOnUse" x1="610.199" y1="-634.6172" x2="610.199" y2="-576.6171" gradientTransform="matrix(1 0 0 1 162.81 703.3274)">
		<stop  offset="0" style="stop-color:#46BAED"/>
		<stop  offset="1" style="stop-color:#5380FD"/>
	</linearGradient>
	<circle class="st10" cx="773" cy="97.7" r="29"/>
	
		<linearGradient id="SVGID_13_" gradientUnits="userSpaceOnUse" x1="4287.8101" y1="-837.6129" x2="4287.8101" y2="-787.6129" gradientTransform="matrix(-1 0 0 1 4467.8101 1281.3273)">
		<stop  offset="0" style="stop-color:#46BAED"/>
		<stop  offset="1" style="stop-color:#5380FD"/>
	</linearGradient>
	<circle class="st11" cx="180" cy="443.7" r="25"/>
	
		<linearGradient id="SVGID_14_" gradientUnits="userSpaceOnUse" x1="1223.3075" y1="-350.036" x2="1373.7776" y2="-584.4259" gradientTransform="matrix(1 0 0 1 162.81 703.3374)">
		<stop  offset="0" style="stop-color:#A1D5FA;stop-opacity:0"/>
		<stop  offset="1" style="stop-color:#2354EC;stop-opacity:0.35"/>
	</linearGradient>
	<path class="st12" d="M1379.8,341c3.9,7.6,11.6,12.6,20.2,13l111.4,5.3c8.6,0.4,16.7-3.8,21.3-11l60.3-93.9
		c4.6-7.2,5.1-16.4,1.1-24l-51.2-99.2c-3.9-7.6-11.6-12.6-20.2-13l-111.4-5.3c-8.6-0.4-16.7,3.8-21.3,11l-60.3,93.9
		c-4.6,7.2-5.1,16.4-1.1,24L1379.8,341z"/>
</g>
</svg>
