<svg width="623" height="493" viewBox="0 0 623 493" fill="none" xmlns="http://www.w3.org/2000/svg">
<path d="M146.375 202.405C153.984 218.332 158.36 233.354 152.653 240.05C152.272 240.412 151.987 240.774 151.606 241.136C147.231 244.756 138.766 244.847 124.308 239.417C85.9764 225.028 84.1692 200.142 76.3697 175.799C68.7605 151.818 42.0329 155.89 41.3671 155.981C103.573 135.439 133.439 175.437 146.375 202.405Z" fill="url(#paint0_linear)"/>
<path d="M152.748 240.05C152.367 240.412 152.082 240.774 151.701 241.136C144.473 236.974 130.681 228.286 124.213 218.422C121.169 213.807 118.601 208.558 115.843 203.038C110.707 192.631 105.38 181.772 95.9636 173.537L97.0099 172.451C106.521 180.957 111.943 191.817 117.174 202.405C119.933 207.925 122.406 213.083 125.45 217.608C131.727 227.2 145.709 235.978 152.748 240.05Z" fill="url(#paint1_linear)"/>
<path d="M139.717 208.92C139.241 210.006 138.956 210.549 138.956 210.64C138.861 210.097 138.766 209.463 138.575 208.92C133.439 183.944 126.591 181.41 106.141 159.601C85.1204 137.249 97.2001 116.525 97.2001 116.525C167.491 135.71 144.473 197.79 139.717 208.92Z" fill="url(#paint2_linear)"/>
<path d="M139.717 208.92C139.241 210.006 138.956 210.549 138.956 210.64C138.861 210.097 138.766 209.463 138.575 208.92C140.858 187.383 127.162 162.044 122.881 157.519C118.411 152.814 115.653 146.389 114.701 143.945C114.511 143.583 114.321 143.131 114.321 143.04L115.272 142.497C115.367 142.678 115.462 142.95 115.748 143.493C116.794 145.846 119.457 152.18 123.737 156.795C129.254 162.497 141.809 187.926 139.717 208.92Z" fill="url(#paint3_linear)"/>
<g filter="url(#filter0_d)">
<path d="M541.6 58.1779H148.392C143.636 58.1779 139.736 61.8881 139.736 66.4129V304.866C139.736 309.391 143.636 313.101 148.392 313.101H541.505C546.261 313.101 550.161 309.391 550.161 304.866V66.4129C550.256 61.8881 546.356 58.1779 541.6 58.1779Z" fill="white"/>
<path d="M146.965 82.8829H543.122C543.883 82.8829 544.644 83.5164 544.644 84.3308V306.495C544.644 307.219 543.979 307.943 543.122 307.943H146.965C146.204 307.943 145.443 307.309 145.443 306.495V84.3308C145.443 83.6069 146.109 82.8829 146.965 82.8829Z" fill="#F5F5F5"/>
<path d="M156.924 75.9449C157.975 75.9449 158.827 75.1346 158.827 74.135C158.827 73.1354 157.975 72.3251 156.924 72.3251C155.874 72.3251 155.022 73.1354 155.022 74.135C155.022 75.1346 155.874 75.9449 156.924 75.9449Z" fill="#E85748"/>
<path d="M164.058 75.9449C165.109 75.9449 165.96 75.1345 165.96 74.135C165.96 73.1354 165.109 72.3251 164.058 72.3251C163.007 72.3251 162.156 73.1354 162.156 74.135C162.156 75.1345 163.007 75.9449 164.058 75.9449Z" fill="#FFD112"/>
<path d="M170.906 75.9449C171.957 75.9449 172.809 75.1345 172.809 74.135C172.809 73.1354 171.957 72.3251 170.906 72.3251C169.856 72.3251 169.004 73.1354 169.004 74.135C169.004 75.1345 169.856 75.9449 170.906 75.9449Z" fill="#A7E512"/>
<path d="M536.464 112.927H153.528V184.056H536.464V112.927Z" fill="url(#paint4_linear)"/>
<path d="M536.274 251.927H153.528V255.909H536.274V251.927Z" fill="url(#paint5_linear)"/>
<path d="M536.274 260.433H153.528V264.415H536.274V260.433Z" fill="url(#paint6_linear)"/>
<path d="M239.132 194.01H153.528V242.515H239.132V194.01Z" fill="url(#paint7_linear)"/>
<path d="M337.958 194.01H252.353V242.515H337.958V194.01Z" fill="url(#paint8_linear)"/>
<path d="M436.783 194.01H351.179V242.515H436.783V194.01Z" fill="url(#paint9_linear)"/>
<path d="M535.608 194.01H450.004V242.515H535.608V194.01Z" fill="url(#paint10_linear)"/>
<path d="M536.274 88.8555H153.718V103.787H536.274V88.8555Z" fill="white"/>
<path d="M509.737 96.2759H521.056C521.912 96.2759 522.577 96.7284 522.577 97.3618C522.577 97.9048 521.912 98.4478 521.056 98.4478H509.737C508.881 98.4478 508.215 97.9953 508.215 97.3618C508.215 96.7284 508.881 96.2759 509.737 96.2759Z" fill="#DFDFDF"/>
<path d="M483.199 96.2759H493.187C494.043 96.2759 494.708 96.7284 494.708 97.3618C494.708 97.9048 494.043 98.4478 493.187 98.4478H483.199C482.343 98.4478 481.678 97.9953 481.678 97.3618C481.678 96.7284 482.343 96.2759 483.199 96.2759Z" fill="#DFDFDF"/>
<path d="M454.855 96.2759H466.935C467.791 96.2759 468.457 96.7284 468.457 97.3618C468.457 97.9048 467.791 98.4478 466.935 98.4478H454.855C453.999 98.4478 453.333 97.9953 453.333 97.3618C453.333 96.7284 453.999 96.2759 454.855 96.2759Z" fill="url(#paint11_linear)"/>
<path d="M188.911 98.8099H165.798C164.752 98.8099 163.896 97.9955 163.896 97V95.7331C163.896 94.7377 164.752 93.9232 165.798 93.9232H188.911C189.957 93.9232 190.814 94.7377 190.814 95.7331V97C190.814 97.9955 189.957 98.8099 188.911 98.8099Z" fill="#E85748"/>
<path d="M333.107 276.179H161.898V281.79H333.107V276.179Z" fill="#E6E6E6"/>
<path d="M288.878 286.315H161.898V291.925H288.878V286.315Z" fill="#E6E6E6"/>
<path d="M157.808 276.179H153.528V291.835H157.808V276.179Z" fill="#E85748"/>
<path d="M535.038 276.179H363.829V281.79H535.038V276.179Z" fill="#E6E6E6"/>
<path d="M490.809 286.315H363.829V291.925H490.809V286.315Z" fill="#E6E6E6"/>
<path d="M359.739 276.179H355.459V291.835H359.739V276.179Z" fill="#E85748"/>
</g>
<path d="M285.434 370.182C285.434 370.182 286.29 371.539 286.385 372.715C286.481 373.62 287.241 374.978 287.622 375.702C288.002 376.426 289.049 379.774 289.144 380.588C289.144 380.95 288.288 383.213 288.478 383.846C288.668 384.48 289.049 386.018 288.383 386.109C287.717 386.199 286.956 385.023 286.956 385.023C286.956 385.023 287.051 385.656 286.481 385.928C285.339 386.38 284.768 386.018 284.768 386.018C284.768 386.018 284.388 386.742 283.817 386.833C282.676 387.014 282.105 386.652 282.105 386.652C282.105 386.652 281.63 387.014 280.869 387.014C279.822 387.014 279.442 386.199 279.442 386.199C279.442 386.199 278.205 386.471 277.825 385.837C277.444 385.294 277.54 384.661 277.349 384.208C277.159 383.665 277.349 379.141 278.966 375.792C280.583 372.444 278.586 369.277 278.586 369.277L285.434 370.182Z" fill="#EEA886"/>
<path d="M287.051 384.57C287.051 384.57 287.146 380.408 286.005 379.593C284.863 378.688 284.768 380.227 284.768 380.227C284.768 380.227 284.959 378.779 283.722 378.598C282.486 378.417 282.39 380.136 282.39 380.136C282.39 380.136 282.2 378.96 280.869 379.231C279.537 379.503 279.822 380.95 279.822 380.95C279.822 380.95 278.586 379.503 277.73 380.86C276.398 383.122 277.635 385.928 277.635 385.928C277.635 385.928 278.015 386.561 279.252 386.29C279.252 386.29 280.108 387.919 281.915 386.742C281.915 386.742 283.817 387.738 284.483 386.109C284.673 386.018 286.766 386.923 287.051 384.57Z" fill="#DB9C7C"/>
<path d="M300.177 310.727C300.177 310.727 292.758 334.255 290.19 342.943C289.429 345.658 287.527 371.72 287.146 372.715C286.766 373.801 277.349 375.159 277.349 375.159C277.349 375.159 278.491 342.581 278.586 340.861C278.681 339.051 288.954 302.763 291.997 301.406C294.28 300.41 295.421 301.225 298.275 303.216C302.27 306.111 300.177 310.727 300.177 310.727Z" fill="#323657"/>
<path d="M392.249 273.171C392.249 273.171 392.059 274.076 391.774 274.438C391.774 274.438 391.203 275.072 390.823 275.524C390.727 275.705 390.632 275.796 390.537 275.886C390.347 276.248 389.966 277.153 389.11 277.968C388.254 278.782 385.116 281.225 385.116 281.225L382.452 279.054L379.599 277.877C379.599 277.877 381.216 271.361 381.882 270.547C381.977 270.457 381.977 270.366 382.072 270.366C382.738 269.733 383.499 269.552 383.784 269.19C383.879 269.099 385.401 268.104 385.877 268.194C386.637 268.375 387.018 268.737 387.208 269.19C387.208 269.19 388.635 269.552 389.11 270.366C389.11 270.366 390.442 270.728 390.823 271.814C390.918 271.995 392.249 272.447 392.249 273.171Z" fill="#EFAA88"/>
<path d="M294.185 471.536C294.185 471.536 293.519 475.97 293.424 476.694C293.329 477.327 285.91 476.332 285.91 476.332L285.339 470.993C285.244 470.993 293.234 470.902 294.185 471.536Z" fill="#424773"/>
<path d="M293.424 476.151C293.424 476.151 295.802 478.866 298.085 480.042C300.367 481.219 303.982 481.671 305.313 482.938C306.265 483.843 308.833 487.553 299.416 487.553C289.905 487.463 285.339 488.096 284.388 486.648C283.342 485.2 285.815 475.97 285.815 475.97C285.815 475.97 288.002 476.603 293.424 476.151Z" fill="#292C47"/>
<path d="M347.545 471.536C347.545 471.536 346.879 475.97 346.784 476.694C346.689 477.418 339.27 476.332 339.27 476.332L338.699 470.993C338.604 470.993 346.594 470.902 347.545 471.536Z" fill="#424773"/>
<path d="M346.879 476.151C346.879 476.151 349.257 478.866 351.54 480.042C353.823 481.218 362.193 482.214 363.619 483.39C364.571 484.295 366.188 487.825 352.871 487.463C343.36 487.191 338.794 488.006 337.843 486.558C336.797 485.11 339.27 475.879 339.27 475.879C339.27 475.879 341.267 476.694 346.879 476.151Z" fill="#292C47"/>
<path d="M300.272 356.607C300.272 356.607 293.234 367.195 293.804 376.788C294.28 386.38 291.236 396.787 290.19 406.741C289.049 417.872 284.198 444.206 284.007 450.179C283.817 456.151 284.768 475.155 284.768 475.155L294.375 475.336C294.375 475.336 302.46 429.275 304.552 424.569C306.645 419.863 317.013 386.29 317.393 382.579C317.774 378.869 300.272 356.607 300.272 356.607Z" fill="#292C47"/>
<path d="M337.177 358.055C337.177 358.055 342.409 384.299 343.17 390.09C343.835 395.973 344.311 418.415 344.691 422.035C345.072 425.655 347.925 469.816 348.876 475.336H336.607C336.607 475.336 327.19 443.211 327.19 428.008C327.19 412.805 319.866 394.977 315.205 384.932C310.545 374.887 299.702 374.616 296.848 356.065C296.753 356.065 333.277 352.173 337.177 358.055Z" fill="#292C47"/>
<path d="M311.971 267.651C311.971 267.651 321.388 264.303 325.668 271.09C330.043 277.877 329.568 291.542 324.812 293.171C320.056 294.89 312.923 293.985 310.545 289.732C308.167 285.479 305.884 279.325 306.074 275.162C306.265 271.18 309.498 268.828 311.971 267.651Z" fill="#EEA886"/>
<path d="M323.861 293.533C323.861 293.533 323.48 295.976 324.146 297.153C324.812 298.329 311.972 298.329 311.972 298.329C311.972 298.329 310.925 291.904 308.928 286.384C306.93 280.954 323.861 293.533 323.861 293.533Z" fill="#EEA886"/>
<path d="M308.928 286.474C308.928 286.474 309.784 287.832 313.398 287.289C317.013 286.746 321.388 282.221 322.91 281.678C324.432 281.135 324.432 280.321 324.432 280.321L325.383 281.587L327 281.678C327 281.678 325.573 277.606 327.761 275.886C329.948 274.257 325.478 262.674 313.874 266.475C313.874 266.475 304.933 268.828 305.313 273.624C305.694 278.601 306.93 284.031 308.928 286.474Z" fill="#464240"/>
<path d="M324.907 297.062C324.907 297.062 324.907 294.8 323.766 294.528C322.72 294.347 311.781 293.352 310.45 293.804V296.429C310.45 296.429 313.018 297.967 324.907 297.062Z" fill="#E2D2CA"/>
<path d="M324.241 278.601C324.051 277.787 321.864 275.524 321.007 277.968C320.151 280.411 322.244 283.759 323.385 283.488C324.622 283.216 324.717 280.683 324.241 278.601Z" fill="#EEA886"/>
<path d="M342.884 300.501C335.465 299.596 324.907 297.062 324.907 297.062L310.545 296.519C310.545 296.519 297.324 299.324 292.092 301.496C291.617 301.677 291.617 312.718 290.285 315.613L294.565 324.301C294.565 324.301 297.038 341.495 297.609 349.096C297.799 352.626 292.473 381.946 292.473 381.946C292.473 381.946 298.275 383.575 308.072 384.57C317.869 385.566 342.409 384.208 342.599 383.122C342.789 382.036 337.843 342.038 337.653 339.956C337.272 336.789 338.794 319.867 338.794 319.867C341.077 318.238 360.956 309.369 366.378 304.845C367.804 303.578 373.987 297.967 375.699 295.976C381.882 289.008 386.923 283.035 387.589 281.768C388.254 281.044 380.74 277.153 380.074 276.972C379.504 276.791 371.324 287.108 368.09 290.456C366.663 291.904 360.671 296.067 360.671 296.067C360.671 296.067 347.545 300.682 342.884 300.501Z" fill="#323657"/>
<path d="M309.308 268.466C309.308 268.466 297.324 269.371 308.928 286.474L309.308 268.466Z" fill="#464240"/>
<path d="M103.953 253.444C98.2464 250.819 92.4443 268.285 92.4443 268.285C82.6474 280.592 68.9507 264.212 70.3774 282.583C72.7553 314.708 31.4751 292.718 50.4983 326.292C69.5214 359.865 33.6628 345.296 45.5522 372.353C57.3466 399.411 42.033 431.718 59.8196 418.415C59.8196 418.415 75.5137 385.747 91.6834 375.611C107.853 365.476 81.9816 353.531 87.0227 339.775C94.3466 319.867 112.038 320.591 99.2926 299.143C86.5471 277.787 123.547 262.403 103.953 253.444Z" fill="url(#paint12_linear)"/>
<path d="M54.1126 406.198C61.817 401.04 70.853 365.114 71.4237 343.667C71.7091 332.717 75.1332 328.102 78.0818 324.12C80.9353 320.229 83.4083 316.971 81.9816 309.279C79.2232 294.709 86.452 288.374 86.5471 288.284L85.6911 287.379C85.4057 287.651 77.7965 294.166 80.7451 309.46C82.0767 316.609 79.889 319.595 77.0355 323.396C74.087 327.378 70.3774 332.264 70.0921 343.667C69.6165 366.562 60.3903 400.497 53.4468 405.203L54.1126 406.198Z" fill="white"/>
<path d="M37.943 395.701C37.182 394.163 36.4211 392.534 35.5651 390.814C31.1898 381.946 27.29 380.498 20.8221 378.055C19.2052 377.421 17.4931 376.788 15.4956 375.973C6.26942 371.991 8.07662 366.109 9.59847 360.951C9.7887 360.227 10.0741 359.503 10.2643 358.779C11.1203 355.793 9.50336 354.255 7.12546 351.902C5.31826 350.182 3.1306 348.101 1.51363 344.662C-0.293566 340.952 0.562476 339.051 1.70386 337.965C4.08176 335.884 9.50336 336.246 14.5445 338.87C16.1615 339.685 17.398 341.042 18.8247 342.4C22.0586 345.658 26.1486 349.73 36.4211 349.73C42.3183 349.73 45.4571 350.544 47.1692 352.264C49.0715 354.255 48.6911 357.331 48.2155 361.494C48.0252 362.942 47.835 364.571 47.7399 366.381C47.0741 376.969 53.542 384.57 53.6371 384.57C57.5368 389.004 62.3877 398.235 60.2952 403.846C59.4391 406.198 57.4417 407.737 54.4931 408.28C53.3517 408.551 52.2103 408.642 51.2592 408.642C44.1255 408.823 41.4623 403.122 37.943 395.701ZM13.9738 340.137C9.40824 337.784 4.46222 337.242 2.55991 339.051C1.13317 340.409 1.79898 342.671 2.65502 344.3C4.27199 347.467 6.26942 349.458 8.07662 351.178C10.5496 353.621 12.5471 355.521 11.5008 359.141C11.3106 359.865 11.1203 360.589 10.835 361.313C9.21801 366.471 7.79127 371.268 16.0663 374.797C17.9687 375.611 19.7759 376.245 21.3928 376.878C27.9558 379.322 32.236 380.95 36.8967 390.181C37.7527 391.9 38.5137 393.529 39.2746 395.158C43.2695 403.755 45.6473 408.913 54.398 407.284C56.871 406.832 58.488 405.565 59.2489 403.665C61.0561 398.687 56.6808 389.909 52.781 385.566C52.4957 385.204 45.8376 377.512 46.5985 366.471C46.6936 364.661 46.8839 363.033 47.0741 361.585C47.5497 357.693 47.835 354.888 46.3132 353.35C44.9815 351.902 41.9378 351.178 36.5162 351.178C25.673 351.087 21.4879 346.834 17.9687 343.486C16.637 342.038 15.4005 340.861 13.9738 340.137Z" fill="url(#paint13_linear)"/>
<path d="M54.398 415.791L55.6345 415.7C55.5394 414.524 53.9224 387.738 42.6037 379.865C30.1435 371.268 26.2437 361.947 24.4365 355.793C22.2489 348.463 11.0252 346.472 10.5496 346.472L10.3594 347.648C10.4545 347.648 21.2026 349.549 23.2 356.155C25.1023 362.58 29.0972 372.082 41.8427 380.86C52.781 388.461 54.398 415.519 54.398 415.791Z" fill="url(#paint14_linear)"/>
<path d="M28.5265 280.592C36.6113 277.968 34.8993 292.718 38.3234 303.668C41.7476 314.618 76.1796 308.464 61.7219 335.794C47.2643 363.123 79.9842 344.934 70.1873 368.824C60.3903 392.715 69.3312 418.234 58.6782 411.719C48.0253 405.203 52.6859 375.159 41.6525 371.539C30.619 368.01 28.8118 363.757 39.7502 354.074C50.6885 344.391 11.0252 334.708 20.8221 315.161C30.619 295.524 19.2051 283.578 28.5265 280.592Z" fill="url(#paint15_linear)"/>
<path d="M53.7322 410.542C54.7785 406.47 63.434 370.453 55.3492 366.109C48.2155 362.309 48.4057 347.377 49.5471 333.26C50.4983 320.772 33.7578 314.98 32.9969 314.708L32.6165 315.885C32.8067 315.975 49.2617 321.677 48.3106 333.169C47.1692 347.649 47.0741 362.942 54.7785 367.105C60.8659 370.363 55.254 399.321 52.5908 410.18L53.7322 410.542Z" fill="white"/>
<path d="M84.1693 397.692L72.6602 439.229H46.979L35.47 397.692H84.1693Z" fill="url(#paint16_linear)"/>
<path d="M84.1693 397.692C84.1693 397.692 58.8685 402.217 58.8685 439.229H46.979L35.47 397.692H84.1693Z" fill="url(#paint17_linear)"/>
<path d="M150.655 350.273C150.655 350.273 156.457 350.635 158.074 351.449C159.691 352.354 170.725 349.006 170.915 348.282C171.105 347.558 170.915 347.106 170.915 347.106H149.324L150.655 350.273Z" fill="#DE9673"/>
<path d="M124.403 325.839C124.403 325.839 122.501 339.775 124.403 341.585C131.537 348.553 157.789 348.01 157.789 348.01V350.816C157.789 350.816 117.745 355.522 114.036 348.191C109.565 339.323 111.277 324.844 111.277 324.844L124.403 325.839Z" fill="#DE9673"/>
<path d="M111.277 472.35L113.655 469.726L109.28 465.472L105.665 467.916L111.277 472.35Z" fill="#2F4563"/>
<path d="M105.665 467.916C105.665 467.916 110.516 471.445 111.943 471.536C113.275 471.717 113.94 472.26 113.75 474.25C113.56 476.241 115.748 484.567 117.27 484.657C118.791 484.748 123.832 484.838 124.784 488.006C125.735 491.173 108.614 490.539 107.568 487.915C106.521 485.291 99.1024 472.531 100.054 471.536C100.91 470.54 103.192 468.187 105.665 467.916Z" fill="#1E2D40"/>
<path d="M137.149 368.372C137.149 368.372 169.108 421.402 156.172 432.351C151.036 436.695 146.185 440.586 139.146 446.288C135.437 449.364 130.871 452.894 125.545 458.233L125.354 458.414C121.55 462.215 118.411 465.382 117.365 466.377L117.27 466.468L117.174 466.558L113.655 469.816L108.424 465.472C108.424 465.472 114.321 457.69 117.65 451.717C122.311 443.301 130.205 433.437 133.82 430.723C140.097 426.017 141.809 425.112 141.809 420.587C141.809 415.791 112.514 388.733 112.514 388.733C112.514 388.733 108.234 371.811 118.411 367.376C128.208 363.033 137.149 368.372 137.149 368.372Z" fill="#23344A"/>
<path d="M112.704 480.495C112.704 480.495 112.514 478.051 112.894 476.513C113.37 474.974 106.236 475.879 106.236 475.879C106.236 475.879 105.285 482.395 105.57 483.933C105.951 485.381 112.704 480.495 112.704 480.495Z" fill="#41608A"/>
<path d="M114.036 476.513L104.524 478.142C104.524 478.142 103.858 466.558 103.953 457.78C104.048 448.278 103.573 440.767 106.617 433.256C109.47 426.198 108.804 423.483 109.09 418.596C109.375 413.8 106.617 388.824 106.617 388.824C106.617 388.824 103.383 377.693 110.897 369.82C118.221 362.128 137.149 369.82 137.149 369.82C137.149 369.82 133.154 403.846 123.737 424.84C121.074 430.813 122.501 434.433 119.077 443.573C119.172 443.663 113.94 463.663 114.036 476.513Z" fill="#2F4563"/>
<path d="M122.311 302.582C121.835 303.397 121.455 304.392 121.169 305.478C120.884 306.473 120.789 307.559 120.694 308.555C120.503 310.727 120.503 312.537 120.503 312.537C120.503 312.537 107.853 309.912 109.85 307.107C111.943 304.302 110.707 295.795 110.707 295.795C110.707 295.795 123.928 299.958 122.311 302.582Z" fill="#EEA987"/>
<path d="M129.444 279.325C129.444 279.325 132.678 282.04 131.252 289.732C131.252 289.732 132.012 295.886 132.964 296.972C133.915 298.057 130.3 298.419 129.92 299.234C129.539 300.048 128.779 303.668 126.306 305.84C123.737 308.012 111.182 301.406 110.516 297.695C109.946 293.985 101.195 278.058 114.987 277.334C128.779 276.52 129.444 279.325 129.444 279.325Z" fill="#EEA886"/>
<path d="M138.195 336.337C137.91 337.151 138.861 349.006 138.861 350.001C138.385 355.612 139.907 364.209 140.478 367.286C140.668 368.01 140.668 368.372 140.668 368.372C126.971 374.706 107.853 374.163 107.853 374.163C107.948 373.711 110.611 367.557 110.611 367.105C111.753 359.413 113.37 355.974 112.989 350.816C112.704 347.92 111.943 344.843 110.326 341.133C105.665 330.273 105.951 323.034 106.712 317.061C107.473 311.089 109.375 307.65 109.375 307.65L120.979 308.826C123.452 311.451 125.64 312.808 132.583 318.69C140.002 324.934 141.334 326.835 138.195 336.337Z" fill="#EB4747"/>
<path d="M105.285 482.214C105.285 482.214 111.943 480.404 112.228 480.223C112.419 480.042 112.514 479.68 113.37 480.042C114.321 480.404 114.701 481.761 115.557 482.123C116.509 482.576 122.025 484.114 124.974 485.472C126.115 486.015 130.681 487.644 131.347 489.092C132.012 490.539 131.822 492.621 123.832 492.078C115.843 491.535 107.187 492.621 105.475 491.806C103.763 490.992 104.809 484.386 105.285 482.214Z" fill="#23344A"/>
<path d="M131.632 286.927C131.632 286.927 133.154 270.909 116.794 273.714C100.434 276.52 108.899 294.166 111.087 299.867C111.087 299.867 110.802 290.999 118.696 290.727C126.591 290.365 128.208 288.646 131.632 286.927Z" fill="#464240"/>
<path d="M117.365 288.465C116.413 286.836 112.989 287.741 113.37 290.184C113.75 292.628 116.509 295.162 117.365 293.985C118.316 292.718 118.886 290.818 117.365 288.465Z" fill="#EEA987"/>
<path d="M117.745 319.957C117.745 319.957 116.413 333.712 118.221 335.522C125.354 342.49 153.318 342.581 153.318 342.581L154.65 346.563C154.65 346.563 112.989 349.277 109.28 341.857C104.809 332.988 106.521 318.509 106.521 318.509L117.745 319.957Z" fill="#EEA987"/>
<path d="M111.658 277.696C111.658 277.696 105.38 271.904 100.91 278.42C96.4391 284.936 106.236 293.985 110.231 288.646C114.131 283.307 111.658 277.696 111.658 277.696Z" fill="#464240"/>
<path d="M121.169 305.478C120.884 306.473 120.789 307.559 120.694 308.555C116.509 306.745 113.37 301.134 113.37 301.134C116.318 303.668 121.169 305.478 121.169 305.478Z" fill="#A77860"/>
<path d="M181.473 346.653H141.714V348.734H181.473V346.653Z" fill="#6E6760"/>
<path d="M197.396 314.027L179.485 347.798L181.438 348.736L199.349 314.964L197.396 314.027Z" fill="#6E6760"/>
<path d="M147.611 342.671C147.611 342.671 153.414 342.219 155.03 341.133C156.647 340.047 167.681 344.21 167.871 345.205C168.061 346.201 167.871 346.653 167.871 346.653H146.28L147.611 342.671Z" fill="#EEA987"/>
<path d="M109.375 307.559L110.231 305.478L121.359 307.559V309.46L109.375 307.559Z" fill="#EB4747"/>
<path d="M117.745 320.138C117.745 320.138 118.982 312.175 113.084 311.451C107.282 310.727 106.617 318.6 106.617 318.6L117.745 320.138Z" fill="#EEA987"/>
<path d="M497.923 470.54C497.923 470.54 498.589 475.065 498.684 475.698C498.779 476.332 506.198 475.336 506.198 475.336L506.768 469.997C506.864 469.907 498.874 469.907 497.923 470.54Z" fill="#5C544D"/>
<path d="M498.589 475.155C498.589 475.155 496.211 477.87 493.928 479.047C491.645 480.223 488.031 480.676 486.699 481.942C485.748 482.847 483.18 486.648 492.596 486.558C502.108 486.467 506.673 487.101 507.625 485.653C508.671 484.205 506.198 474.884 506.198 474.884C506.198 474.884 504.01 475.608 498.589 475.155Z" fill="#3C4145"/>
<path d="M444.563 470.54C444.563 470.54 445.229 475.065 445.324 475.698C445.419 476.332 452.838 475.336 452.838 475.336L453.409 469.997C453.504 469.907 445.514 469.907 444.563 470.54Z" fill="#5C544D"/>
<path d="M445.229 475.155C445.229 475.155 442.851 477.87 440.568 479.047C438.285 480.223 429.915 481.219 428.583 482.395C427.632 483.3 426.015 486.829 439.332 486.558C448.843 486.286 453.409 487.101 454.36 485.653C455.406 484.205 452.933 474.884 452.933 474.884C452.933 474.884 450.841 475.698 445.229 475.155Z" fill="#3C4145"/>
<path d="M495.26 353.983C495.26 353.983 499.254 365.204 498.684 374.797C498.208 384.48 500.776 394.977 501.822 405.113C502.964 416.334 507.815 442.939 508.005 449.002C508.195 454.975 507.244 474.25 507.244 474.25L497.637 474.431C497.637 474.431 489.553 427.917 487.46 423.121C485.367 418.415 475 384.48 474.619 380.679C474.334 376.969 495.26 353.983 495.26 353.983Z" fill="#33373B"/>
<path d="M454.93 355.974C454.93 355.974 449.699 382.398 448.938 388.371C448.272 394.253 447.797 416.967 447.416 420.678C447.036 424.388 445.134 469.002 443.231 474.522H455.501C455.501 474.522 464.918 442.034 464.918 426.741C464.918 411.357 472.241 393.348 476.902 383.213C481.563 373.077 492.311 372.806 495.26 354.074C495.26 353.983 458.83 350.001 454.93 355.974Z" fill="#3C4145"/>
<path d="M479.851 265.57C479.851 265.57 470.149 262.131 465.679 269.099C461.208 276.067 461.684 290.094 466.535 291.904C471.385 293.623 478.709 292.718 481.278 288.374C483.751 284.031 486.033 277.606 485.938 273.443C485.843 269.099 482.419 266.746 479.851 265.57Z" fill="#EEA886"/>
<path d="M468.247 291.451C468.247 291.451 468.627 293.895 467.961 295.071C467.295 296.248 480.136 296.248 480.136 296.248C480.136 296.248 481.182 289.822 483.18 284.302C485.082 278.873 468.247 291.451 468.247 291.451Z" fill="#EEA886"/>
<path d="M483.18 284.302C483.18 284.302 482.324 285.66 478.709 285.117C475.095 284.574 470.72 280.049 469.198 279.506C467.676 278.963 467.676 278.149 467.676 278.149L466.725 279.415L465.108 279.506C465.108 279.506 466.535 275.434 464.347 273.714C462.159 272.085 466.63 260.502 478.234 264.303C478.234 264.303 487.175 266.656 486.794 271.452C486.414 276.429 485.177 281.949 483.18 284.302Z" fill="#464240"/>
<path d="M467.2 294.89C467.2 294.89 467.2 292.628 468.342 292.356C469.388 292.175 480.326 291.18 481.658 291.632V294.257C481.563 294.347 478.995 295.795 467.2 294.89Z" fill="#E2D2CA"/>
<path d="M467.866 276.429C468.056 275.615 470.244 273.352 471.005 275.796C471.861 278.239 469.768 281.587 468.627 281.316C467.486 281.044 467.295 278.511 467.866 276.429Z" fill="#EEA886"/>
<path d="M467.2 294.89C467.2 294.89 461.208 296.971 454.36 299.686C454.36 299.686 446.465 302.492 445.609 310.817C445.134 315.251 440.187 338.689 439.236 340.68C438.285 342.671 427.347 374.616 426.966 375.249C426.586 375.883 435.907 379.593 436.573 379.322C437.239 379.05 447.226 350.182 448.177 348.101C448.177 348.101 453.979 330.816 454.074 328.283C454.074 328.283 454.265 335.613 454.55 337.694C454.835 339.775 449.414 379.774 449.604 380.86C449.794 381.946 474.334 383.394 484.131 382.308C493.928 381.312 501.918 379.141 501.918 379.141C501.918 379.141 494.213 347.558 494.403 344.029C494.879 336.427 497.637 322.038 497.637 322.038L505.627 336.427L495.26 361.585L497.637 369.186C497.637 369.186 516.661 341.766 517.326 339.323C517.992 336.789 516.375 333.622 515.424 331.54C514.378 329.459 507.815 313.803 506.293 311.632C504.771 309.46 502.108 300.591 495.83 298.148C490.504 296.067 481.658 294.438 481.658 294.438L467.2 294.89Z" fill="#EB4747"/>
<path d="M462.13 360.03L417.255 349.1L409.21 378.902L454.085 389.832L462.13 360.03Z" fill="#323657"/>
<path d="M422.971 381.855C422.971 381.855 421.735 383.846 421.259 384.389C420.784 384.932 422.401 385.294 423.067 384.751C423.827 384.118 422.971 381.855 422.971 381.855Z" fill="#C98462"/>
<path d="M432.388 388.552C432.388 388.552 433.149 387.828 433.339 387.285C433.339 387.285 433.529 386.38 433.72 385.747C433.815 385.566 433.815 385.385 433.91 385.294C434.1 384.842 434.766 383.937 434.956 382.67C435.146 381.493 435.717 375.973 435.717 375.973L432.198 375.159L429.439 374.616C429.439 374.616 423.447 380.317 423.067 381.493C423.067 381.584 422.972 381.674 422.972 381.855C422.781 382.851 423.067 383.575 423.067 384.118C423.067 384.299 423.067 386.199 423.542 386.561C424.208 387.014 424.874 387.104 425.349 387.014C425.349 387.014 426.681 387.919 427.727 387.828C427.727 387.828 428.869 388.733 430.2 388.281C430.295 388.281 431.627 389.005 432.388 388.552Z" fill="#DE9D7D"/>
<path d="M445.894 354.074C445.894 354.074 437.905 377.059 436.478 379.412C436.478 379.412 430.676 378.236 426.871 375.34L435.622 350.544L445.894 354.074Z" fill="#EB4747"/>
<path d="M616.152 381.403C616.152 381.403 615.866 376.154 614.344 375.34C612.918 374.525 613.679 376.154 613.679 376.154C613.679 376.154 614.535 379.955 614.725 381.584C614.82 381.584 616.152 381.403 616.152 381.403Z" fill="#1D3B54"/>
<path d="M577.059 270.276C577.059 270.276 590.851 269.19 590.47 283.035C590.09 296.881 587.807 298.963 590.47 308.736C593.134 318.509 576.964 303.216 576.964 303.216L577.059 270.276Z" fill="#434343"/>
<path d="M565.455 307.65C565.455 307.65 545.861 319.233 544.244 318.057C541.961 316.337 535.684 301.587 535.684 301.587L530.738 303.849C530.738 303.849 536.635 329.369 544.53 327.468C552.424 325.568 570.591 314.889 570.591 314.889L565.455 307.65Z" fill="#EEA987"/>
<path d="M592.087 355.703C592.087 355.703 597.129 361.856 598.936 365.928C600.743 370.001 603.692 378.96 603.311 385.837C602.931 392.805 600.553 405.746 601.219 408.732C601.884 411.719 602.645 417.782 603.406 419.863C604.167 421.945 607.116 428.008 607.401 434.252C607.686 440.496 603.216 468.006 603.406 470.631C603.596 473.255 598.365 471.717 598.365 471.717C598.365 471.717 596.558 446.831 595.607 442.577C594.656 438.324 593.419 423.754 592.468 422.759C591.612 421.673 589.139 410.904 589.519 409.185C589.9 407.465 579.722 381.856 579.152 376.697C578.581 371.539 563.553 355.703 563.553 355.703C563.553 355.703 576.584 350.906 592.087 355.703Z" fill="#EEA987"/>
<path d="M567.833 355.703C567.833 355.703 567.548 358.327 567.262 359.232C566.977 360.137 560.033 384.389 559.368 393.71C558.702 403.031 556.895 410.904 556.609 412.895C556.324 414.886 556.895 421.492 557.465 423.211C558.036 424.931 554.517 465.291 554.136 466.196C553.851 467.101 556.514 467.463 558.416 467.101C560.319 466.83 569.926 437.51 569.26 432.532C568.689 427.555 568.023 417.058 569.735 412.805C571.447 408.551 586.666 377.602 586.761 375.702C587.046 373.892 593.514 341.133 567.833 355.703Z" fill="#EEA987"/>
<path d="M598.46 468.64C598.46 468.64 597.985 471.897 597.414 472.802C596.843 473.707 595.416 478.232 594.751 479.137C594.085 479.952 592.563 486.377 594.751 487.101C596.938 487.825 601.979 489.182 603.692 486.558C605.404 484.024 605.594 481.49 605.309 479.499C605.023 477.508 603.026 468.549 603.026 467.644C603.026 466.83 598.46 468.64 598.46 468.64Z" fill="#EEA987"/>
<path d="M595.607 477.418C595.607 477.418 595.416 482.395 599.316 482.395C603.216 482.395 605.023 477.87 605.023 477.87C605.023 477.87 606.355 480.042 605.023 484.838C603.691 489.544 598.08 488.549 596.843 488.368C595.607 488.187 589.614 486.648 595.607 477.418Z" fill="#EB4747"/>
<path d="M554.612 464.206C554.612 464.206 551.853 468.911 550.141 469.907C548.049 471.083 544.054 474.975 542.722 475.156C541.296 475.337 536.35 476.151 537.301 478.866C538.062 481.038 550.046 480.766 551.378 479.68C552.709 478.594 556.799 474.613 558.416 474.703C560.033 474.794 559.463 480.404 559.463 480.404H561.27C561.27 480.404 561.841 474.884 561.936 473.979C562.126 471.174 560.033 469.092 559.938 467.554C559.843 465.925 559.748 464.749 559.748 464.749L554.612 464.206Z" fill="#EB4747"/>
<path d="M543.103 474.974C543.103 474.974 547.003 476.241 550.046 474.612C553.09 472.984 558.892 470.45 560.984 470.45C560.984 470.45 559.843 467.192 559.843 466.83C559.843 466.468 559.653 464.749 559.653 464.749L554.517 463.934C554.517 463.934 551.188 468.549 549.761 469.635C548.429 470.721 544.72 473.436 543.103 474.974Z" fill="#EEA987"/>
<path d="M563.458 355.25C563.458 355.25 562.031 360.861 561.555 362.49C560.985 364.119 557.655 389.548 556.799 405.384C556.799 405.384 576.964 412.624 604.643 411.447C604.643 411.447 605.309 382.308 602.74 373.982C600.172 365.747 595.607 357.965 592.087 355.612C589.044 353.621 563.458 355.25 563.458 355.25Z" fill="#EB4747"/>
<path d="M609.398 369.548C609.398 369.548 609.018 371.901 608.257 374.163C607.496 376.426 606.83 377.15 607.116 378.507C607.306 379.503 608.542 380.226 608.828 379.955C609.113 379.593 609.303 375.792 610.92 375.792C612.632 375.792 610.445 380.588 611.396 380.226C612.347 379.865 616.247 377.874 615.961 375.973C615.676 374.073 614.154 372.625 614.249 369.729C614.344 367.105 613.488 366.019 613.488 366.019L609.398 369.548Z" fill="#EEA987"/>
<path d="M529.311 302.673C529.311 302.673 531.689 305.569 533.116 305.84C534.542 306.111 536.159 302.854 536.159 302.854L535.303 299.958L529.311 302.673Z" fill="#EEA886"/>
<path d="M535.113 301.677C535.113 301.677 536.255 298.329 536.35 297.876C536.54 297.334 535.969 295.886 534.923 294.438C533.972 293.08 532.735 291.542 532.355 291.089C532.164 290.908 531.974 290.637 531.308 290.999C530.547 291.27 530.167 291.994 530.167 291.994C530.167 291.994 529.121 291.994 528.645 292.809C528.645 292.809 527.599 292.809 527.218 293.895C527.218 293.895 526.172 293.985 525.982 294.709C525.982 294.709 526.458 296.157 526.458 296.7C526.458 297.243 527.694 300.139 529.311 302.763C529.311 302.673 531.784 304.573 535.113 301.677Z" fill="#EEA886"/>
<path d="M532.545 297.334C532.545 297.334 531.308 298.691 531.213 299.234C531.118 299.777 527.599 297.786 527.599 297.786C527.599 297.786 530.833 295.976 532.545 297.334Z" fill="#CF8C6C"/>
<path d="M532.545 291.361C532.545 291.361 534.447 295.252 533.876 295.614C533.211 295.976 532.735 295.705 532.735 295.705L532.64 297.696C532.64 297.696 531.784 298.962 530.643 297.696C530.643 297.696 529.977 298.962 528.93 297.605C528.93 297.605 528.074 298.239 527.504 297.696C526.933 297.153 525.982 294.528 525.982 294.528C525.982 294.528 526.077 293.895 527.218 293.714C527.218 293.714 527.504 292.718 528.645 292.628C528.645 292.628 529.311 291.632 530.452 291.542C530.452 291.542 531.118 290.637 532.45 290.999C532.355 290.999 532.545 291.18 532.545 291.361Z" fill="#DB9C7C"/>
<path d="M536.35 297.696C536.35 297.696 533.972 295.705 532.165 295.162C531.784 295.071 531.309 294.981 531.118 295.343C530.833 295.614 531.023 296.429 531.974 297.334C532.925 298.239 533.781 299.867 533.781 299.867C533.781 299.867 535.018 300.501 536.35 297.696Z" fill="#EEA886"/>
<path d="M530.452 291.632C530.452 291.632 532.83 295.705 532.83 296.157C532.83 296.61 534.447 295.795 534.447 295.433C534.447 294.981 532.735 291.361 532.45 291.089C532.164 290.727 530.833 290.456 530.452 291.632Z" fill="#EEA886"/>
<path d="M532.925 291.813C532.925 291.813 529.121 285.026 528.55 285.207C527.694 285.569 527.979 287.47 531.213 292.537C534.257 297.515 532.925 291.813 532.925 291.813Z" fill="#EEA886"/>
<path d="M564.409 321.767L556.514 311.813C556.514 311.813 570.686 301.406 574.966 308.012C574.966 308.012 575.252 318.871 564.409 321.767Z" fill="#323657"/>
<path d="M559.653 321.405C559.843 324.753 561.65 327.559 561.936 328.735C562.221 329.912 561.936 332.717 562.316 335.522C562.697 338.328 563.838 351.54 563.458 355.341C563.077 359.141 590.661 357.422 592.753 356.246C592.753 356.246 588.093 348.372 587.997 345.024C587.997 343.938 587.236 340.409 589.234 337.875C590.28 336.518 592.182 332.174 594.085 329.097C594.085 329.097 593.704 328.464 594.085 329.097C594.846 327.921 595.607 326.654 596.177 325.749C596.843 324.572 597.319 323.125 597.319 323.125C597.319 323.125 598.555 308.645 595.226 306.926C591.897 305.297 590.09 305.026 586.761 304.845C583.432 304.664 581.339 304.03 581.339 304.03L573.635 304.845C573.635 304.845 568.689 306.473 566.787 306.654C564.884 306.835 562.411 310.817 562.602 313.351C562.506 315.885 559.368 318.057 559.653 321.405Z" fill="#323657"/>
<path d="M610.73 375.611C610.73 375.611 608.543 376.154 608.638 383.303L611.206 382.941C611.206 382.941 611.206 378.96 611.871 376.788C611.871 376.788 611.681 375.43 610.73 375.611Z" fill="#1D3B54"/>
<path d="M601.504 384.932L621.098 379.684V402.669L601.504 413.8V384.932Z" fill="#1D3B54"/>
<path d="M601.504 413.8L603.977 414.253L623 403.031L622.715 379.774L621.098 379.684L601.504 413.8Z" fill="#1D3B54"/>
<path d="M591.707 305.659C591.707 305.659 597.794 305.659 600.553 310.727C603.311 315.885 603.596 321.224 604.262 323.215C604.928 325.115 606.735 336.427 607.401 338.056C608.067 339.685 612.062 350.816 613.013 357.06C613.964 363.304 614.154 369.639 614.154 369.639L609.208 369.458C609.208 369.458 604.357 352.445 602.645 348.373C601.218 344.934 600.648 338.871 599.792 336.699C598.936 334.527 593.894 319.505 592.848 318.509C591.992 317.514 586.475 306.564 591.707 305.659Z" fill="#EEA886"/>
<path d="M593.704 326.382L606.164 322.672C606.164 322.672 602.36 305.207 591.707 305.659C583.146 306.021 593.704 326.382 593.704 326.382Z" fill="#323657"/>
<path d="M578.391 271.633C574.967 271.09 567.167 271.905 564.884 280.502C564.884 280.502 564.884 282.854 565.265 284.755C565.645 286.655 563.267 291.904 563.648 292.175C564.028 292.447 565.931 293.08 565.931 293.08C565.931 293.08 567.262 299.234 569.45 299.415C571.637 299.596 580.103 298.872 584.859 291.904C589.614 284.936 592.182 273.805 578.391 271.633Z" fill="#EEA886"/>
<path d="M572.684 297.062C572.684 297.062 572.874 297.876 572.969 299.143C573.064 299.777 573.159 300.501 573.159 301.315C573.254 303.487 573.254 306.111 572.398 307.65C572.398 307.65 576.679 310.184 581.244 304.121C581.244 304.121 580.769 296.519 583.432 292.537C586.19 288.556 572.684 297.062 572.684 297.062Z" fill="#EEA886"/>
<path d="M564.884 280.502C564.884 280.502 570.02 284.755 575.537 286.112C580.959 287.47 583.907 293.261 583.907 293.261C583.907 293.261 593.609 284.121 587.712 275.162C581.91 266.294 564.884 270.276 564.884 280.502Z" fill="#434343"/>
<path d="M573.064 299.144C573.159 299.777 573.254 300.501 573.254 301.315C578.105 299.053 580.769 296.067 580.769 296.067C577.915 298.058 573.064 299.144 573.064 299.144Z" fill="#A77860"/>
<path d="M576.488 286.384C576.488 286.384 582.1 300.682 581.434 304.121C581.434 304.121 584.383 303.668 589.615 305.207C589.615 305.116 587.141 279.687 576.488 286.384Z" fill="#434343"/>
<path d="M583.337 304.573C583.337 304.573 581.53 315.252 574.681 314.075C567.833 312.899 573.064 305.026 573.064 305.026C573.064 305.026 575.632 302.763 583.337 304.573Z" fill="#EEA886"/>
<defs>
<filter id="filter0_d" x="71.7364" y="0.177856" width="544.426" height="388.923" filterUnits="userSpaceOnUse" color-interpolation-filters="sRGB">
<feFlood flood-opacity="0" result="BackgroundImageFix"/>
<feColorMatrix in="SourceAlpha" type="matrix" values="0 0 0 0 0 0 0 0 0 0 0 0 0 0 0 0 0 0 127 0"/>
<feOffset dx="-1" dy="9"/>
<feGaussianBlur stdDeviation="33.5"/>
<feColorMatrix type="matrix" values="0 0 0 0 0.333333 0 0 0 0 0.466667 0 0 0 0 1 0 0 0 0.27 0"/>
<feBlend mode="normal" in2="BackgroundImageFix" result="effect1_dropShadow"/>
<feBlend mode="normal" in="SourceGraphic" in2="effect1_dropShadow" result="shape"/>
</filter>
<linearGradient id="paint0_linear" x1="157.128" y1="199.477" x2="39.283" y2="192.804" gradientUnits="userSpaceOnUse">
<stop stop-color="#40D5E6"/>
<stop offset="1" stop-color="#5577FF"/>
</linearGradient>
<linearGradient id="paint1_linear" x1="160.698" y1="249.656" x2="108.803" y2="187.901" gradientUnits="userSpaceOnUse">
<stop stop-color="#40D5E6"/>
<stop offset="1" stop-color="#5577FF"/>
</linearGradient>
<linearGradient id="paint2_linear" x1="147.763" y1="165.046" x2="91.9803" y2="161.887" gradientUnits="userSpaceOnUse">
<stop stop-color="#40D5E6"/>
<stop offset="1" stop-color="#5577FF"/>
</linearGradient>
<linearGradient id="paint3_linear" x1="145.27" y1="206.61" x2="108.143" y2="137.509" gradientUnits="userSpaceOnUse">
<stop stop-color="#40D5E6"/>
<stop offset="1" stop-color="#5577FF"/>
</linearGradient>
<linearGradient id="paint4_linear" x1="153.544" y1="148.529" x2="536.447" y2="148.529" gradientUnits="userSpaceOnUse">
<stop stop-color="#40D5E6"/>
<stop offset="1" stop-color="#5577FF"/>
</linearGradient>
<linearGradient id="paint5_linear" x1="153.544" y1="253.901" x2="536.296" y2="253.901" gradientUnits="userSpaceOnUse">
<stop stop-color="#40D5E6"/>
<stop offset="1" stop-color="#5577FF"/>
</linearGradient>
<linearGradient id="paint6_linear" x1="153.544" y1="262.423" x2="536.296" y2="262.423" gradientUnits="userSpaceOnUse">
<stop stop-color="#40D5E6"/>
<stop offset="1" stop-color="#5577FF"/>
</linearGradient>
<linearGradient id="paint7_linear" x1="114.708" y1="217.019" x2="599.855" y2="225.099" gradientUnits="userSpaceOnUse">
<stop stop-color="#40D5E6"/>
<stop offset="1" stop-color="#5577FF"/>
</linearGradient>
<linearGradient id="paint8_linear" x1="114.607" y1="215.527" x2="599.754" y2="223.607" gradientUnits="userSpaceOnUse">
<stop stop-color="#40D5E6"/>
<stop offset="1" stop-color="#5577FF"/>
</linearGradient>
<linearGradient id="paint9_linear" x1="114.506" y1="214.036" x2="599.653" y2="222.116" gradientUnits="userSpaceOnUse">
<stop stop-color="#40D5E6"/>
<stop offset="1" stop-color="#5577FF"/>
</linearGradient>
<linearGradient id="paint10_linear" x1="114.405" y1="212.545" x2="599.552" y2="220.624" gradientUnits="userSpaceOnUse">
<stop stop-color="#40D5E6"/>
<stop offset="1" stop-color="#5577FF"/>
</linearGradient>
<linearGradient id="paint11_linear" x1="453.356" y1="97.3189" x2="468.477" y2="97.3189" gradientUnits="userSpaceOnUse">
<stop stop-color="#40D5E6"/>
<stop offset="1" stop-color="#5577FF"/>
</linearGradient>
<linearGradient id="paint12_linear" x1="109.774" y1="337.377" x2="43.0377" y2="337.377" gradientUnits="userSpaceOnUse">
<stop stop-color="#40D5E6"/>
<stop offset="1" stop-color="#5577FF"/>
</linearGradient>
<linearGradient id="paint13_linear" x1="60.8176" y1="372.806" x2="0.46736" y2="372.806" gradientUnits="userSpaceOnUse">
<stop stop-color="#40D5E6"/>
<stop offset="1" stop-color="#5577FF"/>
</linearGradient>
<linearGradient id="paint14_linear" x1="55.6592" y1="381.156" x2="10.362" y2="381.156" gradientUnits="userSpaceOnUse">
<stop stop-color="#40D5E6"/>
<stop offset="1" stop-color="#5577FF"/>
</linearGradient>
<linearGradient id="paint15_linear" x1="72.0164" y1="346.476" x2="19.2638" y2="346.476" gradientUnits="userSpaceOnUse">
<stop stop-color="#40D5E6"/>
<stop offset="1" stop-color="#5577FF"/>
</linearGradient>
<linearGradient id="paint16_linear" x1="35.4429" y1="418.466" x2="84.1221" y2="418.466" gradientUnits="userSpaceOnUse">
<stop stop-color="#FF9340"/>
<stop offset="1" stop-color="#FFCE45"/>
</linearGradient>
<linearGradient id="paint17_linear" x1="35.4429" y1="418.466" x2="84.1221" y2="418.466" gradientUnits="userSpaceOnUse">
<stop stop-color="#C97332"/>
<stop offset="1" stop-color="#FFCE45"/>
</linearGradient>
</defs>
</svg>
