<svg id="Layer_1" data-name="Layer 1" xmlns="http://www.w3.org/2000/svg" xmlns:xlink="http://www.w3.org/1999/xlink" viewBox="0 0 3162.15 1372.2"><defs><clipPath id="clip-path" transform="translate(289.61 2.49)"><rect width="2560" height="1369.8" fill="none"/></clipPath><linearGradient id="linear-gradient" x1="1119.59" y1="116.05" x2="1119.59" y2="1441.82" gradientTransform="matrix(1, 0, 0, -1, 162.81, 1545.23)" gradientUnits="userSpaceOnUse"><stop offset="0" stop-color="#fff"/><stop offset="1" stop-color="#3fa9f5" stop-opacity="0.4"/></linearGradient><linearGradient id="linear-gradient-2" x1="-162.81" y1="861.84" x2="2402.17" y2="861.84" xlink:href="#linear-gradient"/><linearGradient id="linear-gradient-3" x1="1119.59" y1="1337.92" x2="1119.59" y2="300.99" gradientTransform="matrix(1, 0, 0, -1, 162.81, 1545.23)" gradientUnits="userSpaceOnUse"><stop offset="0" stop-color="#fff"/><stop offset="1" stop-color="#3fa9f5" stop-opacity="0.3"/></linearGradient><linearGradient id="linear-gradient-4" x1="2085.34" y1="1540.72" x2="1850.26" y2="615.86" gradientTransform="matrix(1, 0, 0, -1, 162.81, 1545.23)" gradientUnits="userSpaceOnUse"><stop offset="0" stop-color="#fff" stop-opacity="0"/><stop offset="1" stop-color="#3fa9f5" stop-opacity="0.8"/></linearGradient><linearGradient id="linear-gradient-5" x1="1114.97" y1="1545.23" x2="1114.97" y2="1106.83" gradientTransform="matrix(1, 0, 0, -1, 162.81, 1545.23)" gradientUnits="userSpaceOnUse"><stop offset="0" stop-color="#fff" stop-opacity="0"/><stop offset="1" stop-color="#219bf1" stop-opacity="0.54"/></linearGradient><linearGradient id="linear-gradient-6" x1="-2009.1" y1="2389.84" x2="226.43" y2="748.95" gradientTransform="matrix(1, 0, 0, -1, 162.81, 1545.23)" gradientUnits="userSpaceOnUse"><stop offset="0" stop-color="#7eb0f6"/><stop offset="1" stop-color="#fafdff"/><stop offset="1" stop-color="#d62f37"/></linearGradient><linearGradient id="linear-gradient-7" x1="479.29" y1="421.26" x2="746.79" y2="837.95" gradientTransform="matrix(1, 0, 0, -1, 162.81, 1545.23)" gradientUnits="userSpaceOnUse"><stop offset="0" stop-color="#a1d5fa" stop-opacity="0"/><stop offset="1" stop-color="#2354ec" stop-opacity="0.35"/></linearGradient><linearGradient id="linear-gradient-8" x1="420.3" y1="1476.57" x2="420.3" y2="1377.01" gradientTransform="matrix(1, 0, 0, -1, 452.42, 1547.71)" gradientUnits="userSpaceOnUse"><stop offset="0" stop-color="#f1f6fa"/><stop offset="1" stop-color="#75c4ff" stop-opacity="0.63"/></linearGradient><linearGradient id="linear-gradient-9" x1="2249.63" y1="612.57" x2="2249.63" y2="537.9" xlink:href="#linear-gradient-8"/><linearGradient id="linear-gradient-10" x1="1063.86" y1="1377.01" x2="1063.86" y2="1273.9" gradientTransform="matrix(1, 0, 0, -1, 452.42, 1547.71)" gradientUnits="userSpaceOnUse"><stop offset="0" stop-color="#46baed"/><stop offset="1" stop-color="#5380fd"/></linearGradient><linearGradient id="linear-gradient-11" x1="3242.92" y1="1297.25" x2="3242.92" y2="1208.37" gradientTransform="translate(3925.42 2125.71) rotate(180)" xlink:href="#linear-gradient-10"/><linearGradient id="linear-gradient-12" x1="2335.19" y1="963.55" x2="2602.69" y2="1380.24" xlink:href="#linear-gradient-7"/></defs><title>slider-bg-2560px</title><g clip-path="url(#clip-path)"><path d="M0,1242.69s712,296,1171.56-175.11c388.62-398.4,653.33,234,948.26,289.42,299.2,56.36,445-93,445-93V90.51H0Z" transform="translate(289.61 2.49)" fill="url(#linear-gradient)"/><path d="M0,1242.69s152.53,52.8,246-110.75c129.6-226.85,522-50,901.34,110.75s661-309,905.06-285.86S2565,1264,2565,1264V90.51H0Z" transform="translate(289.61 2.49)" opacity="0.67" fill="url(#linear-gradient-2)" style="isolation:isolate"/><path d="M262.93,1187.4c306-386,335.11-277.15,764.09-110.75,244.09,94.58,427.56,234.66,696.54,8.89,302.22-253.69,841.24,178.66,841.24,178.66V-2.49H0V1242.69S174.76,1298.51,262.93,1187.4Z" transform="translate(289.61 2.49)" fill="url(#linear-gradient-3)"/><path d="M1932.09,37.18s112.71,94.58-264.71,400-236.62,414.4-86.4,419.73,195.2,55.47,332.26,266.14,463.83,285.86,651.56,141.15V37.18Z" transform="translate(289.61 2.49)" opacity="0.4" fill="url(#linear-gradient-4)" style="isolation:isolate"/><path d="M1165.33,306C709.33-57.93,164.44-12.24-3.56,163.76V0H2559.11V132.65C1929.78-358,1808,818.87,1165.33,306Z" transform="translate(289.61 2.49)" opacity="0.5" fill="url(#linear-gradient-5)" style="isolation:isolate"/><path d="M-269.51,324.47a18.09,18.09,0,0,0-9.6,15.11L-289.6,595.76a18.18,18.18,0,0,0,8.18,15.82L-64.89,748.83a17.69,17.69,0,0,0,17.78.71l227-118.94a17.49,17.49,0,0,0,9.42-14.93l10.49-256.18a18.2,18.2,0,0,0-8.18-15.82L-24.89,206.43a17.67,17.67,0,0,0-17.78-.72Z" transform="translate(289.61 2.49)" opacity="0.75" fill="url(#linear-gradient-6)" style="isolation:isolate"/><path d="M630.76,1102.07a42.63,42.63,0,0,0,35.91,23.11l198,9.42a42.52,42.52,0,0,0,37.87-19.55l107.2-166.94a42.58,42.58,0,0,0,2-42.66L920.89,729.09A42.63,42.63,0,0,0,885,706l-198.05-9.24a42.49,42.49,0,0,0-37.86,19.55L541.87,883.23a42.59,42.59,0,0,0-2,42.66Z" transform="translate(289.61 2.49)" fill="url(#linear-gradient-7)"/><circle cx="872.72" cy="120.91" r="49.78" fill="url(#linear-gradient-8)"/><circle cx="2702.05" cy="972.47" r="37.33" fill="url(#linear-gradient-9)"/><circle cx="1516.27" cy="222.25" r="51.56" fill="url(#linear-gradient-10)"/><circle cx="682.5" cy="828.47" r="44.44" fill="url(#linear-gradient-11)"/><path d="M2486.76,559.85A42.63,42.63,0,0,0,2522.67,583l198,9.42a42.52,42.52,0,0,0,37.87-19.55l107.2-166.94a42.58,42.58,0,0,0,1.95-42.66l-91-176.36a42.63,42.63,0,0,0-35.91-23.11l-198-9.42a42.52,42.52,0,0,0-37.87,19.55l-107.2,166.94a42.59,42.59,0,0,0-2,42.66Z" transform="translate(289.61 2.49)" fill="url(#linear-gradient-12)"/></g></svg>