<?xml version="1.0" encoding="utf-8"?>
<!-- Generator: Adobe Illustrator 22.1.0, SVG Export Plug-In . SVG Version: 6.00 Build 0)  -->
<svg version="1.1" id="Capa_1" xmlns="http://www.w3.org/2000/svg" xmlns:xlink="http://www.w3.org/1999/xlink" x="0px" y="0px"
	 viewBox="0 0 512 512" style="enable-background:new 0 0 512 512;" xml:space="preserve">
<style type="text/css">
	.st0{fill:#FFFFFF;}
</style>
<g>
	<g>
		<path class="st0" d="M135.1,191.1L17.1,73C13.2,69.1,6.9,69.1,3,73c-4,3.9-4,10.3-0.1,14.2L118,202.3v13.8c0,5.5,4.5,10,10,10l0,0
			c5.5,0,10-4.5,10-10v-17.9C138,195.5,137,192.9,135.1,191.1z"/>
	</g>
</g>
<g>
	<g>
		<path class="st0" d="M225.9,118L225.9,118h-23.6L87.2,2.9C83.3-1,76.9-1,73,2.9S69.1,13.1,73,17l118,118c1.9,1.9,4.4,2.9,7.1,2.9
			l0,0h27.7c5.5,0,10-4.5,10-10C235.9,122.5,231.4,118,225.9,118z"/>
	</g>
</g>
<g>
	<g>
		<path class="st0" d="M439,2.9C437.1,1,434.6,0,431.9,0s-5.2,1.1-7.1,2.9c-1.9,1.9-2.9,4.4-2.9,7.1s1.1,5.2,2.9,7.1
			c1.9,1.9,4.4,2.9,7.1,2.9s5.2-1.1,7.1-2.9c1.9-1.9,2.9-4.4,2.9-7.1S440.8,4.8,439,2.9z"/>
	</g>
</g>
<g>
	<g>
		<path class="st0" d="M409.7,32.2c-3.9-3.9-10.2-3.9-14.1,0L309.7,118h-13.8h-0.1c-26.5,0-51.3,10.3-70,29l-9,9
			c-3.9,3.9-3.9,10.2,0,14.1c2,2,4.5,2.9,7.1,2.9s5.1-1,7.1-2.9l9-9c14.9-14.9,34.8-23.2,55.9-23.2h0.1h17.9l0,0
			c2.7,0,5.2-1.1,7.1-2.9l88.7-88.7C413.6,42.5,413.6,36.1,409.7,32.2z"/>
	</g>
</g>
<g>
	<g>
		<path class="st0" d="M509.1,73c-3.9-3.9-10.2-3.9-14.1,0L377,191c-1.9,1.9-2.9,4.4-2.9,7.1v27.7c0,5.5,4.5,10,10,10l0,0
			c5.5,0,10-4.5,10-10v-23.6l115-115C513,83.3,513,76.9,509.1,73z"/>
	</g>
</g>
<g>
	<g>
		<path class="st0" d="M509.1,424.8L394,309.7v-13.8c0-13.1-2.5-26-7.6-38.1c-2.1-5.1-8-7.5-13.1-5.4s-7.5,8-5.4,13.1
			c4,9.7,6,19.9,6,30.4v17.9c0,2.7,1,5.2,2.9,7.1l118,118c2,2,4.5,2.9,7.1,2.9s5.1-1,7.1-2.9C513,435.1,513,428.7,509.1,424.8z"/>
	</g>
</g>
<g>
	<g>
		<path class="st0" d="M439,494.9l-118-118c-1.9-1.9-4.4-2.9-7.1-2.9l0,0h-27.7c-5.5,0-10,4.5-10,10s4.5,10,10,10l0,0h23.6
			l115.1,115.1c2,2,4.5,2.9,7.1,2.9s5.1-1,7.1-2.9C442.9,505.2,442.9,498.8,439,494.9z"/>
	</g>
</g>
<g>
	<g>
		<path class="st0" d="M87.2,494.9c-1.9-1.9-4.4-2.9-7.1-2.9s-5.2,1.1-7.1,2.9c-1.9,1.9-2.9,4.4-2.9,7.1s1.1,5.2,2.9,7.1
			c1.9,1.9,4.4,2.9,7.1,2.9s5.2-1.1,7.1-2.9c1.9-1.9,2.9-4.4,2.9-7.1S89,496.8,87.2,494.9z"/>
	</g>
</g>
<g>
	<g>
		<path class="st0" d="M357.6,253.7c-2.3-2.3-4.8-4.1-7.6-5.4c2.3-4.2,3.6-8.9,3.6-13.8c0-7.5-2.9-14.6-8.3-19.9
			c-2.4-2.4-5.1-4.3-8.1-5.6c5-10.5,3.2-23.5-5.5-32.2s-21.7-10.5-32.1-5.5c-1.4-3-3.3-5.7-5.6-8.1c-11-11-28.9-11-39.8,0
			l-39.9,39.9c-0.8-8.1-4.9-15.8-12-20.8c-6.3-4.4-14-6.1-21.6-4.7s-14.2,5.7-18.5,12.2l-27.4,40.8c-11,16.4-16.8,35.5-16.8,55.3
			v23.6L2.9,424.8c-3.9,3.9-3.9,10.2,0,14.1c2,2,4.5,2.9,7.1,2.9s5.1-1,7.1-2.9l118-118c1.9-1.9,2.9-4.4,2.9-7.1v-27.7
			c0-15.8,4.6-31,13.4-44.1l27.4-40.9c1.3-1.9,3.3-3.2,5.5-3.7c2.3-0.4,4.6,0.1,6.5,1.4c3.7,2.6,4.7,7.6,2.4,11.5L182.5,228
			c-3.4,5.6-2.1,12.5,3,16.5s12.2,3.6,16.8-1l66.1-66.1c3.2-3.2,8.4-3.2,11.6,0c1.5,1.5,2.4,3.6,2.4,5.8c0,1.9-0.6,3.6-1.7,5
			l-39.1,39.2c-3.9,3.9-3.9,10.2,0,14.1c3.9,3.9,10.2,3.9,14.1,0l50.5-50.6c3.2-3.2,8.4-3.2,11.6,0s3.2,8.4,0,11.6l-50.6,50.6
			c-3.9,3.9-3.9,10.2,0,14.1c2,2,4.5,2.9,7.1,2.9s5.1-1,7.1-2.9l39.1-39.1c3.2-2.5,7.9-2.3,10.8,0.6c1.5,1.5,2.4,3.6,2.4,5.8
			s-0.9,4.2-2.4,5.8l-38.4,38.4c-3.9,3.9-3.9,10.2,0,14.1c2,2,4.5,2.9,7.1,2.9s5.1-1,7.1-2.9l25.7-25.7c3.2-2.5,7.9-2.3,10.8,0.6
			c1.5,1.5,2.4,3.6,2.4,5.8s-0.9,4.2-2.4,5.8l-71.4,71.4c-14.9,14.9-34.8,23.2-55.9,23.2h-0.1h-17.9l0,0c-2.7,0-5.2,1.1-7.1,2.9
			l-92.9,92.9c-3.9,3.9-3.9,10.2,0,14.1c2,2,4.5,2.9,7.1,2.9s5.1-1,7.1-2.9l90-90h13.8h0.1c26.5,0,51.3-10.3,70-29l71.4-71.4
			C368.6,282.6,368.6,264.7,357.6,253.7z"/>
	</g>
</g>
</svg>
