<?xml version="1.0" encoding="utf-8"?>
<!-- Generator: Adobe Illustrator 22.1.0, SVG Export Plug-In . SVG Version: 6.00 Build 0)  -->
<svg version="1.1" id="Layer_1" xmlns="http://www.w3.org/2000/svg" xmlns:xlink="http://www.w3.org/1999/xlink" x="0px" y="0px"
	 viewBox="0 0 1426 678.6" style="enable-background:new 0 0 1426 678.6;" xml:space="preserve">
<style type="text/css">
	.st0{opacity:0.31;fill:url(#SVGID_1_);enable-background:new    ;}
	.st1{opacity:0.29;fill:url(#SVGID_2_);enable-background:new    ;}
	.st2{opacity:0.39;fill:url(#SVGID_3_);}
	.st3{opacity:0.39;fill:url(#SVGID_4_);}
	.st4{fill:url(#SVGID_5_);}
	.st5{opacity:0.31;fill:url(#SVGID_6_);}
	.st6{fill:url(#SVGID_7_);}
	.st7{opacity:0.25;fill:url(#SVGID_8_);}
</style>
<title>slider-bg</title>
<linearGradient id="SVGID_1_" gradientUnits="userSpaceOnUse" x1="550.19" y1="1381.3374" x2="550.19" y2="1134.7526" gradientTransform="matrix(1 0 0 -1 162.81 1381.3374)">
	<stop  offset="0" style="stop-color:#FFFFFF;stop-opacity:0"/>
	<stop  offset="1" style="stop-color:#219BF1;stop-opacity:0.54"/>
</linearGradient>
<path class="st0" d="M649.5,172.1C393-32.6,94.5-6.9,0,92.1V0h1426v74.6C1072-201.4,1011,460.6,649.5,172.1z"/>
<linearGradient id="SVGID_2_" gradientUnits="userSpaceOnUse" x1="-837.2008" y1="1484.0466" x2="26.8593" y2="849.8247" gradientTransform="matrix(1 0 0 -1 162.81 1381.3374)">
	<stop  offset="0" style="stop-color:#7EB0F6"/>
	<stop  offset="1" style="stop-color:#FAFDFF"/>
	<stop  offset="1" style="stop-color:#D62F37"/>
</linearGradient>
<path class="st1" d="M0,535.3l95.2-49.9c3.2-1.7,5.2-4.9,5.3-8.4l5.9-144.1c0.1-3.6-1.6-6.9-4.6-8.9L0,259.5L0,535.3z"/>
<linearGradient id="SVGID_3_" gradientUnits="userSpaceOnUse" x1="192.361" y1="841.0018" x2="342.831" y2="1075.3916" gradientTransform="matrix(1 0 0 -1 162.81 1381.3374)">
	<stop  offset="0" style="stop-color:#A1D5FA;stop-opacity:0"/>
	<stop  offset="1" style="stop-color:#2354EC;stop-opacity:0.35"/>
</linearGradient>
<path class="st2" d="M348.8,528c3.9,7.6,11.6,12.6,20.2,13l111.4,5.3c8.6,0.4,16.7-3.8,21.3-11l60.3-93.9c4.6-7.2,5.1-16.4,1.1-24
	L512,318.2c-3.9-7.6-11.6-12.6-20.2-13L380.4,300c-8.6-0.4-16.7,3.8-21.3,11l-60.3,93.9c-4.6,7.2-5.1,16.4-1.1,24L348.8,528z"/>
<linearGradient id="SVGID_4_" gradientUnits="userSpaceOnUse" x1="1076.7927" y1="1042.8229" x2="1167.6007" y2="1184.2761" gradientTransform="matrix(1 0 0 -1 162.81 1381.3374)">
	<stop  offset="0" style="stop-color:#A1D5FA;stop-opacity:0"/>
	<stop  offset="1" style="stop-color:#2354EC;stop-opacity:0.35"/>
</linearGradient>
<path class="st3" d="M1235.8,331.1c2.4,4.6,7,7.6,12.2,7.8l67.2,3.2c5.2,0.2,10.1-2.3,12.9-6.6l36.4-56.7c2.8-4.3,3.1-9.9,0.7-14.5
	l-30.8-59.9c-2.4-4.6-7-7.6-12.2-7.8l-67.2-3.1c-5.2-0.2-10.1,2.3-12.9,6.6l-36.4,56.7c-2.8,4.3-3.1,9.9-0.7,14.5L1235.8,331.1z"/>
<linearGradient id="SVGID_5_" gradientUnits="userSpaceOnUse" x1="872.6097" y1="976.6274" x2="872.6097" y2="920.6274" gradientTransform="matrix(1 0 0 -1 162.81 1381.3274)">
	<stop  offset="0" style="stop-color:#F1F6FA"/>
	<stop  offset="1" style="stop-color:#75C4FF;stop-opacity:0.63"/>
</linearGradient>
<circle class="st4" cx="1035.4" cy="432.7" r="28"/>
<linearGradient id="SVGID_6_" gradientUnits="userSpaceOnUse" x1="1188.1901" y1="948.6274" x2="1188.1901" y2="906.6274" gradientTransform="matrix(1 0 0 -1 162.81 1381.3274)">
	<stop  offset="0" style="stop-color:#F1F6FA"/>
	<stop  offset="1" style="stop-color:#75C4FF;stop-opacity:0.63"/>
</linearGradient>
<circle class="st5" cx="1351" cy="453.7" r="21"/>
<linearGradient id="SVGID_7_" gradientUnits="userSpaceOnUse" x1="275.9551" y1="1203.7007" x2="275.9551" y2="1145.7007" gradientTransform="matrix(1 0 0 -1 162.81 1381.3274)">
	<stop  offset="0" style="stop-color:#46BAED"/>
	<stop  offset="1" style="stop-color:#5380FD"/>
</linearGradient>
<circle class="st6" cx="438.8" cy="206.6" r="29"/>
<linearGradient id="SVGID_8_" gradientUnits="userSpaceOnUse" x1="5461.8101" y1="1515.6129" x2="5461.8101" y2="1465.6129" gradientTransform="matrix(-1 0 0 -1 5641.8101 1959.3273)">
	<stop  offset="0" style="stop-color:#46BAED"/>
	<stop  offset="1" style="stop-color:#5380FD"/>
</linearGradient>
<circle class="st7" cx="180" cy="443.7" r="25"/>
</svg>
