<?xml version="1.0" encoding="utf-8"?>
<!-- Generator: Adobe Illustrator 22.1.0, SVG Export Plug-In . SVG Version: 6.00 Build 0)  -->
<svg version="1.1" id="Layer_1" xmlns="http://www.w3.org/2000/svg" xmlns:xlink="http://www.w3.org/1999/xlink" x="0px" y="0px"
	 viewBox="0 0 518 477" style="enable-background:new 0 0 518 477;" xml:space="preserve">
<style type="text/css">
	.st0{fill:none;}
	.st1{fill:url(#SVGID_1_);}
	.st2{fill:url(#SVGID_2_);}
	.st3{fill:url(#SVGID_3_);}
	.st4{fill:url(#SVGID_4_);}
	.st5{fill:url(#SVGID_5_);}
	.st6{fill:#FFFFFF;}
	.st7{fill:url(#SVGID_6_);}
	.st8{fill:url(#SVGID_7_);}
	.st9{fill:url(#SVGID_8_);}
	.st10{fill:url(#SVGID_9_);}
	.st11{fill:#706865;}
	.st12{fill:#A89FFF;}
	.st13{fill:#73B6F0;}
	.st14{opacity:0.72;fill:#D9D9D9;enable-background:new    ;}
	.st15{fill:#EB4646;}
	.st16{fill:#EEA886;}
	.st17{fill:#C4C6D1;}
	.st18{fill:#292C47;}
	.st19{fill:#D44040;}
	.st20{fill:#434343;}
	.st21{fill:#A77860;}
	.st22{fill:#C98462;}
</style>
<rect class="st0" width="517.2" height="477"/>
<linearGradient id="SVGID_1_" gradientUnits="userSpaceOnUse" x1="366.4669" y1="385.8" x2="490.1" y2="385.8" gradientTransform="matrix(1 0 0 -1 0 704)">
	<stop  offset="0" style="stop-color:#40D5E6"/>
	<stop  offset="1" style="stop-color:#5577FF"/>
</linearGradient>
<path class="st1" d="M368.1,414.1c-6.5-29.9,7.6-37.3,21.2-44.5c11.2-5.9,21.7-11.5,21.1-29c-0.7-23.3,15.1-31.8,29.2-39.3
	c10.4-5.6,20.2-10.8,21.7-21.4c3.5-25.5,27.1-57.3,27.3-57.6l1.5,1.1c-0.2,0.3-23.5,31.6-26.9,56.7c-1.6,11.5-11.8,17-22.7,22.8
	c-14.2,7.6-28.9,15.4-28.2,37.6c0.6,18.8-10.9,24.8-22.1,30.7c-13.6,7.2-26.5,14-20.3,42.5L368.1,414.1z"/>
<linearGradient id="SVGID_2_" gradientUnits="userSpaceOnUse" x1="355.7" y1="403.8024" x2="517.1186" y2="403.8024" gradientTransform="matrix(1 0 0 -1 0 704)">
	<stop  offset="0" style="stop-color:#40D5E6"/>
	<stop  offset="1" style="stop-color:#5577FF"/>
</linearGradient>
<path class="st2" d="M375.3,406.5c-0.3,0-0.6,0-1,0c-5.9-0.4-11.7-4.9-18.2-14.1l-0.4-0.6l0.4-0.5c0.1-0.1,10.6-12.9,6.7-36.8
	c-0.9-5.6-2.1-9.8-3.1-13.3c-1.4-5-2.3-8.3-0.7-10.9c1.9-3.4,7.3-5.1,22.3-8.7c16-3.8,21.3-21.8,26-37.7c4.5-15,8.6-29,21.1-28.7
	c11.4,0.4,28.7-17.5,44.1-33.2c14.2-14.7,27.6-28.4,36.2-28.1c2.1,0.1,3.8,1,5.1,2.5c7.7,9.1,0.5,22.9-6.4,36.3
	c-5.9,11.4-11.5,22.1-7.9,29.3c4.5,8.9,5.1,17,1.8,23.3c-3.9,7.5-13,12.4-27.1,14.4c-12.9,1.9-14.2,15.9-15.7,30.8
	c-1.7,17.4-3.6,36.9-25.2,38.9c-16,1.4-26.8,12.7-36.3,22.6C389.5,399.6,382.9,406.5,375.3,406.5z M358.1,391.9
	c6,8.2,11.3,12.4,16.4,12.8c7.1,0.5,13.7-6.3,21.3-14.1c9.7-10.1,20.8-21.7,37.5-23.1c20.1-1.7,21.9-19.7,23.6-37.2
	c1.6-15.6,3-30.3,17.3-32.4c13.5-1.9,22.1-6.5,25.7-13.4c3.1-5.8,2.4-13.3-1.9-21.7c-4-7.9,1.8-19.1,7.9-30.9
	c6.6-12.8,13.5-26.1,6.6-34.3c-1-1.3-2.3-1.9-3.8-1.9c-7.7-0.2-20.9,13.3-34.8,27.6c-16.1,16.6-32.7,33.8-44.9,33.8
	c-0.1,0-0.3,0-0.4,0c-11-0.4-14.8,12.4-19.3,27.3c-4.8,16.4-10.3,34.9-27.3,38.9c-13.5,3.2-19.5,5.1-21.1,7.8
	c-1.2,1.9-0.4,4.8,1,9.5c1,3.5,2.2,7.8,3.1,13.5C368.3,376.4,360.1,389.1,358.1,391.9z"/>
<linearGradient id="SVGID_3_" gradientUnits="userSpaceOnUse" x1="318.675" y1="428.1687" x2="422.7655" y2="428.1687" gradientTransform="matrix(1 0 0 -1 0 704)">
	<stop  offset="0" style="stop-color:#40D5E6"/>
	<stop  offset="1" style="stop-color:#5577FF"/>
</linearGradient>
<path class="st3" d="M376,400.2c-0.2,0-0.4,0-0.7,0c-9.7-0.9-17.1-22.1-24.3-42.6c-3.4-9.8-6.6-18.9-9.7-24.8
	c-2.5-4.5-5.5-9.3-8.6-13.9c-8-12.3-16.2-25-13.5-36.1c1.4-5.9,5.6-10.7,12.9-14.9c15.9-9.2,13.4-14.3,8-25.6
	c-3.9-8.3-9.3-19.7-9.5-37.5c-0.1-7.7-0.3-14.4-0.4-20.2c-0.5-18.8-0.7-28.3,3.3-31.7c1.6-1.4,4-1.8,7.4-1.1
	c5.7,1.1,8.2,5.7,10.8,10.6c3.3,6.3,7.1,13.3,18.5,15.6c10.7,2.2,21,5.3,23.8,12.4c2,5,0.1,11.6-5.8,20.1c-1.4,2.1-1.9,3.8-1.5,5.4
	c1,3.4,6.3,6,12.4,8.8c8.8,4.1,19.7,9.2,22.8,19.8c2.5,8.5-0.4,19.1-8.9,32.5c-19.9,31.6-19.1,52.9-18.5,71.9c0.5,14,1,27.2-7.4,42
	C383.5,397.1,379.8,400.2,376,400.2z M338,153c-1.4,0-2.5,0.3-3.3,1c-3.3,2.8-3.1,12.6-2.6,30.3c0.1,5.9,0.4,12.5,0.4,20.3
	c0.2,17.5,5.5,28.7,9.3,36.8c5.3,11.2,8.5,18-8.8,28c-6.8,3.9-10.7,8.4-12,13.8c-2.5,10.4,5.5,22.8,13.3,34.7
	c3,4.6,6.1,9.5,8.6,14.1c3.2,6,6.5,15.3,9.9,25.1c6.7,19.1,14.2,40.6,22.8,41.4c3.3,0.3,6.6-2.7,10.1-8.8c8.2-14.3,7.7-26.7,7.1-41
	c-0.7-19.1-1.6-40.9,18.8-72.9c8.1-12.9,10.9-23,8.6-31c-2.8-9.8-12.9-14.5-21.8-18.6c-6.5-3.1-12.3-5.7-13.4-10
	c-0.6-2.1,0-4.3,1.8-6.9c5.5-8,7.4-14,5.6-18.4c-2.5-6.3-12.8-9.2-22.5-11.3c-12.2-2.5-16.4-10.3-19.7-16.6
	c-2.5-4.7-4.7-8.7-9.5-9.7C339.5,153.2,338.7,153,338,153z"/>
<linearGradient id="SVGID_4_" gradientUnits="userSpaceOnUse" x1="347.615" y1="405.75" x2="379.174" y2="405.75" gradientTransform="matrix(1 0 0 -1 0 704)">
	<stop  offset="0" style="stop-color:#40D5E6"/>
	<stop  offset="1" style="stop-color:#5577FF"/>
</linearGradient>
<path class="st4" d="M376.1,411.5l-1.7-0.5c9.7-30.8-7.9-100.1-13.2-116.9c-2.6-8.3-0.2-20.8,2.1-32.8c3-15.6,6.1-31.6-1.8-37.7
	c-14.8-11.3-14-37.5-14-38.6l1.9,0.1c0,0.3-0.7,26.4,13.2,37.2c8.8,6.7,5.6,23.4,2.5,39.5c-2.2,11.8-4.6,24.1-2.2,31.9
	C369.5,314.5,385.9,380.8,376.1,411.5z"/>
<linearGradient id="SVGID_5_" gradientUnits="userSpaceOnUse" x1="276.2136" y1="399.4782" x2="378.1355" y2="399.4782" gradientTransform="matrix(1 0 0 -1 0 704)">
	<stop  offset="0" style="stop-color:#40D5E6"/>
	<stop  offset="1" style="stop-color:#5577FF"/>
</linearGradient>
<path class="st5" d="M302.4,211.2c-4.1-10.3-19.9-8.8-18.5,5.8c1.5,14.6,11.7,30.2-3.9,55s19.9,29.6,32.5,45.2s17,36.9,27.7,50.6
	c10.7,13.6,18,46.2,26.7,34c8.8-12.1,0.5-27.9,1.5-49.8s20.5-35.7,1-49.8c-19.4-14.1-39-18.4-32.6-50.2
	C339.7,237.9,315.1,243.3,302.4,211.2z"/>
<path class="st6" d="M381.1,404.5c-0.1-0.7-10.9-64.7-35.1-82.3c-24.6-17.9-29.2-34.5-37.7-73.4l1.8-0.4
	c8.5,38.5,12.9,54.9,37.1,72.4c24.8,18,35.4,80.8,35.8,83.5L381.1,404.5z"/>
<linearGradient id="SVGID_6_" gradientUnits="userSpaceOnUse" x1="344.2329" y1="168.5275" x2="430.061" y2="502.0805" gradientTransform="matrix(1 0 0 -1 0 704)">
	<stop  offset="0" style="stop-color:#40D5E6"/>
	<stop  offset="1" style="stop-color:#5577FF"/>
</linearGradient>
<path class="st7" d="M359.3,402.3c0,0,7.2-17.8-5.9-43s-23.7-21.4,7.9-40.8s0.2-80.7,27-88.5c26.9-7.7,50.2-106.9,70.5-94.3
	c20.4,12.7-6.8,61.2,7.7,75.8c14.6,14.6,16.5,33.1-13.6,48.2c-30.1,15,21.4,72.4-19.4,89.9C392.8,367,404.6,435.6,359.3,402.3z"/>
<path class="st6" d="M371.8,421.2c-0.1-0.2-4.5-23,9.4-52.4c14.1-30,20.9-62.8,18.1-87.6c-1.5-13.5,7.1-18.8,15.5-23.9
	c8.3-5,16.7-10.2,16.2-23.5c-0.4-12,4.7-40.1,4.8-41.3l1.8,0.3c-0.1,0.3-5.3,29.1-4.8,41c0.5,14.4-8.5,19.8-17.1,25.2
	c-8.3,5.1-16,9.8-14.6,22.1c2.8,25.2-4,58.4-18.2,88.6c-13.6,28.8-9.3,51.1-9.3,51.3L371.8,421.2z"/>
<path class="st6" d="M404.8,295.5c9.2-8.5,21.3-9.8,18.8,2.9c-2.5,12.7-11.2,16.2-6.8,24.2c4.3,8,11.5,15.9-0.7,25.6
	c-12.3,9.8-19.1,10.8-22.7,29.3c-3.6,18.4-2.9,31-18.8,31.8s-9.7-22.4-4.7-32.8c0,0,7.6-11.9,2.5-27.6s-14.8-24.1,5.8-29.5
	C398.6,313.9,398.6,301.3,404.8,295.5z"/>
<linearGradient id="SVGID_7_" gradientUnits="userSpaceOnUse" x1="375.5263" y1="341.35" x2="413.1924" y2="341.35" gradientTransform="matrix(1 0 0 -1 0 704)">
	<stop  offset="0" style="stop-color:#40D5E6"/>
	<stop  offset="1" style="stop-color:#5577FF"/>
</linearGradient>
<path class="st8" d="M375.6,421c-0.1-2.2-1.1-55.3,8.8-64.2c10.1-9.1,12.1-25.2,12.4-34c0.4-11.5,15.1-18.2,15.8-18.5l0.7,1.6
	c-0.1,0.1-14.4,6.6-14.7,16.9c-0.3,11.1-2.8,26.2-12.9,35.3c-9.3,8.3-8.2,62.3-8.2,62.8L375.6,421z"/>
<linearGradient id="SVGID_8_" gradientUnits="userSpaceOnUse" x1="343.2" y1="273.5" x2="412.8" y2="273.5" gradientTransform="matrix(1 0 0 -1 0 704)">
	<stop  offset="0" style="stop-color:#BAD0DE"/>
	<stop  offset="1" style="stop-color:#F5F2FF"/>
</linearGradient>
<path class="st9" d="M412.8,399.3l-16.4,62.4h-36.8l-16.4-62.4H412.8z"/>
<g>
	
		<linearGradient id="SVGID_9_" gradientUnits="userSpaceOnUse" x1="343.2" y1="273.5" x2="412.8" y2="273.5" gradientTransform="matrix(1 0 0 -1 0 704)">
		<stop  offset="0" style="stop-color:#9FA0AD"/>
		<stop  offset="0.9948" style="stop-color:#55B5FF"/>
	</linearGradient>
	<path class="st10" d="M412.8,399.3c0,0-36.2,6.8-36.2,62.4h-17l-16.4-62.4H412.8z"/>
</g>
<path class="st11" d="M330.9,138.2h-7.1v323.5h7.1V138.2z"/>
<path class="st11" d="M166.2,138.2H159v323.5h7.1L166.2,138.2L166.2,138.2z"/>
<path class="st12" d="M340.6,408.3H149.3c-11.8,0-21.4-9.5-21.4-21.4V24.4c0-11.8,9.5-21.4,21.4-21.4h191.3
	c11.8,0,21.4,9.5,21.4,21.4V387C361.9,398.8,352.4,408.3,340.6,408.3z"/>
<path class="st6" d="M334.5,392.6h-179c-11.7,0-21.1-9.5-21.1-21.1V30.7c0-11.7,9.5-21.1,21.1-21.1h179c11.7,0,21.1,9.5,21.1,21.1
	v340.7C355.5,383.1,346.1,392.6,334.5,392.6z"/>
<path class="st12" d="M279.8,3.1h-69.7v10c0,3.2,2.6,5.8,5.8,5.8H274c3.2,0,5.8-2.6,5.8-5.8V3.1z"/>
<path class="st13" d="M158.6,131.9h21.2c3.9,0,7-3.1,7-7v-21.2c0-3.9-3.1-7-7-7h-21.2c-3.9,0-7,3.1-7,7v21.2
	C151.6,128.8,154.7,131.9,158.6,131.9z"/>
<path class="st14" d="M317.7,61.1H203.4c-2,0-3.6-1.6-3.6-3.6v-3.6c0-2,1.6-3.6,3.6-3.6h114.3c2,0,3.6,1.6,3.6,3.6v3.6
	C321.4,59.6,319.7,61.1,317.7,61.1z"/>
<path class="st14" d="M334.7,78.8H203.4c-2,0-3.6-1.6-3.6-3.6v-3.6c0-2,1.6-3.6,3.6-3.6h131.3c2,0,3.6,1.6,3.6,3.6v3.6
	C338.3,77.2,336.7,78.8,334.7,78.8z"/>
<path class="st15" d="M158.6,82.1h21.2c3.9,0,7-3.1,7-7V53.9c0-3.9-3.1-7-7-7h-21.2c-3.9,0-7,3.1-7,7v21.2
	C151.6,79,154.7,82.1,158.6,82.1z"/>
<path class="st14" d="M288,111h-85c-1.7,0-3.1-1.4-3.1-3.1v-4.6c0-1.7,1.4-3.1,3.1-3.1h85c1.7,0,3.1,1.4,3.1,3.1v4.6
	C291.2,109.6,289.8,111,288,111z"/>
<path class="st14" d="M309,128.7H203.1c-1.8,0-3.3-1.5-3.3-3.3V121c0-1.8,1.5-3.3,3.3-3.3h105.8c1.8,0,3.3,1.5,3.3,3.3v4.4
	C312.2,127.2,310.7,128.7,309,128.7z"/>
<path class="st14" d="M328.6,160.8h-125c-2.1,0-3.8-1.7-3.8-3.8v-3.4c0-2.1,1.7-3.8,3.8-3.8h124.9c2.1,0,3.8,1.7,3.8,3.8v3.4
	C332.4,159.2,330.7,160.8,328.6,160.8z"/>
<path class="st14" d="M318,178.5H203.2c-1.9,0-3.4-1.5-3.4-3.4V171c0-1.9,1.5-3.4,3.4-3.4H318c1.9,0,3.4,1.5,3.4,3.4v4.1
	C321.4,177,319.8,178.5,318,178.5z"/>
<path class="st13" d="M158.6,181.8h21.2c3.9,0,7-3.1,7-7v-21.2c0-3.9-3.1-7-7-7h-21.2c-3.9,0-7,3.1-7,7v21.2
	C151.6,178.7,154.7,181.8,158.6,181.8z"/>
<path class="st13" d="M158.6,284h21.2c3.9,0,7-3.1,7-7v-21.2c0-3.9-3.1-7-7-7h-21.2c-3.9,0-7,3.1-7,7V277
	C151.6,280.9,154.7,284,158.6,284z"/>
<path class="st14" d="M317.7,213.3H203.4c-2,0-3.6-1.6-3.6-3.6V206c0-2,1.6-3.6,3.6-3.6h114.3c2,0,3.6,1.6,3.6,3.6v3.6
	C321.4,211.6,319.7,213.3,317.7,213.3z"/>
<path class="st14" d="M334.7,230.9H203.4c-2,0-3.6-1.6-3.6-3.6v-3.6c0-2,1.6-3.6,3.6-3.6h131.3c2,0,3.6,1.6,3.6,3.6v3.6
	C338.3,229.3,336.7,230.9,334.7,230.9z"/>
<path class="st13" d="M158.6,234.2h21.2c3.9,0,7-3.1,7-7V206c0-3.9-3.1-7-7-7h-21.2c-3.9,0-7,3.1-7,7v21.2
	C151.6,231.1,154.7,234.2,158.6,234.2z"/>
<path class="st14" d="M288,263.1h-85c-1.7,0-3.1-1.4-3.1-3.1v-4.6c0-1.7,1.4-3.1,3.1-3.1h85c1.7,0,3.1,1.4,3.1,3.1v4.6
	C291.2,261.7,289.8,263.1,288,263.1z"/>
<path class="st14" d="M309,280.7H203.1c-1.8,0-3.3-1.5-3.3-3.3V273c0-1.8,1.5-3.3,3.3-3.3h105.8c1.8,0,3.3,1.5,3.3,3.3v4.4
	C312.2,279.2,310.7,280.7,309,280.7z"/>
<path class="st14" d="M328.6,313h-125c-2.1,0-3.8-1.7-3.8-3.8v-3.4c0-2.1,1.7-3.8,3.8-3.8h124.9c2.1,0,3.8,1.7,3.8,3.8v3.4
	C332.4,311.2,330.7,313,328.6,313z"/>
<path class="st14" d="M318,330.6H203.2c-1.9,0-3.4-1.5-3.4-3.4v-4.1c0-1.9,1.5-3.4,3.4-3.4H318c1.9,0,3.4,1.5,3.4,3.4v4.1
	C321.4,329,319.8,330.6,318,330.6z"/>
<path class="st13" d="M158.6,333.9h21.2c3.9,0,7-3.1,7-7v-21.2c0-3.9-3.1-7-7-7h-21.2c-3.9,0-7,3.1-7,7v21.2
	C151.6,330.8,154.7,333.9,158.6,333.9z"/>
<path class="st16" d="M170.2,218.3c0,0,2.9,6.6,5.7,5.7c2.8-0.8,6.8-0.6,8.1-0.4c1.7,0.2,7.3-1.1,7,1s-9.2,2.6-10.9,3.1
	c-1.9,0.4,4.8,5.1,5.2,6.9c0.4,1.8-8.8,12.2-12.9,8.5c-4.1-3.7-5.8-10.4-6.7-10.9s-4.7-5.9-4.7-5.9L170.2,218.3z"/>
<path class="st16" d="M184.5,233.4c0,0,11.8,12.3,11.8,13.7c0.1,1.5-0.7,2.1-1.9,1s-11.8-11.5-11.8-11.5s11.3,16.9,11.6,18.1
	c0.1,0.7-1.2,1.9-1.9,1.4s-12.9-16.6-12.9-16.6s10.5,15.8,10.5,16.8c-0.1,1-1.6,1.8-2.5,0.7c-0.9-1.1-11.5-15.2-11.5-15.2
	s6.8,12,6.3,12.9c-0.4,0.6-1.6,1.7-3.2-1.5c-1.6-3.1-6.5-10.1-6.5-10.1L184.5,233.4z"/>
<path class="st17" d="M22.3,450.6c0,0-4.5,3.2-7,5.5c-2.5,2.2-5.9,4.7-8,10.5s1.2,10.1,6.8,10.4c5.7,0.4,14.3-3.9,15.2-9.1
	c0.8-5.1,7.4-4.5,8.3-8.2c0.9-3.6-0.3-8.1-0.3-8.1L22.3,450.6z"/>
<path class="st16" d="M23.1,446.4l-0.7,4.2c0,0,2.3,4.3,15,1l-0.7-4.2L23.1,446.4z"/>
<path class="st17" d="M37.4,451.6c0,0-2.9,0.4-4.9,0.7s-6.1-2.3-10.1-1.6l1.3,5.1C23.6,455.8,37.1,453.2,37.4,451.6z"/>
<path class="st17" d="M103.5,450.6c0,0,4.5,3.2,7,5.5c2.5,2.2,5.9,4.7,8,10.5s-1.2,10.1-6.8,10.4c-5.7,0.4-14.3-3.9-15.2-9.1
	c-0.8-5.1-7.4-4.5-8.3-8.2c-0.9-3.6,0.3-8.1,0.3-8.1L103.5,450.6z"/>
<path class="st16" d="M102.8,446.4l0.7,4.2c0,0-2.3,4.3-15,1l0.7-4.2L102.8,446.4z"/>
<path class="st18" d="M108.2,347.6c0,9.3-3.7,97.9-3.7,97.9c-1,3.1-13.5,3-16.7,1.4c-3.1-1.6-2.5-88.8-3.1-98.1
	c-0.6-9.4-8.1-78.5-10.9-78.2s-18.1,65.5-20.3,72.6S38.8,446.9,38.8,446.9c-10.6,3.7-17.5,0-17.5,0s4.1-97.3,4.1-108.9
	c0-4.3,1.3-7.5,2.5-30.4c0.9-17.3,5.7-53,9-77.5c0.1-0.9,0.2-1.7,0.3-2.5c0.7-4.8,1.1-8.3,1.3-10c0.1-0.7,0.1-1.1,0.1-1.1
	c0.9-0.4,1.8-0.7,2.8-1.1c22.8-8.2,66.6,0.4,66.6,0.4s0,0.2,0.1,0.6c0.1,0.5,0.1,1.3,0.3,2.2c0.2,2.2,0.6,5.4,1,9.1v0.1
	c0,0.1,0,0.2,0.1,0.4c1.6,13.3,2.3,20.6,3.5,34.8C113.3,266.1,108.2,338.2,108.2,347.6z"/>
<path class="st19" d="M87.7,90.5c0,0,37.2,7.9,40.3,18.2s9.2,34.7,17.5,61.1c5,15.8,30.5,51.8,30.5,51.8s-14.6,10.7-14.6,9.3
	s-34.3-47.3-34.7-52.9c-0.4-5.6-10.8-34.2-10.8-34.2s-4.9,55-4.9,63.4c0,8.5,0.6,25.7,0.6,25.7S97.8,238.4,71,237
	c0,0-42.6-1.5-35.3-14.4c5.5-9.8,2.2-75.9,1.3-76.4c-0.8-0.4-15.7,18.2-14.2,21.8c1.4,3.6,39.9,16.5,39.9,16.5s1.1,4.2-4.8,13.6
	c0,0-57.4-16.8-57.7-20.3C0,174.3,24.1,105.9,32,102.4c11.3-5.1,41-13.3,41-13.3L87.7,90.5z"/>
<path class="st17" d="M88.5,451.6c0,0,2.9,0.4,4.9,0.7s6.1-2.3,10.1-1.6l-1.3,5.1C102.3,455.8,88.8,453.2,88.5,451.6z"/>
<path class="st16" d="M87.1,77.6c0,0-1.6,8.4,1.1,14.1c0,0,2.7,13.4-11,14S63.2,94,63.2,94s3.3-4.4,1.1-16.4
	C62.1,65.7,87.1,77.6,87.1,77.6z"/>
<path class="st16" d="M78.7,29c0,0,17.6,2.8,14.9,30.9S75.4,85.7,74.4,85.7s-15.6,0.5-16.7-33.8C57.7,51.8,57.2,26.5,78.7,29z"/>
<path class="st16" d="M93.8,52c0,0,1.9-2.1,2.6,0c0.7,2.2-2.5,11.3-2.8,12.1c0,0-0.4,0.8-0.8,0.4C92.5,64,93.8,52,93.8,52z"/>
<path class="st16" d="M58.2,51.6c0,0-1.9-2.2-2.6,0c-0.7,2.1,2.4,11.8,2.5,12.1c0,0,0.3,0.8,0.8,0.4C59.3,63.6,58.2,51.6,58.2,51.6z
	"/>
<path class="st20" d="M93.8,56.2l-2.5,3.4c0,0,0.1-7.5-0.3-8.7s0.4-5.3,0.1-6.2c-0.4-0.8-12,2.3-31.1,0.4c0,0,2.2,6.8,0.9,7.3
	s-0.7,8.9-0.7,8.9l-2.1-2.4c0,0-2.3-14.2-2.1-16.6c0.3-3.2-0.7-17.9,26.1-15.4c3.1,0.3,6,1.4,8.5,3.4c2.8,2.2,5.6,5.5,5.4,10.1
	C95.8,46.5,93.8,56.2,93.8,56.2z"/>
<path class="st21" d="M66.4,81.9c0,0,7.2,8.4,18.7,0c0,0-3.2,6.4-10,6.6C68.5,88.6,66.4,81.9,66.4,81.9z"/>
<path class="st22" d="M72.6,183.8c0,0,3.6-0.1,4.6-0.2c1.1-0.1,0.4,2.2-0.9,2.6C75.1,186.6,72.6,183.8,72.6,183.8z"/>
<path class="st16" d="M74.7,200.7c0,0-1.6,0.4-2.3,0.2c0,0-1.3-0.4-2.3-0.7c-0.3-0.1-0.6-0.1-0.7-0.1c-0.7-0.1-2.5,0-4.2-0.7
	c-1.8-0.7-7.7-3.7-7.7-3.7l1.7-5.5l1.3-4.4c0,0,10-2.7,11.8-2.2c0.1,0.1,0.3,0.1,0.4,0.1c1.4,0.5,2.2,1.5,3,1.9
	c0.2,0.1,2.8,1.6,2.9,2.5c0.1,1.2-0.1,2.1-0.8,2.6c0,0,0.2,2.3-0.6,3.6c0,0,0.3,2.2-1.3,3.5C75.8,197.9,75.8,200.2,74.7,200.7z"/>
<path class="st19" d="M62.5,184.4c0,0,0.5,7.1-4.8,13.6c0,0-42.2-13.2-47.3-15.1c-5.1-2,18.2-63.9,18.2-63.9l17.1,5.8l-9.2,17.4
	c0,0-4.5,9.8-14.1,25.8C22.6,168,28.4,173.5,62.5,184.4z"/>
<path class="st19" d="M92.2,100.3L88.3,88c0,0-6.3,2.9-24.4,0.9l-4.1,11.8C59.8,100.7,75.4,114.3,92.2,100.3z"/>
</svg>
