<?xml version="1.0" encoding="utf-8"?>
<!-- Generator: Adobe Illustrator 22.1.0, SVG Export Plug-In . SVG Version: 6.00 Build 0)  -->
<svg version="1.1" id="Layer_1" xmlns="http://www.w3.org/2000/svg" xmlns:xlink="http://www.w3.org/1999/xlink" x="0px" y="0px"
	 viewBox="0 0 1443 927" style="enable-background:new 0 0 1443 927;" xml:space="preserve">
<style type="text/css">
	.st0{fill:url(#SVGID_1_);}
	.st1{fill:url(#SVGID_2_);}
	.st2{fill:url(#SVGID_3_);}
	.st3{fill:url(#SVGID_4_);}
	.st4{fill:url(#SVGID_5_);}
	.st5{fill:url(#SVGID_6_);}
	.st6{fill:url(#SVGID_7_);}
	.st7{fill:url(#SVGID_8_);}
	.st8{fill:url(#SVGID_9_);}
</style>
<linearGradient id="SVGID_1_" gradientUnits="userSpaceOnUse" x1="721.5" y1="839.3005" x2="721.5" y2="-32.3603" gradientTransform="matrix(1 0 0 -1 0 894.6015)">
	<stop  offset="0" style="stop-color:#1FA2FF"/>
	<stop  offset="1" style="stop-color:#9FD4FA;stop-opacity:0"/>
</linearGradient>
<path class="st0" d="M461.5,175C188,36.5,100.5,112.5,0,175v752l1443-155.5v-682c-12.8,96-70.8,255.7-200,126.5
	C1081.5,54.5,1002.5,36,884.5,69C678.5,126.5,737.9,314.9,461.5,175z"/>
<linearGradient id="SVGID_2_" gradientUnits="userSpaceOnUse" x1="-9.1729" y1="167.4714" x2="148.5279" y2="359.5166" gradientTransform="matrix(1 0 0 -1 0 894.6015)">
	<stop  offset="0" style="stop-color:#A1D5FA;stop-opacity:0"/>
	<stop  offset="1" style="stop-color:#2354EC;stop-opacity:0.35"/>
</linearGradient>
<path class="st1" d="M0,729.9c1.1,0.4,2.2,0.6,3.4,0.8l96.1,15.9c8.5,1.4,17-1.8,22.5-8.4l61.8-75.3c5.4-6.6,6.9-15.7,3.9-23.7
	L153.4,548c-3-8-10.1-13.8-18.5-15.2l-96.1-15.9c-8.5-1.4-17,1.8-22.5,8.4L0,545.2L0,729.9z"/>
<linearGradient id="SVGID_3_" gradientUnits="userSpaceOnUse" x1="1453.7344" y1="277.3363" x2="1245.4907" y2="79.9337" gradientTransform="matrix(1 0 0 -1 0 894.6015)">
	<stop  offset="0" style="stop-color:#A1D5FA;stop-opacity:0"/>
	<stop  offset="1" style="stop-color:#2354EC;stop-opacity:0.35"/>
</linearGradient>
<path class="st2" d="M1442.8,611.1l-112.6-33.4c-8.2-2.4-17.1-0.3-23.3,5.6l-85.2,80.8c-6.2,5.9-8.8,14.7-6.8,23l27.3,114.2
	c2,8.3,8.3,15,16.5,17.4l112.6,33.4c8.2,2.4,17.1,0.3,23.3-5.6l48.4-45.8L1442.8,611.1z"/>
<linearGradient id="SVGID_4_" gradientUnits="userSpaceOnUse" x1="1038.4802" y1="861.6135" x2="882.1642" y2="713.4324" gradientTransform="matrix(1 0 0 -1 0 894.6015)">
	<stop  offset="0" style="stop-color:#A1D5FA;stop-opacity:0"/>
	<stop  offset="1" style="stop-color:#2354EC;stop-opacity:0.35"/>
</linearGradient>
<path class="st3" d="M1041.7,46.5c-2-8.3-8.3-15-16.5-17.4L948.5,6.3c-8.2-2.4-17.1-0.3-23.3,5.6l-58,55c-6.2,5.9-8.8,14.7-6.8,23
	l18.6,77.8c2,8.3,8.3,15,16.5,17.4l76.7,22.8c8.2,2.4,17.1,0.3,23.3-5.6l58-55c6.2-5.9,8.8-14.7,6.8-23L1041.7,46.5z"/>
<linearGradient id="SVGID_5_" gradientUnits="userSpaceOnUse" x1="161" y1="722.3007" x2="161" y2="648.3007" gradientTransform="matrix(1 0 0 -1 0 894.6015)">
	<stop  offset="0" style="stop-color:#F1F6FA"/>
	<stop  offset="1" style="stop-color:#75C4FF;stop-opacity:0.63"/>
</linearGradient>
<circle class="st4" cx="161" cy="209.3" r="37"/>
<linearGradient id="SVGID_6_" gradientUnits="userSpaceOnUse" x1="1043" y1="861.3007" x2="1043" y2="787.3007" gradientTransform="matrix(1 0 0 -1 0 894.6015)">
	<stop  offset="0" style="stop-color:#F1F6FA"/>
	<stop  offset="1" style="stop-color:#75C4FF;stop-opacity:0.63"/>
</linearGradient>
<circle class="st5" cx="1043" cy="70.3" r="37"/>
<linearGradient id="SVGID_7_" gradientUnits="userSpaceOnUse" x1="1116" y1="179.3007" x2="1116" y2="125.3007" gradientTransform="matrix(1 0 0 -1 0 894.6015)">
	<stop  offset="0" style="stop-color:#F1F6FA"/>
	<stop  offset="1" style="stop-color:#75C4FF;stop-opacity:0.63"/>
</linearGradient>
<circle class="st6" cx="1116" cy="742.3" r="27"/>
<linearGradient id="SVGID_8_" gradientUnits="userSpaceOnUse" x1="123.8082" y1="812.1384" x2="123.8082" y2="456.616" gradientTransform="matrix(1 0 0 -1 0 894.6015)">
	<stop  offset="0" style="stop-color:#0080DC"/>
	<stop  offset="1" style="stop-color:#CBE9FF;stop-opacity:0"/>
</linearGradient>
<path class="st7" d="M93,402.8c-32,72.4-75.3,16.5-93-20.5v-279c1.8-8,9.7-23.3,26.5-20.5c21,3.5,33,86,82.5,81.5s55-56,112,20
	s9.5,159-22.5,185.5S133,312.3,93,402.8z"/>
<linearGradient id="SVGID_9_" gradientUnits="userSpaceOnUse" x1="1402.8527" y1="613.5102" x2="1275.3527" y2="563.2362" gradientTransform="matrix(1 0 0 -1 0 894.6015)">
	<stop  offset="0" style="stop-color:#6DBEF7"/>
	<stop  offset="1" style="stop-color:#6DBEF7;stop-opacity:0"/>
</linearGradient>
<path class="st8" d="M1381.4,344.5c-52.6-39.5,49.1-45,27.3-76.8c-54.5-79.6-200.7-79.1-154.1,5.1c19.6,35.3-22.9,69.8-7.8,100.3
	c15.2,30.5,70.8,56.5,135.7,34.5C1447.4,385.7,1447.2,393.9,1381.4,344.5z"/>
</svg>
