<?xml version="1.0" encoding="utf-8"?>
<!-- Generator: Adobe Illustrator 22.1.0, SVG Export Plug-In . SVG Version: 6.00 Build 0)  -->
<svg version="1.1" id="Layer_1" xmlns="http://www.w3.org/2000/svg" xmlns:xlink="http://www.w3.org/1999/xlink" x="0px" y="0px"
	 viewBox="0 0 1440.5 1245.1" style="enable-background:new 0 0 1440.5 1245.1;" xml:space="preserve">
<style type="text/css">
	.st0{fill:url(#SVGID_1_);fill-opacity:0.5;}
	.st1{opacity:0.7;fill:url(#SVGID_2_);enable-background:new    ;}
	.st2{opacity:0.8;}
	.st3{fill:url(#SVGID_3_);}
	.st4{fill:url(#SVGID_4_);}
	.st5{fill:url(#SVGID_5_);}
	.st6{opacity:0.7;fill:url(#SVGID_6_);enable-background:new    ;}
	.st7{fill:url(#SVGID_7_);}
	.st8{fill:url(#SVGID_8_);}
	.st9{fill:url(#SVGID_9_);}
	.st10{fill:url(#SVGID_10_);}
</style>
<linearGradient id="SVGID_1_" gradientUnits="userSpaceOnUse" x1="720.25" y1="-2203.8591" x2="720.25" y2="-1155.359" gradientTransform="matrix(1 0 0 1 0 2284.759)">
	<stop  offset="0" style="stop-color:#BAE2FE"/>
	<stop  offset="1" style="stop-color:#BAE2FE;stop-opacity:0"/>
</linearGradient>
<path class="st0" d="M1440.5,80.9L0,329.9v799.5l1440.5-16V80.9z"/>
<linearGradient id="SVGID_2_" gradientUnits="userSpaceOnUse" x1="242.1559" y1="-1529.1107" x2="12.187" y2="-1905.9613" gradientTransform="matrix(1 0 0 1 0 2284.759)">
	<stop  offset="0" style="stop-color:#F7FCFF;stop-opacity:0"/>
	<stop  offset="1" style="stop-color:#46B1FE"/>
</linearGradient>
<path class="st1" d="M0.5,226.8c27.4-26.5,54.2-58.5,141.8-18c126.4,58.4,102.1,127.7,71.2,189.1c-29.7,77.4-17.8,107.5,84,178.6
	c70.4,49.2-196.2,194.8-297,238.7"/>
<g class="st2">
	
		<linearGradient id="SVGID_3_" gradientUnits="userSpaceOnUse" x1="-24.2526" y1="-1247.4697" x2="155.4863" y2="-1198.071" gradientTransform="matrix(1 0 0 1 0 2284.759)">
		<stop  offset="0" style="stop-color:#A1D5FA;stop-opacity:0"/>
		<stop  offset="1" style="stop-color:#2354EC;stop-opacity:0.35"/>
	</linearGradient>
	<path class="st3" d="M0.5,1148.1l59.5,16.3c8.6,2.4,17.8,0,24.1-6.3L146,1097c6.3-6.2,8.8-15.5,6.6-24l-21.9-84.1
		c-2.3-8.6-8.9-15.4-17.6-17.8L29.3,948c-8.6-2.4-17.8,0-24.1,6.3l-4.7,4.6"/>
	
		<linearGradient id="SVGID_4_" gradientUnits="userSpaceOnUse" x1="-39.7805" y1="-1214.2999" x2="80.9683" y2="-1063.9741" gradientTransform="matrix(1 0 0 1 0 2284.759)">
		<stop  offset="0" style="stop-color:#A1D5FA;stop-opacity:0"/>
		<stop  offset="1" style="stop-color:#2354EC;stop-opacity:0.35"/>
	</linearGradient>
	<path class="st4" d="M0.5,1245.1l49.3-7.6c8.8-1.4,16.2-7.3,19.4-15.6l31.5-81c3.2-8.3,1.8-17.7-3.8-24.6l-54.4-67.9
		c-5.6-7-14.4-10.4-23.3-9l-18.7,2.9"/>
</g>
<g>
	
		<linearGradient id="SVGID_5_" gradientUnits="userSpaceOnUse" x1="1050.8" y1="-2095.8591" x2="1050.8" y2="-2051.9878" gradientTransform="matrix(1 0 0 1 0 2284.759)">
		<stop  offset="0" style="stop-color:#F1F6FA"/>
		<stop  offset="1" style="stop-color:#75C4FF;stop-opacity:0.63"/>
	</linearGradient>
	<circle class="st5" cx="1050.8" cy="210.8" r="21.9"/>
	<g>
		
			<linearGradient id="SVGID_6_" gradientUnits="userSpaceOnUse" x1="1230.6726" y1="-2246.72" x2="1230.6726" y2="-1397.5461" gradientTransform="matrix(1 0 0 1 0 2284.759)">
			<stop  offset="0" style="stop-color:#F7FCFF;stop-opacity:0.45"/>
			<stop  offset="1" style="stop-color:#46B1FE"/>
		</linearGradient>
		<path class="st6" d="M1054,491.6c-72-119.2-13-163,47-196.5c68-47.5,75-79,30.5-195c-30.9-80.5,201.8-66.7,309-46.5v811.5
			c-17.5,15-71.5,37.4-147.5,7c-95-38,47-153.5-22-271S1144,640.6,1054,491.6z"/>
		<g class="st2">
			
				<linearGradient id="SVGID_7_" gradientUnits="userSpaceOnUse" x1="1193.6438" y1="-1757.2168" x2="1408.5038" y2="-1698.1606" gradientTransform="matrix(1 0 0 1 0 2284.759)">
				<stop  offset="0" style="stop-color:#A1D5FA;stop-opacity:0"/>
				<stop  offset="1" style="stop-color:#2354EC;stop-opacity:0.35"/>
			</linearGradient>
			<path class="st7" d="M1203.5,517.8c-6.1,6-8.5,14.8-6.4,23.1l21.1,81c2.2,8.3,8.6,14.8,16.9,17.1l80.7,22.2
				c8.3,2.3,17.1,0,23.2-6.1l59.6-58.8c6.1-6,8.5-14.8,6.4-23.1l-21.2-81c-2.2-8.3-8.6-14.8-16.9-17.1l-80.7-22.2
				c-8.3-2.3-17.1,0-23.2,6.1L1203.5,517.8z"/>
			
				<linearGradient id="SVGID_8_" gradientUnits="userSpaceOnUse" x1="1180.2212" y1="-1729.1798" x2="1319.7612" y2="-1555.46" gradientTransform="matrix(1 0 0 1 0 2284.759)">
				<stop  offset="0" style="stop-color:#A1D5FA;stop-opacity:0"/>
				<stop  offset="1" style="stop-color:#2354EC;stop-opacity:0.35"/>
			</linearGradient>
			<path class="st8" d="M1193.9,553.5c-8.5,1.3-15.6,7-18.7,15l-30.3,78c-3.1,8-1.7,17,3.7,23.7l52.4,65.3c5.4,6.7,13.9,10,22.4,8.7
				l82.7-12.8c8.5-1.3,15.6-7,18.7-15l30.3-78c3.1-8,1.7-17-3.7-23.7l-52.4-65.3c-5.4-6.7-13.9-10-22.4-8.7L1193.9,553.5z"/>
		</g>
		
			<linearGradient id="SVGID_9_" gradientUnits="userSpaceOnUse" x1="4478.5" y1="-2502.238" x2="4478.5" y2="-2450.238" gradientTransform="matrix(-1 0 0 1 5683 2985.7588)">
			<stop  offset="0" style="stop-color:#F1F6FA"/>
			<stop  offset="1" style="stop-color:#75C4FF;stop-opacity:0.63"/>
		</linearGradient>
		<circle class="st9" cx="1204.5" cy="483.6" r="26"/>
	</g>
</g>
<linearGradient id="SVGID_10_" gradientUnits="userSpaceOnUse" x1="4443.5" y1="-2737.9482" x2="4443.5" y2="-2667.9482" gradientTransform="matrix(-1 0 0 1 5802 3891.7588)">
	<stop  offset="0" style="stop-color:#F1F6FA"/>
	<stop  offset="1" style="stop-color:#75C4FF;stop-opacity:0.63"/>
</linearGradient>
<circle class="st10" cx="1358.5" cy="1153.9" r="35"/>
</svg>
