<svg width="880" height="828" viewBox="0 0 880 828" fill="none" xmlns="http://www.w3.org/2000/svg">
<g clip-path="url(#clip0)">
<path d="M599.565 567.318C608.688 555.677 616.633 543.005 623.254 529.448C643.411 487.599 648.855 439.856 638.261 394.618C624.284 334.202 584.264 284.101 528.647 257.135L528.059 256.841C500.251 243.579 470.824 236.8 440.221 236.8C410.059 236.8 379.602 243.726 352.235 256.841C310.156 277.028 277.198 309.888 256.894 351.885C250.42 365.441 245.27 379.588 241.886 394.028C227.908 453.56 242.033 517.954 279.699 566.287L95.0477 713.348C54.8805 662.215 25.8953 601.652 11.4763 537.995C-3.23691 473.453 -3.08978 405.375 11.9177 341.128C19.2744 309.594 30.1622 278.502 44.434 249.031C66.5039 203.35 95.9305 162.238 131.684 127.02C166.26 92.8339 206.133 64.8364 250.125 43.7646C309.273 15.4723 375.041 0.442078 440.368 0.442078C506.578 0.442078 570.727 15.1776 630.757 44.2066L631.346 44.5014C751.995 103.001 838.362 211.602 868.377 342.454C879.264 390.197 882.207 438.972 877.057 487.452C871.761 537.7 857.783 586.327 835.566 632.155C821.294 661.626 803.933 689.329 783.775 714.674L599.565 567.318Z" fill="#DEF1FF"/>
<path d="M440.366 1.03149C506.576 1.03149 570.578 15.767 630.609 44.6487L631.344 44.9434C692.11 74.5618 744.048 116.411 785.539 169.459C825.118 220.002 853.514 279.975 867.933 342.749C878.821 390.492 881.764 439.267 876.614 487.599C871.317 537.7 857.34 586.327 835.123 632.155C820.998 661.479 803.637 689.034 783.774 714.232L600.299 567.171C609.421 555.677 617.22 543.005 623.693 529.595C643.998 487.746 649.294 439.709 638.848 394.47C624.87 333.907 584.703 283.659 528.94 256.693L528.204 256.398C500.396 242.989 470.823 236.211 440.219 236.211C409.91 236.211 379.453 243.136 352.087 256.251C310.007 276.439 276.902 309.299 256.45 351.59C249.977 365.147 244.827 379.293 241.443 393.734V393.881C227.465 453.413 241.443 517.807 279.109 566.14L95.193 712.464C55.0258 661.626 26.335 601.21 11.916 537.847C-2.65016 473.306 -2.50303 405.375 12.3574 341.275V341.128C19.714 309.594 30.6018 278.649 44.8737 249.178C66.9436 203.498 96.2229 162.533 131.976 127.315C166.552 93.276 206.278 65.2785 250.271 44.354C309.418 15.9144 375.186 1.03149 440.366 1.03149ZM440.366 0C374.156 0 309.124 15.0303 249.977 43.3225C163.168 84.8767 89.1606 155.165 43.9909 248.736C29.4247 278.796 18.6841 309.741 11.4746 340.98C-19.2761 472.864 13.093 610.346 94.8988 714.084L280.433 566.434C242.767 518.544 228.054 455.034 242.326 394.176C245.71 379.882 250.565 365.884 257.333 352.032C278.226 308.857 312.361 276.439 352.381 257.135C379.6 244.021 409.615 237.095 440.219 237.095C469.646 237.095 499.513 243.579 527.91 257.135L528.646 257.43C586.175 285.28 624.576 336.707 637.965 394.618C648.117 438.235 643.998 485.536 622.958 529.006C616.337 542.857 608.244 555.53 599.122 567.171L784.068 715.411C804.078 690.213 821.587 662.51 836.153 632.302C881.47 538.437 890.592 436.467 868.963 342.159C840.125 216.612 756.701 104.622 631.638 44.0593L630.903 43.7646C569.401 13.9988 504.369 0 440.366 0Z" fill="#0072C4"/>
<path d="M527.765 257.283L630.905 43.7646" stroke="#0072C4" stroke-width="0.6798" stroke-miterlimit="10"/>
<path d="M352.383 257.283L249.978 43.3225" stroke="#0072C4" stroke-width="0.6798" stroke-miterlimit="10"/>
<path d="M242.327 394.176L11.4763 340.98" stroke="#0072C4" stroke-width="0.6798" stroke-miterlimit="10"/>
<path d="M868.818 342.454L637.82 394.765" stroke="#0072C4" stroke-width="0.6798" stroke-miterlimit="10"/>
</g>
<path d="M413.205 624.012L414.565 641.673H464.209L466.702 624.691L413.205 624.012Z" fill="#06D2FF"/>
<path d="M388.723 470.271L365.374 504.913C356.987 517.367 352.453 532.084 352.227 547.255L352 604.087L401.87 551.33L388.723 470.271Z" fill="#0042B6"/>
<path opacity="0.63" d="M388.496 458.27C388.496 458.27 364.241 535.254 376.935 591.181L402.777 560.387L395.297 464.836L388.496 458.27Z" fill="#E2E2E2"/>
<path d="M490.731 470.497L514.079 505.366C522.466 517.819 527 532.537 526.773 547.707L526.547 604.766L476.903 551.556L490.731 470.497Z" fill="#0042B6"/>
<path opacity="0.63" d="M485.517 444.232C485.517 444.232 512.946 529.82 503.652 592.086L470.102 547.934L484.383 465.742L485.517 444.232Z" fill="#E2E2E2"/>
<path d="M437.46 300C437.46 300 407.991 352.757 392.123 447.855C376.255 542.952 390.083 598.426 390.083 598.426H490.277C490.504 598.426 515.212 427.929 437.46 300Z" fill="#3BADFF"/>
<path d="M471.152 450.152C471.152 467.813 456.644 482.078 438.962 482.078C421.281 482.078 407 467.587 407 449.926C407 432.265 421.508 418 439.189 418C457.097 418 471.378 432.491 471.152 450.152Z" fill="white"/>
<path d="M410.258 598.2H470.102L474.636 628.54H405.724L410.258 598.2Z" fill="#0042B6"/>
<path d="M414.565 641.673L373.762 809L505.012 808.774L463.982 641.673H414.565Z" fill="url(#paint0_linear)"/>
<path d="M425.446 641.673L405.724 809L473.276 808.774L452.874 641.673H425.446Z" fill="url(#paint1_linear)"/>
<path d="M425.899 641.673C425.899 641.673 401.87 687.184 439.5 725.45C439.5 725.45 474.863 698.053 453.101 641.673H425.899Z" fill="#FF9600"/>
<path d="M429.753 641.673C429.753 641.673 414.338 674.731 439.953 697.6C439.953 697.6 462.168 679.939 449.247 641.673H429.753Z" fill="#FFD943"/>
<path d="M433.153 641.673C433.153 641.673 423.859 661.825 439.5 675.863C439.5 675.863 453.101 664.995 445.167 641.673H433.153Z" fill="#FF9600"/>
<path d="M437.46 300L437.006 338.492L420.912 338.039C420.685 338.039 429.073 315.397 437.46 300Z" fill="#0042B6"/>
<path d="M457.408 338.492H437.006L437.46 300C437.46 300 448.114 316.982 457.408 338.492Z" fill="#00378C"/>
<path d="M436.78 598.2L437.233 628.54H474.636L470.102 598.2H436.78Z" fill="#00378C"/>
<g clip-path="url(#clip1)">
<path d="M438.872 475C438.612 475.012 438.4 474.799 438.4 474.551C438.388 474.291 438.6 474.079 438.848 474.079C439.108 474.067 439.321 474.28 439.321 474.528C439.333 474.787 439.12 475 438.872 475ZM437.467 474.976C437.219 474.965 437.03 474.764 437.03 474.516C437.03 474.504 437.03 474.504 437.03 474.492C437.041 474.244 437.254 474.043 437.502 474.055C437.75 474.067 437.951 474.268 437.951 474.504C437.951 474.516 437.951 474.516 437.951 474.528C437.939 474.776 437.738 474.965 437.49 474.965C437.467 474.976 437.467 474.976 437.467 474.976ZM439.793 474.516C439.793 474.504 439.793 474.504 439.793 474.492C439.781 474.244 439.97 474.043 440.218 474.02V474.032C440.466 474.008 440.691 474.197 440.714 474.445C440.714 474.457 440.714 474.457 440.714 474.469C440.726 474.717 440.537 474.917 440.289 474.941C440.277 474.941 440.266 474.941 440.254 474.941C440.006 474.941 439.805 474.752 439.793 474.516ZM436.061 474.882C435.825 474.858 435.648 474.658 435.648 474.421C435.648 474.409 435.648 474.386 435.648 474.374C435.683 474.126 435.908 473.937 436.156 473.961C436.392 473.984 436.569 474.173 436.569 474.409C436.569 474.421 436.557 474.445 436.557 474.457C436.534 474.693 436.345 474.87 436.108 474.87C436.085 474.882 436.073 474.882 436.061 474.882ZM441.163 474.398C441.163 474.386 441.163 474.362 441.163 474.35C441.151 474.114 441.329 473.902 441.565 473.878C441.813 473.843 442.049 474.02 442.084 474.268C442.084 474.291 442.084 474.315 442.084 474.339C442.084 474.551 441.919 474.752 441.683 474.776C441.671 474.776 441.647 474.776 441.624 474.776C441.399 474.799 441.199 474.622 441.163 474.398ZM434.656 474.705C434.431 474.669 434.266 474.469 434.266 474.256C434.266 474.232 434.266 474.209 434.266 474.185C434.302 473.937 434.55 473.772 434.798 473.795C435.022 473.831 435.187 474.032 435.187 474.256C435.187 474.28 435.187 474.303 435.175 474.327C435.14 474.551 434.951 474.717 434.727 474.717C434.703 474.705 434.679 474.705 434.656 474.705ZM442.545 474.209C442.533 474.173 442.533 474.15 442.533 474.114C442.533 473.902 442.687 473.713 442.899 473.677C443.147 473.63 443.395 473.795 443.443 474.043C443.454 474.079 443.454 474.102 443.454 474.138C443.454 474.35 443.301 474.539 443.088 474.587C443.053 474.598 443.029 474.598 443.006 474.598C442.781 474.575 442.58 474.421 442.545 474.209ZM433.274 474.445C433.061 474.398 432.908 474.209 432.908 473.996C432.92 473.961 432.92 473.937 432.92 473.902C432.979 473.654 433.215 473.5 433.463 473.547C433.676 473.595 433.829 473.784 433.829 474.008C433.829 474.043 433.817 474.067 433.817 474.091C433.77 474.303 433.581 474.457 433.369 474.457C433.333 474.445 433.298 474.445 433.274 474.445ZM443.903 473.937C443.891 473.902 443.891 473.854 443.891 473.819C443.891 473.606 444.033 473.429 444.234 473.382C444.482 473.323 444.73 473.465 444.801 473.713C444.812 473.748 444.812 473.795 444.812 473.831C444.812 474.032 444.671 474.221 444.47 474.268C444.435 474.28 444.399 474.28 444.352 474.28C444.139 474.28 443.95 474.15 443.903 473.937ZM431.892 474.102C431.691 474.043 431.55 473.854 431.562 473.654C431.562 473.618 431.562 473.571 431.573 473.536C431.632 473.299 431.892 473.146 432.14 473.217C432.353 473.276 432.483 473.465 432.483 473.665C432.483 473.701 432.471 473.736 432.471 473.784C432.412 473.984 432.235 474.126 432.034 474.126C431.975 474.114 431.94 474.114 431.892 474.102ZM445.238 473.583C445.226 473.536 445.214 473.488 445.214 473.441C445.214 473.24 445.344 473.063 445.533 473.004H445.545C445.781 472.933 446.041 473.063 446.112 473.299C446.123 473.347 446.135 473.394 446.135 473.441C446.135 473.642 446.005 473.831 445.816 473.878C445.769 473.89 445.722 473.902 445.675 473.902C445.486 473.913 445.309 473.784 445.238 473.583ZM430.546 473.689C430.357 473.63 430.239 473.453 430.227 473.264C430.227 473.205 430.239 473.158 430.251 473.099C430.333 472.862 430.593 472.732 430.841 472.815C431.03 472.874 431.148 473.051 431.148 473.24C431.16 473.288 431.148 473.347 431.125 473.394C431.066 473.583 430.888 473.713 430.688 473.713C430.652 473.713 430.593 473.701 430.546 473.689ZM446.56 473.158C446.537 473.099 446.525 473.051 446.525 472.992C446.525 472.803 446.643 472.626 446.82 472.555C447.056 472.473 447.328 472.591 447.411 472.815C447.423 472.874 447.434 472.921 447.434 472.98C447.446 473.169 447.316 473.347 447.139 473.417C447.092 473.441 447.033 473.453 446.974 473.453C446.797 473.465 446.619 473.347 446.56 473.158ZM429.223 473.181C429.046 473.11 428.94 472.945 428.94 472.768C428.94 472.709 428.952 472.65 428.975 472.591C429.07 472.355 429.341 472.236 429.577 472.331C429.755 472.402 429.861 472.567 429.861 472.756C429.861 472.815 429.849 472.874 429.826 472.933C429.755 473.11 429.577 473.217 429.4 473.217C429.341 473.217 429.282 473.205 429.223 473.181ZM447.848 472.65C447.824 472.591 447.812 472.532 447.812 472.473C447.8 472.295 447.907 472.13 448.084 472.047C448.32 471.941 448.58 472.047 448.686 472.284C448.71 472.343 448.722 472.402 448.722 472.461C448.733 472.638 448.627 472.815 448.45 472.886C448.391 472.921 448.332 472.921 448.261 472.921C448.084 472.933 447.919 472.827 447.848 472.65ZM427.936 472.614C427.771 472.532 427.676 472.378 427.676 472.201C427.676 472.13 427.688 472.059 427.723 472C427.83 471.764 428.113 471.67 428.337 471.788C428.503 471.87 428.597 472.024 428.597 472.201C428.597 472.272 428.585 472.343 428.55 472.402C428.467 472.567 428.314 472.662 428.137 472.662C428.066 472.662 427.995 472.65 427.936 472.614ZM449.1 472.083C449.064 472.012 449.052 471.941 449.052 471.87C449.052 471.705 449.135 471.551 449.3 471.469C449.525 471.351 449.796 471.433 449.914 471.67C449.95 471.729 449.962 471.811 449.962 471.882C449.962 472.047 449.867 472.201 449.714 472.284C449.714 472.284 449.714 472.284 449.714 472.272C449.655 472.307 449.572 472.331 449.501 472.331C449.348 472.331 449.182 472.248 449.1 472.083ZM426.672 471.977C426.519 471.882 426.436 471.729 426.436 471.563C426.436 471.492 426.448 471.422 426.495 471.351C426.613 471.126 426.897 471.044 427.121 471.174C427.275 471.256 427.357 471.41 427.357 471.575C427.357 471.646 427.345 471.729 427.298 471.788C427.215 471.941 427.062 472.024 426.897 472.024C426.826 472.024 426.743 472 426.672 471.977ZM450.328 471.445C450.281 471.362 450.269 471.28 450.269 471.209C450.269 471.055 450.351 470.902 450.493 470.819C450.706 470.689 450.989 470.76 451.119 470.985C451.166 471.067 451.19 471.15 451.178 471.221C451.178 471.374 451.095 471.528 450.954 471.611C450.883 471.646 450.8 471.67 450.718 471.67C450.564 471.67 450.41 471.587 450.328 471.445ZM425.468 471.244C425.326 471.15 425.255 471.008 425.255 470.855C425.255 470.772 425.279 470.689 425.326 470.618C425.456 470.406 425.739 470.335 425.952 470.477C426.094 470.571 426.164 470.713 426.164 470.866C426.164 470.949 426.141 471.032 426.094 471.103C426.011 471.244 425.857 471.315 425.704 471.315C425.621 471.315 425.538 471.292 425.468 471.244ZM451.509 470.725C451.45 470.642 451.426 470.559 451.426 470.465C451.426 470.311 451.497 470.17 451.639 470.075C451.851 469.933 452.135 469.993 452.276 470.205C452.336 470.288 452.359 470.37 452.359 470.465C452.359 470.607 452.288 470.76 452.147 470.843C452.076 470.902 451.981 470.926 451.887 470.926C451.745 470.926 451.603 470.855 451.509 470.725ZM424.287 470.465C424.157 470.382 424.098 470.241 424.098 470.099C424.098 470.004 424.121 469.91 424.18 469.815C424.334 469.603 424.617 469.556 424.83 469.709C424.96 469.804 425.031 469.945 425.019 470.099C425.019 470.193 424.983 470.276 424.936 470.347C424.842 470.477 424.7 470.536 424.558 470.536C424.452 470.548 424.369 470.524 424.287 470.465ZM452.654 469.933C452.595 469.851 452.56 469.756 452.56 469.662C452.56 469.52 452.619 469.378 452.749 469.296C452.95 469.142 453.245 469.178 453.398 469.378C453.457 469.461 453.481 469.556 453.493 469.65C453.493 469.792 453.434 469.933 453.304 470.016C453.221 470.075 453.115 470.111 453.02 470.111C452.879 470.122 452.737 470.052 452.654 469.933ZM423.165 469.615C423.047 469.532 422.999 469.402 422.999 469.26C422.987 469.154 423.023 469.048 423.094 468.965C423.259 468.764 423.543 468.729 423.743 468.894C423.85 468.989 423.909 469.107 423.909 469.248C423.909 469.355 423.873 469.449 423.802 469.544C423.72 469.662 423.578 469.721 423.448 469.721C423.342 469.721 423.235 469.674 423.165 469.615ZM453.753 469.083C453.682 469 453.635 468.894 453.635 468.788C453.635 468.646 453.694 468.528 453.8 468.422C453.989 468.256 454.284 468.28 454.45 468.481C454.52 468.564 454.556 468.67 454.556 468.776C454.568 468.906 454.509 469.036 454.39 469.13C454.308 469.201 454.201 469.248 454.095 469.248C453.965 469.248 453.835 469.189 453.753 469.083ZM422.078 468.693C421.984 468.611 421.936 468.481 421.936 468.351C421.936 468.233 421.972 468.138 422.054 468.032C422.22 467.843 422.527 467.831 422.704 467.997C422.799 468.091 422.858 468.209 422.858 468.339C422.858 468.445 422.822 468.552 422.739 468.646C422.657 468.752 422.527 468.8 422.397 468.8C422.279 468.812 422.173 468.776 422.078 468.693ZM454.792 468.174C454.709 468.079 454.65 467.961 454.662 467.843C454.662 467.725 454.709 467.607 454.804 467.524C454.993 467.347 455.276 467.359 455.453 467.536C455.536 467.619 455.583 467.749 455.583 467.855C455.583 467.973 455.536 468.091 455.442 468.186C455.359 468.268 455.241 468.304 455.123 468.304C455.005 468.315 454.886 468.28 454.792 468.174ZM421.062 467.725C420.968 467.642 420.921 467.512 420.921 467.406C420.921 467.288 420.968 467.17 421.062 467.075C421.251 466.898 421.535 466.898 421.712 467.087C421.795 467.17 421.854 467.3 421.842 467.406C421.842 467.524 421.806 467.642 421.712 467.725C421.617 467.819 421.499 467.867 421.381 467.867C421.263 467.855 421.157 467.808 421.062 467.725ZM455.784 467.217C455.678 467.123 455.631 467.005 455.631 466.875C455.642 466.757 455.678 466.662 455.76 466.568C455.926 466.379 456.221 466.367 456.41 466.544C456.504 466.627 456.552 466.757 456.552 466.886C456.552 467.005 456.516 467.111 456.422 467.205C456.339 467.3 456.209 467.347 456.091 467.347C455.985 467.335 455.879 467.3 455.784 467.217ZM420.106 466.686C420.023 466.603 419.988 466.485 419.988 466.367C419.988 466.249 420.047 466.119 420.141 466.024C420.33 465.859 420.625 465.883 420.791 466.06C420.873 466.154 420.909 466.261 420.909 466.379C420.909 466.509 420.85 466.627 420.755 466.721C420.673 466.804 420.555 466.839 420.448 466.839C420.318 466.839 420.188 466.792 420.106 466.686ZM456.717 466.19C456.599 466.095 456.552 465.965 456.552 465.824C456.552 465.717 456.587 465.623 456.658 465.528C456.823 465.339 457.107 465.304 457.308 465.469C457.414 465.552 457.473 465.682 457.473 465.824C457.473 465.918 457.437 466.024 457.367 466.119C457.284 466.237 457.154 466.284 457.012 466.284C456.906 466.296 456.8 466.261 456.717 466.19ZM419.196 465.599C419.137 465.517 419.102 465.422 419.102 465.328C419.09 465.186 419.161 465.044 419.279 464.961C419.48 464.796 419.763 464.843 419.929 465.044C419.988 465.127 420.023 465.233 420.023 465.339C420.023 465.481 419.964 465.599 419.846 465.694C419.763 465.753 419.657 465.788 419.563 465.788C419.421 465.776 419.291 465.717 419.196 465.599ZM457.591 465.115C457.473 465.032 457.402 464.891 457.402 464.749C457.402 464.654 457.437 464.56 457.497 464.477C457.65 464.276 457.933 464.229 458.146 464.383C458.264 464.465 458.335 464.607 458.335 464.749C458.335 464.832 458.311 464.938 458.252 465.02C458.158 465.139 458.028 465.209 457.886 465.209C457.768 465.198 457.674 465.174 457.591 465.115ZM418.358 464.465C418.299 464.383 418.275 464.3 418.275 464.206C418.263 464.064 418.334 463.91 418.464 463.828C418.677 463.686 418.96 463.733 419.114 463.946C419.161 464.028 419.196 464.111 419.196 464.206C419.196 464.347 419.137 464.501 418.996 464.584C418.913 464.643 418.83 464.666 418.736 464.666C418.594 464.666 418.452 464.595 418.358 464.465ZM458.406 463.981C458.276 463.899 458.193 463.757 458.193 463.603C458.193 463.521 458.217 463.426 458.264 463.343C458.406 463.131 458.689 463.072 458.902 463.202C459.044 463.284 459.114 463.438 459.114 463.58C459.126 463.662 459.103 463.769 459.044 463.839C458.949 463.969 458.807 464.052 458.654 464.052C458.571 464.064 458.477 464.04 458.406 463.981ZM417.59 463.284C417.543 463.214 417.531 463.131 417.531 463.048C417.531 462.895 417.602 462.741 417.744 462.658C417.956 462.517 418.24 462.599 418.382 462.812H418.37C418.417 462.883 418.441 462.966 418.441 463.048C418.441 463.214 418.358 463.355 418.228 463.438C418.145 463.485 418.063 463.509 417.992 463.509C417.826 463.509 417.685 463.426 417.59 463.284ZM459.15 462.824C458.996 462.741 458.914 462.576 458.914 462.41C458.914 462.34 458.937 462.269 458.973 462.198C459.103 461.973 459.386 461.903 459.599 462.033C459.752 462.127 459.835 462.269 459.835 462.446C459.835 462.517 459.823 462.588 459.776 462.658C459.693 462.8 459.54 462.895 459.374 462.895C459.292 462.883 459.221 462.859 459.15 462.824ZM416.893 462.068C416.858 461.997 416.834 461.926 416.834 461.844C416.834 461.678 416.917 461.525 417.071 461.442C417.295 461.324 417.578 461.407 417.697 461.631C417.732 461.69 417.744 461.773 417.744 461.844C417.744 462.009 417.661 462.162 417.508 462.245C417.449 462.281 417.366 462.304 417.295 462.304C417.13 462.316 416.964 462.221 416.893 462.068ZM459.823 461.607C459.658 461.525 459.563 461.359 459.563 461.194C459.563 461.123 459.575 461.052 459.611 460.993C459.729 460.769 460 460.674 460.225 460.781C460.39 460.863 460.484 461.029 460.473 461.194C460.473 461.265 460.461 461.336 460.425 461.395C460.343 461.56 460.189 461.655 460.012 461.655C459.965 461.655 459.894 461.643 459.823 461.607ZM416.256 460.804C416.232 460.745 416.22 460.663 416.22 460.604C416.22 460.438 416.327 460.273 416.48 460.19C416.716 460.084 416.988 460.178 417.094 460.415C417.13 460.474 417.141 460.544 417.141 460.615C417.13 460.781 417.035 460.946 416.87 461.029C416.811 461.052 416.752 461.064 416.681 461.064C416.504 461.076 416.338 460.97 416.256 460.804ZM460.425 460.367C460.248 460.285 460.142 460.119 460.142 459.942C460.142 459.883 460.154 459.824 460.177 459.765C460.272 459.529 460.544 459.423 460.78 459.529C460.957 459.6 461.063 459.765 461.063 459.942C461.063 460.001 461.051 460.06 461.028 460.131C460.957 460.296 460.792 460.403 460.614 460.403C460.555 460.391 460.484 460.391 460.425 460.367ZM415.701 459.505C415.677 459.446 415.665 459.387 415.665 459.328C415.677 459.151 415.783 458.986 415.96 458.915C416.197 458.82 416.456 458.938 416.551 459.174C416.575 459.234 416.586 459.293 416.586 459.352C416.575 459.541 416.468 459.694 416.291 459.765C416.232 459.789 416.173 459.8 416.126 459.8C415.949 459.8 415.772 459.694 415.701 459.505ZM460.957 459.08C460.768 459.021 460.662 458.844 460.65 458.655C460.65 458.596 460.662 458.549 460.685 458.49C460.768 458.253 461.028 458.123 461.276 458.218C461.465 458.277 461.583 458.454 461.583 458.643C461.583 458.702 461.571 458.761 461.547 458.808C461.488 458.997 461.311 459.115 461.122 459.115C461.063 459.104 461.016 459.104 460.957 459.08ZM415.228 458.182C415.216 458.147 415.205 458.088 415.205 458.041C415.193 457.852 415.323 457.663 415.523 457.604C415.76 457.521 416.02 457.651 416.102 457.899C416.114 457.934 416.126 457.982 416.126 458.029C416.126 458.23 416.008 458.419 415.807 458.478C415.76 458.49 415.712 458.501 415.665 458.501C415.464 458.501 415.287 458.371 415.228 458.182ZM461.417 457.769C461.217 457.71 461.087 457.533 461.087 457.332C461.087 457.285 461.099 457.249 461.099 457.19C461.169 456.954 461.429 456.801 461.665 456.872C461.866 456.931 461.996 457.108 461.996 457.309C461.996 457.356 461.996 457.403 461.984 457.45C461.925 457.639 461.748 457.769 461.547 457.769C461.512 457.793 461.465 457.793 461.417 457.769ZM414.827 456.824C414.815 456.789 414.815 456.753 414.815 456.706C414.803 456.505 414.945 456.316 415.157 456.257C415.394 456.198 415.653 456.34 415.724 456.588C415.736 456.624 415.736 456.659 415.736 456.706C415.736 456.907 415.594 457.096 415.394 457.155C415.358 457.167 415.311 457.167 415.275 457.167C415.051 457.179 414.874 457.037 414.827 456.824ZM461.795 456.435C461.583 456.387 461.453 456.21 461.441 455.998C461.441 455.962 461.441 455.927 461.453 455.879C461.512 455.631 461.76 455.478 462.008 455.537C462.221 455.584 462.362 455.773 462.362 455.974C462.362 456.009 462.362 456.045 462.35 456.092C462.303 456.305 462.114 456.446 461.902 456.446C461.866 456.446 461.843 456.446 461.795 456.435ZM414.496 455.466C414.496 455.431 414.484 455.407 414.484 455.372C414.484 455.159 414.638 454.97 414.85 454.923C415.098 454.876 415.346 455.041 415.394 455.277C415.405 455.313 415.405 455.336 415.405 455.372C415.394 455.584 415.252 455.773 415.039 455.82C415.004 455.832 414.98 455.832 414.945 455.832C414.732 455.82 414.543 455.679 414.496 455.466ZM462.102 455.088C461.866 455.053 461.713 454.852 461.713 454.616C461.713 454.592 461.725 454.569 461.725 454.557C461.76 454.297 462.008 454.132 462.256 454.179C462.48 454.214 462.646 454.415 462.646 454.639C462.646 454.663 462.634 454.687 462.634 454.71C462.598 454.935 462.398 455.088 462.185 455.088C462.15 455.088 462.126 455.088 462.102 455.088ZM414.248 454.073C414.248 454.049 414.236 454.025 414.236 454.002C414.248 453.777 414.402 453.588 414.626 453.553C414.886 453.517 415.11 453.695 415.146 453.943C415.157 453.966 415.157 453.99 415.157 454.013C415.146 454.238 414.992 454.427 414.768 454.462C414.744 454.462 414.72 454.462 414.709 454.462C414.484 454.462 414.283 454.297 414.248 454.073ZM462.327 453.718C462.091 453.683 461.913 453.482 461.925 453.246C461.925 453.234 461.925 453.21 461.925 453.199C461.961 452.951 462.185 452.773 462.433 452.797C462.669 452.832 462.846 453.033 462.846 453.269C462.846 453.281 462.846 453.305 462.846 453.317C462.811 453.553 462.622 453.718 462.386 453.718C462.362 453.718 462.35 453.718 462.327 453.718ZM414.083 452.667C414.071 452.655 414.071 452.632 414.071 452.62C414.083 452.384 414.26 452.183 414.496 452.171C414.744 452.148 414.968 452.336 414.992 452.584C414.992 452.596 414.992 452.62 414.992 452.632C414.98 452.868 414.803 453.057 414.579 453.08C414.567 453.08 414.543 453.08 414.531 453.08C414.307 453.092 414.106 452.903 414.083 452.667ZM462.469 452.348C462.232 452.336 462.032 452.136 462.032 451.876C462.032 451.864 462.032 451.864 462.032 451.852H462.043C462.055 451.604 462.268 451.415 462.528 451.427C462.764 451.439 462.965 451.64 462.965 451.888C462.965 451.899 462.965 451.899 462.965 451.911C462.953 452.148 462.752 452.348 462.504 452.348C462.48 452.348 462.469 452.348 462.469 452.348ZM414 451.262C414 451.25 414 451.25 414 451.238C414.012 451.002 414.201 450.801 414.449 450.789C414.697 450.778 414.921 450.978 414.921 451.238C414.921 451.25 414.921 451.25 414.921 451.262C414.909 451.498 414.72 451.711 414.472 451.711C414.213 451.699 414.012 451.51 414 451.262ZM462.067 450.506C462.067 450.494 462.067 450.47 462.079 450.459C462.067 450.447 462.067 450.423 462.067 450.411C462.067 450.152 462.28 449.939 462.528 449.939C462.787 449.939 462.988 450.14 463 450.4C463 450.411 462.988 450.435 462.988 450.447C462.988 450.47 463 450.482 463 450.506C463 450.754 462.787 450.966 462.539 450.966C462.28 450.966 462.067 450.754 462.067 450.506ZM414.449 450.317C414.201 450.305 414.012 450.116 414 449.868C414 449.856 414 449.856 414 449.845C414 449.845 414 449.845 414 449.856C414.012 449.597 414.213 449.396 414.472 449.408C414.72 449.419 414.921 449.62 414.909 449.88C414.909 450.116 414.709 450.317 414.449 450.317ZM462.032 449.041C462.032 449.03 462.032 449.03 462.032 449.018C462.02 448.782 462.221 448.569 462.457 448.545C462.717 448.534 462.929 448.723 462.953 448.982C462.953 448.994 462.953 448.994 462.953 449.006C462.953 449.242 462.764 449.443 462.516 449.467C462.504 449.467 462.504 449.467 462.492 449.467C462.244 449.467 462.043 449.289 462.032 449.041ZM414.496 448.935C414.26 448.923 414.083 448.723 414.071 448.486C414.071 448.475 414.071 448.451 414.083 448.439C414.094 448.191 414.319 448.002 414.579 448.026C414.815 448.049 414.992 448.238 415.004 448.475C415.004 448.486 415.004 448.51 414.992 448.522C414.98 448.758 414.779 448.935 414.531 448.935C414.52 448.935 414.508 448.935 414.496 448.935ZM461.913 447.695C461.902 447.683 461.902 447.66 461.902 447.648C461.902 447.412 462.067 447.211 462.315 447.175C462.563 447.14 462.787 447.329 462.823 447.577C462.823 447.589 462.835 447.612 462.835 447.624C462.835 447.86 462.669 448.061 462.421 448.097C462.409 448.097 462.386 448.097 462.374 448.097C462.138 448.097 461.937 447.931 461.913 447.695ZM414.626 447.553C414.39 447.518 414.236 447.329 414.236 447.105C414.224 447.081 414.236 447.057 414.236 447.034C414.272 446.786 414.496 446.609 414.756 446.644C414.98 446.679 415.146 446.868 415.146 447.093C415.146 447.105 415.146 447.128 415.134 447.152C415.098 447.388 414.909 447.542 414.685 447.542C414.673 447.553 414.65 447.553 414.626 447.553ZM461.713 446.349C461.701 446.313 461.701 446.29 461.701 446.254C461.713 446.042 461.866 445.853 462.079 445.817C462.327 445.782 462.575 445.947 462.622 446.195C462.622 446.219 462.622 446.242 462.622 446.254C462.634 446.479 462.469 446.679 462.244 446.727C462.221 446.738 462.185 446.738 462.161 446.738C461.937 446.727 461.748 446.573 461.713 446.349ZM414.827 446.183C414.614 446.136 414.461 445.947 414.461 445.735C414.461 445.699 414.461 445.676 414.472 445.64C414.52 445.392 414.768 445.239 415.016 445.286C415.228 445.321 415.382 445.522 415.382 445.723C415.382 445.758 415.37 445.782 415.37 445.817C415.323 446.03 415.134 446.183 414.921 446.183C414.898 446.195 414.862 446.195 414.827 446.183ZM461.441 445.026C461.429 444.991 461.429 444.943 461.429 444.908C461.441 444.707 461.571 444.518 461.784 444.471C462.032 444.412 462.28 444.554 462.339 444.813C462.35 444.849 462.35 444.896 462.35 444.932C462.35 445.144 462.209 445.321 461.996 445.38C461.961 445.392 461.937 445.392 461.89 445.392C461.665 445.38 461.488 445.227 461.441 445.026ZM415.122 444.825C414.909 444.778 414.779 444.589 414.779 444.388C414.779 444.353 414.791 444.306 414.791 444.27C414.791 444.27 414.791 444.27 414.791 444.258C414.85 444.022 415.11 443.869 415.358 443.94C415.571 443.999 415.701 444.176 415.701 444.388C415.701 444.424 415.689 444.471 415.689 444.506C415.63 444.707 415.453 444.849 415.24 444.849C415.205 444.849 415.157 444.849 415.122 444.825ZM461.087 443.703C461.075 443.656 461.063 443.609 461.063 443.562C461.075 443.361 461.205 443.184 461.394 443.125C461.63 443.054 461.89 443.195 461.961 443.443C461.973 443.491 461.984 443.526 461.984 443.585C461.984 443.774 461.854 443.951 461.654 444.022C461.618 444.034 461.559 444.034 461.524 444.034C461.323 444.034 461.134 443.904 461.087 443.703ZM415.476 443.491C415.287 443.432 415.157 443.255 415.157 443.042C415.157 443.007 415.169 442.959 415.181 442.9C415.252 442.664 415.523 442.534 415.76 442.605C415.949 442.664 416.079 442.841 416.079 443.042C416.079 443.077 416.067 443.125 416.055 443.184C415.996 443.373 415.819 443.503 415.618 443.503C415.583 443.514 415.523 443.503 415.476 443.491ZM460.65 442.416C460.626 442.357 460.614 442.298 460.614 442.251C460.614 442.062 460.732 441.885 460.921 441.814C461.158 441.731 461.417 441.849 461.512 442.085C461.524 442.144 461.536 442.192 461.536 442.251C461.536 442.44 461.417 442.617 461.24 442.688C461.181 442.699 461.134 442.711 461.075 442.711C460.898 442.723 460.721 442.605 460.65 442.416ZM415.925 442.18C415.736 442.109 415.63 441.932 415.63 441.743C415.63 441.696 415.642 441.637 415.665 441.589C415.748 441.353 416.02 441.235 416.256 441.329C416.445 441.4 416.551 441.589 416.551 441.766C416.551 441.825 416.539 441.873 416.516 441.932C416.445 442.109 416.279 442.227 416.09 442.227C416.031 442.215 415.984 442.203 415.925 442.18ZM460.142 441.152C460.118 441.093 460.107 441.034 460.107 440.975C460.107 440.798 460.201 440.621 460.378 440.55C460.614 440.444 460.886 440.562 460.98 440.786C461.016 440.845 461.016 440.904 461.016 440.963C461.016 441.141 460.91 441.318 460.732 441.389C460.673 441.412 460.614 441.424 460.555 441.424C460.402 441.436 460.225 441.329 460.142 441.152ZM416.445 440.893C416.279 440.822 416.185 440.656 416.173 440.479C416.173 440.42 416.185 440.337 416.208 440.278C416.327 440.054 416.598 439.948 416.823 440.054C416.988 440.137 417.082 440.29 417.094 440.467C417.094 440.526 417.082 440.609 417.047 440.668C416.976 440.833 416.811 440.928 416.634 440.928C416.563 440.928 416.504 440.928 416.445 440.893ZM459.575 439.936C459.54 439.865 459.528 439.794 459.528 439.735C459.528 439.558 459.611 439.393 459.788 439.322C460.012 439.204 460.284 439.298 460.402 439.523C460.437 439.582 460.449 439.652 460.449 439.723C460.461 439.889 460.355 440.066 460.201 440.137C460.142 440.172 460.059 440.184 459.988 440.184C459.823 440.184 459.658 440.089 459.575 439.936ZM417.035 439.641C416.882 439.558 416.799 439.404 416.799 439.239C416.799 439.168 416.811 439.097 416.846 439.027C416.964 438.802 417.248 438.708 417.472 438.838C417.626 438.92 417.708 439.074 417.708 439.239C417.708 439.31 417.697 439.393 417.649 439.463C417.567 439.617 417.413 439.7 417.248 439.7C417.177 439.688 417.106 439.676 417.035 439.641ZM458.937 438.731C458.902 438.66 458.878 438.566 458.878 438.495C458.878 438.342 458.961 438.188 459.103 438.105C459.315 437.975 459.599 438.058 459.729 438.271C459.764 438.342 459.788 438.436 459.788 438.507C459.776 438.66 459.705 438.814 459.551 438.897C459.481 438.932 459.398 438.956 459.327 438.956C459.174 438.967 459.02 438.885 458.937 438.731ZM417.697 438.424C417.555 438.342 417.484 438.188 417.484 438.034C417.484 437.952 417.508 437.869 417.543 437.798C417.673 437.586 417.956 437.515 418.181 437.645C418.322 437.727 418.393 437.881 418.393 438.034C418.393 438.117 418.37 438.2 418.334 438.271C418.252 438.412 418.098 438.483 417.945 438.483C417.85 438.483 417.779 438.46 417.697 438.424ZM458.229 437.586C458.17 437.503 458.146 437.409 458.146 437.326C458.158 437.184 458.229 437.031 458.359 436.948C458.571 436.806 458.855 436.865 458.996 437.09C459.055 437.172 459.079 437.255 459.079 437.349C459.067 437.491 458.996 437.645 458.866 437.727C458.784 437.775 458.701 437.798 458.618 437.798C458.453 437.786 458.311 437.716 458.229 437.586ZM418.429 437.243C418.299 437.149 418.228 437.007 418.228 436.853C418.24 436.771 418.263 436.676 418.311 436.594C418.452 436.381 418.736 436.334 418.948 436.476C419.078 436.57 419.149 436.712 419.149 436.865C419.149 436.96 419.114 437.042 419.067 437.125C418.972 437.255 418.83 437.326 418.677 437.326C418.594 437.326 418.511 437.29 418.429 437.243ZM457.437 436.464C457.378 436.381 457.343 436.287 457.343 436.192C457.343 436.05 457.402 435.909 457.532 435.826C457.745 435.672 458.028 435.72 458.181 435.92C458.241 436.003 458.264 436.098 458.264 436.192C458.264 436.334 458.205 436.476 458.075 436.558C457.993 436.617 457.898 436.653 457.804 436.653C457.674 436.653 457.532 436.582 457.437 436.464ZM419.22 436.109C419.102 436.015 419.043 435.873 419.043 435.743C419.055 435.649 419.078 435.554 419.137 435.472C419.303 435.271 419.586 435.235 419.787 435.389C419.905 435.472 419.964 435.613 419.964 435.755C419.952 435.85 419.929 435.944 419.87 436.027C419.775 436.145 419.633 436.204 419.503 436.204C419.409 436.204 419.315 436.18 419.22 436.109ZM456.611 435.401C456.54 435.318 456.504 435.212 456.504 435.106C456.504 434.976 456.564 434.846 456.67 434.751C456.859 434.586 457.154 434.61 457.319 434.81C457.378 434.893 457.426 434.999 457.426 435.106C457.426 435.235 457.367 435.365 457.26 435.46C457.178 435.531 457.071 435.566 456.965 435.566C456.823 435.566 456.693 435.507 456.611 435.401ZM420.082 435.023C419.988 434.928 419.929 434.81 419.929 434.68C419.929 434.562 419.964 434.468 420.047 434.362C420.212 434.173 420.507 434.149 420.696 434.326C420.791 434.421 420.85 434.539 420.85 434.669C420.85 434.787 420.814 434.881 420.732 434.987C420.649 435.094 420.519 435.141 420.389 435.141C420.283 435.141 420.177 435.094 420.082 435.023ZM455.701 434.385C455.619 434.302 455.583 434.196 455.583 434.078C455.571 433.948 455.631 433.83 455.725 433.736C455.914 433.57 456.197 433.57 456.375 433.759C456.457 433.842 456.493 433.96 456.493 434.066C456.493 434.196 456.445 434.314 456.351 434.409C456.268 434.491 456.15 434.527 456.032 434.527C455.914 434.527 455.796 434.48 455.701 434.385ZM421.015 433.995C420.933 433.913 420.873 433.783 420.873 433.665C420.873 433.547 420.909 433.429 421.003 433.346C421.181 433.157 421.476 433.157 421.653 433.334C421.736 433.417 421.795 433.547 421.795 433.653C421.795 433.771 421.759 433.889 421.665 433.984C421.582 434.066 421.452 434.125 421.334 434.125C421.216 434.125 421.098 434.078 421.015 433.995ZM454.745 433.417C454.65 433.322 454.603 433.204 454.603 433.074C454.615 432.956 454.65 432.85 454.733 432.767C454.91 432.578 455.205 432.578 455.382 432.755C455.477 432.838 455.524 432.968 455.524 433.098C455.524 433.216 455.477 433.322 455.394 433.405C455.312 433.499 455.182 433.547 455.064 433.547C454.946 433.547 454.839 433.499 454.745 433.417ZM421.995 433.015C421.913 432.921 421.877 432.814 421.877 432.696C421.877 432.578 421.925 432.448 422.031 432.354C422.22 432.188 422.503 432.2 422.68 432.389C422.763 432.472 422.799 432.59 422.799 432.696C422.799 432.826 422.751 432.944 422.657 433.039H422.645C422.562 433.121 422.456 433.157 422.338 433.157C422.208 433.169 422.078 433.11 421.995 433.015ZM453.741 432.507C453.623 432.413 453.576 432.283 453.576 432.141C453.576 432.035 453.611 431.94 453.682 431.846C453.847 431.657 454.142 431.633 454.331 431.787C454.438 431.881 454.497 432.011 454.497 432.153C454.497 432.259 454.461 432.354 454.379 432.448C454.296 432.555 454.166 432.614 454.036 432.614C453.93 432.614 453.824 432.59 453.741 432.507ZM423.023 432.082C422.952 432 422.917 431.893 422.917 431.787C422.928 431.645 422.976 431.527 423.094 431.433C423.283 431.267 423.578 431.303 423.743 431.492C423.814 431.574 423.85 431.681 423.85 431.787C423.85 431.917 423.791 432.047 423.672 432.141C423.59 432.2 423.483 432.248 423.389 432.248C423.247 432.259 423.117 432.2 423.023 432.082ZM452.678 431.657C452.56 431.574 452.489 431.433 452.489 431.291C452.489 431.196 452.524 431.102 452.584 431.019C452.737 430.819 453.032 430.783 453.233 430.925C453.351 431.019 453.41 431.149 453.41 431.291C453.41 431.385 453.387 431.48 453.328 431.563C453.245 431.681 453.103 431.752 452.961 431.752C452.855 431.752 452.761 431.728 452.678 431.657ZM424.109 431.22C424.05 431.137 424.027 431.043 424.027 430.948C424.027 430.807 424.098 430.677 424.216 430.582C424.428 430.429 424.712 430.476 424.865 430.689C424.924 430.771 424.948 430.866 424.948 430.96C424.948 431.102 424.889 431.244 424.759 431.326C424.676 431.385 424.582 431.409 424.487 431.409C424.346 431.421 424.204 431.35 424.109 431.22ZM451.568 430.866C451.438 430.783 451.367 430.63 451.367 430.488C451.367 430.405 451.391 430.311 451.438 430.228C451.58 430.015 451.863 429.968 452.087 430.098C452.217 430.193 452.288 430.334 452.288 430.488C452.288 430.582 452.265 430.665 452.206 430.748C452.123 430.878 451.969 430.948 451.828 430.948C451.733 430.948 451.651 430.925 451.568 430.866ZM425.231 430.441C425.196 430.358 425.172 430.275 425.172 430.204C425.161 430.051 425.243 429.897 425.385 429.815C425.597 429.673 425.881 429.744 426.023 429.956C426.07 430.027 426.094 430.122 426.094 430.193C426.094 430.346 426.023 430.5 425.881 430.582C425.81 430.63 425.716 430.653 425.645 430.653C425.479 430.641 425.326 430.57 425.231 430.441ZM450.41 430.157C450.269 430.074 450.186 429.921 450.186 429.767C450.186 429.685 450.198 429.602 450.245 429.531C450.375 429.319 450.658 429.236 450.871 429.366C451.013 429.449 451.095 429.602 451.095 429.756C451.095 429.838 451.084 429.921 451.036 429.992C450.954 430.134 450.8 430.216 450.647 430.216C450.564 430.204 450.493 430.193 450.41 430.157ZM426.424 429.708C426.389 429.638 426.365 429.567 426.365 429.496C426.365 429.33 426.448 429.177 426.601 429.082C426.814 428.964 427.097 429.047 427.215 429.26C427.251 429.33 427.275 429.401 427.275 429.472C427.275 429.638 427.192 429.791 427.038 429.886C426.979 429.921 426.897 429.945 426.826 429.945C426.649 429.933 426.507 429.85 426.424 429.708ZM449.229 429.496C449.076 429.413 448.981 429.26 448.981 429.106C448.981 429.035 448.993 428.953 449.029 428.882C449.147 428.657 449.418 428.563 449.643 428.693C449.796 428.764 449.891 428.929 449.891 429.082C449.891 429.153 449.879 429.236 449.844 429.307C449.761 429.46 449.607 429.555 449.43 429.555C449.359 429.555 449.289 429.531 449.229 429.496ZM427.641 429.047C427.605 428.988 427.593 428.905 427.593 428.846C427.593 428.681 427.688 428.504 427.853 428.433C428.089 428.327 428.361 428.421 428.467 428.645C428.503 428.705 428.515 428.775 428.515 428.846C428.515 429.012 428.42 429.177 428.255 429.26C428.196 429.295 428.113 429.307 428.054 429.307C427.877 429.295 427.711 429.201 427.641 429.047ZM447.989 428.917C447.824 428.834 447.718 428.669 447.718 428.492C447.718 428.433 447.73 428.374 447.753 428.303C447.859 428.067 448.131 427.96 448.367 428.067C448.533 428.149 448.639 428.315 448.639 428.492C448.627 428.551 448.627 428.61 448.604 428.669C448.521 428.846 448.356 428.953 448.178 428.953C448.119 428.953 448.06 428.941 447.989 428.917ZM428.881 428.445C428.857 428.386 428.845 428.327 428.845 428.268C428.845 428.09 428.952 427.925 429.129 427.854C429.365 427.76 429.625 427.866 429.719 428.102C429.743 428.161 429.755 428.22 429.755 428.279C429.755 428.456 429.637 428.622 429.471 428.705C429.412 428.716 429.353 428.74 429.294 428.74C429.129 428.74 428.952 428.634 428.881 428.445ZM446.738 428.397C446.549 428.327 446.43 428.149 446.442 427.96C446.442 427.913 446.454 427.854 446.466 427.795C446.549 427.559 446.82 427.441 447.056 427.535C447.245 427.606 447.352 427.783 447.352 427.972C447.352 428.02 447.34 428.079 447.316 428.126C447.257 428.315 447.08 428.433 446.891 428.433C446.844 428.433 446.785 428.409 446.738 428.397ZM430.168 427.937C430.156 427.89 430.144 427.831 430.144 427.783C430.156 427.594 430.262 427.417 430.463 427.358C430.699 427.275 430.959 427.394 431.042 427.642C431.066 427.689 431.077 427.748 431.077 427.795C431.066 427.984 430.959 428.161 430.758 428.232C430.711 428.244 430.664 428.256 430.617 428.256C430.416 428.244 430.239 428.126 430.168 427.937ZM445.45 427.96C445.249 427.901 445.12 427.712 445.12 427.512C445.12 427.464 445.131 427.429 445.143 427.37C445.214 427.134 445.474 426.992 445.722 427.063C445.911 427.122 446.041 427.299 446.041 427.5C446.041 427.535 446.029 427.583 446.017 427.642C445.958 427.831 445.781 427.96 445.568 427.96C445.533 427.984 445.486 427.972 445.45 427.96ZM431.479 427.5C431.467 427.464 431.467 427.417 431.455 427.382C431.455 427.181 431.585 426.992 431.798 426.933C432.034 426.862 432.294 427.004 432.365 427.252C432.376 427.299 432.376 427.346 432.376 427.394C432.365 427.594 432.235 427.772 432.034 427.831C431.999 427.842 431.951 427.842 431.916 427.842C431.727 427.831 431.538 427.701 431.479 427.5ZM444.139 427.606C443.927 427.547 443.797 427.37 443.797 427.169C443.797 427.134 443.797 427.087 443.809 427.051C443.868 426.815 444.128 426.661 444.376 426.72C444.376 426.72 444.376 426.72 444.364 426.72C444.576 426.768 444.718 426.957 444.718 427.157C444.718 427.193 444.706 427.24 444.706 427.275C444.659 427.488 444.47 427.618 444.269 427.618C444.21 427.606 444.175 427.606 444.139 427.606ZM432.825 427.122C432.813 427.087 432.813 427.063 432.813 427.027C432.813 426.815 432.955 426.614 433.18 426.567C433.428 426.508 433.676 426.661 433.723 426.909C433.735 426.945 433.735 426.968 433.735 427.004C433.735 427.216 433.593 427.417 433.369 427.464C433.333 427.464 433.298 427.476 433.262 427.476C433.05 427.488 432.872 427.346 432.825 427.122ZM442.805 427.311C442.592 427.275 442.439 427.087 442.427 426.862C442.427 426.827 442.439 426.803 442.439 426.768C442.486 426.52 442.734 426.354 442.982 426.402C443.195 426.437 443.348 426.626 443.36 426.839C443.36 426.874 443.348 426.898 443.348 426.933C443.313 427.157 443.112 427.311 442.899 427.311C442.864 427.323 442.84 427.323 442.805 427.311ZM434.172 426.85C434.16 426.827 434.16 426.803 434.16 426.779C434.16 426.555 434.325 426.354 434.55 426.319C434.798 426.283 435.046 426.449 435.081 426.697C435.081 426.72 435.081 426.744 435.081 426.768C435.093 426.992 434.927 427.181 434.703 427.228C434.668 427.228 434.644 427.228 434.62 427.228C434.408 427.228 434.207 427.075 434.172 426.85ZM441.47 427.098C441.234 427.075 441.069 426.862 441.069 426.626C441.069 426.614 441.081 426.591 441.081 426.579C441.116 426.331 441.34 426.154 441.6 426.189C441.836 426.224 442.002 426.425 442.002 426.661C442.002 426.673 442.002 426.697 441.99 426.709C441.966 426.945 441.765 427.11 441.541 427.11C441.506 427.11 441.494 427.11 441.47 427.098ZM435.542 426.638C435.542 426.626 435.542 426.602 435.542 426.591C435.542 426.354 435.719 426.154 435.955 426.13C436.203 426.106 436.427 426.295 436.463 426.543C436.463 426.555 436.463 426.579 436.463 426.591C436.463 426.827 436.286 427.027 436.049 427.051C436.038 427.051 436.014 427.051 436.002 427.051C435.766 427.051 435.565 426.874 435.542 426.638ZM440.124 426.98C439.876 426.968 439.687 426.756 439.687 426.508C439.687 426.496 439.687 426.496 439.687 426.484C439.699 426.236 439.923 426.047 440.183 426.059C440.431 426.071 440.62 426.283 440.608 426.531C440.608 426.543 440.608 426.543 440.608 426.555C440.596 426.791 440.396 426.98 440.148 426.98C440.136 426.98 440.124 426.98 440.124 426.98ZM436.912 426.508C436.912 426.496 436.912 426.496 436.912 426.484C436.912 426.248 437.101 426.035 437.349 426.024C437.597 426.012 437.821 426.213 437.833 426.461C437.833 426.472 437.833 426.472 437.833 426.484C437.821 426.72 437.644 426.921 437.396 426.933C437.384 426.933 437.384 426.933 437.372 426.933C437.136 426.945 436.935 426.744 436.912 426.508ZM438.766 426.921C438.506 426.921 438.305 426.709 438.305 426.461C438.317 426.201 438.518 426 438.778 426C439.037 426 439.238 426.213 439.238 426.472C439.215 426.72 439.014 426.921 438.766 426.921Z" fill="#E9282A"/>
<path d="M438.612 451.758C439.12 451.817 439.073 452.289 439.238 452.596C439.356 452.939 439.463 453.281 439.463 453.647C439.451 454.014 439.51 454.391 439.486 454.758C439.392 457.025 438.695 459.127 437.868 461.206C437.514 462.08 437.1 462.93 436.758 463.816C436.664 464.052 436.557 464.253 436.297 464.347C431.066 463.84 425.834 463.296 420.566 463.166C420.496 463.166 420.484 463.072 420.543 463.048C422.751 462.257 436.475 457.108 438.612 451.758Z" fill="#1C1F3F"/>
<path d="M438.612 451.758C438.612 451.758 439.144 452.136 439.203 452.183C440.679 453.47 441.86 455.006 442.876 456.659C443.171 457.072 443.478 457.521 443.726 457.911C443.679 457.994 443.631 458.064 443.596 458.135C442.368 460.237 440.832 462.127 439.226 463.946C439.203 463.981 439.179 464.017 439.155 464.04C438.789 464.501 438.683 464.501 438.47 464.548C439.651 455.584 439.297 452.62 438.612 451.758Z" fill="#478E75"/>
<path d="M443.915 445.05C445.155 446.148 446.419 447.234 447.517 448.486C447.706 448.699 447.942 448.888 447.895 449.219C450.304 447.447 452.961 446.207 455.867 445.475C457 445.191 458.146 445.002 459.292 444.766C459.398 444.743 459.882 444.624 459.929 444.613C460.059 444.565 460.036 444.506 459.87 444.506C459.41 444.495 458.949 444.483 458.489 444.459C455.288 444.258 452.147 443.798 449.383 441.991C449.135 441.825 448.97 441.885 448.722 442.003C447.647 442.546 446.667 443.231 445.651 443.88L445.639 443.892C445.309 444.093 443.915 445.05 443.915 445.05Z" fill="#4CA680"/>
<path d="M438.612 451.758C438.612 451.758 439.144 452.289 439.226 452.384C440.372 453.588 442.687 456.21 443.513 458.253C443.596 458.112 443.714 457.911 443.714 457.911C440.726 448.404 431.172 444.412 427.582 444.117C425.692 444.518 423.247 444.873 421.074 445.203C421.027 445.215 421.027 445.286 421.086 445.286C423.07 445.345 431.373 445.9 438.612 451.758Z" fill="#2D604D"/>
<path d="M438.459 464.56C438.305 464.584 438.152 464.572 437.998 464.56C437.431 464.513 436.852 464.418 436.286 464.347C437.408 462.127 438.47 459.682 439.002 457.096C439.155 456.376 439.415 453.281 438.612 451.746C439.321 452.561 439.675 454.214 439.663 457.19C439.663 457.297 439.663 457.391 439.663 457.486C439.663 457.58 439.663 457.675 439.663 457.769C439.663 457.887 439.663 457.994 439.651 458.088C439.581 459.848 439.297 461.596 438.825 463.32C438.73 463.603 438.459 464.56 438.459 464.56Z" fill="#4CA680"/>
<path d="M447.611 448.333C446.513 447.093 445.273 445.994 444.009 444.92C442.108 443.278 440.065 441.837 437.939 440.515C437.927 440.515 437.927 440.503 437.915 440.503C437.349 440.137 436.368 439.558 435.246 438.897C435.246 438.897 435.235 438.897 435.235 438.908C432.754 437.479 429.507 435.672 428.633 435.188C428.609 435.176 428.585 435.212 428.609 435.224L428.633 435.247C429.731 436.204 432.601 439.18 433.25 439.841C433.286 439.877 433.274 439.936 433.227 439.959C433.191 439.983 433.156 439.995 433.132 440.007H433.121C433.109 440.007 433.109 440.018 433.109 440.018L433.121 440.007C430.57 441.318 427.865 441.884 425.101 442.18C423.743 442.321 422.385 442.392 421.027 442.487C420.909 442.499 420.661 442.499 420.649 442.569C420.649 442.605 420.673 442.617 420.72 442.629C422.905 442.912 425.066 443.29 427.369 443.998C427.369 443.998 440.159 448.758 443.714 457.887C443.95 457.462 444.187 457.049 444.423 456.623C445.745 454.226 446.844 451.722 447.895 449.195C448.143 448.817 447.836 448.593 447.611 448.333Z" fill="#357463"/>
<path d="M433.121 440.03L433.109 440.042C433.109 440.042 433.121 440.042 433.121 440.03Z" fill="#1C1F3F"/>
<path d="M430.841 435.235C430.664 435.011 430.475 434.787 430.298 434.562C430.203 434.444 429.495 433.629 430.381 434.361C432.648 436.18 435.01 437.822 437.667 439.038C439.226 439.759 440.832 440.29 442.545 440.479C443.124 440.538 443.395 440.786 443.561 441.318C443.891 442.38 444.293 443.479 444.647 444.542C444.352 444.743 444.269 444.79 444.057 444.931C441.399 442.688 438.494 440.774 435.459 439.015C435.057 438.802 435.057 438.802 434.679 439.097C434.361 439.345 434.183 439.381 434.006 439.227C433.994 439.239 431.503 436.109 430.841 435.235Z" fill="#87C9AA"/>
</g>
<path d="M361.883 800.341C361.883 805.956 357.268 810.531 351.605 810.531C345.941 810.531 341.327 805.956 341.327 800.341C341.327 794.726 345.941 790.151 351.605 790.151C357.268 790.151 361.883 794.726 361.883 800.341Z" fill="#FFD943"/>
<path d="M521.927 788.279C521.927 792.438 518.571 795.558 514.585 795.558C510.6 795.558 507.244 792.23 507.244 788.279C507.034 784.327 510.39 781 514.585 781C518.571 781 521.927 784.327 521.927 788.279Z" fill="#FFD943"/>
<path d="M369.644 816.77C369.644 819.058 367.756 820.721 365.659 820.721C363.351 820.721 361.673 818.85 361.673 816.77C361.673 814.69 363.561 812.819 365.659 812.819C367.756 812.819 369.644 814.69 369.644 816.77Z" fill="#FFD943"/>
<path d="M514.585 814.69C514.585 816.978 512.698 818.642 510.6 818.642C508.293 818.642 506.615 816.77 506.615 814.69C506.615 812.403 508.502 810.739 510.6 810.739C512.698 810.739 514.585 812.611 514.585 814.69Z" fill="#FFD943"/>
<path d="M545 813.027C545 815.106 543.322 816.978 541.015 816.978C538.917 816.978 537.029 815.314 537.029 813.027C537.029 810.947 538.707 809.075 541.015 809.075C543.322 809.075 545 810.739 545 813.027Z" fill="#FFD943"/>
<path d="M337.971 824.049C337.971 826.336 336.083 828 333.985 828C331.888 828 330 826.336 330 824.049C330 821.761 331.888 820.097 333.985 820.097C336.083 820.097 337.971 821.969 337.971 824.049Z" fill="#FFD943"/>
<defs>
<linearGradient id="paint0_linear" x1="439.387" y1="641.673" x2="439.387" y2="809" gradientUnits="userSpaceOnUse">
<stop stop-color="#FFD943"/>
<stop offset="1" stop-color="#FFD943" stop-opacity="0"/>
</linearGradient>
<linearGradient id="paint1_linear" x1="439.5" y1="641.673" x2="439.5" y2="809" gradientUnits="userSpaceOnUse">
<stop stop-color="#FFE083"/>
<stop offset="1" stop-color="#FFE083" stop-opacity="0"/>
</linearGradient>
<clipPath id="clip0">
<rect width="880" height="716" fill="white"/>
</clipPath>
<clipPath id="clip1">
<rect width="49" height="49" fill="white" transform="translate(414 426)"/>
</clipPath>
</defs>
</svg>
