<?xml version="1.0" encoding="utf-8"?>
<!-- Generator: Adobe Illustrator 22.1.0, SVG Export Plug-In . SVG Version: 6.00 Build 0)  -->
<svg version="1.1" id="Layer_1" xmlns="http://www.w3.org/2000/svg" xmlns:xlink="http://www.w3.org/1999/xlink" x="0px" y="0px"
	 viewBox="0 0 975 855" style="enable-background:new 0 0 975 855;" xml:space="preserve">
<style type="text/css">
	.st0{clip-path:url(#SVGID_2_);}
	.st1{fill:#DEF1FF;}
	.st2{fill:#0072C4;}
	.st3{fill:none;stroke:#0072C4;stroke-width:0.6798;stroke-miterlimit:10;}
	.st4{fill:#06D2FF;}
	.st5{fill:#0042B6;}
	.st6{opacity:0.63;fill:#E2E2E2;enable-background:new    ;}
	.st7{fill:#3BADFF;}
	.st8{fill:#FFFFFF;}
	.st9{fill:url(#SVGID_3_);}
	.st10{fill:url(#SVGID_4_);}
	.st11{fill:#FF9600;}
	.st12{fill:#FFD943;}
	.st13{fill:#00378C;}
	.st14{clip-path:url(#SVGID_6_);}
	.st15{fill:#E9282A;}
	.st16{fill:#1C1F3F;}
	.st17{fill:#478E75;}
	.st18{fill:#4CA680;}
	.st19{fill:#2D604D;}
	.st20{fill:#357463;}
	.st21{fill:#87C9AA;}
	.st22{fill:#363F5A;}
	.st23{fill:url(#SVGID_7_);}
	.st24{fill:url(#SVGID_8_);}
	.st25{fill:url(#SVGID_9_);}
	.st26{fill:url(#SVGID_10_);}
	.st27{fill:url(#SVGID_11_);}
</style>
<g>
	<defs>
		<rect id="SVGID_1_" x="41" y="27" width="880" height="716"/>
	</defs>
	<clipPath id="SVGID_2_">
		<use xlink:href="#SVGID_1_"  style="overflow:visible;"/>
	</clipPath>
	<g class="st0">
		<path class="st1" d="M640.6,594.3c9.1-11.6,17.1-24.3,23.7-37.9c20.2-41.8,25.6-89.6,15-134.8c-14-60.4-54-110.5-109.6-137.5
			l-0.6-0.3c-27.8-13.3-57.2-20-87.8-20c-30.2,0-60.6,6.9-88,20c-42.1,20.2-75,53-95.3,95c-6.5,13.6-11.6,27.7-15,42.1
			c-14,59.5,0.1,123.9,37.8,172.3L136,740.3C95.9,689.2,66.9,628.7,52.5,565c-14.7-64.5-14.6-132.6,0.4-196.9
			c7.4-31.5,18.2-62.6,32.5-92.1c22.1-45.7,51.5-86.8,87.3-122c34.6-34.2,74.4-62.2,118.4-83.3C350.3,42.5,416,27.4,481.4,27.4
			c66.2,0,130.4,14.7,190.4,43.8l0.6,0.3c120.6,58.5,207,167.1,237,298c10.9,47.7,13.8,96.5,8.7,145c-5.3,50.2-19.3,98.9-41.5,144.7
			c-14.3,29.5-31.6,57.2-51.8,82.5L640.6,594.3z"/>
		<path class="st2" d="M481.4,28c66.2,0,130.2,14.7,190.2,43.6l0.7,0.3c60.8,29.6,112.7,71.5,154.2,124.5
			c39.6,50.5,68,110.5,82.4,173.3c10.9,47.7,13.8,96.5,8.7,144.9c-5.3,50.1-19.3,98.7-41.5,144.6c-14.1,29.3-31.5,56.9-51.3,82.1
			L641.3,594.2c9.1-11.5,16.9-24.2,23.4-37.6c20.3-41.8,25.6-89.9,15.2-135.1c-14-60.6-54.1-110.8-109.9-137.8l-0.7-0.3
			c-27.8-13.4-57.4-20.2-88-20.2c-30.3,0-60.8,6.9-88.1,20c-42.1,20.2-75.2,53-95.6,95.3c-6.5,13.6-11.6,27.7-15,42.1v0.1
			c-14,59.5,0,123.9,37.7,172.3L136.2,739.5C96,688.6,67.3,628.2,52.9,564.8c-14.6-64.5-14.4-132.5,0.4-196.6v-0.1
			c7.4-31.5,18.2-62.5,32.5-91.9c22.1-45.7,51.3-86.6,87.1-121.9c34.6-34,74.3-62,118.3-83C350.4,42.9,416.2,28,481.4,28z M481.4,27
			C415.2,27,350.1,42,291,70.3c-86.8,41.6-160.8,111.8-206,205.4c-14.6,30.1-25.3,61-32.5,92.2c-30.8,131.9,1.6,269.4,83.4,373.1
			l185.5-147.6c-37.7-47.9-52.4-111.4-38.1-172.3c3.4-14.3,8.2-28.3,15-42.1c20.9-43.2,55-75.6,95-94.9c27.2-13.1,57.2-20,87.8-20
			c29.4,0,59.3,6.5,87.7,20l0.7,0.3c57.5,27.9,95.9,79.3,109.3,137.2c10.2,43.6,6,90.9-15,134.4c-6.6,13.9-14.7,26.5-23.8,38.2
			l184.9,148.2c20-25.2,37.5-52.9,52.1-83.1c45.3-93.9,54.4-195.8,32.8-290.1C881.1,243.6,797.7,131.6,672.6,71.1l-0.7-0.3
			C610.4,41,545.4,27,481.4,27z"/>
		<path class="st3" d="M568.8,284.3L671.9,70.8"/>
		<path class="st3" d="M393.4,284.3L291,70.3"/>
		<path class="st3" d="M283.3,421.2L52.5,368"/>
		<path class="st3" d="M909.8,369.5l-231,52.3"/>
	</g>
</g>
<path class="st4" d="M454.2,651l1.4,17.7h49.6l2.5-17L454.2,651z"/>
<path class="st5" d="M429.7,497.3l-23.3,34.6c-8.4,12.5-12.9,27.2-13.1,42.3l-0.2,56.8l49.9-52.8L429.7,497.3z"/>
<path class="st6" d="M429.5,485.3c0,0-24.3,77-11.6,132.9l25.8-30.8l-7.5-95.6L429.5,485.3z"/>
<path class="st5" d="M531.7,497.5l23.3,34.9c8.4,12.5,12.9,27.2,12.7,42.3l-0.2,57.1l-49.6-53.2L531.7,497.5z"/>
<path class="st6" d="M526.5,471.2c0,0,27.4,85.6,18.1,147.9l-33.5-44.2l14.3-82.2L526.5,471.2z"/>
<path class="st7" d="M478.5,327c0,0-29.5,52.8-45.3,147.9c-15.9,95.1-2,150.6-2,150.6h100.2C531.5,625.4,556.2,454.9,478.5,327z"/>
<path class="st8" d="M512.2,477.2c0,17.7-14.5,31.9-32.2,31.9c-17.7,0-32-14.5-32-32.2c0-17.7,14.5-31.9,32.2-31.9
	C498.1,445,512.4,459.5,512.2,477.2z"/>
<path class="st5" d="M451.3,625.2h59.8l4.5,30.3h-68.9L451.3,625.2z"/>
<linearGradient id="SVGID_3_" gradientUnits="userSpaceOnUse" x1="480.387" y1="187.327" x2="480.387" y2="20" gradientTransform="matrix(1 0 0 -1 0 856)">
	<stop  offset="0" style="stop-color:#FFD943"/>
	<stop  offset="1" style="stop-color:#FFD943;stop-opacity:0"/>
</linearGradient>
<path class="st9" d="M455.6,668.7L414.8,836l131.3-0.2l-41-167.1H455.6z"/>
<linearGradient id="SVGID_4_" gradientUnits="userSpaceOnUse" x1="480.5" y1="187.327" x2="480.5" y2="20" gradientTransform="matrix(1 0 0 -1 0 856)">
	<stop  offset="0" style="stop-color:#FFE083"/>
	<stop  offset="1" style="stop-color:#FFE083;stop-opacity:0"/>
</linearGradient>
<path class="st10" d="M466.4,668.7L446.7,836l67.6-0.2l-20.4-167.1H466.4z"/>
<path class="st11" d="M466.9,668.7c0,0-24,45.5,13.6,83.8c0,0,35.4-27.4,13.6-83.8H466.9z"/>
<path class="st12" d="M470.8,668.7c0,0-15.4,33.1,10.2,55.9c0,0,22.2-17.7,9.3-55.9H470.8z"/>
<path class="st11" d="M474.2,668.7c0,0-9.3,20.2,6.3,34.2c0,0,13.6-10.9,5.7-34.2H474.2z"/>
<path class="st5" d="M478.5,327l-0.5,38.5l-16.1-0.5C461.7,365,470.1,342.4,478.5,327z"/>
<path class="st13" d="M498.4,365.5H478l0.5-38.5C478.5,327,489.1,344,498.4,365.5z"/>
<path class="st13" d="M477.8,625.2l0.5,30.3h37.4l-4.5-30.3H477.8z"/>
<g>
	<defs>
		<rect id="SVGID_5_" x="455" y="453" width="49" height="49"/>
	</defs>
	<clipPath id="SVGID_6_">
		<use xlink:href="#SVGID_5_"  style="overflow:visible;"/>
	</clipPath>
	<g class="st14">
		<path class="st15" d="M479.9,502c-0.3,0-0.5-0.2-0.5-0.4c0-0.3,0.2-0.5,0.4-0.5c0.3,0,0.5,0.2,0.5,0.4
			C480.3,501.8,480.1,502,479.9,502z M478.5,502c-0.2,0-0.4-0.2-0.4-0.5c0,0,0,0,0,0c0-0.2,0.2-0.4,0.5-0.4c0.2,0,0.4,0.2,0.4,0.4
			c0,0,0,0,0,0C478.9,501.8,478.7,502,478.5,502C478.5,502,478.5,502,478.5,502z M480.8,501.5C480.8,501.5,480.8,501.5,480.8,501.5
			c0-0.3,0.2-0.5,0.4-0.5v0c0.2,0,0.5,0.2,0.5,0.4c0,0,0,0,0,0c0,0.2-0.2,0.4-0.4,0.5c0,0,0,0,0,0
			C481,501.9,480.8,501.8,480.8,501.5z M477.1,501.9c-0.2,0-0.4-0.2-0.4-0.5c0,0,0,0,0,0c0-0.2,0.3-0.4,0.5-0.4
			c0.2,0,0.4,0.2,0.4,0.4c0,0,0,0,0,0C477.5,501.7,477.3,501.9,477.1,501.9C477.1,501.9,477.1,501.9,477.1,501.9z M482.2,501.4
			C482.2,501.4,482.2,501.4,482.2,501.4c0-0.3,0.2-0.5,0.4-0.5c0.2,0,0.5,0.1,0.5,0.4c0,0,0,0,0,0.1c0,0.2-0.2,0.4-0.4,0.4
			c0,0,0,0-0.1,0C482.4,501.8,482.2,501.6,482.2,501.4z M475.7,501.7c-0.2,0-0.4-0.2-0.4-0.4c0,0,0,0,0-0.1c0-0.2,0.3-0.4,0.5-0.4
			c0.2,0,0.4,0.2,0.4,0.5c0,0,0,0,0,0.1C476.1,501.6,476,501.7,475.7,501.7C475.7,501.7,475.7,501.7,475.7,501.7z M483.5,501.2
			C483.5,501.2,483.5,501.1,483.5,501.2c0-0.3,0.1-0.5,0.4-0.5c0.2,0,0.5,0.1,0.5,0.4c0,0,0,0.1,0,0.1c0,0.2-0.2,0.4-0.4,0.4
			c0,0-0.1,0-0.1,0C483.8,501.6,483.6,501.4,483.5,501.2z M474.3,501.4c-0.2,0-0.4-0.2-0.4-0.4c0,0,0-0.1,0-0.1
			c0.1-0.2,0.3-0.4,0.5-0.4c0.2,0,0.4,0.2,0.4,0.5c0,0,0,0.1,0,0.1C474.8,501.3,474.6,501.5,474.3,501.4
			C474.3,501.4,474.3,501.4,474.3,501.4z M484.9,500.9c0,0,0-0.1,0-0.1c0-0.2,0.1-0.4,0.3-0.4c0.2-0.1,0.5,0.1,0.6,0.3
			c0,0,0,0.1,0,0.1c0,0.2-0.1,0.4-0.3,0.4c0,0-0.1,0-0.1,0C485.1,501.3,485,501.1,484.9,500.9z M472.9,501.1
			c-0.2-0.1-0.3-0.2-0.3-0.4c0,0,0-0.1,0-0.1c0.1-0.2,0.3-0.4,0.6-0.3c0.2,0.1,0.3,0.2,0.3,0.4c0,0,0,0.1,0,0.1
			c-0.1,0.2-0.2,0.3-0.4,0.3C473,501.1,472.9,501.1,472.9,501.1z M486.2,500.6c0,0,0-0.1,0-0.1c0-0.2,0.1-0.4,0.3-0.4h0
			c0.2-0.1,0.5,0.1,0.6,0.3c0,0,0,0.1,0,0.1c0,0.2-0.1,0.4-0.3,0.4c0,0-0.1,0-0.1,0C486.5,500.9,486.3,500.8,486.2,500.6z
			 M471.5,500.7c-0.2-0.1-0.3-0.2-0.3-0.4c0-0.1,0-0.1,0-0.2c0.1-0.2,0.3-0.4,0.6-0.3c0.2,0.1,0.3,0.2,0.3,0.4c0,0,0,0.1,0,0.2
			c-0.1,0.2-0.2,0.3-0.4,0.3C471.7,500.7,471.6,500.7,471.5,500.7z M487.6,500.2c0-0.1,0-0.1,0-0.2c0-0.2,0.1-0.4,0.3-0.4
			c0.2-0.1,0.5,0,0.6,0.3c0,0.1,0,0.1,0,0.2c0,0.2-0.1,0.4-0.3,0.4c0,0-0.1,0-0.2,0C487.8,500.5,487.6,500.3,487.6,500.2z
			 M470.2,500.2c-0.2-0.1-0.3-0.2-0.3-0.4c0-0.1,0-0.1,0-0.2c0.1-0.2,0.4-0.4,0.6-0.3c0.2,0.1,0.3,0.2,0.3,0.4c0,0.1,0,0.1,0,0.2
			c-0.1,0.2-0.2,0.3-0.4,0.3C470.3,500.2,470.3,500.2,470.2,500.2z M488.8,499.6c0-0.1,0-0.1,0-0.2c0-0.2,0.1-0.3,0.3-0.4
			c0.2-0.1,0.5,0,0.6,0.2c0,0.1,0,0.1,0,0.2c0,0.2-0.1,0.4-0.3,0.4c-0.1,0-0.1,0-0.2,0C489.1,499.9,488.9,499.8,488.8,499.6z
			 M468.9,499.6c-0.2-0.1-0.3-0.2-0.3-0.4c0-0.1,0-0.1,0-0.2c0.1-0.2,0.4-0.3,0.6-0.2c0.2,0.1,0.3,0.2,0.3,0.4c0,0.1,0,0.1,0,0.2
			c-0.1,0.2-0.2,0.3-0.4,0.3C469.1,499.7,469,499.6,468.9,499.6z M490.1,499.1c0-0.1,0-0.1,0-0.2c0-0.2,0.1-0.3,0.2-0.4
			c0.2-0.1,0.5,0,0.6,0.2c0,0.1,0,0.1,0,0.2c0,0.2-0.1,0.3-0.2,0.4c0,0,0,0,0,0c-0.1,0-0.1,0.1-0.2,0.1
			C490.3,499.3,490.2,499.2,490.1,499.1z M467.7,499c-0.2-0.1-0.2-0.2-0.2-0.4c0-0.1,0-0.1,0.1-0.2c0.1-0.2,0.4-0.3,0.6-0.2
			c0.2,0.1,0.2,0.2,0.2,0.4c0,0.1,0,0.2-0.1,0.2c-0.1,0.2-0.2,0.2-0.4,0.2C467.8,499,467.7,499,467.7,499z M491.3,498.4
			c0-0.1-0.1-0.2-0.1-0.2c0-0.2,0.1-0.3,0.2-0.4c0.2-0.1,0.5-0.1,0.6,0.2c0,0.1,0.1,0.2,0.1,0.2c0,0.2-0.1,0.3-0.2,0.4
			c-0.1,0-0.2,0.1-0.2,0.1C491.6,498.7,491.4,498.6,491.3,498.4z M466.5,498.2c-0.1-0.1-0.2-0.2-0.2-0.4c0-0.1,0-0.2,0.1-0.2
			c0.1-0.2,0.4-0.3,0.6-0.1c0.1,0.1,0.2,0.2,0.2,0.4c0,0.1,0,0.2-0.1,0.2c-0.1,0.1-0.2,0.2-0.4,0.2
			C466.6,498.3,466.5,498.3,466.5,498.2z M492.5,497.7c-0.1-0.1-0.1-0.2-0.1-0.3c0-0.2,0.1-0.3,0.2-0.4c0.2-0.1,0.5-0.1,0.6,0.1
			c0.1,0.1,0.1,0.2,0.1,0.3c0,0.1-0.1,0.3-0.2,0.4c-0.1,0.1-0.2,0.1-0.3,0.1C492.7,497.9,492.6,497.9,492.5,497.7z M465.3,497.5
			c-0.1-0.1-0.2-0.2-0.2-0.4c0-0.1,0-0.2,0.1-0.3c0.2-0.2,0.4-0.3,0.6-0.1c0.1,0.1,0.2,0.2,0.2,0.4c0,0.1,0,0.2-0.1,0.2
			c-0.1,0.1-0.2,0.2-0.4,0.2C465.5,497.5,465.4,497.5,465.3,497.5z M493.7,496.9c-0.1-0.1-0.1-0.2-0.1-0.3c0-0.1,0.1-0.3,0.2-0.4
			c0.2-0.2,0.5-0.1,0.6,0.1c0.1,0.1,0.1,0.2,0.1,0.3c0,0.1-0.1,0.3-0.2,0.4c-0.1,0.1-0.2,0.1-0.3,0.1
			C493.9,497.1,493.7,497.1,493.7,496.9z M464.2,496.6c-0.1-0.1-0.2-0.2-0.2-0.4c0-0.1,0-0.2,0.1-0.3c0.2-0.2,0.4-0.2,0.6-0.1
			c0.1,0.1,0.2,0.2,0.2,0.4c0,0.1,0,0.2-0.1,0.3c-0.1,0.1-0.2,0.2-0.4,0.2C464.3,496.7,464.2,496.7,464.2,496.6z M494.8,496.1
			c-0.1-0.1-0.1-0.2-0.1-0.3c0-0.1,0.1-0.3,0.2-0.4c0.2-0.2,0.5-0.1,0.7,0.1c0.1,0.1,0.1,0.2,0.1,0.3c0,0.1,0,0.3-0.2,0.4
			c-0.1,0.1-0.2,0.1-0.3,0.1C495,496.2,494.8,496.2,494.8,496.1z M463.1,495.7c-0.1-0.1-0.1-0.2-0.1-0.3c0-0.1,0-0.2,0.1-0.3
			c0.2-0.2,0.5-0.2,0.7,0c0.1,0.1,0.2,0.2,0.2,0.3c0,0.1,0,0.2-0.1,0.3c-0.1,0.1-0.2,0.2-0.3,0.2
			C463.3,495.8,463.2,495.8,463.1,495.7z M495.8,495.2c-0.1-0.1-0.1-0.2-0.1-0.3c0-0.1,0-0.2,0.1-0.3c0.2-0.2,0.5-0.2,0.6,0
			c0.1,0.1,0.1,0.2,0.1,0.3c0,0.1,0,0.2-0.1,0.3c-0.1,0.1-0.2,0.1-0.3,0.1C496,495.3,495.9,495.3,495.8,495.2z M462.1,494.7
			c-0.1-0.1-0.1-0.2-0.1-0.3c0-0.1,0-0.2,0.1-0.3c0.2-0.2,0.5-0.2,0.6,0c0.1,0.1,0.1,0.2,0.1,0.3c0,0.1,0,0.2-0.1,0.3
			c-0.1,0.1-0.2,0.1-0.3,0.1C462.3,494.9,462.2,494.8,462.1,494.7z M496.8,494.2c-0.1-0.1-0.2-0.2-0.2-0.3c0-0.1,0-0.2,0.1-0.3
			c0.2-0.2,0.5-0.2,0.6,0c0.1,0.1,0.1,0.2,0.1,0.3c0,0.1,0,0.2-0.1,0.3c-0.1,0.1-0.2,0.1-0.3,0.1C497,494.3,496.9,494.3,496.8,494.2
			z M461.1,493.7c-0.1-0.1-0.1-0.2-0.1-0.3c0-0.1,0.1-0.2,0.2-0.3c0.2-0.2,0.5-0.1,0.6,0c0.1,0.1,0.1,0.2,0.1,0.3
			c0,0.1-0.1,0.2-0.2,0.3c-0.1,0.1-0.2,0.1-0.3,0.1C461.3,493.8,461.2,493.8,461.1,493.7z M497.7,493.2c-0.1-0.1-0.2-0.2-0.2-0.4
			c0-0.1,0-0.2,0.1-0.3c0.2-0.2,0.4-0.2,0.7-0.1c0.1,0.1,0.2,0.2,0.2,0.4c0,0.1,0,0.2-0.1,0.3c-0.1,0.1-0.2,0.2-0.4,0.2
			C497.9,493.3,497.8,493.3,497.7,493.2z M460.2,492.6c-0.1-0.1-0.1-0.2-0.1-0.3c0-0.1,0.1-0.3,0.2-0.4c0.2-0.2,0.5-0.1,0.6,0.1
			c0.1,0.1,0.1,0.2,0.1,0.3c0,0.1-0.1,0.3-0.2,0.4c-0.1,0.1-0.2,0.1-0.3,0.1C460.4,492.8,460.3,492.7,460.2,492.6z M498.6,492.1
			c-0.1-0.1-0.2-0.2-0.2-0.4c0-0.1,0-0.2,0.1-0.3c0.2-0.2,0.4-0.2,0.6-0.1c0.1,0.1,0.2,0.2,0.2,0.4c0,0.1,0,0.2-0.1,0.3
			c-0.1,0.1-0.2,0.2-0.4,0.2C498.8,492.2,498.7,492.2,498.6,492.1z M459.4,491.5c-0.1-0.1-0.1-0.2-0.1-0.3c0-0.1,0.1-0.3,0.2-0.4
			c0.2-0.1,0.5-0.1,0.7,0.1c0,0.1,0.1,0.2,0.1,0.3c0,0.1-0.1,0.3-0.2,0.4c-0.1,0.1-0.2,0.1-0.3,0.1
			C459.6,491.7,459.5,491.6,459.4,491.5z M499.4,491c-0.1-0.1-0.2-0.2-0.2-0.4c0-0.1,0-0.2,0.1-0.3c0.1-0.2,0.4-0.3,0.6-0.1
			c0.1,0.1,0.2,0.2,0.2,0.4c0,0.1,0,0.2-0.1,0.3c-0.1,0.1-0.2,0.2-0.4,0.2C499.6,491.1,499.5,491,499.4,491z M458.6,490.3
			c0-0.1-0.1-0.2-0.1-0.2c0-0.2,0.1-0.3,0.2-0.4c0.2-0.1,0.5-0.1,0.6,0.2h0c0,0.1,0.1,0.2,0.1,0.2c0,0.2-0.1,0.3-0.2,0.4
			c-0.1,0-0.2,0.1-0.2,0.1C458.8,490.5,458.7,490.4,458.6,490.3z M500.1,489.8c-0.2-0.1-0.2-0.2-0.2-0.4c0-0.1,0-0.1,0.1-0.2
			c0.1-0.2,0.4-0.3,0.6-0.2c0.2,0.1,0.2,0.2,0.2,0.4c0,0.1,0,0.1-0.1,0.2c-0.1,0.1-0.2,0.2-0.4,0.2
			C500.3,489.9,500.2,489.9,500.1,489.8z M457.9,489.1c0-0.1-0.1-0.1-0.1-0.2c0-0.2,0.1-0.3,0.2-0.4c0.2-0.1,0.5,0,0.6,0.2
			c0,0.1,0,0.1,0,0.2c0,0.2-0.1,0.3-0.2,0.4c-0.1,0-0.1,0.1-0.2,0.1C458.1,489.3,458,489.2,457.9,489.1z M500.8,488.6
			c-0.2-0.1-0.3-0.2-0.3-0.4c0-0.1,0-0.1,0-0.2c0.1-0.2,0.4-0.3,0.6-0.2c0.2,0.1,0.3,0.2,0.2,0.4c0,0.1,0,0.1,0,0.2
			c-0.1,0.2-0.2,0.3-0.4,0.3C501,488.7,500.9,488.6,500.8,488.6z M457.3,487.8c0-0.1,0-0.1,0-0.2c0-0.2,0.1-0.3,0.3-0.4
			c0.2-0.1,0.5,0,0.6,0.2c0,0.1,0,0.1,0,0.2c0,0.2-0.1,0.3-0.3,0.4c-0.1,0-0.1,0-0.2,0C457.5,488.1,457.3,488,457.3,487.8z
			 M501.4,487.4c-0.2-0.1-0.3-0.2-0.3-0.4c0-0.1,0-0.1,0-0.2c0.1-0.2,0.4-0.3,0.6-0.2c0.2,0.1,0.3,0.2,0.3,0.4c0,0.1,0,0.1,0,0.2
			c-0.1,0.2-0.2,0.3-0.4,0.3C501.6,487.4,501.5,487.4,501.4,487.4z M456.7,486.5c0-0.1,0-0.1,0-0.2c0-0.2,0.1-0.3,0.3-0.4
			c0.2-0.1,0.5,0,0.6,0.3c0,0.1,0,0.1,0,0.2c0,0.2-0.1,0.3-0.3,0.4c-0.1,0-0.1,0-0.2,0C456.9,486.8,456.8,486.7,456.7,486.5z
			 M502,486.1c-0.2-0.1-0.3-0.2-0.3-0.4c0-0.1,0-0.1,0-0.2c0.1-0.2,0.3-0.4,0.6-0.3c0.2,0.1,0.3,0.2,0.3,0.4c0,0.1,0,0.1,0,0.2
			c-0.1,0.2-0.2,0.3-0.4,0.3C502.1,486.1,502,486.1,502,486.1z M456.2,485.2c0,0,0-0.1,0-0.1c0-0.2,0.1-0.4,0.3-0.4
			c0.2-0.1,0.5,0,0.6,0.3c0,0,0,0.1,0,0.1c0,0.2-0.1,0.4-0.3,0.4c0,0-0.1,0-0.1,0C456.5,485.5,456.3,485.4,456.2,485.2z
			 M502.4,484.8c-0.2-0.1-0.3-0.2-0.3-0.4c0,0,0-0.1,0-0.1c0.1-0.2,0.3-0.4,0.6-0.3c0.2,0.1,0.3,0.2,0.3,0.4c0,0,0,0.1,0,0.1
			c-0.1,0.2-0.2,0.3-0.4,0.3C502.5,484.8,502.5,484.8,502.4,484.8z M455.8,483.8c0,0,0-0.1,0-0.1c0-0.2,0.1-0.4,0.3-0.4
			c0.2-0.1,0.5,0.1,0.6,0.3c0,0,0,0.1,0,0.1c0,0.2-0.1,0.4-0.3,0.4c0,0-0.1,0-0.1,0C456.1,484.2,455.9,484,455.8,483.8z
			 M502.8,483.4c-0.2,0-0.3-0.2-0.4-0.4c0,0,0-0.1,0-0.1c0.1-0.2,0.3-0.4,0.6-0.3c0.2,0,0.4,0.2,0.4,0.4c0,0,0,0.1,0,0.1
			c0,0.2-0.2,0.4-0.4,0.4C502.9,483.4,502.8,483.4,502.8,483.4z M455.5,482.5C455.5,482.4,455.5,482.4,455.5,482.5
			c0-0.3,0.1-0.5,0.4-0.5c0.2,0,0.5,0.1,0.5,0.4c0,0,0,0.1,0,0.1c0,0.2-0.2,0.4-0.4,0.4c0,0-0.1,0-0.1,0
			C455.7,482.8,455.5,482.7,455.5,482.5z M503.1,482.1c-0.2,0-0.4-0.2-0.4-0.5c0,0,0,0,0-0.1c0-0.3,0.3-0.4,0.5-0.4
			c0.2,0,0.4,0.2,0.4,0.5c0,0,0,0,0,0.1C503.6,481.9,503.4,482.1,503.1,482.1C503.1,482.1,503.1,482.1,503.1,482.1z M455.2,481.1
			C455.2,481,455.2,481,455.2,481.1c0-0.3,0.2-0.5,0.4-0.5c0.3,0,0.5,0.1,0.5,0.4c0,0,0,0,0,0.1c0,0.2-0.2,0.4-0.4,0.4
			c0,0,0,0-0.1,0C455.5,481.5,455.3,481.3,455.2,481.1z M503.3,480.7c-0.2,0-0.4-0.2-0.4-0.5c0,0,0,0,0,0c0-0.2,0.3-0.4,0.5-0.4
			c0.2,0,0.4,0.2,0.4,0.5c0,0,0,0,0,0C503.8,480.6,503.6,480.7,503.3,480.7C503.4,480.7,503.4,480.7,503.3,480.7z M455.1,479.7
			C455.1,479.7,455.1,479.6,455.1,479.7c0-0.3,0.2-0.5,0.4-0.5c0.2,0,0.5,0.2,0.5,0.4c0,0,0,0,0,0c0,0.2-0.2,0.4-0.4,0.4
			c0,0,0,0,0,0C455.3,480.1,455.1,479.9,455.1,479.7z M503.5,479.3c-0.2,0-0.4-0.2-0.4-0.5c0,0,0,0,0,0h0c0-0.2,0.2-0.4,0.5-0.4
			c0.2,0,0.4,0.2,0.4,0.5c0,0,0,0,0,0C504,479.1,503.8,479.3,503.5,479.3C503.5,479.3,503.5,479.3,503.5,479.3z M455,478.3
			C455,478.3,455,478.3,455,478.3c0-0.3,0.2-0.5,0.4-0.5c0.2,0,0.5,0.2,0.5,0.4c0,0,0,0,0,0c0,0.2-0.2,0.4-0.4,0.4
			C455.2,478.7,455,478.5,455,478.3z M503.1,477.5C503.1,477.5,503.1,477.5,503.1,477.5C503.1,477.4,503.1,477.4,503.1,477.5
			c0-0.4,0.2-0.6,0.5-0.6c0.3,0,0.5,0.2,0.5,0.5c0,0,0,0,0,0c0,0,0,0,0,0.1c0,0.2-0.2,0.5-0.5,0.5
			C503.3,478,503.1,477.8,503.1,477.5z M455.4,477.3c-0.2,0-0.4-0.2-0.4-0.4c0,0,0,0,0,0c0,0,0,0,0,0c0-0.3,0.2-0.5,0.5-0.4
			c0.2,0,0.4,0.2,0.4,0.5C455.9,477.1,455.7,477.3,455.4,477.3z M503,476C503,476,503,476,503,476c0-0.3,0.2-0.5,0.4-0.5
			c0.3,0,0.5,0.2,0.5,0.4c0,0,0,0,0,0c0,0.2-0.2,0.4-0.4,0.5c0,0,0,0,0,0C503.2,476.5,503,476.3,503,476z M455.5,475.9
			c-0.2,0-0.4-0.2-0.4-0.4c0,0,0,0,0,0c0-0.2,0.2-0.4,0.5-0.4c0.2,0,0.4,0.2,0.4,0.4c0,0,0,0,0,0C456,475.8,455.8,475.9,455.5,475.9
			C455.5,475.9,455.5,475.9,455.5,475.9z M502.9,474.7C502.9,474.7,502.9,474.7,502.9,474.7c0-0.3,0.2-0.5,0.4-0.5
			c0.2,0,0.5,0.2,0.5,0.4c0,0,0,0,0,0c0,0.2-0.2,0.4-0.4,0.5c0,0,0,0,0,0C503.1,475.1,502.9,474.9,502.9,474.7z M455.6,474.6
			c-0.2,0-0.4-0.2-0.4-0.4c0,0,0,0,0-0.1c0-0.2,0.3-0.4,0.5-0.4c0.2,0,0.4,0.2,0.4,0.4c0,0,0,0,0,0.1
			C456.1,474.4,455.9,474.5,455.6,474.6C455.7,474.6,455.6,474.6,455.6,474.6z M502.7,473.3C502.7,473.3,502.7,473.3,502.7,473.3
			c0-0.3,0.2-0.5,0.4-0.5c0.2,0,0.5,0.1,0.5,0.4c0,0,0,0,0,0.1c0,0.2-0.2,0.4-0.4,0.5c0,0-0.1,0-0.1,0
			C502.9,473.7,502.7,473.6,502.7,473.3z M455.8,473.2c-0.2,0-0.4-0.2-0.4-0.4c0,0,0-0.1,0-0.1c0-0.2,0.3-0.4,0.5-0.4
			c0.2,0,0.4,0.2,0.4,0.4c0,0,0,0.1,0,0.1C456.3,473,456.1,473.2,455.8,473.2C455.9,473.2,455.9,473.2,455.8,473.2z M502.4,472
			c0,0,0-0.1,0-0.1c0-0.2,0.1-0.4,0.4-0.4c0.2-0.1,0.5,0.1,0.6,0.3c0,0,0,0.1,0,0.1c0,0.2-0.1,0.4-0.4,0.4c0,0-0.1,0-0.1,0
			C502.7,472.4,502.5,472.2,502.4,472z M456.1,471.8c-0.2,0-0.3-0.2-0.3-0.4c0,0,0-0.1,0-0.1c0,0,0,0,0,0c0.1-0.2,0.3-0.4,0.6-0.3
			c0.2,0.1,0.3,0.2,0.3,0.4c0,0,0,0.1,0,0.1c-0.1,0.2-0.2,0.3-0.4,0.3C456.2,471.8,456.2,471.8,456.1,471.8z M502.1,470.7
			c0,0,0-0.1,0-0.1c0-0.2,0.1-0.4,0.3-0.4c0.2-0.1,0.5,0.1,0.6,0.3c0,0,0,0.1,0,0.1c0,0.2-0.1,0.4-0.3,0.4c0,0-0.1,0-0.1,0
			C502.3,471,502.1,470.9,502.1,470.7z M456.5,470.5c-0.2-0.1-0.3-0.2-0.3-0.4c0,0,0-0.1,0-0.1c0.1-0.2,0.3-0.4,0.6-0.3
			c0.2,0.1,0.3,0.2,0.3,0.4c0,0,0,0.1,0,0.1c-0.1,0.2-0.2,0.3-0.4,0.3C456.6,470.5,456.5,470.5,456.5,470.5z M501.6,469.4
			c0-0.1,0-0.1,0-0.2c0-0.2,0.1-0.4,0.3-0.4c0.2-0.1,0.5,0,0.6,0.3c0,0.1,0,0.1,0,0.2c0,0.2-0.1,0.4-0.3,0.4c-0.1,0-0.1,0-0.2,0
			C501.9,469.7,501.7,469.6,501.6,469.4z M456.9,469.2c-0.2-0.1-0.3-0.2-0.3-0.4c0,0,0-0.1,0-0.2c0.1-0.2,0.4-0.4,0.6-0.3
			c0.2,0.1,0.3,0.3,0.3,0.4c0,0.1,0,0.1,0,0.2c-0.1,0.2-0.2,0.3-0.4,0.3C457,469.2,457,469.2,456.9,469.2z M501.1,468.2
			c0-0.1,0-0.1,0-0.2c0-0.2,0.1-0.4,0.3-0.4c0.2-0.1,0.5,0,0.6,0.2c0,0.1,0,0.1,0,0.2c0,0.2-0.1,0.4-0.3,0.4c-0.1,0-0.1,0-0.2,0
			C501.4,468.4,501.2,468.3,501.1,468.2z M457.4,467.9c-0.2-0.1-0.3-0.2-0.3-0.4c0-0.1,0-0.1,0-0.2c0.1-0.2,0.4-0.3,0.6-0.2
			c0.2,0.1,0.3,0.2,0.3,0.4c0,0.1,0,0.1,0,0.2c-0.1,0.2-0.2,0.3-0.4,0.3C457.6,467.9,457.5,467.9,457.4,467.9z M500.6,466.9
			c0-0.1,0-0.1,0-0.2c0-0.2,0.1-0.3,0.3-0.4c0.2-0.1,0.5,0,0.6,0.2c0,0.1,0,0.1,0,0.2c0,0.2-0.1,0.3-0.2,0.4c-0.1,0-0.1,0-0.2,0
			C500.8,467.2,500.7,467.1,500.6,466.9z M458,466.6c-0.2-0.1-0.2-0.2-0.2-0.4c0-0.1,0-0.1,0-0.2c0.1-0.2,0.4-0.3,0.6-0.2
			c0.2,0.1,0.2,0.2,0.2,0.4c0,0.1,0,0.2-0.1,0.2c-0.1,0.2-0.2,0.2-0.4,0.2C458.2,466.7,458.1,466.7,458,466.6z M499.9,465.7
			c0-0.1-0.1-0.2-0.1-0.2c0-0.2,0.1-0.3,0.2-0.4c0.2-0.1,0.5,0,0.6,0.2c0,0.1,0.1,0.2,0.1,0.2c0,0.2-0.1,0.3-0.2,0.4
			c-0.1,0-0.2,0.1-0.2,0.1C500.2,466,500,465.9,499.9,465.7z M458.7,465.4c-0.1-0.1-0.2-0.2-0.2-0.4c0-0.1,0-0.2,0.1-0.2
			c0.1-0.2,0.4-0.3,0.6-0.2c0.1,0.1,0.2,0.2,0.2,0.4c0,0.1,0,0.2-0.1,0.2c-0.1,0.1-0.2,0.2-0.4,0.2
			C458.9,465.5,458.8,465.5,458.7,465.4z M499.2,464.6c-0.1-0.1-0.1-0.2-0.1-0.3c0-0.1,0.1-0.3,0.2-0.4c0.2-0.1,0.5-0.1,0.6,0.1
			c0.1,0.1,0.1,0.2,0.1,0.3c0,0.1-0.1,0.3-0.2,0.4c-0.1,0-0.2,0.1-0.2,0.1C499.5,464.8,499.3,464.7,499.2,464.6z M459.4,464.2
			c-0.1-0.1-0.2-0.2-0.2-0.4c0-0.1,0-0.2,0.1-0.3c0.1-0.2,0.4-0.3,0.6-0.1c0.1,0.1,0.2,0.2,0.2,0.4c0,0.1,0,0.2-0.1,0.3
			c-0.1,0.1-0.2,0.2-0.4,0.2C459.6,464.3,459.5,464.3,459.4,464.2z M498.4,463.5c-0.1-0.1-0.1-0.2-0.1-0.3c0-0.1,0.1-0.3,0.2-0.4
			c0.2-0.2,0.5-0.1,0.6,0.1c0.1,0.1,0.1,0.2,0.1,0.3c0,0.1-0.1,0.3-0.2,0.4c-0.1,0.1-0.2,0.1-0.3,0.1
			C498.7,463.7,498.5,463.6,498.4,463.5z M460.2,463.1c-0.1-0.1-0.2-0.2-0.2-0.4c0-0.1,0-0.2,0.1-0.3c0.2-0.2,0.4-0.2,0.6-0.1
			c0.1,0.1,0.2,0.2,0.2,0.4c0,0.1,0,0.2-0.1,0.3c-0.1,0.1-0.2,0.2-0.4,0.2C460.4,463.2,460.3,463.2,460.2,463.1z M497.6,462.4
			c-0.1-0.1-0.1-0.2-0.1-0.3c0-0.1,0.1-0.3,0.2-0.4c0.2-0.2,0.5-0.1,0.6,0.1c0.1,0.1,0.1,0.2,0.1,0.3c0,0.1-0.1,0.3-0.2,0.4
			c-0.1,0.1-0.2,0.1-0.3,0.1C497.8,462.6,497.7,462.5,497.6,462.4z M461.1,462c-0.1-0.1-0.2-0.2-0.2-0.3c0-0.1,0-0.2,0.1-0.3
			c0.2-0.2,0.5-0.2,0.6,0c0.1,0.1,0.2,0.2,0.2,0.3c0,0.1,0,0.2-0.1,0.3c-0.1,0.1-0.2,0.2-0.3,0.2C461.3,462.1,461.2,462.1,461.1,462
			z M496.7,461.4c-0.1-0.1-0.1-0.2-0.1-0.3c0-0.1,0-0.2,0.1-0.3c0.2-0.2,0.5-0.2,0.6,0c0.1,0.1,0.1,0.2,0.1,0.3c0,0.1,0,0.2-0.1,0.3
			c-0.1,0.1-0.2,0.1-0.3,0.1C496.9,461.5,496.8,461.5,496.7,461.4z M462,461c-0.1-0.1-0.1-0.2-0.1-0.3c0-0.1,0-0.2,0.1-0.3
			c0.2-0.2,0.5-0.2,0.7,0c0.1,0.1,0.1,0.2,0.1,0.3c0,0.1,0,0.2-0.1,0.3c-0.1,0.1-0.2,0.1-0.3,0.1C462.2,461.1,462.1,461.1,462,461z
			 M495.7,460.4c-0.1-0.1-0.1-0.2-0.1-0.3c0-0.1,0-0.2,0.1-0.3c0.2-0.2,0.5-0.2,0.6,0c0.1,0.1,0.1,0.2,0.1,0.3c0,0.1,0,0.2-0.1,0.3
			c-0.1,0.1-0.2,0.1-0.3,0.1C495.9,460.5,495.8,460.5,495.7,460.4z M463,460c-0.1-0.1-0.1-0.2-0.1-0.3c0-0.1,0-0.2,0.2-0.3
			c0.2-0.2,0.5-0.2,0.6,0c0.1,0.1,0.1,0.2,0.1,0.3c0,0.1,0,0.2-0.1,0.3h0c-0.1,0.1-0.2,0.1-0.3,0.1C463.2,460.2,463.1,460.1,463,460
			z M494.7,459.5c-0.1-0.1-0.2-0.2-0.2-0.4c0-0.1,0-0.2,0.1-0.3c0.2-0.2,0.5-0.2,0.6-0.1c0.1,0.1,0.2,0.2,0.2,0.4
			c0,0.1,0,0.2-0.1,0.3c-0.1,0.1-0.2,0.2-0.3,0.2C494.9,459.6,494.8,459.6,494.7,459.5z M464,459.1c-0.1-0.1-0.1-0.2-0.1-0.3
			c0-0.1,0.1-0.3,0.2-0.4c0.2-0.2,0.5-0.1,0.6,0.1c0.1,0.1,0.1,0.2,0.1,0.3c0,0.1-0.1,0.3-0.2,0.4c-0.1,0.1-0.2,0.1-0.3,0.1
			C464.2,459.3,464.1,459.2,464,459.1z M493.7,458.7c-0.1-0.1-0.2-0.2-0.2-0.4c0-0.1,0-0.2,0.1-0.3c0.2-0.2,0.4-0.2,0.6-0.1
			c0.1,0.1,0.2,0.2,0.2,0.4c0,0.1,0,0.2-0.1,0.3c-0.1,0.1-0.2,0.2-0.4,0.2C493.9,458.8,493.8,458.7,493.7,458.7z M465.1,458.2
			c-0.1-0.1-0.1-0.2-0.1-0.3c0-0.1,0.1-0.3,0.2-0.4c0.2-0.2,0.5-0.1,0.6,0.1c0.1,0.1,0.1,0.2,0.1,0.3c0,0.1-0.1,0.3-0.2,0.4
			c-0.1,0.1-0.2,0.1-0.3,0.1C465.3,458.4,465.2,458.4,465.1,458.2z M492.6,457.9c-0.1-0.1-0.2-0.2-0.2-0.4c0-0.1,0-0.2,0.1-0.3
			c0.1-0.2,0.4-0.3,0.6-0.1c0.1,0.1,0.2,0.2,0.2,0.4c0,0.1,0,0.2-0.1,0.3c-0.1,0.1-0.2,0.2-0.4,0.2
			C492.7,457.9,492.7,457.9,492.6,457.9z M466.2,457.4c0-0.1-0.1-0.2-0.1-0.2c0-0.2,0.1-0.3,0.2-0.4c0.2-0.1,0.5-0.1,0.6,0.1
			c0,0.1,0.1,0.2,0.1,0.2c0,0.2-0.1,0.3-0.2,0.4c-0.1,0-0.2,0.1-0.2,0.1C466.5,457.6,466.3,457.6,466.2,457.4z M491.4,457.2
			c-0.1-0.1-0.2-0.2-0.2-0.4c0-0.1,0-0.2,0.1-0.2c0.1-0.2,0.4-0.3,0.6-0.2c0.1,0.1,0.2,0.2,0.2,0.4c0,0.1,0,0.2-0.1,0.2
			c-0.1,0.1-0.2,0.2-0.4,0.2C491.6,457.2,491.5,457.2,491.4,457.2z M467.4,456.7c0-0.1-0.1-0.1-0.1-0.2c0-0.2,0.1-0.3,0.2-0.4
			c0.2-0.1,0.5,0,0.6,0.2c0,0.1,0.1,0.1,0.1,0.2c0,0.2-0.1,0.3-0.2,0.4c-0.1,0-0.1,0.1-0.2,0.1C467.6,456.9,467.5,456.9,467.4,456.7
			z M490.2,456.5c-0.2-0.1-0.2-0.2-0.2-0.4c0-0.1,0-0.2,0-0.2c0.1-0.2,0.4-0.3,0.6-0.2c0.2,0.1,0.2,0.2,0.2,0.4c0,0.1,0,0.2,0,0.2
			c-0.1,0.2-0.2,0.2-0.4,0.2C490.4,456.6,490.3,456.5,490.2,456.5z M468.6,456c0-0.1,0-0.1,0-0.2c0-0.2,0.1-0.3,0.3-0.4
			c0.2-0.1,0.5,0,0.6,0.2c0,0.1,0,0.1,0,0.2c0,0.2-0.1,0.3-0.3,0.4c-0.1,0-0.1,0-0.2,0C468.9,456.3,468.7,456.2,468.6,456z
			 M489,455.9c-0.2-0.1-0.3-0.2-0.3-0.4c0-0.1,0-0.1,0-0.2c0.1-0.2,0.4-0.3,0.6-0.2c0.2,0.1,0.3,0.2,0.3,0.4c0,0.1,0,0.1,0,0.2
			c-0.1,0.2-0.2,0.3-0.4,0.3C489.1,456,489.1,455.9,489,455.9z M469.9,455.4c0-0.1,0-0.1,0-0.2c0-0.2,0.1-0.3,0.3-0.4
			c0.2-0.1,0.5,0,0.6,0.2c0,0.1,0,0.1,0,0.2c0,0.2-0.1,0.3-0.3,0.4c-0.1,0-0.1,0-0.2,0C470.1,455.7,470,455.6,469.9,455.4z
			 M487.7,455.4c-0.2-0.1-0.3-0.2-0.3-0.4c0,0,0-0.1,0-0.2c0.1-0.2,0.4-0.4,0.6-0.3c0.2,0.1,0.3,0.2,0.3,0.4c0,0,0,0.1,0,0.2
			c-0.1,0.2-0.2,0.3-0.4,0.3C487.8,455.4,487.8,455.4,487.7,455.4z M471.2,454.9c0,0,0-0.1,0-0.2c0-0.2,0.1-0.4,0.3-0.4
			c0.2-0.1,0.5,0,0.6,0.3c0,0,0,0.1,0,0.2c0,0.2-0.1,0.4-0.3,0.4c0,0-0.1,0-0.1,0C471.4,455.2,471.2,455.1,471.2,454.9z M486.5,455
			c-0.2-0.1-0.3-0.2-0.3-0.4c0,0,0-0.1,0-0.1c0.1-0.2,0.3-0.4,0.6-0.3c0.2,0.1,0.3,0.2,0.3,0.4c0,0,0,0.1,0,0.1
			c-0.1,0.2-0.2,0.3-0.4,0.3C486.5,455,486.5,455,486.5,455z M472.5,454.5c0,0,0-0.1,0-0.1c0-0.2,0.1-0.4,0.3-0.4
			c0.2-0.1,0.5,0.1,0.6,0.3c0,0,0,0.1,0,0.1c0,0.2-0.1,0.4-0.3,0.4c0,0-0.1,0-0.1,0C472.7,454.8,472.5,454.7,472.5,454.5z
			 M485.1,454.6c-0.2-0.1-0.3-0.2-0.3-0.4c0,0,0-0.1,0-0.1c0.1-0.2,0.3-0.4,0.6-0.3c0,0,0,0,0,0c0.2,0,0.4,0.2,0.4,0.4
			c0,0,0,0.1,0,0.1c0,0.2-0.2,0.3-0.4,0.3C485.2,454.6,485.2,454.6,485.1,454.6z M473.8,454.1C473.8,454.1,473.8,454.1,473.8,454.1
			c0-0.3,0.1-0.5,0.4-0.6c0.2-0.1,0.5,0.1,0.5,0.3c0,0,0,0.1,0,0.1c0,0.2-0.1,0.4-0.4,0.5c0,0-0.1,0-0.1,0
			C474,454.5,473.9,454.3,473.8,454.1z M483.8,454.3c-0.2,0-0.4-0.2-0.4-0.4c0,0,0-0.1,0-0.1c0-0.2,0.3-0.4,0.5-0.4
			c0.2,0,0.4,0.2,0.4,0.4c0,0,0,0.1,0,0.1C484.3,454.2,484.1,454.3,483.8,454.3C483.9,454.3,483.8,454.3,483.8,454.3z M475.2,453.9
			C475.2,453.8,475.2,453.8,475.2,453.9c0-0.3,0.2-0.5,0.4-0.5c0.2,0,0.5,0.1,0.5,0.4c0,0,0,0,0,0.1c0,0.2-0.2,0.4-0.4,0.5
			c0,0-0.1,0-0.1,0C475.4,454.2,475.2,454.1,475.2,453.9z M482.5,454.1c-0.2,0-0.4-0.2-0.4-0.5c0,0,0,0,0,0c0-0.2,0.3-0.4,0.5-0.4
			c0.2,0,0.4,0.2,0.4,0.5c0,0,0,0,0,0C483,453.9,482.8,454.1,482.5,454.1C482.5,454.1,482.5,454.1,482.5,454.1z M476.5,453.6
			C476.5,453.6,476.5,453.6,476.5,453.6c0-0.3,0.2-0.5,0.4-0.5c0.2,0,0.5,0.2,0.5,0.4c0,0,0,0,0,0c0,0.2-0.2,0.4-0.4,0.5
			c0,0,0,0,0,0C476.8,454.1,476.6,453.9,476.5,453.6z M481.1,454c-0.2,0-0.4-0.2-0.4-0.5c0,0,0,0,0,0c0-0.2,0.2-0.4,0.5-0.4
			c0.2,0,0.4,0.2,0.4,0.5c0,0,0,0,0,0C481.6,453.8,481.4,454,481.1,454C481.1,454,481.1,454,481.1,454z M477.9,453.5
			C477.9,453.5,477.9,453.5,477.9,453.5c0-0.3,0.2-0.5,0.4-0.5c0.2,0,0.5,0.2,0.5,0.4c0,0,0,0,0,0c0,0.2-0.2,0.4-0.4,0.4
			c0,0,0,0,0,0C478.1,453.9,477.9,453.7,477.9,453.5z M479.8,453.9c-0.3,0-0.5-0.2-0.5-0.5c0-0.3,0.2-0.5,0.5-0.5
			c0.3,0,0.5,0.2,0.5,0.5C480.2,453.7,480,453.9,479.8,453.9z"/>
		<path class="st16" d="M479.6,478.8c0.5,0.1,0.5,0.5,0.6,0.8c0.1,0.3,0.2,0.7,0.2,1.1c0,0.4,0,0.7,0,1.1c-0.1,2.3-0.8,4.4-1.6,6.4
			c-0.4,0.9-0.8,1.7-1.1,2.6c-0.1,0.2-0.2,0.4-0.5,0.5c-5.2-0.5-10.5-1.1-15.7-1.2c-0.1,0-0.1-0.1,0-0.1
			C463.8,489.3,477.5,484.1,479.6,478.8z"/>
		<path class="st17" d="M479.6,478.8c0,0,0.5,0.4,0.6,0.4c1.5,1.3,2.7,2.8,3.7,4.5c0.3,0.4,0.6,0.9,0.9,1.3c0,0.1-0.1,0.2-0.1,0.2
			c-1.2,2.1-2.8,4-4.4,5.8c0,0,0,0.1-0.1,0.1c-0.4,0.5-0.5,0.5-0.7,0.5C480.7,482.6,480.3,479.6,479.6,478.8z"/>
		<path class="st18" d="M484.9,472c1.2,1.1,2.5,2.2,3.6,3.4c0.2,0.2,0.4,0.4,0.4,0.7c2.4-1.8,5.1-3,8-3.7c1.1-0.3,2.3-0.5,3.4-0.7
			c0.1,0,0.6-0.1,0.6-0.2c0.1,0,0.1-0.1-0.1-0.1c-0.5,0-0.9,0-1.4,0c-3.2-0.2-6.3-0.7-9.1-2.5c-0.2-0.2-0.4-0.1-0.7,0
			c-1.1,0.5-2.1,1.2-3.1,1.9l0,0C486.3,471.1,484.9,472,484.9,472z"/>
		<path class="st19" d="M479.6,478.8c0,0,0.5,0.5,0.6,0.6c1.1,1.2,3.5,3.8,4.3,5.9c0.1-0.1,0.2-0.3,0.2-0.3
			c-3-9.5-12.5-13.5-16.1-13.8c-1.9,0.4-4.3,0.8-6.5,1.1c0,0,0,0.1,0,0.1C464.1,472.3,472.4,472.9,479.6,478.8z"/>
		<path class="st18" d="M479.5,491.6c-0.2,0-0.3,0-0.5,0c-0.6,0-1.1-0.1-1.7-0.2c1.1-2.2,2.2-4.7,2.7-7.3c0.2-0.7,0.4-3.8-0.4-5.4
			c0.7,0.8,1.1,2.5,1.1,5.4c0,0.1,0,0.2,0,0.3c0,0.1,0,0.2,0,0.3c0,0.1,0,0.2,0,0.3c-0.1,1.8-0.4,3.5-0.8,5.2
			C479.7,490.6,479.5,491.6,479.5,491.6z"/>
		<path class="st20" d="M488.6,475.3c-1.1-1.2-2.3-2.3-3.6-3.4c-1.9-1.6-3.9-3.1-6.1-4.4c0,0,0,0,0,0c-0.6-0.4-1.5-0.9-2.7-1.6
			c0,0,0,0,0,0c-2.5-1.4-5.7-3.2-6.6-3.7c0,0,0,0,0,0l0,0c1.1,1,4,3.9,4.6,4.6c0,0,0,0.1,0,0.1c0,0-0.1,0-0.1,0h0c0,0,0,0,0,0l0,0
			c-2.6,1.3-5.3,1.9-8,2.2c-1.4,0.1-2.7,0.2-4.1,0.3c-0.1,0-0.4,0-0.4,0.1c0,0,0,0,0.1,0.1c2.2,0.3,4.3,0.7,6.6,1.4
			c0,0,12.8,4.8,16.3,13.9c0.2-0.4,0.5-0.8,0.7-1.3c1.3-2.4,2.4-4.9,3.5-7.4C489.1,475.8,488.8,475.6,488.6,475.3z"/>
		<path class="st16" d="M474.1,467L474.1,467C474.1,467,474.1,467,474.1,467z"/>
		<path class="st21" d="M471.8,462.2c-0.2-0.2-0.4-0.4-0.5-0.7c-0.1-0.1-0.8-0.9,0.1-0.2c2.3,1.8,4.6,3.5,7.3,4.7
			c1.6,0.7,3.2,1.3,4.9,1.4c0.6,0.1,0.8,0.3,1,0.8c0.3,1.1,0.7,2.2,1.1,3.2c-0.3,0.2-0.4,0.2-0.6,0.4c-2.7-2.2-5.6-4.2-8.6-5.9
			c-0.4-0.2-0.4-0.2-0.8,0.1c-0.3,0.2-0.5,0.3-0.7,0.1C475,466.2,472.5,463.1,471.8,462.2z"/>
	</g>
</g>
<path class="st12" d="M402.9,827.3c0,5.6-4.6,10.2-10.3,10.2c-5.7,0-10.3-4.6-10.3-10.2s4.6-10.2,10.3-10.2
	C398.3,817.2,402.9,821.7,402.9,827.3z"/>
<path class="st12" d="M562.9,815.3c0,4.2-3.4,7.3-7.3,7.3c-4,0-7.3-3.3-7.3-7.3c-0.2-4,3.1-7.3,7.3-7.3
	C559.6,808,562.9,811.3,562.9,815.3z"/>
<path class="st12" d="M410.6,843.8c0,2.3-1.9,4-4,4c-2.3,0-4-1.9-4-4c0-2.1,1.9-4,4-4C408.8,839.8,410.6,841.7,410.6,843.8z"/>
<path class="st12" d="M555.6,841.7c0,2.3-1.9,4-4,4c-2.3,0-4-1.9-4-4c0-2.3,1.9-4,4-4C553.7,837.7,555.6,839.6,555.6,841.7z"/>
<path class="st12" d="M586,840c0,2.1-1.7,4-4,4c-2.1,0-4-1.7-4-4c0-2.1,1.7-4,4-4C584.3,836.1,586,837.7,586,840z"/>
<path class="st12" d="M379,851c0,2.3-1.9,4-4,4c-2.1,0-4-1.7-4-4c0-2.3,1.9-4,4-4C377.1,847.1,379,849,379,851z"/>
<path class="st22" d="M430.3,118.2l-5.5,16.8h-4.2l-3.7-11.4l-3.8,11.4h-4.2l-5.5-16.8h4l3.8,11.8l4-11.8h3.6l3.8,11.9l3.9-11.9
	H430.3z M435.2,123.8c0.4-0.6,1-1.1,1.8-1.4c0.8-0.3,1.6-0.5,2.6-0.5v3.5c-0.4,0-0.7,0-0.8,0c-1.1,0-1.9,0.3-2.5,0.9
	c-0.6,0.6-0.9,1.5-0.9,2.7v6.1h-3.7v-12.9h3.6V123.8z M441.9,122.1h3.7V135h-3.7V122.1z M443.8,120.3c-0.7,0-1.2-0.2-1.7-0.6
	c-0.4-0.4-0.6-0.9-0.6-1.5c0-0.6,0.2-1.1,0.6-1.5s1-0.6,1.7-0.6s1.2,0.2,1.7,0.6c0.4,0.4,0.6,0.9,0.6,1.4c0,0.6-0.2,1.1-0.6,1.6
	C445,120.1,444.5,120.3,443.8,120.3z M457.5,134.4c-0.4,0.3-0.8,0.5-1.4,0.6c-0.5,0.1-1.1,0.2-1.7,0.2c-1.5,0-2.7-0.4-3.6-1.2
	c-0.8-0.8-1.2-1.9-1.2-3.5v-5.3h-2v-2.9h2v-3.1h3.7v3.1h3.2v2.9h-3.2v5.3c0,0.5,0.1,1,0.4,1.3c0.3,0.3,0.7,0.4,1.2,0.4
	c0.6,0,1.1-0.2,1.5-0.5L457.5,134.4z M471.8,128.6c0,0,0,0.4-0.1,1H462c0.2,0.8,0.6,1.4,1.2,1.9c0.7,0.5,1.5,0.7,2.4,0.7
	c0.7,0,1.3-0.1,1.8-0.3c0.5-0.2,1-0.5,1.5-1l2,2.2c-1.2,1.4-3,2.1-5.3,2.1c-1.5,0-2.7-0.3-3.9-0.8c-1.1-0.6-2-1.4-2.6-2.4
	c-0.6-1-0.9-2.2-0.9-3.4c0-1.3,0.3-2.4,0.9-3.4c0.6-1,1.4-1.8,2.5-2.4c1.1-0.6,2.2-0.9,3.5-0.9c1.3,0,2.4,0.3,3.4,0.8
	c1,0.5,1.8,1.3,2.4,2.4C471.5,126.1,471.8,127.2,471.8,128.6z M465.1,124.7c-0.8,0-1.6,0.2-2.1,0.7c-0.6,0.5-0.9,1.1-1.1,2h6.4
	c-0.1-0.8-0.5-1.5-1.1-1.9C466.6,125,465.9,124.7,465.1,124.7z M487.3,135.2c-1.4,0-2.6-0.3-3.7-0.8c-1.1-0.6-1.9-1.4-2.6-2.4
	c-0.6-1-0.9-2.2-0.9-3.4c0-1.3,0.3-2.4,0.9-3.4c0.6-1,1.5-1.8,2.6-2.4c1.1-0.6,2.3-0.9,3.7-0.9c1.4,0,2.5,0.3,3.6,0.9
	c1,0.6,1.8,1.4,2.2,2.4l-2.9,1.6c-0.7-1.2-1.6-1.8-2.9-1.8c-1,0-1.8,0.3-2.4,1c-0.6,0.6-1,1.5-1,2.6c0,1.1,0.3,2,1,2.6
	c0.6,0.6,1.4,1,2.4,1c1.3,0,2.2-0.6,2.9-1.8l2.9,1.6c-0.5,1-1.2,1.8-2.2,2.4C489.9,134.9,488.7,135.2,487.3,135.2z M501.3,135.2
	c-1.4,0-2.6-0.3-3.7-0.8c-1.1-0.6-1.9-1.4-2.5-2.4c-0.6-1-0.9-2.2-0.9-3.4c0-1.3,0.3-2.4,0.9-3.4c0.6-1,1.4-1.8,2.5-2.4
	c1.1-0.6,2.3-0.9,3.7-0.9c1.4,0,2.6,0.3,3.6,0.9c1.1,0.6,1.9,1.3,2.5,2.4s0.9,2.2,0.9,3.4c0,1.3-0.3,2.4-0.9,3.4s-1.4,1.8-2.5,2.4
	C503.8,134.9,502.6,135.2,501.3,135.2z M501.3,132.1c1,0,1.7-0.3,2.4-1c0.6-0.7,0.9-1.5,0.9-2.6c0-1.1-0.3-2-0.9-2.6
	c-0.6-0.7-1.4-1-2.4-1s-1.8,0.3-2.4,1c-0.6,0.6-0.9,1.5-0.9,2.6c0,1.1,0.3,2,0.9,2.6C499.5,131.8,500.3,132.1,501.3,132.1z
	 M524,117.2V135h-3.6v-1.5c-0.9,1.1-2.3,1.7-4,1.7c-1.2,0-2.3-0.3-3.3-0.8c-1-0.5-1.7-1.3-2.3-2.3c-0.6-1-0.8-2.2-0.8-3.5
	c0-1.3,0.3-2.5,0.8-3.5c0.6-1,1.3-1.8,2.3-2.3c1-0.5,2.1-0.8,3.3-0.8c1.6,0,2.9,0.5,3.9,1.6v-6.3H524z M517,132.1
	c0.9,0,1.7-0.3,2.4-1c0.6-0.7,0.9-1.5,0.9-2.6c0-1.1-0.3-2-0.9-2.6c-0.6-0.7-1.4-1-2.4-1c-1,0-1.8,0.3-2.4,1
	c-0.6,0.6-0.9,1.5-0.9,2.6c0,1.1,0.3,2,0.9,2.6C515.3,131.8,516.1,132.1,517,132.1z M540.1,128.6c0,0,0,0.4-0.1,1h-9.8
	c0.2,0.8,0.6,1.4,1.2,1.9s1.5,0.7,2.4,0.7c0.7,0,1.3-0.1,1.8-0.3c0.5-0.2,1-0.5,1.5-1l2,2.2c-1.2,1.4-3,2.1-5.3,2.1
	c-1.5,0-2.7-0.3-3.9-0.8c-1.1-0.6-2-1.4-2.6-2.4c-0.6-1-0.9-2.2-0.9-3.4c0-1.3,0.3-2.4,0.9-3.4c0.6-1,1.4-1.8,2.5-2.4
	c1.1-0.6,2.2-0.9,3.5-0.9c1.3,0,2.4,0.3,3.4,0.8s1.8,1.3,2.4,2.4C539.8,126.1,540.1,127.2,540.1,128.6z M533.4,124.7
	c-0.8,0-1.6,0.2-2.1,0.7c-0.6,0.5-0.9,1.1-1.1,2h6.4c-0.1-0.8-0.5-1.5-1.1-1.9C534.9,125,534.2,124.7,533.4,124.7z M562.6,135.3
	l-2-1.9c-1.6,1.2-3.5,1.9-5.6,1.9c-1.2,0-2.3-0.2-3.3-0.6c-1-0.4-1.7-1-2.3-1.7c-0.5-0.7-0.8-1.5-0.8-2.4c0-1,0.3-2,0.9-2.7
	c0.6-0.8,1.5-1.6,2.8-2.3c-0.6-0.6-1-1.2-1.3-1.8c-0.3-0.6-0.4-1.2-0.4-1.8c0-0.8,0.2-1.5,0.6-2.2c0.4-0.6,1-1.1,1.8-1.4
	c0.8-0.4,1.7-0.5,2.8-0.5c1.5,0,2.6,0.4,3.5,1.1c0.9,0.7,1.3,1.6,1.3,2.8c0,0.9-0.3,1.6-0.8,2.3c-0.5,0.7-1.3,1.3-2.5,1.9l3.1,2.9
	c0.4-0.8,0.6-1.6,0.8-2.6l3,0.9c-0.3,1.5-0.8,2.8-1.5,3.8l2,1.8L562.6,135.3z M555.7,120.5c-0.6,0-1,0.1-1.3,0.4
	c-0.3,0.3-0.5,0.7-0.5,1.1c0,0.3,0.1,0.7,0.3,1c0.2,0.3,0.5,0.7,1,1.2c0.8-0.4,1.4-0.8,1.7-1.2c0.3-0.4,0.5-0.7,0.5-1.1
	c0-0.4-0.1-0.8-0.4-1C556.7,120.7,556.3,120.5,555.7,120.5z M555.2,132.4c1.2,0,2.2-0.3,3.1-1l-4.1-3.8c-0.8,0.4-1.3,0.9-1.6,1.3
	s-0.5,0.9-0.5,1.4c0,0.6,0.3,1.1,0.8,1.5S554.3,132.4,555.2,132.4z M383.9,159.1h3.7V172h-3.7V159.1z M385.8,157.3
	c-0.7,0-1.2-0.2-1.7-0.6c-0.4-0.4-0.6-0.9-0.6-1.5c0-0.6,0.2-1.1,0.6-1.5c0.4-0.4,1-0.6,1.7-0.6c0.7,0,1.2,0.2,1.7,0.6
	s0.6,0.9,0.6,1.4c0,0.6-0.2,1.1-0.6,1.6C387.1,157.1,386.5,157.3,385.8,157.3z M407.7,158.9c1.6,0,2.9,0.5,3.8,1.4
	c1,0.9,1.4,2.4,1.4,4.3v7.4h-3.7v-6.8c0-1-0.2-1.8-0.6-2.3c-0.4-0.5-1-0.8-1.8-0.8c-0.9,0-1.6,0.3-2.1,0.9c-0.5,0.6-0.8,1.4-0.8,2.5
	v6.5h-3.7v-6.8c0-2-0.8-3-2.4-3c-0.9,0-1.6,0.3-2.1,0.9c-0.5,0.6-0.8,1.4-0.8,2.5v6.5h-3.7v-12.9h3.6v1.5c0.5-0.5,1.1-1,1.8-1.2
	c0.7-0.3,1.5-0.4,2.3-0.4c0.9,0,1.7,0.2,2.5,0.6c0.7,0.4,1.3,0.9,1.8,1.6c0.5-0.7,1.2-1.2,2-1.6
	C405.8,159.1,406.7,158.9,407.7,158.9z M424,158.9c1.2,0,2.3,0.3,3.3,0.8c1,0.5,1.8,1.3,2.3,2.3c0.6,1,0.8,2.2,0.8,3.5
	c0,1.3-0.3,2.5-0.8,3.5c-0.6,1-1.3,1.8-2.3,2.3c-1,0.5-2.1,0.8-3.3,0.8c-1.6,0-2.9-0.5-3.9-1.6v6h-3.7v-17.6h3.6v1.5
	C420.8,159.5,422.2,158.9,424,158.9z M423.3,169.1c1,0,1.7-0.3,2.4-1c0.6-0.7,0.9-1.5,0.9-2.6c0-1.1-0.3-2-0.9-2.6
	c-0.6-0.7-1.4-1-2.4-1s-1.8,0.3-2.4,1c-0.6,0.6-0.9,1.5-0.9,2.6c0,1.1,0.3,2,0.9,2.6C421.6,168.8,422.4,169.1,423.3,169.1z
	 M432.9,154.2h3.7V172h-3.7V154.2z M452.8,165.6c0,0,0,0.4-0.1,1h-9.8c0.2,0.8,0.6,1.4,1.2,1.9c0.7,0.5,1.5,0.7,2.4,0.7
	c0.7,0,1.3-0.1,1.8-0.3c0.5-0.2,1-0.5,1.5-1l2,2.2c-1.2,1.4-3,2.1-5.3,2.1c-1.5,0-2.7-0.3-3.9-0.8c-1.1-0.6-2-1.4-2.6-2.4
	c-0.6-1-0.9-2.2-0.9-3.4c0-1.3,0.3-2.4,0.9-3.4c0.6-1,1.4-1.8,2.5-2.4c1.1-0.6,2.2-0.9,3.5-0.9c1.3,0,2.4,0.3,3.4,0.8
	c1,0.5,1.8,1.3,2.4,2.4C452.5,163.1,452.8,164.2,452.8,165.6z M446.1,161.7c-0.8,0-1.6,0.2-2.1,0.7s-0.9,1.1-1.1,2h6.4
	c-0.1-0.8-0.5-1.5-1.1-1.9C447.6,162,446.9,161.7,446.1,161.7z M471.8,158.9c1.6,0,2.9,0.5,3.8,1.4c1,0.9,1.4,2.4,1.4,4.3v7.4h-3.7
	v-6.8c0-1-0.2-1.8-0.6-2.3c-0.4-0.5-1-0.8-1.8-0.8c-0.9,0-1.6,0.3-2.1,0.9c-0.5,0.6-0.8,1.4-0.8,2.5v6.5h-3.7v-6.8c0-2-0.8-3-2.4-3
	c-0.9,0-1.6,0.3-2.1,0.9c-0.5,0.6-0.8,1.4-0.8,2.5v6.5h-3.7v-12.9h3.6v1.5c0.5-0.5,1.1-1,1.8-1.2c0.7-0.3,1.5-0.4,2.3-0.4
	c0.9,0,1.7,0.2,2.5,0.6c0.7,0.4,1.3,0.9,1.8,1.6c0.5-0.7,1.2-1.2,2-1.6C469.9,159.1,470.8,158.9,471.8,158.9z M493.2,165.6
	c0,0,0,0.4-0.1,1h-9.8c0.2,0.8,0.6,1.4,1.2,1.9s1.5,0.7,2.4,0.7c0.7,0,1.3-0.1,1.8-0.3c0.5-0.2,1-0.5,1.5-1l2,2.2
	c-1.2,1.4-3,2.1-5.3,2.1c-1.5,0-2.7-0.3-3.9-0.8c-1.1-0.6-2-1.4-2.6-2.4s-0.9-2.2-0.9-3.4c0-1.3,0.3-2.4,0.9-3.4
	c0.6-1,1.4-1.8,2.5-2.4c1.1-0.6,2.2-0.9,3.5-0.9c1.3,0,2.4,0.3,3.4,0.8c1,0.5,1.8,1.3,2.4,2.4C492.9,163.1,493.2,164.2,493.2,165.6z
	 M486.5,161.7c-0.8,0-1.6,0.2-2.1,0.7s-0.9,1.1-1.1,2h6.4c-0.1-0.8-0.5-1.5-1.1-1.9C488.1,162,487.4,161.7,486.5,161.7z
	 M503.6,158.9c1.6,0,2.9,0.5,3.9,1.4c1,1,1.5,2.4,1.5,4.3v7.4h-3.7v-6.8c0-1-0.2-1.8-0.7-2.3c-0.4-0.5-1.1-0.8-1.9-0.8
	c-0.9,0-1.7,0.3-2.3,0.9c-0.6,0.6-0.8,1.4-0.8,2.6v6.4h-3.7v-12.9h3.6v1.5c0.5-0.5,1.1-1,1.8-1.2C501.9,159,502.7,158.9,503.6,158.9
	z M520.6,171.4c-0.4,0.3-0.8,0.5-1.4,0.6c-0.5,0.1-1.1,0.2-1.7,0.2c-1.5,0-2.7-0.4-3.6-1.2c-0.8-0.8-1.2-1.9-1.2-3.5v-5.3h-2v-2.9h2
	v-3.1h3.7v3.1h3.2v2.9h-3.2v5.3c0,0.5,0.1,1,0.4,1.3c0.3,0.3,0.7,0.4,1.2,0.4c0.6,0,1.1-0.2,1.5-0.5L520.6,171.4z M527.9,158.9
	c2,0,3.5,0.5,4.6,1.4c1.1,0.9,1.6,2.4,1.6,4.3v7.4h-3.5v-1.6c-0.7,1.2-2,1.8-3.9,1.8c-1,0-1.9-0.2-2.6-0.5c-0.7-0.3-1.3-0.8-1.7-1.4
	c-0.4-0.6-0.6-1.3-0.6-2c0-1.2,0.4-2.1,1.3-2.8c0.9-0.7,2.3-1,4.2-1h3c0-0.8-0.2-1.4-0.7-1.9c-0.5-0.4-1.2-0.7-2.2-0.7
	c-0.7,0-1.4,0.1-2,0.3c-0.7,0.2-1.2,0.5-1.7,0.9l-1.3-2.6c0.7-0.5,1.5-0.9,2.5-1.2C525.9,159,526.9,158.9,527.9,158.9z M527.7,169.7
	c0.6,0,1.2-0.1,1.7-0.4c0.5-0.3,0.8-0.7,1.1-1.3v-1.3h-2.6c-1.5,0-2.3,0.5-2.3,1.5c0,0.5,0.2,0.9,0.6,1.2
	C526.5,169.5,527,169.7,527.7,169.7z M545.9,171.4c-0.4,0.3-0.8,0.5-1.4,0.6c-0.5,0.1-1.1,0.2-1.7,0.2c-1.5,0-2.7-0.4-3.6-1.2
	c-0.8-0.8-1.2-1.9-1.2-3.5v-5.3h-2v-2.9h2v-3.1h3.7v3.1h3.2v2.9h-3.2v5.3c0,0.5,0.1,1,0.4,1.3c0.3,0.3,0.7,0.4,1.2,0.4
	c0.6,0,1.1-0.2,1.5-0.5L545.9,171.4z M548,159.1h3.7V172H548V159.1z M549.8,157.3c-0.7,0-1.2-0.2-1.7-0.6c-0.4-0.4-0.6-0.9-0.6-1.5
	c0-0.6,0.2-1.1,0.6-1.5c0.4-0.4,1-0.6,1.7-0.6c0.7,0,1.2,0.2,1.7,0.6c0.4,0.4,0.6,0.9,0.6,1.4c0,0.6-0.2,1.1-0.6,1.6
	C551.1,157.1,550.5,157.3,549.8,157.3z M561.3,172.2c-1.4,0-2.6-0.3-3.7-0.8c-1.1-0.6-1.9-1.4-2.5-2.4c-0.6-1-0.9-2.2-0.9-3.4
	s0.3-2.4,0.9-3.4c0.6-1,1.4-1.8,2.5-2.4c1.1-0.6,2.3-0.9,3.7-0.9s2.6,0.3,3.6,0.9c1.1,0.6,1.9,1.3,2.5,2.4c0.6,1,0.9,2.2,0.9,3.4
	s-0.3,2.4-0.9,3.4c-0.6,1-1.4,1.8-2.5,2.4C563.9,171.9,562.7,172.2,561.3,172.2z M561.3,169.1c1,0,1.7-0.3,2.4-1
	c0.6-0.7,0.9-1.5,0.9-2.6c0-1.1-0.3-2-0.9-2.6c-0.6-0.7-1.4-1-2.4-1s-1.8,0.3-2.4,1c-0.6,0.6-0.9,1.5-0.9,2.6c0,1.1,0.3,2,0.9,2.6
	C559.6,168.8,560.4,169.1,561.3,169.1z M578.8,158.9c1.6,0,2.9,0.5,3.9,1.4c1,1,1.5,2.4,1.5,4.3v7.4h-3.7v-6.8c0-1-0.2-1.8-0.7-2.3
	c-0.4-0.5-1.1-0.8-1.9-0.8c-0.9,0-1.7,0.3-2.3,0.9c-0.6,0.6-0.8,1.4-0.8,2.6v6.4h-3.7v-12.9h3.6v1.5c0.5-0.5,1.1-1,1.8-1.2
	C577.1,159,577.9,158.9,578.8,158.9z"/>
<path class="st22" d="M653.6,239.2c1.5,0,2.8,0.2,3.9,0.7c1.1,0.5,2,1.2,2.5,2.1c0.6,0.9,0.9,2,0.9,3.2c0,1.2-0.3,2.3-0.9,3.2
	c-0.6,0.9-1.4,1.6-2.5,2.1c-1.1,0.5-2.4,0.7-3.9,0.7h-3.4v4.6h-3.9v-16.8H653.6z M653.3,248.2c1.2,0,2.1-0.2,2.7-0.7
	c0.6-0.5,0.9-1.2,0.9-2.2c0-0.9-0.3-1.7-0.9-2.2c-0.6-0.5-1.5-0.8-2.7-0.8h-3.2v5.8H653.3z M666.9,244.8c0.4-0.6,1-1.1,1.8-1.4
	c0.8-0.3,1.6-0.5,2.6-0.5v3.5c-0.4,0-0.7,0-0.8,0c-1.1,0-1.9,0.3-2.5,0.9c-0.6,0.6-0.9,1.5-0.9,2.7v6.1h-3.7v-12.9h3.6V244.8z
	 M679.6,256.2c-1.4,0-2.6-0.3-3.7-0.8c-1.1-0.6-1.9-1.4-2.5-2.4c-0.6-1-0.9-2.2-0.9-3.4s0.3-2.4,0.9-3.4c0.6-1,1.4-1.8,2.5-2.4
	c1.1-0.6,2.3-0.9,3.7-0.9c1.4,0,2.6,0.3,3.6,0.9c1.1,0.6,1.9,1.3,2.5,2.4c0.6,1,0.9,2.2,0.9,3.4s-0.3,2.4-0.9,3.4
	c-0.6,1-1.4,1.8-2.5,2.4C682.2,255.9,681,256.2,679.6,256.2z M679.6,253.1c1,0,1.7-0.3,2.4-1c0.6-0.7,0.9-1.5,0.9-2.6
	c0-1.1-0.3-2-0.9-2.6c-0.6-0.7-1.4-1-2.4-1c-1,0-1.8,0.3-2.4,1c-0.6,0.6-0.9,1.5-0.9,2.6c0,1.1,0.3,2,0.9,2.6
	C677.9,252.8,678.7,253.1,679.6,253.1z M688.3,260.8c-1.3,0-2.3-0.2-3-0.7l1-2.7c0.4,0.3,1,0.5,1.6,0.5c0.5,0,0.9-0.2,1.1-0.5
	c0.3-0.3,0.4-0.8,0.4-1.4v-12.9h3.7V256c0,1.5-0.4,2.7-1.3,3.6C691,260.4,689.8,260.8,688.3,260.8z M691.3,241.3
	c-0.7,0-1.2-0.2-1.7-0.6c-0.4-0.4-0.6-0.9-0.6-1.5c0-0.6,0.2-1.1,0.6-1.5c0.4-0.4,1-0.6,1.7-0.6c0.7,0,1.2,0.2,1.7,0.6
	c0.4,0.4,0.6,0.9,0.6,1.4c0,0.6-0.2,1.1-0.6,1.6C692.5,241.1,692,241.3,691.3,241.3z M709.2,249.6c0,0,0,0.4-0.1,1h-9.8
	c0.2,0.8,0.6,1.4,1.2,1.9s1.5,0.7,2.4,0.7c0.7,0,1.3-0.1,1.8-0.3c0.5-0.2,1-0.5,1.5-1l2,2.2c-1.2,1.4-3,2.1-5.3,2.1
	c-1.5,0-2.7-0.3-3.9-0.8c-1.1-0.6-2-1.4-2.6-2.4c-0.6-1-0.9-2.2-0.9-3.4c0-1.3,0.3-2.4,0.9-3.4c0.6-1,1.4-1.8,2.5-2.4
	c1.1-0.6,2.2-0.9,3.5-0.9c1.3,0,2.4,0.3,3.4,0.8c1,0.5,1.8,1.3,2.4,2.4C708.9,247.1,709.2,248.2,709.2,249.6z M702.5,245.7
	c-0.8,0-1.6,0.2-2.1,0.7s-0.9,1.1-1.1,2h6.4c-0.1-0.8-0.5-1.5-1.1-1.9C704.1,246,703.4,245.7,702.5,245.7z M718,256.2
	c-1.4,0-2.6-0.3-3.7-0.8c-1.1-0.6-1.9-1.4-2.6-2.4c-0.6-1-0.9-2.2-0.9-3.4s0.3-2.4,0.9-3.4c0.6-1,1.5-1.8,2.6-2.4
	c1.1-0.6,2.3-0.9,3.7-0.9c1.4,0,2.5,0.3,3.6,0.9c1,0.6,1.8,1.4,2.2,2.4l-2.9,1.6c-0.7-1.2-1.6-1.8-2.9-1.8c-1,0-1.8,0.3-2.4,1
	s-1,1.5-1,2.6c0,1.1,0.3,2,1,2.6s1.4,1,2.4,1c1.3,0,2.2-0.6,2.9-1.8l2.9,1.6c-0.5,1-1.2,1.8-2.2,2.4
	C720.5,255.9,719.3,256.2,718,256.2z M734.4,255.4c-0.4,0.3-0.8,0.5-1.4,0.6c-0.5,0.1-1.1,0.2-1.7,0.2c-1.5,0-2.7-0.4-3.6-1.2
	c-0.8-0.8-1.2-1.9-1.2-3.5v-5.3h-2v-2.9h2v-3.1h3.7v3.1h3.2v2.9h-3.2v5.3c0,0.5,0.1,1,0.4,1.3c0.3,0.3,0.7,0.4,1.2,0.4
	c0.6,0,1.1-0.2,1.5-0.5L734.4,255.4z M751.6,255.4c-0.4,0.3-0.8,0.5-1.4,0.6c-0.5,0.1-1.1,0.2-1.7,0.2c-1.5,0-2.7-0.4-3.6-1.2
	c-0.8-0.8-1.2-1.9-1.2-3.5v-5.3h-2v-2.9h2v-3.1h3.7v3.1h3.2v2.9h-3.2v5.3c0,0.5,0.1,1,0.4,1.3c0.3,0.3,0.7,0.4,1.2,0.4
	c0.6,0,1.1-0.2,1.5-0.5L751.6,255.4z M766,249.6c0,0,0,0.4-0.1,1h-9.8c0.2,0.8,0.6,1.4,1.2,1.9c0.7,0.5,1.5,0.7,2.4,0.7
	c0.7,0,1.3-0.1,1.8-0.3c0.5-0.2,1-0.5,1.5-1l2,2.2c-1.2,1.4-3,2.1-5.3,2.1c-1.5,0-2.7-0.3-3.9-0.8c-1.1-0.6-2-1.4-2.6-2.4
	c-0.6-1-0.9-2.2-0.9-3.4c0-1.3,0.3-2.4,0.9-3.4c0.6-1,1.4-1.8,2.5-2.4c1.1-0.6,2.2-0.9,3.5-0.9c1.3,0,2.4,0.3,3.4,0.8
	c1,0.5,1.8,1.3,2.4,2.4C765.7,247.1,766,248.2,766,249.6z M759.3,245.7c-0.8,0-1.6,0.2-2.1,0.7c-0.6,0.5-0.9,1.1-1.1,2h6.4
	c-0.1-0.8-0.5-1.5-1.1-1.9C760.8,246,760.1,245.7,759.3,245.7z M772.8,256.2c-1.1,0-2.1-0.1-3.1-0.4c-1-0.3-1.8-0.6-2.4-1l1.2-2.7
	c0.6,0.4,1.3,0.7,2.1,0.9c0.8,0.2,1.6,0.3,2.4,0.3c1.6,0,2.4-0.4,2.4-1.2c0-0.4-0.2-0.6-0.6-0.8s-1.1-0.3-2-0.4
	c-1.1-0.2-1.9-0.3-2.6-0.6c-0.7-0.2-1.3-0.6-1.8-1.1c-0.5-0.5-0.7-1.3-0.7-2.3c0-0.8,0.2-1.5,0.7-2.2c0.5-0.6,1.2-1.1,2.1-1.5
	c0.9-0.4,2-0.5,3.2-0.5c0.9,0,1.8,0.1,2.7,0.3c0.9,0.2,1.7,0.5,2.3,0.8l-1.2,2.7c-1.1-0.6-2.4-1-3.7-1c-0.8,0-1.4,0.1-1.8,0.3
	c-0.4,0.2-0.6,0.5-0.6,0.9c0,0.4,0.2,0.7,0.6,0.8c0.4,0.2,1.1,0.3,2.1,0.5c1.1,0.2,1.9,0.4,2.6,0.6c0.7,0.2,1.3,0.6,1.8,1.1
	c0.5,0.5,0.7,1.3,0.7,2.2c0,0.8-0.2,1.5-0.7,2.1c-0.5,0.6-1.2,1.1-2.1,1.5C775.2,256,774.1,256.2,772.8,256.2z M789.6,255.4
	c-0.4,0.3-0.8,0.5-1.4,0.6c-0.5,0.1-1.1,0.2-1.7,0.2c-1.5,0-2.7-0.4-3.6-1.2c-0.8-0.8-1.2-1.9-1.2-3.5v-5.3h-2v-2.9h2v-3.1h3.7v3.1
	h3.2v2.9h-3.2v5.3c0,0.5,0.1,1,0.4,1.3c0.3,0.3,0.7,0.4,1.2,0.4c0.6,0,1.1-0.2,1.5-0.5L789.6,255.4z M791.7,243.1h3.7V256h-3.7
	V243.1z M793.5,241.3c-0.7,0-1.2-0.2-1.7-0.6c-0.4-0.4-0.6-0.9-0.6-1.5c0-0.6,0.2-1.1,0.6-1.5c0.4-0.4,1-0.6,1.7-0.6
	s1.2,0.2,1.7,0.6s0.6,0.9,0.6,1.4c0,0.6-0.2,1.1-0.6,1.6C794.8,241.1,794.2,241.3,793.5,241.3z M806.7,242.9c1.6,0,2.9,0.5,3.9,1.4
	c1,1,1.5,2.4,1.5,4.3v7.4h-3.7v-6.8c0-1-0.2-1.8-0.7-2.3c-0.4-0.5-1.1-0.8-1.9-0.8c-0.9,0-1.7,0.3-2.3,0.9c-0.6,0.6-0.8,1.4-0.8,2.6
	v6.4h-3.7v-12.9h3.6v1.5c0.5-0.5,1.1-1,1.8-1.2C805,243,805.9,242.9,806.7,242.9z M828.9,243.1v10.8c0,2.4-0.6,4.1-1.8,5.3
	c-1.2,1.2-3,1.7-5.4,1.7c-1.2,0-2.4-0.2-3.6-0.5c-1.1-0.3-2-0.7-2.8-1.3l1.5-2.7c0.5,0.4,1.2,0.8,2.1,1.1c0.8,0.3,1.7,0.4,2.5,0.4
	c1.3,0,2.2-0.3,2.9-0.9c0.6-0.6,0.9-1.5,0.9-2.6v-0.6c-1,1.1-2.3,1.6-4.1,1.6c-1.2,0-2.3-0.3-3.3-0.8c-1-0.5-1.8-1.3-2.3-2.2
	c-0.6-0.9-0.9-2-0.9-3.3s0.3-2.3,0.9-3.3c0.6-0.9,1.4-1.7,2.3-2.2c1-0.5,2.1-0.8,3.3-0.8c1.9,0,3.3,0.6,4.3,1.8v-1.7H828.9z
	 M821.9,252.3c1,0,1.8-0.3,2.4-0.9c0.6-0.6,1-1.4,1-2.3s-0.3-1.7-1-2.3c-0.6-0.6-1.4-0.9-2.4-0.9s-1.8,0.3-2.4,0.9
	c-0.6,0.6-1,1.3-1,2.3s0.3,1.7,1,2.3C820.1,252,820.9,252.3,821.9,252.3z M653.5,280.1l-4.7,12.9h-3.6l-2.9-8l-3,8h-3.6l-4.7-12.9
	h3.5l3,8.7l3.2-8.7h3.2l3.1,8.7l3.1-8.7H653.5z M655.3,280.1h3.7V293h-3.7V280.1z M657.1,278.3c-0.7,0-1.2-0.2-1.7-0.6
	c-0.4-0.4-0.6-0.9-0.6-1.5c0-0.6,0.2-1.1,0.6-1.5s1-0.6,1.7-0.6s1.2,0.2,1.7,0.6s0.6,0.9,0.6,1.4c0,0.6-0.2,1.1-0.6,1.6
	C658.4,278.1,657.8,278.3,657.1,278.3z M670.8,292.4c-0.4,0.3-0.8,0.5-1.4,0.6c-0.5,0.1-1.1,0.2-1.7,0.2c-1.5,0-2.7-0.4-3.6-1.2
	c-0.8-0.8-1.2-1.9-1.2-3.5v-5.3h-2v-2.9h2v-3.1h3.7v3.1h3.2v2.9h-3.2v5.3c0,0.5,0.1,1,0.4,1.3c0.3,0.3,0.7,0.4,1.2,0.4
	c0.6,0,1.1-0.2,1.5-0.5L670.8,292.4z M680.7,279.9c1.6,0,2.9,0.5,3.9,1.4c1,1,1.5,2.4,1.5,4.3v7.4h-3.7v-6.8c0-1-0.2-1.8-0.7-2.3
	c-0.4-0.5-1.1-0.8-1.9-0.8c-0.9,0-1.7,0.3-2.3,0.9c-0.6,0.6-0.8,1.4-0.8,2.6v6.4h-3.7v-17.8h3.7v6.2c0.5-0.5,1.1-0.9,1.8-1.1
	C679.1,280,679.9,279.9,680.7,279.9z M700.4,280.4h3.3v2.9h-3.2v9.7h-3.7v-9.7h-2v-2.9h2v-0.6c0-1.5,0.4-2.6,1.3-3.5
	c0.9-0.9,2.1-1.3,3.7-1.3c0.6,0,1.1,0.1,1.6,0.2c0.5,0.1,0.9,0.3,1.3,0.5l-1,2.7c-0.4-0.3-0.9-0.5-1.5-0.5c-1.1,0-1.7,0.6-1.7,1.9
	V280.4z M718.1,286.6c0,0,0,0.4-0.1,1h-9.8c0.2,0.8,0.6,1.4,1.2,1.9s1.5,0.7,2.4,0.7c0.7,0,1.3-0.1,1.8-0.3c0.5-0.2,1-0.5,1.5-1
	l2,2.2c-1.2,1.4-3,2.1-5.3,2.1c-1.5,0-2.7-0.3-3.9-0.8c-1.1-0.6-2-1.4-2.6-2.4c-0.6-1-0.9-2.2-0.9-3.4c0-1.3,0.3-2.4,0.9-3.4
	c0.6-1,1.4-1.8,2.5-2.4c1.1-0.6,2.2-0.9,3.5-0.9c1.3,0,2.4,0.3,3.4,0.8s1.8,1.3,2.4,2.4C717.8,284.1,718.1,285.2,718.1,286.6z
	 M711.4,282.7c-0.8,0-1.6,0.2-2.1,0.7s-0.9,1.1-1.1,2h6.4c-0.1-0.8-0.5-1.5-1.1-1.9C712.9,283,712.2,282.7,711.4,282.7z M741,280.1
	l-4.7,12.9h-3.6l-2.9-8l-3,8h-3.6l-4.7-12.9h3.5l3,8.7l3.2-8.7h3.2l3.1,8.7l3.1-8.7H741z M766.1,279.9c1.6,0,2.9,0.5,3.8,1.4
	c1,0.9,1.4,2.4,1.4,4.3v7.4h-3.7v-6.8c0-1-0.2-1.8-0.6-2.3c-0.4-0.5-1-0.8-1.8-0.8c-0.9,0-1.6,0.3-2.1,0.9c-0.5,0.6-0.8,1.4-0.8,2.5
	v6.5h-3.7v-6.8c0-2-0.8-3-2.4-3c-0.9,0-1.6,0.3-2.1,0.9c-0.5,0.6-0.8,1.4-0.8,2.5v6.5h-3.7v-12.9h3.6v1.5c0.5-0.5,1.1-1,1.8-1.2
	c0.7-0.3,1.5-0.4,2.3-0.4c0.9,0,1.7,0.2,2.5,0.6c0.7,0.4,1.3,0.9,1.8,1.6c0.5-0.7,1.2-1.2,2-1.6
	C764.3,280.1,765.2,279.9,766.1,279.9z M787.5,286.6c0,0,0,0.4-0.1,1h-9.8c0.2,0.8,0.6,1.4,1.2,1.9s1.5,0.7,2.4,0.7
	c0.7,0,1.3-0.1,1.8-0.3c0.5-0.2,1-0.5,1.5-1l2,2.2c-1.2,1.4-3,2.1-5.3,2.1c-1.5,0-2.7-0.3-3.9-0.8c-1.1-0.6-2-1.4-2.6-2.4
	c-0.6-1-0.9-2.2-0.9-3.4c0-1.3,0.3-2.4,0.9-3.4c0.6-1,1.4-1.8,2.5-2.4c1.1-0.6,2.2-0.9,3.5-0.9c1.3,0,2.4,0.3,3.4,0.8
	s1.8,1.3,2.4,2.4C787.3,284.1,787.5,285.2,787.5,286.6z M780.9,282.7c-0.8,0-1.6,0.2-2.1,0.7s-0.9,1.1-1.1,2h6.4
	c-0.1-0.8-0.5-1.5-1.1-1.9C782.4,283,781.7,282.7,780.9,282.7z M798.4,292.4c-0.4,0.3-0.8,0.5-1.4,0.6c-0.5,0.1-1.1,0.2-1.7,0.2
	c-1.5,0-2.7-0.4-3.6-1.2c-0.8-0.8-1.2-1.9-1.2-3.5v-5.3h-2v-2.9h2v-3.1h3.7v3.1h3.2v2.9h-3.2v5.3c0,0.5,0.1,1,0.4,1.3
	c0.3,0.3,0.7,0.4,1.2,0.4c0.6,0,1.1-0.2,1.5-0.5L798.4,292.4z M808.3,279.9c1.6,0,2.9,0.5,3.9,1.4c1,1,1.5,2.4,1.5,4.3v7.4h-3.7
	v-6.8c0-1-0.2-1.8-0.7-2.3c-0.4-0.5-1.1-0.8-1.9-0.8c-0.9,0-1.7,0.3-2.3,0.9c-0.6,0.6-0.8,1.4-0.8,2.6v6.4h-3.7v-17.8h3.7v6.2
	c0.5-0.5,1.1-0.9,1.8-1.1C806.7,280,807.5,279.9,808.3,279.9z M823.3,293.2c-1.4,0-2.6-0.3-3.7-0.8c-1.1-0.6-1.9-1.4-2.5-2.4
	c-0.6-1-0.9-2.2-0.9-3.4s0.3-2.4,0.9-3.4c0.6-1,1.4-1.8,2.5-2.4c1.1-0.6,2.3-0.9,3.7-0.9s2.6,0.3,3.6,0.9c1.1,0.6,1.9,1.3,2.5,2.4
	c0.6,1,0.9,2.2,0.9,3.4s-0.3,2.4-0.9,3.4c-0.6,1-1.4,1.8-2.5,2.4C825.9,292.9,824.7,293.2,823.3,293.2z M823.3,290.1
	c1,0,1.7-0.3,2.4-1c0.6-0.7,0.9-1.5,0.9-2.6c0-1.1-0.3-2-0.9-2.6c-0.6-0.7-1.4-1-2.4-1s-1.8,0.3-2.4,1c-0.6,0.6-0.9,1.5-0.9,2.6
	c0,1.1,0.3,2,0.9,2.6C821.6,289.8,822.4,290.1,823.3,290.1z M855.1,293.2c-1.1,0-2.1-0.1-3.1-0.4c-1-0.3-1.8-0.6-2.4-1l1.2-2.7
	c0.6,0.4,1.3,0.7,2.1,0.9c0.8,0.2,1.6,0.3,2.4,0.3c1.6,0,2.4-0.4,2.4-1.2c0-0.4-0.2-0.6-0.6-0.8c-0.4-0.2-1.1-0.3-2-0.4
	c-1.1-0.2-1.9-0.3-2.6-0.6s-1.3-0.6-1.8-1.1c-0.5-0.5-0.7-1.3-0.7-2.3c0-0.8,0.2-1.5,0.7-2.2c0.5-0.6,1.2-1.1,2.1-1.5
	c0.9-0.4,2-0.5,3.2-0.5c0.9,0,1.8,0.1,2.7,0.3c0.9,0.2,1.7,0.5,2.3,0.8l-1.2,2.7c-1.1-0.6-2.4-1-3.7-1c-0.8,0-1.4,0.1-1.8,0.3
	c-0.4,0.2-0.6,0.5-0.6,0.9c0,0.4,0.2,0.7,0.6,0.8s1.1,0.3,2.1,0.5c1.1,0.2,1.9,0.4,2.6,0.6c0.7,0.2,1.3,0.6,1.8,1.1
	c0.5,0.5,0.7,1.3,0.7,2.2c0,0.8-0.2,1.5-0.7,2.1s-1.2,1.1-2.1,1.5C857.5,293,856.4,293.2,855.1,293.2z"/>
<path class="st22" d="M97.8,511l-3.2-4.7h-0.2H91v4.7h-3.9v-16.8h7.3c1.5,0,2.8,0.2,3.9,0.7c1.1,0.5,2,1.2,2.5,2.1
	c0.6,0.9,0.9,2,0.9,3.2c0,1.2-0.3,2.3-0.9,3.2c-0.6,0.9-1.4,1.6-2.5,2.1l3.8,5.4H97.8z M97.7,500.3c0-0.9-0.3-1.7-0.9-2.2
	c-0.6-0.5-1.5-0.8-2.7-0.8H91v5.9h3.2c1.2,0,2.1-0.3,2.7-0.8S97.7,501.2,97.7,500.3z M117.1,504.6c0,0,0,0.4-0.1,1h-9.8
	c0.2,0.8,0.6,1.4,1.2,1.9c0.7,0.5,1.5,0.7,2.4,0.7c0.7,0,1.3-0.1,1.8-0.3c0.5-0.2,1-0.5,1.5-1l2,2.2c-1.2,1.4-3,2.1-5.3,2.1
	c-1.5,0-2.7-0.3-3.9-0.8c-1.1-0.6-2-1.4-2.6-2.4c-0.6-1-0.9-2.2-0.9-3.4c0-1.3,0.3-2.4,0.9-3.4c0.6-1,1.4-1.8,2.5-2.4
	c1.1-0.6,2.2-0.9,3.5-0.9c1.3,0,2.4,0.3,3.4,0.8c1,0.5,1.8,1.3,2.4,2.4C116.8,502.1,117.1,503.2,117.1,504.6z M110.4,500.7
	c-0.8,0-1.6,0.2-2.1,0.7c-0.6,0.5-0.9,1.1-1.1,2h6.4c-0.1-0.8-0.5-1.5-1.1-1.9C112,501,111.3,500.7,110.4,500.7z M132.7,498.1v17.6
	H129v-6c-0.9,1-2.2,1.6-3.9,1.6c-1.2,0-2.3-0.3-3.3-0.8c-1-0.5-1.7-1.3-2.3-2.3s-0.8-2.2-0.8-3.5s0.3-2.5,0.8-3.5s1.3-1.8,2.3-2.3
	c1-0.5,2.1-0.8,3.3-0.8c1.8,0,3.1,0.6,4,1.7v-1.5H132.7z M125.8,508.1c0.9,0,1.7-0.3,2.4-1c0.6-0.7,0.9-1.5,0.9-2.6
	c0-1.1-0.3-2-0.9-2.6c-0.6-0.7-1.4-1-2.4-1c-1,0-1.8,0.3-2.4,1c-0.6,0.6-0.9,1.5-0.9,2.6c0,1.1,0.3,2,0.9,2.6
	C124,507.8,124.8,508.1,125.8,508.1z M149.2,498.1V511h-3.6v-1.5c-0.5,0.6-1.1,1-1.8,1.3c-0.7,0.3-1.4,0.4-2.2,0.4
	c-1.7,0-3-0.5-4-1.5c-1-1-1.5-2.4-1.5-4.3v-7.3h3.7v6.7c0,2.1,0.9,3.1,2.6,3.1c0.9,0,1.6-0.3,2.2-0.9c0.5-0.6,0.8-1.5,0.8-2.6v-6.4
	H149.2z M152.7,498.1h3.7V511h-3.7V498.1z M154.5,496.3c-0.7,0-1.2-0.2-1.7-0.6c-0.4-0.4-0.6-0.9-0.6-1.5c0-0.6,0.2-1.1,0.6-1.5
	c0.4-0.4,1-0.6,1.7-0.6c0.7,0,1.2,0.2,1.7,0.6c0.4,0.4,0.6,0.9,0.6,1.4c0,0.6-0.2,1.1-0.6,1.6C155.8,496.1,155.2,496.3,154.5,496.3z
	 M163.5,499.8c0.4-0.6,1-1.1,1.8-1.4c0.8-0.3,1.6-0.5,2.6-0.5v3.5c-0.4,0-0.7,0-0.8,0c-1.1,0-1.9,0.3-2.5,0.9
	c-0.6,0.6-0.9,1.5-0.9,2.7v6.1h-3.7v-12.9h3.6V499.8z M182.7,504.6c0,0,0,0.4-0.1,1h-9.8c0.2,0.8,0.6,1.4,1.2,1.9
	c0.7,0.5,1.5,0.7,2.4,0.7c0.7,0,1.3-0.1,1.8-0.3c0.5-0.2,1-0.5,1.5-1l2,2.2c-1.2,1.4-3,2.1-5.3,2.1c-1.5,0-2.7-0.3-3.9-0.8
	c-1.1-0.6-2-1.4-2.6-2.4c-0.6-1-0.9-2.2-0.9-3.4c0-1.3,0.3-2.4,0.9-3.4c0.6-1,1.4-1.8,2.5-2.4c1.1-0.6,2.2-0.9,3.5-0.9
	c1.3,0,2.4,0.3,3.4,0.8s1.8,1.3,2.4,2.4C182.4,502.1,182.7,503.2,182.7,504.6z M176,500.7c-0.8,0-1.6,0.2-2.1,0.7s-0.9,1.1-1.1,2
	h6.4c-0.1-0.8-0.5-1.5-1.1-1.9C177.5,501,176.8,500.7,176,500.7z M201.7,497.9c1.6,0,2.9,0.5,3.8,1.4c1,0.9,1.4,2.4,1.4,4.3v7.4
	h-3.7v-6.8c0-1-0.2-1.8-0.6-2.3c-0.4-0.5-1-0.8-1.8-0.8c-0.9,0-1.6,0.3-2.1,0.9c-0.5,0.6-0.8,1.4-0.8,2.5v6.5h-3.7v-6.8
	c0-2-0.8-3-2.4-3c-0.9,0-1.6,0.3-2.1,0.9c-0.5,0.6-0.8,1.4-0.8,2.5v6.5h-3.7v-12.9h3.6v1.5c0.5-0.5,1.1-1,1.8-1.2
	c0.7-0.3,1.5-0.4,2.3-0.4c0.9,0,1.7,0.2,2.5,0.6c0.7,0.4,1.3,0.9,1.8,1.6c0.5-0.7,1.2-1.2,2-1.6
	C199.8,498.1,200.7,497.9,201.7,497.9z M223.1,504.6c0,0,0,0.4-0.1,1h-9.8c0.2,0.8,0.6,1.4,1.2,1.9c0.7,0.5,1.5,0.7,2.4,0.7
	c0.7,0,1.3-0.1,1.8-0.3c0.5-0.2,1-0.5,1.5-1l2,2.2c-1.2,1.4-3,2.1-5.3,2.1c-1.5,0-2.7-0.3-3.9-0.8c-1.1-0.6-2-1.4-2.6-2.4
	c-0.6-1-0.9-2.2-0.9-3.4c0-1.3,0.3-2.4,0.9-3.4c0.6-1,1.4-1.8,2.5-2.4c1.1-0.6,2.2-0.9,3.5-0.9c1.3,0,2.4,0.3,3.4,0.8
	c1,0.5,1.8,1.3,2.4,2.4C222.8,502.1,223.1,503.2,223.1,504.6z M216.4,500.7c-0.8,0-1.6,0.2-2.1,0.7s-0.9,1.1-1.1,2h6.4
	c-0.1-0.8-0.5-1.5-1.1-1.9C217.9,501,217.2,500.7,216.4,500.7z M233.5,497.9c1.6,0,2.9,0.5,3.9,1.4c1,1,1.5,2.4,1.5,4.3v7.4h-3.7
	v-6.8c0-1-0.2-1.8-0.7-2.3c-0.4-0.5-1.1-0.8-1.9-0.8c-0.9,0-1.7,0.3-2.3,0.9c-0.6,0.6-0.8,1.4-0.8,2.6v6.4h-3.7v-12.9h3.6v1.5
	c0.5-0.5,1.1-1,1.8-1.2C231.8,498,232.6,497.9,233.5,497.9z M250.5,510.4c-0.4,0.3-0.8,0.5-1.4,0.6c-0.5,0.1-1.1,0.2-1.7,0.2
	c-1.5,0-2.7-0.4-3.6-1.2c-0.8-0.8-1.2-1.9-1.2-3.5v-5.3h-2v-2.9h2v-3.1h3.7v3.1h3.2v2.9h-3.2v5.3c0,0.5,0.1,1,0.4,1.3
	c0.3,0.3,0.7,0.4,1.2,0.4c0.6,0,1.1-0.2,1.5-0.5L250.5,510.4z M129.1,544.4h-7.8l-1.5,3.6h-4l7.5-16.8h3.8l7.5,16.8h-4.1
	L129.1,544.4z M127.9,541.4l-2.7-6.4l-2.7,6.4H127.9z M144,534.9c1.6,0,2.9,0.5,3.9,1.4c1,1,1.5,2.4,1.5,4.3v7.4h-3.7v-6.8
	c0-1-0.2-1.8-0.7-2.3c-0.4-0.5-1.1-0.8-1.9-0.8c-0.9,0-1.7,0.3-2.3,0.9c-0.6,0.6-0.8,1.4-0.8,2.6v6.4h-3.7v-12.9h3.6v1.5
	c0.5-0.5,1.1-1,1.8-1.2C142.3,535,143.1,534.9,144,534.9z M158,534.9c2,0,3.5,0.5,4.6,1.4c1.1,0.9,1.6,2.4,1.6,4.3v7.4h-3.5v-1.6
	c-0.7,1.2-2,1.8-3.9,1.8c-1,0-1.9-0.2-2.6-0.5c-0.7-0.3-1.3-0.8-1.7-1.4c-0.4-0.6-0.6-1.3-0.6-2c0-1.2,0.4-2.1,1.3-2.8
	c0.9-0.7,2.3-1,4.2-1h3c0-0.8-0.2-1.4-0.7-1.9c-0.5-0.4-1.2-0.7-2.2-0.7c-0.7,0-1.4,0.1-2,0.3c-0.7,0.2-1.2,0.5-1.7,0.9l-1.3-2.6
	c0.7-0.5,1.5-0.9,2.5-1.2C155.9,535,156.9,534.9,158,534.9z M157.7,545.7c0.6,0,1.2-0.1,1.7-0.4c0.5-0.3,0.8-0.7,1.1-1.3v-1.3h-2.6
	c-1.5,0-2.3,0.5-2.3,1.5c0,0.5,0.2,0.9,0.6,1.2C156.5,545.5,157,545.7,157.7,545.7z M167.6,530.2h3.7V548h-3.7V530.2z M187.6,535.1
	l-5.8,13.7c-0.6,1.5-1.3,2.5-2.2,3.1c-0.9,0.6-1.9,0.9-3.1,0.9c-0.7,0-1.3-0.1-2-0.3s-1.2-0.5-1.6-0.9l1.4-2.7
	c0.3,0.3,0.6,0.5,1,0.6c0.4,0.1,0.8,0.2,1.1,0.2c0.5,0,0.9-0.1,1.2-0.4c0.3-0.2,0.6-0.6,0.9-1.2l0-0.1l-5.6-13h3.9l3.6,8.8l3.6-8.8
	H187.6z M193.3,548.2c-1.1,0-2.1-0.1-3.1-0.4c-1-0.3-1.8-0.6-2.4-1l1.2-2.7c0.6,0.4,1.3,0.7,2.1,0.9c0.8,0.2,1.6,0.3,2.4,0.3
	c1.6,0,2.4-0.4,2.4-1.2c0-0.4-0.2-0.6-0.6-0.8c-0.4-0.2-1.1-0.3-2-0.4c-1.1-0.2-1.9-0.3-2.6-0.6c-0.7-0.2-1.3-0.6-1.8-1.1
	c-0.5-0.5-0.7-1.3-0.7-2.3c0-0.8,0.2-1.5,0.7-2.2c0.5-0.6,1.2-1.1,2.1-1.5c0.9-0.4,2-0.5,3.2-0.5c0.9,0,1.8,0.1,2.7,0.3
	c0.9,0.2,1.7,0.5,2.3,0.8l-1.2,2.7c-1.1-0.6-2.4-1-3.7-1c-0.8,0-1.4,0.1-1.8,0.3c-0.4,0.2-0.6,0.5-0.6,0.9c0,0.4,0.2,0.7,0.6,0.8
	c0.4,0.2,1.1,0.3,2.1,0.5c1.1,0.2,1.9,0.4,2.6,0.6c0.7,0.2,1.3,0.6,1.8,1.1s0.7,1.3,0.7,2.2c0,0.8-0.2,1.5-0.7,2.1
	c-0.5,0.6-1.2,1.1-2.1,1.5C195.6,548,194.6,548.2,193.3,548.2z M201.7,535.1h3.7V548h-3.7V535.1z M203.6,533.3
	c-0.7,0-1.2-0.2-1.7-0.6c-0.4-0.4-0.6-0.9-0.6-1.5c0-0.6,0.2-1.1,0.6-1.5c0.4-0.4,1-0.6,1.7-0.6s1.2,0.2,1.7,0.6
	c0.4,0.4,0.6,0.9,0.6,1.4c0,0.6-0.2,1.1-0.6,1.6C204.8,533.1,204.3,533.3,203.6,533.3z M213.3,548.2c-1.1,0-2.1-0.1-3.1-0.4
	c-1-0.3-1.8-0.6-2.4-1l1.2-2.7c0.6,0.4,1.3,0.7,2.1,0.9c0.8,0.2,1.6,0.3,2.4,0.3c1.6,0,2.4-0.4,2.4-1.2c0-0.4-0.2-0.6-0.6-0.8
	c-0.4-0.2-1.1-0.3-2-0.4c-1.1-0.2-1.9-0.3-2.6-0.6s-1.3-0.6-1.8-1.1c-0.5-0.5-0.7-1.3-0.7-2.3c0-0.8,0.2-1.5,0.7-2.2
	c0.5-0.6,1.2-1.1,2.1-1.5c0.9-0.4,2-0.5,3.2-0.5c0.9,0,1.8,0.1,2.7,0.3c0.9,0.2,1.7,0.5,2.3,0.8l-1.2,2.7c-1.1-0.6-2.4-1-3.7-1
	c-0.8,0-1.4,0.1-1.8,0.3c-0.4,0.2-0.6,0.5-0.6,0.9c0,0.4,0.2,0.7,0.6,0.8c0.4,0.2,1.1,0.3,2.1,0.5c1.1,0.2,1.9,0.4,2.6,0.6
	c0.7,0.2,1.3,0.6,1.8,1.1s0.7,1.3,0.7,2.2c0,0.8-0.2,1.5-0.7,2.1s-1.2,1.1-2.1,1.5C215.6,548,214.5,548.2,213.3,548.2z"/>
<path class="st22" d="M154.4,255.4h-7.8l-1.5,3.6h-4l7.5-16.8h3.8L160,259h-4.1L154.4,255.4z M153.2,252.4l-2.7-6.4l-2.7,6.4H153.2z
	 M169.3,245.9c1.6,0,2.9,0.5,3.9,1.4c1,1,1.5,2.4,1.5,4.3v7.4h-3.7v-6.8c0-1-0.2-1.8-0.7-2.3c-0.4-0.5-1.1-0.8-1.9-0.8
	c-0.9,0-1.7,0.3-2.3,0.9c-0.6,0.6-0.8,1.4-0.8,2.6v6.4h-3.7v-12.9h3.6v1.5c0.5-0.5,1.1-1,1.8-1.2C167.6,246,168.4,245.9,169.3,245.9
	z M183.3,245.9c2,0,3.5,0.5,4.6,1.4c1.1,0.9,1.6,2.4,1.6,4.3v7.4H186v-1.6c-0.7,1.2-2,1.8-3.9,1.8c-1,0-1.9-0.2-2.6-0.5
	c-0.7-0.3-1.3-0.8-1.7-1.4c-0.4-0.6-0.6-1.3-0.6-2c0-1.2,0.4-2.1,1.3-2.8c0.9-0.7,2.3-1,4.2-1h3c0-0.8-0.2-1.4-0.7-1.9
	c-0.5-0.4-1.2-0.7-2.2-0.7c-0.7,0-1.4,0.1-2,0.3c-0.7,0.2-1.2,0.5-1.7,0.9l-1.3-2.6c0.7-0.5,1.5-0.9,2.5-1.2
	C181.2,246,182.2,245.9,183.3,245.9z M183,256.7c0.6,0,1.2-0.1,1.7-0.4c0.5-0.3,0.8-0.7,1.1-1.3v-1.3h-2.6c-1.5,0-2.3,0.5-2.3,1.5
	c0,0.5,0.2,0.9,0.6,1.2C181.8,256.5,182.3,256.7,183,256.7z M192.9,241.2h3.7V259h-3.7V241.2z M212.9,246.1l-5.8,13.7
	c-0.6,1.5-1.3,2.5-2.2,3.1c-0.9,0.6-1.9,0.9-3.1,0.9c-0.7,0-1.3-0.1-2-0.3c-0.7-0.2-1.2-0.5-1.6-0.9l1.4-2.7c0.3,0.3,0.6,0.5,1,0.6
	c0.4,0.1,0.8,0.2,1.1,0.2c0.5,0,0.9-0.1,1.2-0.4c0.3-0.2,0.6-0.6,0.9-1.2l0-0.1l-5.6-13h3.9l3.6,8.8l3.6-8.8H212.9z M224.8,256.1
	v2.9h-11.5v-2.3l6.6-7.8h-6.4v-2.9h11.1v2.3l-6.6,7.8H224.8z M239.7,252.6c0,0,0,0.4-0.1,1h-9.8c0.2,0.8,0.6,1.4,1.2,1.9
	s1.5,0.7,2.4,0.7c0.7,0,1.3-0.1,1.8-0.3c0.5-0.2,1-0.5,1.5-1l2,2.2c-1.2,1.4-3,2.1-5.3,2.1c-1.5,0-2.7-0.3-3.9-0.8
	c-1.1-0.6-2-1.4-2.6-2.4c-0.6-1-0.9-2.2-0.9-3.4c0-1.3,0.3-2.4,0.9-3.4c0.6-1,1.4-1.8,2.5-2.4c1.1-0.6,2.2-0.9,3.5-0.9
	c1.3,0,2.4,0.3,3.4,0.8c1,0.5,1.8,1.3,2.4,2.4C239.4,250.1,239.7,251.2,239.7,252.6z M233,248.7c-0.8,0-1.6,0.2-2.1,0.7
	c-0.6,0.5-0.9,1.1-1.1,2h6.4c-0.1-0.8-0.5-1.5-1.1-1.9C234.6,249,233.9,248.7,233,248.7z M249.3,242.2h7.6c1.8,0,3.4,0.4,4.8,1.1
	c1.4,0.7,2.5,1.7,3.3,2.9c0.8,1.3,1.2,2.7,1.2,4.4c0,1.7-0.4,3.2-1.2,4.4c-0.8,1.3-1.9,2.2-3.3,3c-1.4,0.7-3,1-4.8,1h-7.6V242.2z
	 M256.7,255.8c1.7,0,3-0.5,4-1.4c1-0.9,1.5-2.2,1.5-3.8c0-1.6-0.5-2.9-1.5-3.8c-1-0.9-2.3-1.4-4-1.4h-3.6v10.4H256.7z M281.5,252.6
	c0,0,0,0.4-0.1,1h-9.8c0.2,0.8,0.6,1.4,1.2,1.9s1.5,0.7,2.4,0.7c0.7,0,1.3-0.1,1.8-0.3c0.5-0.2,1-0.5,1.5-1l2,2.2
	c-1.2,1.4-3,2.1-5.3,2.1c-1.5,0-2.7-0.3-3.9-0.8c-1.1-0.6-2-1.4-2.6-2.4c-0.6-1-0.9-2.2-0.9-3.4c0-1.3,0.3-2.4,0.9-3.4
	c0.6-1,1.4-1.8,2.5-2.4c1.1-0.6,2.2-0.9,3.5-0.9c1.3,0,2.4,0.3,3.4,0.8c1,0.5,1.8,1.3,2.4,2.4C281.2,250.1,281.5,251.2,281.5,252.6z
	 M274.8,248.7c-0.8,0-1.6,0.2-2.1,0.7c-0.6,0.5-0.9,1.1-1.1,2h6.4c-0.1-0.8-0.5-1.5-1.1-1.9C276.3,249,275.6,248.7,274.8,248.7z
	 M288.3,259.2c-1.1,0-2.1-0.1-3.1-0.4c-1-0.3-1.8-0.6-2.4-1l1.2-2.7c0.6,0.4,1.3,0.7,2.1,0.9c0.8,0.2,1.6,0.3,2.4,0.3
	c1.6,0,2.4-0.4,2.4-1.2c0-0.4-0.2-0.6-0.6-0.8s-1.1-0.3-2-0.4c-1.1-0.2-1.9-0.3-2.6-0.6c-0.7-0.2-1.3-0.6-1.8-1.1
	c-0.5-0.5-0.7-1.3-0.7-2.3c0-0.8,0.2-1.5,0.7-2.2c0.5-0.6,1.2-1.1,2.1-1.5c0.9-0.4,2-0.5,3.2-0.5c0.9,0,1.8,0.1,2.7,0.3
	c0.9,0.2,1.7,0.5,2.3,0.8l-1.2,2.7c-1.1-0.6-2.4-1-3.7-1c-0.8,0-1.4,0.1-1.8,0.3c-0.4,0.2-0.6,0.5-0.6,0.9c0,0.4,0.2,0.7,0.6,0.8
	c0.4,0.2,1.1,0.3,2.1,0.5c1.1,0.2,1.9,0.4,2.6,0.6c0.7,0.2,1.3,0.6,1.8,1.1s0.7,1.3,0.7,2.2c0,0.8-0.2,1.5-0.7,2.1
	c-0.5,0.6-1.2,1.1-2.1,1.5C290.7,259,289.6,259.2,288.3,259.2z M296.7,246.1h3.7V259h-3.7V246.1z M298.6,244.3
	c-0.7,0-1.2-0.2-1.7-0.6c-0.4-0.4-0.6-0.9-0.6-1.5c0-0.6,0.2-1.1,0.6-1.5c0.4-0.4,1-0.6,1.7-0.6s1.2,0.2,1.7,0.6s0.6,0.9,0.6,1.4
	c0,0.6-0.2,1.1-0.6,1.6C299.9,244.1,299.3,244.3,298.6,244.3z M317.3,246.1v10.8c0,2.4-0.6,4.1-1.8,5.3s-3,1.7-5.4,1.7
	c-1.2,0-2.4-0.2-3.6-0.5c-1.1-0.3-2-0.7-2.8-1.3l1.5-2.7c0.5,0.4,1.2,0.8,2.1,1.1c0.8,0.3,1.7,0.4,2.5,0.4c1.3,0,2.2-0.3,2.9-0.9
	c0.6-0.6,0.9-1.5,0.9-2.6v-0.6c-1,1.1-2.3,1.6-4.1,1.6c-1.2,0-2.3-0.3-3.3-0.8c-1-0.5-1.8-1.3-2.3-2.2c-0.6-0.9-0.9-2-0.9-3.3
	s0.3-2.3,0.9-3.3c0.6-0.9,1.4-1.7,2.3-2.2c1-0.5,2.1-0.8,3.3-0.8c1.9,0,3.3,0.6,4.3,1.8v-1.7H317.3z M310.2,255.3
	c1,0,1.8-0.3,2.4-0.9c0.6-0.6,1-1.4,1-2.3s-0.3-1.7-1-2.3c-0.6-0.6-1.4-0.9-2.4-0.9s-1.8,0.3-2.4,0.9c-0.6,0.6-1,1.3-1,2.3
	s0.3,1.7,1,2.3C308.4,255,309.2,255.3,310.2,255.3z M328.6,245.9c1.6,0,2.9,0.5,3.9,1.4c1,1,1.5,2.4,1.5,4.3v7.4h-3.7v-6.8
	c0-1-0.2-1.8-0.7-2.3c-0.4-0.5-1.1-0.8-1.9-0.8c-0.9,0-1.7,0.3-2.3,0.9c-0.6,0.6-0.8,1.4-0.8,2.6v6.4h-3.7v-12.9h3.6v1.5
	c0.5-0.5,1.1-1,1.8-1.2C326.9,246,327.7,245.9,328.6,245.9z M165.1,282.9c2,0,3.5,0.5,4.6,1.4c1.1,0.9,1.6,2.4,1.6,4.3v7.4h-3.5
	v-1.6c-0.7,1.2-2,1.8-3.9,1.8c-1,0-1.9-0.2-2.6-0.5c-0.7-0.3-1.3-0.8-1.7-1.4c-0.4-0.6-0.6-1.3-0.6-2c0-1.2,0.4-2.1,1.3-2.8
	c0.9-0.7,2.3-1,4.2-1h3c0-0.8-0.2-1.4-0.7-1.9c-0.5-0.4-1.2-0.7-2.2-0.7c-0.7,0-1.4,0.1-2,0.3c-0.7,0.2-1.2,0.5-1.7,0.9l-1.3-2.6
	c0.7-0.5,1.5-0.9,2.5-1.2C163,283,164,282.9,165.1,282.9z M164.8,293.7c0.6,0,1.2-0.1,1.7-0.4c0.5-0.3,0.8-0.7,1.1-1.3v-1.3H165
	c-1.5,0-2.3,0.5-2.3,1.5c0,0.5,0.2,0.9,0.6,1.2C163.6,293.5,164.1,293.7,164.8,293.7z M182.5,282.9c1.6,0,2.9,0.5,3.9,1.4
	c1,1,1.5,2.4,1.5,4.3v7.4h-3.7v-6.8c0-1-0.2-1.8-0.7-2.3c-0.4-0.5-1.1-0.8-1.9-0.8c-0.9,0-1.7,0.3-2.3,0.9c-0.6,0.6-0.8,1.4-0.8,2.6
	v6.4h-3.7v-12.9h3.6v1.5c0.5-0.5,1.1-1,1.8-1.2C180.8,283,181.6,282.9,182.5,282.9z M204.6,278.2V296H201v-1.5
	c-0.9,1.1-2.3,1.7-4,1.7c-1.2,0-2.3-0.3-3.3-0.8c-1-0.5-1.7-1.3-2.3-2.3s-0.8-2.2-0.8-3.5s0.3-2.5,0.8-3.5s1.3-1.8,2.3-2.3
	c1-0.5,2.1-0.8,3.3-0.8c1.6,0,2.9,0.5,3.9,1.6v-6.3H204.6z M197.6,293.1c0.9,0,1.7-0.3,2.4-1c0.6-0.7,0.9-1.5,0.9-2.6
	c0-1.1-0.3-2-0.9-2.6c-0.6-0.7-1.4-1-2.4-1c-1,0-1.8,0.3-2.4,1c-0.6,0.6-0.9,1.5-0.9,2.6c0,1.1,0.3,2,0.9,2.6
	C195.8,292.8,196.6,293.1,197.6,293.1z M223.1,296.3c-1.7,0-3.3-0.4-4.7-1.1c-1.4-0.8-2.5-1.8-3.3-3.1c-0.8-1.3-1.2-2.8-1.2-4.5
	s0.4-3.2,1.2-4.5c0.8-1.3,1.9-2.4,3.3-3.1c1.4-0.8,3-1.1,4.7-1.1c1.5,0,2.8,0.3,3.9,0.8c1.2,0.5,2.2,1.2,3,2.2l-2.5,2.3
	c-1.1-1.3-2.5-2-4.2-2c-1,0-2,0.2-2.8,0.7c-0.8,0.4-1.5,1.1-1.9,1.9c-0.4,0.8-0.7,1.7-0.7,2.8s0.2,2,0.7,2.8
	c0.5,0.8,1.1,1.5,1.9,1.9c0.8,0.4,1.7,0.7,2.8,0.7c1.7,0,3.1-0.7,4.2-2l2.5,2.3c-0.8,1-1.8,1.7-3,2.2
	C225.9,296,224.6,296.3,223.1,296.3z M238.1,296.2c-1.4,0-2.6-0.3-3.7-0.8c-1.1-0.6-1.9-1.4-2.5-2.4c-0.6-1-0.9-2.2-0.9-3.4
	s0.3-2.4,0.9-3.4c0.6-1,1.4-1.8,2.5-2.4c1.1-0.6,2.3-0.9,3.7-0.9s2.6,0.3,3.6,0.9c1.1,0.6,1.9,1.3,2.5,2.4c0.6,1,0.9,2.2,0.9,3.4
	s-0.3,2.4-0.9,3.4c-0.6,1-1.4,1.8-2.5,2.4C240.7,295.9,239.5,296.2,238.1,296.2z M238.1,293.1c1,0,1.7-0.3,2.4-1
	c0.6-0.7,0.9-1.5,0.9-2.6c0-1.1-0.3-2-0.9-2.6c-0.6-0.7-1.4-1-2.4-1c-1,0-1.8,0.3-2.4,1c-0.6,0.6-0.9,1.5-0.9,2.6
	c0,1.1,0.3,2,0.9,2.6C236.4,292.8,237.2,293.1,238.1,293.1z M255.6,282.9c1.6,0,2.9,0.5,3.9,1.4c1,1,1.5,2.4,1.5,4.3v7.4h-3.7v-6.8
	c0-1-0.2-1.8-0.7-2.3c-0.4-0.5-1.1-0.8-1.9-0.8c-0.9,0-1.7,0.3-2.3,0.9c-0.6,0.6-0.8,1.4-0.8,2.6v6.4h-3.7v-12.9h3.6v1.5
	c0.5-0.5,1.1-1,1.8-1.2C253.9,283,254.7,282.9,255.6,282.9z M270.7,296.2c-1.4,0-2.6-0.3-3.7-0.8c-1.1-0.6-1.9-1.4-2.6-2.4
	c-0.6-1-0.9-2.2-0.9-3.4s0.3-2.4,0.9-3.4c0.6-1,1.5-1.8,2.6-2.4c1.1-0.6,2.3-0.9,3.7-0.9c1.4,0,2.5,0.3,3.6,0.9
	c1,0.6,1.8,1.4,2.2,2.4l-2.9,1.6c-0.7-1.2-1.6-1.8-2.9-1.8c-1,0-1.8,0.3-2.4,1c-0.6,0.6-1,1.5-1,2.6s0.3,2,1,2.6
	c0.6,0.6,1.4,1,2.4,1c1.3,0,2.2-0.6,2.9-1.8l2.9,1.6c-0.5,1-1.2,1.8-2.2,2.4C273.2,295.9,272,296.2,270.7,296.2z M291.1,289.6
	c0,0,0,0.4-0.1,1h-9.8c0.2,0.8,0.6,1.4,1.2,1.9c0.7,0.5,1.5,0.7,2.4,0.7c0.7,0,1.3-0.1,1.8-0.3c0.5-0.2,1-0.5,1.5-1l2,2.2
	c-1.2,1.4-3,2.1-5.3,2.1c-1.5,0-2.7-0.3-3.9-0.8c-1.1-0.6-2-1.4-2.6-2.4c-0.6-1-0.9-2.2-0.9-3.4c0-1.3,0.3-2.4,0.9-3.4
	c0.6-1,1.4-1.8,2.5-2.4c1.1-0.6,2.2-0.9,3.5-0.9c1.3,0,2.4,0.3,3.4,0.8c1,0.5,1.8,1.3,2.4,2.4C290.8,287.1,291.1,288.2,291.1,289.6z
	 M284.4,285.7c-0.8,0-1.6,0.2-2.1,0.7s-0.9,1.1-1.1,2h6.4c-0.1-0.8-0.5-1.5-1.1-1.9C285.9,286,285.2,285.7,284.4,285.7z
	 M301.2,282.9c1.2,0,2.3,0.3,3.3,0.8c1,0.5,1.8,1.3,2.3,2.3c0.6,1,0.8,2.2,0.8,3.5s-0.3,2.5-0.8,3.5c-0.6,1-1.3,1.8-2.3,2.3
	c-1,0.5-2.1,0.8-3.3,0.8c-1.6,0-2.9-0.5-3.9-1.6v6h-3.7v-17.6h3.6v1.5C298.1,283.5,299.5,282.9,301.2,282.9z M300.6,293.1
	c1,0,1.7-0.3,2.4-1c0.6-0.7,0.9-1.5,0.9-2.6c0-1.1-0.3-2-0.9-2.6c-0.6-0.7-1.4-1-2.4-1c-1,0-1.8,0.3-2.4,1c-0.6,0.6-0.9,1.5-0.9,2.6
	c0,1.1,0.3,2,0.9,2.6C298.8,292.8,299.6,293.1,300.6,293.1z M318.5,295.4c-0.4,0.3-0.8,0.5-1.4,0.6c-0.5,0.1-1.1,0.2-1.7,0.2
	c-1.5,0-2.7-0.4-3.6-1.2c-0.8-0.8-1.2-1.9-1.2-3.5v-5.3h-2v-2.9h2v-3.1h3.7v3.1h3.2v2.9h-3.2v5.3c0,0.5,0.1,1,0.4,1.3
	c0.3,0.3,0.7,0.4,1.2,0.4c0.6,0,1.1-0.2,1.5-0.5L318.5,295.4z"/>
<path class="st22" d="M741.5,511.3c-1.3,0-2.6-0.2-3.9-0.5c-1.2-0.4-2.2-0.8-3-1.4l1.3-2.9c0.7,0.5,1.6,1,2.6,1.3c1,0.3,2,0.5,3,0.5
	c1.1,0,1.9-0.2,2.4-0.5c0.5-0.3,0.8-0.8,0.8-1.3c0-0.4-0.2-0.7-0.5-1c-0.3-0.3-0.7-0.5-1.2-0.6c-0.5-0.2-1.1-0.3-2-0.5
	c-1.3-0.3-2.3-0.6-3.1-0.9c-0.8-0.3-1.5-0.8-2.1-1.5c-0.6-0.7-0.9-1.6-0.9-2.7c0-1,0.3-1.9,0.8-2.6c0.5-0.8,1.3-1.4,2.4-1.9
	c1.1-0.5,2.4-0.7,3.9-0.7c1.1,0,2.1,0.1,3.1,0.4c1,0.3,1.9,0.6,2.7,1.1l-1.2,3c-1.6-0.9-3.1-1.3-4.7-1.3c-1.1,0-1.9,0.2-2.4,0.5
	c-0.5,0.4-0.8,0.8-0.8,1.4c0,0.6,0.3,1,0.9,1.3c0.6,0.3,1.5,0.5,2.8,0.8c1.3,0.3,2.3,0.6,3.1,0.9c0.8,0.3,1.5,0.8,2.1,1.4
	c0.6,0.7,0.9,1.5,0.9,2.7c0,1-0.3,1.8-0.8,2.6c-0.5,0.8-1.3,1.4-2.4,1.9C744.3,511.1,743,511.3,741.5,511.3z M764,498.1V511h-3.6
	v-1.5c-0.5,0.6-1.1,1-1.8,1.3c-0.7,0.3-1.4,0.4-2.2,0.4c-1.7,0-3-0.5-4-1.5c-1-1-1.5-2.4-1.5-4.3v-7.3h3.7v6.7
	c0,2.1,0.9,3.1,2.6,3.1c0.9,0,1.6-0.3,2.2-0.9c0.5-0.6,0.8-1.5,0.8-2.6v-6.4H764z M775.1,497.9c1.2,0,2.3,0.3,3.3,0.8
	c1,0.5,1.8,1.3,2.3,2.3c0.6,1,0.8,2.2,0.8,3.5s-0.3,2.5-0.8,3.5c-0.6,1-1.3,1.8-2.3,2.3c-1,0.5-2.1,0.8-3.3,0.8
	c-1.6,0-2.9-0.5-3.9-1.6v6h-3.7v-17.6h3.6v1.5C772,498.5,773.4,497.9,775.1,497.9z M774.5,508.1c1,0,1.7-0.3,2.4-1
	c0.6-0.7,0.9-1.5,0.9-2.6c0-1.1-0.3-2-0.9-2.6c-0.6-0.7-1.4-1-2.4-1s-1.8,0.3-2.4,1c-0.6,0.6-0.9,1.5-0.9,2.6c0,1.1,0.3,2,0.9,2.6
	C772.7,507.8,773.5,508.1,774.5,508.1z M791.7,497.9c1.2,0,2.3,0.3,3.3,0.8c1,0.5,1.8,1.3,2.3,2.3c0.6,1,0.8,2.2,0.8,3.5
	s-0.3,2.5-0.8,3.5c-0.6,1-1.3,1.8-2.3,2.3c-1,0.5-2.1,0.8-3.3,0.8c-1.6,0-2.9-0.5-3.9-1.6v6h-3.7v-17.6h3.6v1.5
	C788.6,498.5,789.9,497.9,791.7,497.9z M791.1,508.1c1,0,1.7-0.3,2.4-1c0.6-0.7,0.9-1.5,0.9-2.6c0-1.1-0.3-2-0.9-2.6
	c-0.6-0.7-1.4-1-2.4-1s-1.8,0.3-2.4,1c-0.6,0.6-0.9,1.5-0.9,2.6c0,1.1,0.3,2,0.9,2.6C789.3,507.8,790.1,508.1,791.1,508.1z
	 M806.8,511.2c-1.4,0-2.6-0.3-3.7-0.8c-1.1-0.6-1.9-1.4-2.5-2.4c-0.6-1-0.9-2.2-0.9-3.4s0.3-2.4,0.9-3.4c0.6-1,1.4-1.8,2.5-2.4
	c1.1-0.6,2.3-0.9,3.7-0.9c1.4,0,2.6,0.3,3.6,0.9c1.1,0.6,1.9,1.3,2.5,2.4c0.6,1,0.9,2.2,0.9,3.4s-0.3,2.4-0.9,3.4
	c-0.6,1-1.4,1.8-2.5,2.4C809.4,510.9,808.1,511.2,806.8,511.2z M806.8,508.1c1,0,1.7-0.3,2.4-1c0.6-0.7,0.9-1.5,0.9-2.6
	c0-1.1-0.3-2-0.9-2.6c-0.6-0.7-1.4-1-2.4-1c-1,0-1.8,0.3-2.4,1c-0.6,0.6-0.9,1.5-0.9,2.6c0,1.1,0.3,2,0.9,2.6
	C805,507.8,805.8,508.1,806.8,508.1z M819.9,499.8c0.4-0.6,1-1.1,1.8-1.4c0.8-0.3,1.6-0.5,2.6-0.5v3.5c-0.4,0-0.7,0-0.8,0
	c-1.1,0-1.9,0.3-2.5,0.9c-0.6,0.6-0.9,1.5-0.9,2.7v6.1h-3.7v-12.9h3.6V499.8z M835.4,510.4c-0.4,0.3-0.8,0.5-1.4,0.6
	c-0.5,0.1-1.1,0.2-1.7,0.2c-1.5,0-2.7-0.4-3.6-1.2c-0.8-0.8-1.2-1.9-1.2-3.5v-5.3h-2v-2.9h2v-3.1h3.7v3.1h3.2v2.9h-3.2v5.3
	c0,0.5,0.1,1,0.4,1.3c0.3,0.3,0.7,0.4,1.2,0.4c0.6,0,1.1-0.2,1.5-0.5L835.4,510.4z M857.5,511.3l-2-1.9c-1.6,1.2-3.5,1.9-5.6,1.9
	c-1.2,0-2.3-0.2-3.3-0.6c-1-0.4-1.7-1-2.3-1.7c-0.5-0.7-0.8-1.5-0.8-2.4c0-1,0.3-2,0.9-2.7c0.6-0.8,1.5-1.6,2.8-2.3
	c-0.6-0.6-1-1.2-1.3-1.8c-0.3-0.6-0.4-1.2-0.4-1.8c0-0.8,0.2-1.5,0.6-2.2s1-1.1,1.8-1.4c0.8-0.4,1.7-0.5,2.8-0.5
	c1.5,0,2.6,0.4,3.5,1.1c0.9,0.7,1.3,1.6,1.3,2.8c0,0.9-0.3,1.6-0.8,2.3c-0.5,0.7-1.3,1.3-2.5,1.9l3.1,2.9c0.4-0.8,0.6-1.6,0.8-2.6
	l3,0.9c-0.3,1.5-0.8,2.8-1.5,3.8l2,1.8L857.5,511.3z M850.6,496.5c-0.6,0-1,0.1-1.3,0.4c-0.3,0.3-0.5,0.7-0.5,1.1
	c0,0.3,0.1,0.7,0.3,1c0.2,0.3,0.5,0.7,1,1.2c0.8-0.4,1.4-0.8,1.7-1.2c0.3-0.4,0.5-0.7,0.5-1.1c0-0.4-0.1-0.8-0.4-1
	C851.6,496.7,851.1,496.5,850.6,496.5z M850.1,508.4c1.2,0,2.2-0.3,3.1-1l-4.1-3.8c-0.8,0.4-1.3,0.9-1.6,1.3
	c-0.3,0.4-0.5,0.9-0.5,1.4c0,0.6,0.3,1.1,0.8,1.5S849.2,508.4,850.1,508.4z M728.6,548l0-10.1l-4.9,8.3h-1.8l-4.9-8.1v9.9h-3.6
	v-16.8h3.2l6.3,10.4l6.2-10.4h3.2l0,16.8H728.6z M741.2,534.9c2,0,3.5,0.5,4.6,1.4c1.1,0.9,1.6,2.4,1.6,4.3v7.4h-3.5v-1.6
	c-0.7,1.2-2,1.8-3.9,1.8c-1,0-1.9-0.2-2.6-0.5c-0.7-0.3-1.3-0.8-1.7-1.4c-0.4-0.6-0.6-1.3-0.6-2c0-1.2,0.4-2.1,1.3-2.8
	c0.9-0.7,2.3-1,4.2-1h3c0-0.8-0.2-1.4-0.7-1.9c-0.5-0.4-1.2-0.7-2.2-0.7c-0.7,0-1.4,0.1-2,0.3c-0.7,0.2-1.2,0.5-1.7,0.9l-1.3-2.6
	c0.7-0.5,1.5-0.9,2.5-1.2C739.2,535,740.2,534.9,741.2,534.9z M740.9,545.7c0.6,0,1.2-0.1,1.7-0.4c0.5-0.3,0.8-0.7,1.1-1.3v-1.3
	h-2.6c-1.5,0-2.3,0.5-2.3,1.5c0,0.5,0.2,0.9,0.6,1.2C739.7,545.5,740.3,545.7,740.9,545.7z M750.8,535.1h3.7V548h-3.7V535.1z
	 M752.7,533.3c-0.7,0-1.2-0.2-1.7-0.6c-0.4-0.4-0.6-0.9-0.6-1.5c0-0.6,0.2-1.1,0.6-1.5c0.4-0.4,1-0.6,1.7-0.6s1.2,0.2,1.7,0.6
	c0.4,0.4,0.6,0.9,0.6,1.4c0,0.6-0.2,1.1-0.6,1.6C753.9,533.1,753.4,533.3,752.7,533.3z M765.9,534.9c1.6,0,2.9,0.5,3.9,1.4
	c1,1,1.5,2.4,1.5,4.3v7.4h-3.7v-6.8c0-1-0.2-1.8-0.7-2.3c-0.4-0.5-1.1-0.8-1.9-0.8c-0.9,0-1.7,0.3-2.3,0.9c-0.6,0.6-0.8,1.4-0.8,2.6
	v6.4H758v-12.9h3.6v1.5c0.5-0.5,1.1-1,1.8-1.2C764.2,535,765,534.9,765.9,534.9z M783,547.4c-0.4,0.3-0.8,0.5-1.4,0.6
	c-0.5,0.1-1.1,0.2-1.7,0.2c-1.5,0-2.7-0.4-3.6-1.2c-0.8-0.8-1.2-1.9-1.2-3.5v-5.3h-2v-2.9h2v-3.1h3.7v3.1h3.2v2.9h-3.2v5.3
	c0,0.5,0.1,1,0.4,1.3c0.3,0.3,0.7,0.4,1.2,0.4c0.6,0,1.1-0.2,1.5-0.5L783,547.4z M790.3,534.9c2,0,3.5,0.5,4.6,1.4
	c1.1,0.9,1.6,2.4,1.6,4.3v7.4H793v-1.6c-0.7,1.2-2,1.8-3.9,1.8c-1,0-1.9-0.2-2.6-0.5c-0.7-0.3-1.3-0.8-1.7-1.4
	c-0.4-0.6-0.6-1.3-0.6-2c0-1.2,0.4-2.1,1.3-2.8c0.9-0.7,2.3-1,4.2-1h3c0-0.8-0.2-1.4-0.7-1.9c-0.5-0.4-1.2-0.7-2.2-0.7
	c-0.7,0-1.4,0.1-2,0.3c-0.7,0.2-1.2,0.5-1.7,0.9l-1.3-2.6c0.7-0.5,1.5-0.9,2.5-1.2C788.2,535,789.2,534.9,790.3,534.9z M790,545.7
	c0.6,0,1.2-0.1,1.7-0.4c0.5-0.3,0.8-0.7,1.1-1.3v-1.3h-2.6c-1.5,0-2.3,0.5-2.3,1.5c0,0.5,0.2,0.9,0.6,1.2
	C788.8,545.5,789.3,545.7,790,545.7z M799.9,535.1h3.7V548h-3.7V535.1z M801.7,533.3c-0.7,0-1.2-0.2-1.7-0.6
	c-0.4-0.4-0.6-0.9-0.6-1.5c0-0.6,0.2-1.1,0.6-1.5c0.4-0.4,1-0.6,1.7-0.6s1.2,0.2,1.7,0.6c0.4,0.4,0.6,0.9,0.6,1.4
	c0,0.6-0.2,1.1-0.6,1.6C803,533.1,802.4,533.3,801.7,533.3z M814.9,534.9c1.6,0,2.9,0.5,3.9,1.4c1,1,1.5,2.4,1.5,4.3v7.4h-3.7v-6.8
	c0-1-0.2-1.8-0.7-2.3c-0.4-0.5-1.1-0.8-1.9-0.8c-0.9,0-1.7,0.3-2.3,0.9c-0.6,0.6-0.8,1.4-0.8,2.6v6.4h-3.7v-12.9h3.6v1.5
	c0.5-0.5,1.1-1,1.8-1.2C813.2,535,814.1,534.9,814.9,534.9z M828.9,534.9c2,0,3.5,0.5,4.6,1.4c1.1,0.9,1.6,2.4,1.6,4.3v7.4h-3.5
	v-1.6c-0.7,1.2-2,1.8-3.9,1.8c-1,0-1.9-0.2-2.6-0.5c-0.7-0.3-1.3-0.8-1.7-1.4c-0.4-0.6-0.6-1.3-0.6-2c0-1.2,0.4-2.1,1.3-2.8
	c0.9-0.7,2.3-1,4.2-1h3c0-0.8-0.2-1.4-0.7-1.9c-0.5-0.4-1.2-0.7-2.2-0.7c-0.7,0-1.4,0.1-2,0.3c-0.7,0.2-1.2,0.5-1.7,0.9l-1.3-2.6
	c0.7-0.5,1.5-0.9,2.5-1.2C826.8,535,827.8,534.9,828.9,534.9z M828.6,545.7c0.6,0,1.2-0.1,1.7-0.4c0.5-0.3,0.8-0.7,1.1-1.3v-1.3
	h-2.6c-1.5,0-2.3,0.5-2.3,1.5c0,0.5,0.2,0.9,0.6,1.2C827.4,545.5,827.9,545.7,828.6,545.7z M846.3,534.9c1.6,0,2.9,0.5,3.9,1.4
	c1,1,1.5,2.4,1.5,4.3v7.4h-3.7v-6.8c0-1-0.2-1.8-0.7-2.3c-0.4-0.5-1.1-0.8-1.9-0.8c-0.9,0-1.7,0.3-2.3,0.9c-0.6,0.6-0.8,1.4-0.8,2.6
	v6.4h-3.7v-12.9h3.6v1.5c0.5-0.5,1.1-1,1.8-1.2C844.7,535,845.5,534.9,846.3,534.9z M861.5,548.2c-1.4,0-2.6-0.3-3.7-0.8
	c-1.1-0.6-1.9-1.4-2.6-2.4c-0.6-1-0.9-2.2-0.9-3.4c0-1.3,0.3-2.4,0.9-3.4c0.6-1,1.5-1.8,2.6-2.4c1.1-0.6,2.3-0.9,3.7-0.9
	c1.4,0,2.5,0.3,3.6,0.9c1,0.6,1.8,1.4,2.2,2.4l-2.9,1.6c-0.7-1.2-1.6-1.8-2.9-1.8c-1,0-1.8,0.3-2.4,1c-0.6,0.6-1,1.5-1,2.6
	s0.3,2,1,2.6c0.6,0.6,1.4,1,2.4,1c1.3,0,2.2-0.6,2.9-1.8l2.9,1.6c-0.5,1-1.2,1.8-2.2,2.4C864,547.9,862.8,548.2,861.5,548.2z
	 M881.9,541.6c0,0,0,0.4-0.1,1H872c0.2,0.8,0.6,1.4,1.2,1.9c0.7,0.5,1.5,0.7,2.4,0.7c0.7,0,1.3-0.1,1.8-0.3c0.5-0.2,1-0.5,1.5-1
	l2,2.2c-1.2,1.4-3,2.1-5.3,2.1c-1.5,0-2.7-0.3-3.9-0.8c-1.1-0.6-2-1.4-2.6-2.4c-0.6-1-0.9-2.2-0.9-3.4c0-1.3,0.3-2.4,0.9-3.4
	c0.6-1,1.4-1.8,2.5-2.4c1.1-0.6,2.2-0.9,3.5-0.9c1.3,0,2.4,0.3,3.4,0.8c1,0.5,1.8,1.3,2.4,2.4C881.6,539.1,881.9,540.2,881.9,541.6z
	 M875.2,537.7c-0.8,0-1.6,0.2-2.1,0.7c-0.6,0.5-0.9,1.1-1.1,2h6.4c-0.1-0.8-0.5-1.5-1.1-1.9C876.7,538,876,537.7,875.2,537.7z"/>
<g>
	
		<linearGradient id="SVGID_7_" gradientUnits="userSpaceOnUse" x1="59.9996" y1="916" x2="59.9996" y2="862" gradientTransform="matrix(-4.371140e-08 1 -1 -4.371140e-08 1230 -1)">
		<stop  offset="0" style="stop-color:#18DD67"/>
		<stop  offset="1" style="stop-color:#039F42"/>
	</linearGradient>
	<ellipse class="st23" cx="314" cy="59" rx="27" ry="27"/>
</g>
<path class="st8" d="M315.2,57.4c1.7,0.3,3,0.9,3.9,1.9c0.9,1,1.4,2.2,1.4,3.7c0,1.1-0.3,2.2-0.9,3.2c-0.6,1-1.5,1.7-2.7,2.3
	c-1.2,0.6-2.7,0.9-4.5,0.9c-1.4,0-2.7-0.2-4.1-0.5c-1.3-0.4-2.5-0.9-3.4-1.6l1.8-3.5c0.7,0.6,1.6,1,2.6,1.3c1,0.3,2,0.4,3,0.4
	c1.1,0,2-0.2,2.7-0.6c0.7-0.4,1-1.1,1-1.9c0-1.6-1.2-2.4-3.7-2.4h-2.1v-3l4-4.6H306v-3.6h13.7v2.9L315.2,57.4z"/>
<g>
	
		<linearGradient id="SVGID_8_" gradientUnits="userSpaceOnUse" x1="59.9996" y1="916" x2="59.9996" y2="862" gradientTransform="matrix(-4.371140e-08 1 -1 -4.371140e-08 979 283)">
		<stop  offset="0" style="stop-color:#2B0FCB"/>
		<stop  offset="1" style="stop-color:#907EF9"/>
	</linearGradient>
	<ellipse class="st24" cx="63" cy="343" rx="27" ry="27"/>
</g>
<path class="st8" d="M70.7,348.3v3.7H55.9v-2.9l7.6-7.1c0.8-0.8,1.3-1.4,1.6-2c0.3-0.6,0.4-1.1,0.4-1.7c0-0.8-0.3-1.4-0.8-1.8
	c-0.5-0.4-1.3-0.6-2.3-0.6c-0.9,0-1.6,0.2-2.3,0.5c-0.7,0.3-1.3,0.8-1.7,1.5l-3.3-2.1c0.8-1.1,1.8-2,3.2-2.7c1.3-0.7,2.9-1,4.6-1
	c1.5,0,2.7,0.2,3.8,0.7c1.1,0.5,2,1.1,2.5,2c0.6,0.9,0.9,1.9,0.9,3.1c0,1.1-0.2,2.1-0.7,3c-0.4,0.9-1.3,2-2.6,3.2l-4.5,4.3H70.7z"/>
<g>
	
		<linearGradient id="SVGID_9_" gradientUnits="userSpaceOnUse" x1="59.9996" y1="916" x2="59.9996" y2="862" gradientTransform="matrix(-4.371140e-08 1 -1 -4.371140e-08 1039 658.0001)">
		<stop  offset="0" style="stop-color:#00406F"/>
		<stop  offset="1" style="stop-color:#0E91EE"/>
	</linearGradient>
	<ellipse class="st25" cx="123" cy="718" rx="27" ry="27"/>
</g>
<path class="st8" d="M126.7,710.4V730h-4.5v-16h-3.9v-3.6H126.7z"/>
<g>
	
		<linearGradient id="SVGID_10_" gradientUnits="userSpaceOnUse" x1="59.9996" y1="916" x2="59.9996" y2="862" gradientTransform="matrix(-4.594350e-08 1 -1 -4.158770e-08 1828 334.688)">
		<stop  offset="0" style="stop-color:#DC1B90"/>
		<stop  offset="1" style="stop-color:#F15FB7"/>
	</linearGradient>
	<ellipse class="st26" cx="912" cy="394.7" rx="27" ry="25.7"/>
</g>
<path class="st8" d="M909.8,393.7c2.8,0,4.8,0.6,6.1,1.7c1.3,1.1,2,2.6,2,4.4c0,1.2-0.3,2.3-0.9,3.3c-0.6,1-1.5,1.8-2.7,2.4
	c-1.2,0.6-2.7,0.9-4.5,0.9c-1.4,0-2.7-0.2-4.1-0.5c-1.3-0.4-2.5-0.9-3.4-1.6l1.8-3.5c0.7,0.6,1.6,1,2.6,1.3c1,0.3,2,0.4,3,0.4
	c1.1,0,2-0.2,2.7-0.7c0.7-0.4,1-1.1,1-1.9c0-0.8-0.3-1.5-1-1.9c-0.7-0.4-1.8-0.6-3.5-0.6h-5l1-11h12v3.6h-8.2l-0.3,3.7H909.8z"/>
<g>
	
		<linearGradient id="SVGID_11_" gradientUnits="userSpaceOnUse" x1="59.9996" y1="916" x2="59.9996" y2="862" gradientTransform="matrix(-4.594350e-08 1 -1 -4.158770e-08 1610 24.6882)">
		<stop  offset="0" style="stop-color:#F1AF2E"/>
		<stop  offset="1" style="stop-color:#C58509"/>
	</linearGradient>
	<ellipse class="st27" cx="694" cy="84.7" rx="27" ry="25.7"/>
</g>
<path class="st8" d="M703,91.8h-3.2v4.1h-4.4v-4.1h-10.6v-3.1l9.2-12.4h4.8l-8.6,11.8h5.3v-3.7h4.3v3.7h3.2V91.8z"/>
<g>
	<path class="st22" d="M846.4,274.9v17.9h-2.9v-1.7c-0.5,0.6-1.1,1.1-1.8,1.4c-0.7,0.3-1.5,0.5-2.4,0.5c-1.2,0-2.4-0.3-3.3-0.8
		c-1-0.5-1.8-1.3-2.3-2.3c-0.6-1-0.8-2.2-0.8-3.5s0.3-2.5,0.8-3.5c0.6-1,1.3-1.8,2.3-2.3s2.1-0.8,3.3-0.8c0.9,0,1.6,0.1,2.3,0.4
		c0.7,0.3,1.3,0.7,1.8,1.3v-6.6H846.4z M841.6,290c0.6-0.3,1-0.8,1.4-1.4c0.3-0.6,0.5-1.3,0.5-2.1c0-0.8-0.2-1.5-0.5-2.1
		c-0.3-0.6-0.8-1.1-1.4-1.4c-0.6-0.3-1.2-0.5-2-0.5c-0.7,0-1.4,0.2-2,0.5c-0.6,0.3-1,0.8-1.4,1.4c-0.3,0.6-0.5,1.3-0.5,2.1
		c0,0.8,0.2,1.5,0.5,2.1c0.3,0.6,0.8,1.1,1.4,1.4c0.6,0.3,1.2,0.5,2,0.5C840.3,290.5,841,290.3,841.6,290z"/>
</g>
</svg>
